M48
; DRILL file {KiCad 7.0.2} date Sun Apr 30 21:26:13 2023
; FORMAT={-:-/ absolute / metric / decimal}
; #@! TF.CreationDate,2023-04-30T21:26:13+08:00
; #@! TF.GenerationSoftware,Kicad,Pcbnew,7.0.2
; #@! TF.FileFunction,MixedPlating,1,2
FMAT,2
METRIC
; #@! TA.AperFunction,Plated,PTH,ViaDrill
T1C1.000
; #@! TA.AperFunction,Plated,PTH,ViaDrill
T2C3.000
%
G90
G05
T1
X-91.984Y-10.546
X-91.984Y-13.086
X-91.984Y-15.626
X-91.984Y-18.166
X-91.984Y-20.706
X-91.984Y-23.246
X-91.984Y-25.786
X-91.984Y-28.326
X-91.984Y-30.866
X-91.984Y-33.406
X-91.984Y-35.946
X-91.984Y-38.486
X-91.984Y-41.026
X-91.984Y-43.566
X-91.984Y-46.106
X-91.984Y-48.646
X-91.984Y-51.186
X-91.984Y-53.726
X-91.984Y-56.266
X-91.984Y-58.806
X-91.984Y-61.346
X-91.984Y-63.886
X-91.984Y-66.426
X-91.984Y-68.966
X-91.984Y-71.506
X-91.984Y-74.046
X-91.984Y-76.586
X-91.984Y-79.126
X-91.984Y-81.666
X-91.984Y-84.206
X-91.984Y-86.746
X-91.984Y-89.286
X-89.444Y-10.546
X-89.444Y-13.086
X-89.444Y-15.626
X-89.444Y-18.166
X-89.444Y-20.706
X-89.444Y-23.246
X-89.444Y-25.786
X-89.444Y-28.326
X-89.444Y-30.866
X-89.444Y-33.406
X-89.444Y-35.946
X-89.444Y-38.486
X-89.444Y-41.026
X-89.444Y-43.566
X-89.444Y-46.106
X-89.444Y-48.646
X-89.444Y-51.186
X-89.444Y-53.726
X-89.444Y-56.266
X-89.444Y-58.806
X-89.444Y-61.346
X-89.444Y-63.886
X-89.444Y-66.426
X-89.444Y-68.966
X-89.444Y-71.506
X-89.444Y-74.046
X-89.444Y-76.586
X-89.444Y-79.126
X-89.444Y-81.666
X-89.444Y-84.206
X-89.444Y-86.746
X-89.444Y-89.286
X-86.904Y-10.546
X-86.904Y-13.086
X-86.904Y-15.626
X-86.904Y-18.166
X-86.904Y-20.706
X-86.904Y-23.246
X-86.904Y-25.786
X-86.904Y-28.326
X-86.904Y-30.866
X-86.904Y-33.406
X-86.904Y-35.946
X-86.904Y-38.486
X-86.904Y-41.026
X-86.904Y-43.566
X-86.904Y-46.106
X-86.904Y-48.646
X-86.904Y-51.186
X-86.904Y-53.726
X-86.904Y-56.266
X-86.904Y-58.806
X-86.904Y-61.346
X-86.904Y-63.886
X-86.904Y-66.426
X-86.904Y-68.966
X-86.904Y-71.506
X-86.904Y-74.046
X-86.904Y-76.586
X-86.904Y-79.126
X-86.904Y-81.666
X-86.904Y-84.206
X-86.904Y-86.746
X-86.904Y-89.286
X-84.364Y-2.926
X-84.364Y-5.466
X-84.364Y-8.006
X-84.364Y-10.546
X-84.364Y-13.086
X-84.364Y-15.626
X-84.364Y-18.166
X-84.364Y-20.706
X-84.364Y-23.246
X-84.364Y-25.786
X-84.364Y-28.326
X-84.364Y-30.866
X-84.364Y-33.406
X-84.364Y-35.946
X-84.364Y-38.486
X-84.364Y-41.026
X-84.364Y-43.566
X-84.364Y-46.106
X-84.364Y-48.646
X-84.364Y-51.186
X-84.364Y-53.726
X-84.364Y-56.266
X-84.364Y-58.806
X-84.364Y-61.346
X-84.364Y-63.886
X-84.364Y-66.426
X-84.364Y-68.966
X-84.364Y-71.506
X-84.364Y-74.046
X-84.364Y-76.586
X-84.364Y-79.126
X-84.364Y-81.666
X-84.364Y-84.206
X-84.364Y-86.746
X-84.364Y-89.286
X-84.364Y-91.826
X-84.364Y-94.366
X-84.364Y-96.906
X-81.824Y-2.926
X-81.824Y-5.466
X-81.824Y-8.006
X-81.824Y-10.546
X-81.824Y-13.086
X-81.824Y-15.626
X-81.824Y-18.166
X-81.824Y-20.706
X-81.824Y-23.246
X-81.824Y-25.786
X-81.824Y-28.326
X-81.824Y-30.866
X-81.824Y-33.406
X-81.824Y-35.946
X-81.824Y-38.486
X-81.824Y-41.026
X-81.824Y-43.566
X-81.824Y-46.106
X-81.824Y-48.646
X-81.824Y-51.186
X-81.824Y-53.726
X-81.824Y-56.266
X-81.824Y-58.806
X-81.824Y-61.346
X-81.824Y-63.886
X-81.824Y-66.426
X-81.824Y-68.966
X-81.824Y-71.506
X-81.824Y-74.046
X-81.824Y-76.586
X-81.824Y-79.126
X-81.824Y-81.666
X-81.824Y-84.206
X-81.824Y-86.746
X-81.824Y-89.286
X-81.824Y-91.826
X-81.824Y-94.366
X-81.824Y-96.906
X-79.284Y-2.926
X-79.284Y-5.466
X-79.284Y-8.006
X-79.284Y-10.546
X-79.284Y-13.086
X-79.284Y-15.626
X-79.284Y-18.166
X-79.284Y-20.706
X-79.284Y-23.246
X-79.284Y-25.786
X-79.284Y-28.326
X-79.284Y-30.866
X-79.284Y-33.406
X-79.284Y-35.946
X-79.284Y-38.486
X-79.284Y-41.026
X-79.284Y-43.566
X-79.284Y-46.106
X-79.284Y-48.646
X-79.284Y-51.186
X-79.284Y-53.726
X-79.284Y-56.266
X-79.284Y-58.806
X-79.284Y-61.346
X-79.284Y-63.886
X-79.284Y-66.426
X-79.284Y-68.966
X-79.284Y-71.506
X-79.284Y-74.046
X-79.284Y-76.586
X-79.284Y-79.126
X-79.284Y-81.666
X-79.284Y-84.206
X-79.284Y-86.746
X-79.284Y-89.286
X-79.284Y-91.826
X-79.284Y-94.366
X-79.284Y-96.906
X-76.744Y-2.926
X-76.744Y-5.466
X-76.744Y-8.006
X-76.744Y-10.546
X-76.744Y-13.086
X-76.744Y-15.626
X-76.744Y-18.166
X-76.744Y-20.706
X-76.744Y-23.246
X-76.744Y-25.786
X-76.744Y-28.326
X-76.744Y-30.866
X-76.744Y-33.406
X-76.744Y-35.946
X-76.744Y-38.486
X-76.744Y-41.026
X-76.744Y-43.566
X-76.744Y-46.106
X-76.744Y-48.646
X-76.744Y-51.186
X-76.744Y-53.726
X-76.744Y-56.266
X-76.744Y-58.806
X-76.744Y-61.346
X-76.744Y-63.886
X-76.744Y-66.426
X-76.744Y-68.966
X-76.744Y-71.506
X-76.744Y-74.046
X-76.744Y-76.586
X-76.744Y-79.126
X-76.744Y-81.666
X-76.744Y-84.206
X-76.744Y-86.746
X-76.744Y-89.286
X-76.744Y-91.826
X-76.744Y-94.366
X-76.744Y-96.906
X-74.204Y-2.926
X-74.204Y-5.466
X-74.204Y-8.006
X-74.204Y-10.546
X-74.204Y-13.086
X-74.204Y-15.626
X-74.204Y-18.166
X-74.204Y-20.706
X-74.204Y-23.246
X-74.204Y-25.786
X-74.204Y-28.326
X-74.204Y-30.866
X-74.204Y-33.406
X-74.204Y-35.946
X-74.204Y-38.486
X-74.204Y-41.026
X-74.204Y-43.566
X-74.204Y-46.106
X-74.204Y-48.646
X-74.204Y-51.186
X-74.204Y-53.726
X-74.204Y-56.266
X-74.204Y-58.806
X-74.204Y-61.346
X-74.204Y-63.886
X-74.204Y-66.426
X-74.204Y-68.966
X-74.204Y-71.506
X-74.204Y-74.046
X-74.204Y-76.586
X-74.204Y-79.126
X-74.204Y-81.666
X-74.204Y-84.206
X-74.204Y-86.746
X-74.204Y-89.286
X-74.204Y-91.826
X-74.204Y-94.366
X-74.204Y-96.906
X-71.664Y-2.926
X-71.664Y-5.466
X-71.664Y-8.006
X-71.664Y-10.546
X-71.664Y-13.086
X-71.664Y-15.626
X-71.664Y-18.166
X-71.664Y-20.706
X-71.664Y-23.246
X-71.664Y-25.786
X-71.664Y-28.326
X-71.664Y-30.866
X-71.664Y-33.406
X-71.664Y-35.946
X-71.664Y-38.486
X-71.664Y-41.026
X-71.664Y-43.566
X-71.664Y-46.106
X-71.664Y-48.646
X-71.664Y-51.186
X-71.664Y-53.726
X-71.664Y-56.266
X-71.664Y-58.806
X-71.664Y-61.346
X-71.664Y-63.886
X-71.664Y-66.426
X-71.664Y-68.966
X-71.664Y-71.506
X-71.664Y-74.046
X-71.664Y-76.586
X-71.664Y-79.126
X-71.664Y-81.666
X-71.664Y-84.206
X-71.664Y-86.746
X-71.664Y-89.286
X-71.664Y-91.826
X-71.664Y-94.366
X-71.664Y-96.906
X-69.124Y-2.926
X-69.124Y-5.466
X-69.124Y-8.006
X-69.124Y-10.546
X-69.124Y-13.086
X-69.124Y-15.626
X-69.124Y-18.166
X-69.124Y-20.706
X-69.124Y-23.246
X-69.124Y-25.786
X-69.124Y-28.326
X-69.124Y-30.866
X-69.124Y-33.406
X-69.124Y-35.946
X-69.124Y-38.486
X-69.124Y-41.026
X-69.124Y-43.566
X-69.124Y-46.106
X-69.124Y-48.646
X-69.124Y-51.186
X-69.124Y-53.726
X-69.124Y-56.266
X-69.124Y-58.806
X-69.124Y-61.346
X-69.124Y-63.886
X-69.124Y-66.426
X-69.124Y-68.966
X-69.124Y-71.506
X-69.124Y-74.046
X-69.124Y-76.586
X-69.124Y-79.126
X-69.124Y-81.666
X-69.124Y-84.206
X-69.124Y-86.746
X-69.124Y-89.286
X-69.124Y-91.826
X-69.124Y-94.366
X-69.124Y-96.906
X-66.584Y-2.926
X-66.584Y-5.466
X-66.584Y-8.006
X-66.584Y-10.546
X-66.584Y-13.086
X-66.584Y-15.626
X-66.584Y-18.166
X-66.584Y-20.706
X-66.584Y-23.246
X-66.584Y-25.786
X-66.584Y-28.326
X-66.584Y-30.866
X-66.584Y-33.406
X-66.584Y-35.946
X-66.584Y-38.486
X-66.584Y-41.026
X-66.584Y-43.566
X-66.584Y-46.106
X-66.584Y-48.646
X-66.584Y-51.186
X-66.584Y-53.726
X-66.584Y-56.266
X-66.584Y-58.806
X-66.584Y-61.346
X-66.584Y-63.886
X-66.584Y-66.426
X-66.584Y-68.966
X-66.584Y-71.506
X-66.584Y-74.046
X-66.584Y-76.586
X-66.584Y-79.126
X-66.584Y-81.666
X-66.584Y-84.206
X-66.584Y-86.746
X-66.584Y-89.286
X-66.584Y-91.826
X-66.584Y-94.366
X-66.584Y-96.906
X-64.044Y-2.926
X-64.044Y-5.466
X-64.044Y-8.006
X-64.044Y-10.546
X-64.044Y-13.086
X-64.044Y-15.626
X-64.044Y-18.166
X-64.044Y-20.706
X-64.044Y-23.246
X-64.044Y-25.786
X-64.044Y-28.326
X-64.044Y-30.866
X-64.044Y-33.406
X-64.044Y-35.946
X-64.044Y-38.486
X-64.044Y-41.026
X-64.044Y-43.566
X-64.044Y-46.106
X-64.044Y-48.646
X-64.044Y-51.186
X-64.044Y-53.726
X-64.044Y-56.266
X-64.044Y-58.806
X-64.044Y-61.346
X-64.044Y-63.886
X-64.044Y-66.426
X-64.044Y-68.966
X-64.044Y-71.506
X-64.044Y-74.046
X-64.044Y-76.586
X-64.044Y-79.126
X-64.044Y-81.666
X-64.044Y-84.206
X-64.044Y-86.746
X-64.044Y-89.286
X-64.044Y-91.826
X-64.044Y-94.366
X-64.044Y-96.906
X-61.504Y-2.926
X-61.504Y-5.466
X-61.504Y-8.006
X-61.504Y-10.546
X-61.504Y-13.086
X-61.504Y-15.626
X-61.504Y-18.166
X-61.504Y-20.706
X-61.504Y-23.246
X-61.504Y-25.786
X-61.504Y-28.326
X-61.504Y-30.866
X-61.504Y-33.406
X-61.504Y-35.946
X-61.504Y-38.486
X-61.504Y-41.026
X-61.504Y-43.566
X-61.504Y-46.106
X-61.504Y-48.646
X-61.504Y-51.186
X-61.504Y-53.726
X-61.504Y-56.266
X-61.504Y-58.806
X-61.504Y-61.346
X-61.504Y-63.886
X-61.504Y-66.426
X-61.504Y-68.966
X-61.504Y-71.506
X-61.504Y-74.046
X-61.504Y-76.586
X-61.504Y-79.126
X-61.504Y-81.666
X-61.504Y-84.206
X-61.504Y-86.746
X-61.504Y-89.286
X-61.504Y-91.826
X-61.504Y-94.366
X-61.504Y-96.906
X-58.964Y-2.926
X-58.964Y-5.466
X-58.964Y-8.006
X-58.964Y-10.546
X-58.964Y-13.086
X-58.964Y-15.626
X-58.964Y-18.166
X-58.964Y-20.706
X-58.964Y-23.246
X-58.964Y-25.786
X-58.964Y-28.326
X-58.964Y-30.866
X-58.964Y-33.406
X-58.964Y-35.946
X-58.964Y-38.486
X-58.964Y-41.026
X-58.964Y-43.566
X-58.964Y-46.106
X-58.964Y-48.646
X-58.964Y-51.186
X-58.964Y-53.726
X-58.964Y-56.266
X-58.964Y-58.806
X-58.964Y-61.346
X-58.964Y-63.886
X-58.964Y-66.426
X-58.964Y-68.966
X-58.964Y-71.506
X-58.964Y-74.046
X-58.964Y-76.586
X-58.964Y-79.126
X-58.964Y-81.666
X-58.964Y-84.206
X-58.964Y-86.746
X-58.964Y-89.286
X-58.964Y-91.826
X-58.964Y-94.366
X-58.964Y-96.906
X-56.424Y-2.926
X-56.424Y-5.466
X-56.424Y-8.006
X-56.424Y-10.546
X-56.424Y-13.086
X-56.424Y-15.626
X-56.424Y-18.166
X-56.424Y-20.706
X-56.424Y-23.246
X-56.424Y-25.786
X-56.424Y-28.326
X-56.424Y-30.866
X-56.424Y-33.406
X-56.424Y-35.946
X-56.424Y-38.486
X-56.424Y-41.026
X-56.424Y-43.566
X-56.424Y-46.106
X-56.424Y-48.646
X-56.424Y-51.186
X-56.424Y-53.726
X-56.424Y-56.266
X-56.424Y-58.806
X-56.424Y-61.346
X-56.424Y-63.886
X-56.424Y-66.426
X-56.424Y-68.966
X-56.424Y-71.506
X-56.424Y-74.046
X-56.424Y-76.586
X-56.424Y-79.126
X-56.424Y-81.666
X-56.424Y-84.206
X-56.424Y-86.746
X-56.424Y-89.286
X-56.424Y-91.826
X-53.884Y-2.926
X-53.884Y-5.466
X-53.884Y-8.006
X-53.884Y-10.546
X-53.884Y-13.086
X-53.884Y-15.626
X-53.884Y-18.166
X-53.884Y-20.706
X-53.884Y-23.246
X-53.884Y-25.786
X-53.884Y-28.326
X-53.884Y-30.866
X-53.884Y-33.406
X-53.884Y-35.946
X-53.884Y-38.486
X-53.884Y-41.026
X-53.884Y-43.566
X-53.884Y-46.106
X-53.884Y-48.646
X-53.884Y-51.186
X-53.884Y-53.726
X-53.884Y-56.266
X-53.884Y-58.806
X-53.884Y-61.346
X-53.884Y-63.886
X-53.884Y-66.426
X-53.884Y-68.966
X-53.884Y-71.506
X-53.884Y-74.046
X-53.884Y-76.586
X-53.884Y-79.126
X-53.884Y-81.666
X-53.884Y-84.206
X-53.884Y-86.746
X-53.884Y-89.286
X-53.884Y-91.826
X-51.344Y-2.926
X-51.344Y-5.466
X-51.344Y-8.006
X-51.344Y-10.546
X-51.344Y-13.086
X-51.344Y-15.626
X-51.344Y-18.166
X-51.344Y-20.706
X-51.344Y-23.246
X-51.344Y-25.786
X-51.344Y-28.326
X-51.344Y-30.866
X-51.344Y-33.406
X-51.344Y-35.946
X-51.344Y-38.486
X-51.344Y-41.026
X-51.344Y-43.566
X-51.344Y-46.106
X-51.344Y-48.646
X-51.344Y-51.186
X-51.344Y-53.726
X-51.344Y-56.266
X-51.344Y-58.806
X-51.344Y-61.346
X-51.344Y-63.886
X-51.344Y-66.426
X-51.344Y-68.966
X-51.344Y-71.506
X-51.344Y-74.046
X-51.344Y-76.586
X-51.344Y-79.126
X-51.344Y-81.666
X-51.344Y-84.206
X-51.344Y-86.746
X-51.344Y-89.286
X-51.344Y-91.826
X-48.804Y-2.926
X-48.804Y-5.466
X-48.804Y-8.006
X-48.804Y-10.546
X-48.804Y-13.086
X-48.804Y-15.626
X-48.804Y-18.166
X-48.804Y-20.706
X-48.804Y-23.246
X-48.804Y-25.786
X-48.804Y-28.326
X-48.804Y-30.866
X-48.804Y-33.406
X-48.804Y-35.946
X-48.804Y-38.486
X-48.804Y-41.026
X-48.804Y-43.566
X-48.804Y-46.106
X-48.804Y-48.646
X-48.804Y-51.186
X-48.804Y-53.726
X-48.804Y-56.266
X-48.804Y-58.806
X-48.804Y-61.346
X-48.804Y-63.886
X-48.804Y-66.426
X-48.804Y-68.966
X-48.804Y-71.506
X-48.804Y-74.046
X-48.804Y-76.586
X-48.804Y-79.126
X-48.804Y-81.666
X-48.804Y-84.206
X-48.804Y-86.746
X-48.804Y-89.286
X-48.804Y-91.826
X-46.264Y-2.926
X-46.264Y-5.466
X-46.264Y-8.006
X-46.264Y-10.546
X-46.264Y-13.086
X-46.264Y-15.626
X-46.264Y-18.166
X-46.264Y-20.706
X-46.264Y-23.246
X-46.264Y-25.786
X-46.264Y-28.326
X-46.264Y-30.866
X-46.264Y-33.406
X-46.264Y-35.946
X-46.264Y-38.486
X-46.264Y-41.026
X-46.264Y-43.566
X-46.264Y-46.106
X-46.264Y-48.646
X-46.264Y-51.186
X-46.264Y-53.726
X-46.264Y-56.266
X-46.264Y-58.806
X-46.264Y-61.346
X-46.264Y-63.886
X-46.264Y-66.426
X-46.264Y-68.966
X-46.264Y-71.506
X-46.264Y-74.046
X-46.264Y-76.586
X-46.264Y-79.126
X-46.264Y-81.666
X-46.264Y-84.206
X-46.264Y-86.746
X-46.264Y-89.286
X-46.264Y-91.826
X-43.724Y-2.926
X-43.724Y-5.466
X-43.724Y-8.006
X-43.724Y-10.546
X-43.724Y-13.086
X-43.724Y-15.626
X-43.724Y-18.166
X-43.724Y-20.706
X-43.724Y-23.246
X-43.724Y-25.786
X-43.724Y-28.326
X-43.724Y-30.866
X-43.724Y-33.406
X-43.724Y-35.946
X-43.724Y-38.486
X-43.724Y-41.026
X-43.724Y-43.566
X-43.724Y-46.106
X-43.724Y-48.646
X-43.724Y-51.186
X-43.724Y-53.726
X-43.724Y-56.266
X-43.724Y-58.806
X-43.724Y-61.346
X-43.724Y-63.886
X-43.724Y-66.426
X-43.724Y-68.966
X-43.724Y-71.506
X-43.724Y-74.046
X-43.724Y-76.586
X-43.724Y-79.126
X-43.724Y-81.666
X-43.724Y-84.206
X-43.724Y-86.746
X-43.724Y-89.286
X-43.724Y-91.826
X-41.184Y-2.926
X-41.184Y-5.466
X-41.184Y-8.006
X-41.184Y-10.546
X-41.184Y-13.086
X-41.184Y-15.626
X-41.184Y-18.166
X-41.184Y-20.706
X-41.184Y-23.246
X-41.184Y-25.786
X-41.184Y-28.326
X-41.184Y-30.866
X-41.184Y-33.406
X-41.184Y-35.946
X-41.184Y-38.486
X-41.184Y-41.026
X-41.184Y-43.566
X-41.184Y-46.106
X-41.184Y-48.646
X-41.184Y-51.186
X-41.184Y-53.726
X-41.184Y-56.266
X-41.184Y-58.806
X-41.184Y-61.346
X-41.184Y-63.886
X-41.184Y-66.426
X-41.184Y-68.966
X-41.184Y-71.506
X-41.184Y-74.046
X-41.184Y-76.586
X-41.184Y-79.126
X-41.184Y-81.666
X-41.184Y-84.206
X-41.184Y-86.746
X-41.184Y-89.286
X-41.184Y-91.826
X-38.644Y-2.926
X-38.644Y-5.466
X-38.644Y-8.006
X-38.644Y-10.546
X-38.644Y-13.086
X-38.644Y-15.626
X-38.644Y-18.166
X-38.644Y-20.706
X-38.644Y-23.246
X-38.644Y-25.786
X-38.644Y-28.326
X-38.644Y-30.866
X-38.644Y-33.406
X-38.644Y-35.946
X-38.644Y-38.486
X-38.644Y-41.026
X-38.644Y-43.566
X-38.644Y-46.106
X-38.644Y-48.646
X-38.644Y-51.186
X-38.644Y-53.726
X-38.644Y-56.266
X-38.644Y-58.806
X-38.644Y-61.346
X-38.644Y-63.886
X-38.644Y-66.426
X-38.644Y-68.966
X-38.644Y-71.506
X-38.644Y-74.046
X-38.644Y-76.586
X-38.644Y-79.126
X-38.644Y-81.666
X-38.644Y-84.206
X-38.644Y-86.746
X-38.644Y-89.286
X-38.644Y-91.826
X-36.104Y-2.926
X-36.104Y-5.466
X-36.104Y-8.006
X-36.104Y-10.546
X-36.104Y-13.086
X-36.104Y-15.626
X-36.104Y-18.166
X-36.104Y-20.706
X-36.104Y-23.246
X-36.104Y-25.786
X-36.104Y-28.326
X-36.104Y-30.866
X-36.104Y-33.406
X-36.104Y-35.946
X-36.104Y-38.486
X-36.104Y-41.026
X-36.104Y-43.566
X-36.104Y-46.106
X-36.104Y-48.646
X-36.104Y-51.186
X-36.104Y-53.726
X-36.104Y-56.266
X-36.104Y-58.806
X-36.104Y-61.346
X-36.104Y-63.886
X-36.104Y-66.426
X-36.104Y-68.966
X-36.104Y-71.506
X-36.104Y-74.046
X-36.104Y-76.586
X-36.104Y-79.126
X-36.104Y-81.666
X-36.104Y-84.206
X-36.104Y-86.746
X-36.104Y-89.286
X-36.104Y-91.826
X-33.564Y-2.926
X-33.564Y-5.466
X-33.564Y-8.006
X-33.564Y-10.546
X-33.564Y-13.086
X-33.564Y-15.626
X-33.564Y-18.166
X-33.564Y-20.706
X-33.564Y-23.246
X-33.564Y-25.786
X-33.564Y-28.326
X-33.564Y-30.866
X-33.564Y-33.406
X-33.564Y-35.946
X-33.564Y-38.486
X-33.564Y-41.026
X-33.564Y-43.566
X-33.564Y-46.106
X-33.564Y-48.646
X-33.564Y-51.186
X-33.564Y-53.726
X-33.564Y-56.266
X-33.564Y-58.806
X-33.564Y-61.346
X-33.564Y-63.886
X-33.564Y-66.426
X-33.564Y-68.966
X-33.564Y-71.506
X-33.564Y-74.046
X-33.564Y-76.586
X-33.564Y-79.126
X-33.564Y-81.666
X-33.564Y-84.206
X-33.564Y-86.746
X-33.564Y-89.286
X-33.564Y-91.826
X-31.024Y-2.926
X-31.024Y-5.466
X-31.024Y-8.006
X-31.024Y-10.546
X-31.024Y-13.086
X-31.024Y-15.626
X-31.024Y-18.166
X-31.024Y-20.706
X-31.024Y-23.246
X-31.024Y-25.786
X-31.024Y-28.326
X-31.024Y-30.866
X-31.024Y-33.406
X-31.024Y-35.946
X-31.024Y-38.486
X-31.024Y-41.026
X-31.024Y-43.566
X-31.024Y-46.106
X-31.024Y-48.646
X-31.024Y-51.186
X-31.024Y-53.726
X-31.024Y-56.266
X-31.024Y-58.806
X-31.024Y-61.346
X-31.024Y-63.886
X-31.024Y-66.426
X-31.024Y-68.966
X-31.024Y-71.506
X-31.024Y-74.046
X-31.024Y-76.586
X-31.024Y-79.126
X-31.024Y-81.666
X-31.024Y-84.206
X-31.024Y-86.746
X-31.024Y-89.286
X-31.024Y-91.826
X-31.024Y-94.366
X-31.024Y-96.906
X-28.484Y-2.926
X-28.484Y-5.466
X-28.484Y-8.006
X-28.484Y-10.546
X-28.484Y-13.086
X-28.484Y-15.626
X-28.484Y-18.166
X-28.484Y-20.706
X-28.484Y-23.246
X-28.484Y-25.786
X-28.484Y-28.326
X-28.484Y-30.866
X-28.484Y-33.406
X-28.484Y-35.946
X-28.484Y-38.486
X-28.484Y-41.026
X-28.484Y-43.566
X-28.484Y-46.106
X-28.484Y-48.646
X-28.484Y-51.186
X-28.484Y-53.726
X-28.484Y-56.266
X-28.484Y-58.806
X-28.484Y-61.346
X-28.484Y-63.886
X-28.484Y-66.426
X-28.484Y-68.966
X-28.484Y-71.506
X-28.484Y-74.046
X-28.484Y-76.586
X-28.484Y-79.126
X-28.484Y-81.666
X-28.484Y-84.206
X-28.484Y-86.746
X-28.484Y-89.286
X-28.484Y-91.826
X-28.484Y-94.366
X-28.484Y-96.906
X-25.944Y-2.926
X-25.944Y-5.466
X-25.944Y-8.006
X-25.944Y-10.546
X-25.944Y-13.086
X-25.944Y-15.626
X-25.944Y-18.166
X-25.944Y-20.706
X-25.944Y-23.246
X-25.944Y-25.786
X-25.944Y-28.326
X-25.944Y-30.866
X-25.944Y-33.406
X-25.944Y-35.946
X-25.944Y-38.486
X-25.944Y-41.026
X-25.944Y-43.566
X-25.944Y-46.106
X-25.944Y-48.646
X-25.944Y-51.186
X-25.944Y-53.726
X-25.944Y-56.266
X-25.944Y-58.806
X-25.944Y-61.346
X-25.944Y-63.886
X-25.944Y-66.426
X-25.944Y-68.966
X-25.944Y-71.506
X-25.944Y-74.046
X-25.944Y-76.586
X-25.944Y-79.126
X-25.944Y-81.666
X-25.944Y-84.206
X-25.944Y-86.746
X-25.944Y-89.286
X-25.944Y-91.826
X-25.944Y-94.366
X-25.944Y-96.906
X-23.404Y-2.926
X-23.404Y-5.466
X-23.404Y-8.006
X-23.404Y-10.546
X-23.404Y-13.086
X-23.404Y-15.626
X-23.404Y-18.166
X-23.404Y-20.706
X-23.404Y-23.246
X-23.404Y-25.786
X-23.404Y-28.326
X-23.404Y-30.866
X-23.404Y-33.406
X-23.404Y-35.946
X-23.404Y-38.486
X-23.404Y-41.026
X-23.404Y-43.566
X-23.404Y-46.106
X-23.404Y-48.646
X-23.404Y-51.186
X-23.404Y-53.726
X-23.404Y-56.266
X-23.404Y-58.806
X-23.404Y-61.346
X-23.404Y-63.886
X-23.404Y-66.426
X-23.404Y-68.966
X-23.404Y-71.506
X-23.404Y-74.046
X-23.404Y-76.586
X-23.404Y-79.126
X-23.404Y-81.666
X-23.404Y-84.206
X-23.404Y-86.746
X-23.404Y-89.286
X-23.404Y-91.826
X-23.404Y-94.366
X-23.404Y-96.906
X-20.864Y-2.926
X-20.864Y-5.466
X-20.864Y-8.006
X-20.864Y-10.546
X-20.864Y-13.086
X-20.864Y-15.626
X-20.864Y-18.166
X-20.864Y-20.706
X-20.864Y-23.246
X-20.864Y-25.786
X-20.864Y-28.326
X-20.864Y-30.866
X-20.864Y-33.406
X-20.864Y-35.946
X-20.864Y-38.486
X-20.864Y-41.026
X-20.864Y-43.566
X-20.864Y-46.106
X-20.864Y-48.646
X-20.864Y-51.186
X-20.864Y-53.726
X-20.864Y-56.266
X-20.864Y-58.806
X-20.864Y-61.346
X-20.864Y-63.886
X-20.864Y-66.426
X-20.864Y-68.966
X-20.864Y-71.506
X-20.864Y-74.046
X-20.864Y-76.586
X-20.864Y-79.126
X-20.864Y-81.666
X-20.864Y-84.206
X-20.864Y-86.746
X-20.864Y-89.286
X-20.864Y-91.826
X-20.864Y-94.366
X-20.864Y-96.906
X-18.324Y-2.926
X-18.324Y-5.466
X-18.324Y-8.006
X-18.324Y-10.546
X-18.324Y-13.086
X-18.324Y-15.626
X-18.324Y-18.166
X-18.324Y-20.706
X-18.324Y-23.246
X-18.324Y-25.786
X-18.324Y-28.326
X-18.324Y-30.866
X-18.324Y-33.406
X-18.324Y-35.946
X-18.324Y-38.486
X-18.324Y-41.026
X-18.324Y-43.566
X-18.324Y-46.106
X-18.324Y-48.646
X-18.324Y-51.186
X-18.324Y-53.726
X-18.324Y-56.266
X-18.324Y-58.806
X-18.324Y-61.346
X-18.324Y-63.886
X-18.324Y-66.426
X-18.324Y-68.966
X-18.324Y-71.506
X-18.324Y-74.046
X-18.324Y-76.586
X-18.324Y-79.126
X-18.324Y-81.666
X-18.324Y-84.206
X-18.324Y-86.746
X-18.324Y-89.286
X-18.324Y-91.826
X-18.324Y-94.366
X-18.324Y-96.906
X-15.784Y-2.926
X-15.784Y-5.466
X-15.784Y-8.006
X-15.784Y-10.546
X-15.784Y-13.086
X-15.784Y-15.626
X-15.784Y-18.166
X-15.784Y-20.706
X-15.784Y-23.246
X-15.784Y-25.786
X-15.784Y-28.326
X-15.784Y-30.866
X-15.784Y-33.406
X-15.784Y-35.946
X-15.784Y-38.486
X-15.784Y-41.026
X-15.784Y-43.566
X-15.784Y-46.106
X-15.784Y-48.646
X-15.784Y-51.186
X-15.784Y-53.726
X-15.784Y-56.266
X-15.784Y-58.806
X-15.784Y-61.346
X-15.784Y-63.886
X-15.784Y-66.426
X-15.784Y-68.966
X-15.784Y-71.506
X-15.784Y-74.046
X-15.784Y-76.586
X-15.784Y-79.126
X-15.784Y-81.666
X-15.784Y-84.206
X-15.784Y-86.746
X-15.784Y-89.286
X-15.784Y-91.826
X-15.784Y-94.366
X-15.784Y-96.906
X-13.244Y-2.926
X-13.244Y-5.466
X-13.244Y-8.006
X-13.244Y-10.546
X-13.244Y-13.086
X-13.244Y-15.626
X-13.244Y-18.166
X-13.244Y-20.706
X-13.244Y-23.246
X-13.244Y-25.786
X-13.244Y-28.326
X-13.244Y-30.866
X-13.244Y-33.406
X-13.244Y-35.946
X-13.244Y-38.486
X-13.244Y-41.026
X-13.244Y-43.566
X-13.244Y-46.106
X-13.244Y-48.646
X-13.244Y-51.186
X-13.244Y-53.726
X-13.244Y-56.266
X-13.244Y-58.806
X-13.244Y-61.346
X-13.244Y-63.886
X-13.244Y-66.426
X-13.244Y-68.966
X-13.244Y-71.506
X-13.244Y-74.046
X-13.244Y-76.586
X-13.244Y-79.126
X-13.244Y-81.666
X-13.244Y-84.206
X-13.244Y-86.746
X-13.244Y-89.286
X-13.244Y-91.826
X-13.244Y-94.366
X-13.244Y-96.906
X-10.704Y-2.926
X-10.704Y-5.466
X-10.704Y-8.006
X-10.704Y-10.546
X-10.704Y-13.086
X-10.704Y-15.626
X-10.704Y-18.166
X-10.704Y-20.706
X-10.704Y-23.246
X-10.704Y-25.786
X-10.704Y-28.326
X-10.704Y-30.866
X-10.704Y-33.406
X-10.704Y-35.946
X-10.704Y-38.486
X-10.704Y-41.026
X-10.704Y-43.566
X-10.704Y-46.106
X-10.704Y-48.646
X-10.704Y-51.186
X-10.704Y-53.726
X-10.704Y-56.266
X-10.704Y-58.806
X-10.704Y-61.346
X-10.704Y-63.886
X-10.704Y-66.426
X-10.704Y-68.966
X-10.704Y-71.506
X-10.704Y-74.046
X-10.704Y-76.586
X-10.704Y-79.126
X-10.704Y-81.666
X-10.704Y-84.206
X-10.704Y-86.746
X-10.704Y-89.286
X-10.704Y-91.826
X-10.704Y-94.366
X-10.704Y-96.906
X-8.164Y-2.926
X-8.164Y-5.466
X-8.164Y-8.006
X-8.164Y-10.546
X-8.164Y-13.086
X-8.164Y-15.626
X-8.164Y-18.166
X-8.164Y-20.706
X-8.164Y-23.246
X-8.164Y-25.786
X-8.164Y-28.326
X-8.164Y-30.866
X-8.164Y-33.406
X-8.164Y-35.946
X-8.164Y-38.486
X-8.164Y-41.026
X-8.164Y-43.566
X-8.164Y-46.106
X-8.164Y-48.646
X-8.164Y-51.186
X-8.164Y-53.726
X-8.164Y-56.266
X-8.164Y-58.806
X-8.164Y-61.346
X-8.164Y-63.886
X-8.164Y-66.426
X-8.164Y-68.966
X-8.164Y-71.506
X-8.164Y-74.046
X-8.164Y-76.586
X-8.164Y-79.126
X-8.164Y-81.666
X-8.164Y-84.206
X-8.164Y-86.746
X-8.164Y-89.286
X-8.164Y-91.826
X-8.164Y-94.366
X-8.164Y-96.906
X-5.624Y-2.926
X-5.624Y-5.466
X-5.624Y-8.006
X-5.624Y-10.546
X-5.624Y-13.086
X-5.624Y-15.626
X-5.624Y-18.166
X-5.624Y-20.706
X-5.624Y-23.246
X-5.624Y-25.786
X-5.624Y-28.326
X-5.624Y-30.866
X-5.624Y-33.406
X-5.624Y-35.946
X-5.624Y-38.486
X-5.624Y-41.026
X-5.624Y-43.566
X-5.624Y-46.106
X-5.624Y-48.646
X-5.624Y-51.186
X-5.624Y-53.726
X-5.624Y-56.266
X-5.624Y-58.806
X-5.624Y-61.346
X-5.624Y-63.886
X-5.624Y-66.426
X-5.624Y-68.966
X-5.624Y-71.506
X-5.624Y-74.046
X-5.624Y-76.586
X-5.624Y-79.126
X-5.624Y-81.666
X-5.624Y-84.206
X-5.624Y-86.746
X-5.624Y-89.286
X-5.624Y-91.826
X-5.624Y-94.366
X-5.624Y-96.906
X-3.084Y-10.546
X-3.084Y-13.086
X-3.084Y-15.626
X-3.084Y-18.166
X-3.084Y-20.706
X-3.084Y-23.246
X-3.084Y-25.786
X-3.084Y-28.326
X-3.084Y-30.866
X-3.084Y-33.406
X-3.084Y-35.946
X-3.084Y-38.486
X-3.084Y-41.026
X-3.084Y-43.566
X-3.084Y-46.106
X-3.084Y-48.646
X-3.084Y-51.186
X-3.084Y-53.726
X-3.084Y-56.266
X-3.084Y-58.806
X-3.084Y-61.346
X-3.084Y-63.886
X-3.084Y-66.426
X-3.084Y-68.966
X-3.084Y-71.506
X-3.084Y-74.046
X-3.084Y-76.586
X-3.084Y-79.126
X-3.084Y-81.666
X-3.084Y-84.206
X-3.084Y-86.746
X-3.084Y-89.286
X-0.544Y-10.546
X-0.544Y-13.086
X-0.544Y-15.626
X-0.544Y-18.166
X-0.544Y-20.706
X-0.544Y-23.246
X-0.544Y-25.786
X-0.544Y-28.326
X-0.544Y-30.866
X-0.544Y-33.406
X-0.544Y-35.946
X-0.544Y-38.486
X-0.544Y-41.026
X-0.544Y-43.566
X-0.544Y-46.106
X-0.544Y-48.646
X-0.544Y-51.186
X-0.544Y-53.726
X-0.544Y-56.266
X-0.544Y-58.806
X-0.544Y-61.346
X-0.544Y-63.886
X-0.544Y-66.426
X-0.544Y-68.966
X-0.544Y-71.506
X-0.544Y-74.046
X-0.544Y-76.586
X-0.544Y-79.126
X-0.544Y-81.666
X-0.544Y-84.206
X-0.544Y-86.746
X-0.544Y-89.286
X1.996Y-10.546
X1.996Y-13.086
X1.996Y-15.626
X1.996Y-18.166
X1.996Y-20.706
X1.996Y-23.246
X1.996Y-25.786
X1.996Y-28.326
X1.996Y-30.866
X1.996Y-33.406
X1.996Y-35.946
X1.996Y-38.486
X1.996Y-41.026
X1.996Y-43.566
X1.996Y-46.106
X1.996Y-48.646
X1.996Y-51.186
X1.996Y-53.726
X1.996Y-56.266
X1.996Y-58.806
X1.996Y-61.346
X1.996Y-63.886
X1.996Y-66.426
X1.996Y-68.966
X1.996Y-71.506
X1.996Y-74.046
X1.996Y-76.586
X1.996Y-79.126
X1.996Y-81.666
X1.996Y-84.206
X1.996Y-86.746
X1.996Y-89.286
T2
X-89.444Y-5.466
X-89.444Y-94.366
X-0.544Y-5.466
X-0.544Y-94.366
T0
M30
