%TF.GenerationSoftware,KiCad,Pcbnew,7.0.2*%
%TF.CreationDate,2023-04-30T21:12:50+08:00*%
%TF.ProjectId,UINIO-Peg-Board,55494e49-4f2d-4506-9567-2d426f617264,rev?*%
%TF.SameCoordinates,PXb951680PY32311f0*%
%TF.FileFunction,Legend,Top*%
%TF.FilePolarity,Positive*%
%FSLAX46Y46*%
G04 Gerber Fmt 4.6, Leading zero omitted, Abs format (unit mm)*
G04 Created by KiCad (PCBNEW 7.0.2) date 2023-04-30 21:12:50*
%MOMM*%
%LPD*%
G01*
G04 APERTURE LIST*
%ADD10C,0.200000*%
%ADD11C,2.000000*%
%ADD12C,5.000000*%
G04 APERTURE END LIST*
D10*
G36*
X-54431075Y-96386252D02*
G01*
X-54431414Y-96421121D01*
X-54432429Y-96455478D01*
X-54434121Y-96489322D01*
X-54436490Y-96522654D01*
X-54439537Y-96555474D01*
X-54443260Y-96587781D01*
X-54447660Y-96619576D01*
X-54452736Y-96650859D01*
X-54458490Y-96681629D01*
X-54464921Y-96711887D01*
X-54472029Y-96741633D01*
X-54479813Y-96770866D01*
X-54488275Y-96799587D01*
X-54497413Y-96827795D01*
X-54507228Y-96855492D01*
X-54528889Y-96909347D01*
X-54553258Y-96961154D01*
X-54580335Y-97010910D01*
X-54610119Y-97058618D01*
X-54642611Y-97104276D01*
X-54677811Y-97147885D01*
X-54715718Y-97189444D01*
X-54756333Y-97228954D01*
X-54777656Y-97247941D01*
X-54822169Y-97284142D01*
X-54869247Y-97318008D01*
X-54918889Y-97349538D01*
X-54944672Y-97364428D01*
X-54971096Y-97378733D01*
X-54998161Y-97392454D01*
X-55025868Y-97405592D01*
X-55054215Y-97418146D01*
X-55083204Y-97430116D01*
X-55112833Y-97441501D01*
X-55143104Y-97452303D01*
X-55174016Y-97462522D01*
X-55205569Y-97472156D01*
X-55237763Y-97481206D01*
X-55270599Y-97489673D01*
X-55304075Y-97497555D01*
X-55338193Y-97504854D01*
X-55372952Y-97511569D01*
X-55408352Y-97517699D01*
X-55444393Y-97523246D01*
X-55481075Y-97528210D01*
X-55518399Y-97532589D01*
X-55556363Y-97536384D01*
X-55594969Y-97539595D01*
X-55634215Y-97542223D01*
X-55674103Y-97544267D01*
X-55714632Y-97545726D01*
X-55755803Y-97546602D01*
X-55797614Y-97546894D01*
X-55839425Y-97546602D01*
X-55880593Y-97545726D01*
X-55921118Y-97544267D01*
X-55961001Y-97542223D01*
X-56000241Y-97539595D01*
X-56038839Y-97536384D01*
X-56076794Y-97532589D01*
X-56114107Y-97528210D01*
X-56150777Y-97523246D01*
X-56186804Y-97517699D01*
X-56222189Y-97511569D01*
X-56256932Y-97504854D01*
X-56291031Y-97497555D01*
X-56324489Y-97489673D01*
X-56357303Y-97481206D01*
X-56389475Y-97472156D01*
X-56421005Y-97462522D01*
X-56451892Y-97452303D01*
X-56482136Y-97441501D01*
X-56511738Y-97430116D01*
X-56540697Y-97418146D01*
X-56569014Y-97405592D01*
X-56596688Y-97392454D01*
X-56623720Y-97378733D01*
X-56650108Y-97364428D01*
X-56675855Y-97349538D01*
X-56700959Y-97334065D01*
X-56749239Y-97301367D01*
X-56794948Y-97266334D01*
X-56816839Y-97247941D01*
X-56858631Y-97209464D01*
X-56897726Y-97168955D01*
X-56934125Y-97126414D01*
X-56967827Y-97081840D01*
X-56998834Y-97035235D01*
X-57027144Y-96986597D01*
X-57052758Y-96935927D01*
X-57075676Y-96883225D01*
X-57095897Y-96828491D01*
X-57104997Y-96800362D01*
X-57113423Y-96771725D01*
X-57121174Y-96742579D01*
X-57128252Y-96712926D01*
X-57134655Y-96682765D01*
X-57140385Y-96652095D01*
X-57145440Y-96620918D01*
X-57149821Y-96589232D01*
X-57153529Y-96557039D01*
X-57156562Y-96524337D01*
X-57158921Y-96491127D01*
X-57160606Y-96457410D01*
X-57161617Y-96423184D01*
X-57161954Y-96388450D01*
X-57161954Y-94451849D01*
X-56366211Y-94451849D01*
X-56366211Y-96355478D01*
X-56365687Y-96394507D01*
X-56364116Y-96432277D01*
X-56361497Y-96468787D01*
X-56357831Y-96504038D01*
X-56353117Y-96538030D01*
X-56347355Y-96570762D01*
X-56340546Y-96602235D01*
X-56332689Y-96632449D01*
X-56323785Y-96661403D01*
X-56313833Y-96689098D01*
X-56296940Y-96728279D01*
X-56277691Y-96764626D01*
X-56256085Y-96798140D01*
X-56232122Y-96828820D01*
X-56205518Y-96856581D01*
X-56175991Y-96881611D01*
X-56143540Y-96903911D01*
X-56108165Y-96923480D01*
X-56069866Y-96940318D01*
X-56028644Y-96954426D01*
X-55999538Y-96962314D01*
X-55969132Y-96968989D01*
X-55937428Y-96974450D01*
X-55904423Y-96978697D01*
X-55870120Y-96981731D01*
X-55834517Y-96983552D01*
X-55797614Y-96984159D01*
X-55761143Y-96983575D01*
X-55725921Y-96981823D01*
X-55691946Y-96978904D01*
X-55659220Y-96974816D01*
X-55627741Y-96969561D01*
X-55597510Y-96963138D01*
X-55568527Y-96955548D01*
X-55527393Y-96941972D01*
X-55489066Y-96925769D01*
X-55453548Y-96906939D01*
X-55420837Y-96885481D01*
X-55390934Y-96861395D01*
X-55363839Y-96834682D01*
X-55339352Y-96805071D01*
X-55317273Y-96772291D01*
X-55297603Y-96736343D01*
X-55280342Y-96697227D01*
X-55270172Y-96669389D01*
X-55261073Y-96640143D01*
X-55253045Y-96609488D01*
X-55246087Y-96577426D01*
X-55240199Y-96543955D01*
X-55235382Y-96509076D01*
X-55231635Y-96472789D01*
X-55228959Y-96435093D01*
X-55227354Y-96395989D01*
X-55226818Y-96355478D01*
X-55226818Y-94451849D01*
X-54431075Y-94451849D01*
X-54431075Y-96386252D01*
G37*
G36*
X-53008849Y-97500000D02*
G01*
X-53751103Y-97500000D01*
X-53751103Y-95202163D01*
X-53008849Y-95202163D01*
X-53008849Y-97500000D01*
G37*
G36*
X-52988333Y-94827006D02*
G01*
X-53771619Y-94827006D01*
X-53771619Y-94264270D01*
X-52988333Y-94264270D01*
X-52988333Y-94827006D01*
G37*
G36*
X-49992938Y-97500000D02*
G01*
X-50738856Y-97500000D01*
X-50738856Y-96349616D01*
X-50739085Y-96314639D01*
X-50739772Y-96279686D01*
X-50740917Y-96244755D01*
X-50742520Y-96209848D01*
X-50744580Y-96174963D01*
X-50747099Y-96140101D01*
X-50750076Y-96105262D01*
X-50753511Y-96070446D01*
X-50757323Y-96036615D01*
X-50761800Y-96005096D01*
X-50766940Y-95975890D01*
X-50774300Y-95942634D01*
X-50782697Y-95912992D01*
X-50794143Y-95882192D01*
X-50802603Y-95864549D01*
X-50819356Y-95837416D01*
X-50838839Y-95813167D01*
X-50861053Y-95791803D01*
X-50885997Y-95773325D01*
X-50913672Y-95757731D01*
X-50923504Y-95753175D01*
X-50955395Y-95741222D01*
X-50985355Y-95733151D01*
X-51018392Y-95726796D01*
X-51054506Y-95722160D01*
X-51085613Y-95719687D01*
X-51118688Y-95718313D01*
X-51144788Y-95718004D01*
X-51176458Y-95718809D01*
X-51208272Y-95721224D01*
X-51240228Y-95725249D01*
X-51272328Y-95730884D01*
X-51304571Y-95738129D01*
X-51336957Y-95746984D01*
X-51349952Y-95750976D01*
X-51382896Y-95762246D01*
X-51416699Y-95775448D01*
X-51444359Y-95787401D01*
X-51472569Y-95800590D01*
X-51501329Y-95815016D01*
X-51530638Y-95830678D01*
X-51560497Y-95847576D01*
X-51575632Y-95856489D01*
X-51575632Y-97500000D01*
X-52317886Y-97500000D01*
X-52317886Y-95202163D01*
X-51575632Y-95202163D01*
X-51575632Y-95429309D01*
X-51550963Y-95410175D01*
X-51526413Y-95391607D01*
X-51501984Y-95373607D01*
X-51477675Y-95356173D01*
X-51453487Y-95339306D01*
X-51417429Y-95315068D01*
X-51381642Y-95292105D01*
X-51346126Y-95270417D01*
X-51310879Y-95250005D01*
X-51275904Y-95230867D01*
X-51241199Y-95213005D01*
X-51206764Y-95196418D01*
X-51195346Y-95191172D01*
X-51160782Y-95176375D01*
X-51125511Y-95163033D01*
X-51089530Y-95151147D01*
X-51052842Y-95140717D01*
X-51015445Y-95131741D01*
X-50977339Y-95124222D01*
X-50938525Y-95118157D01*
X-50899003Y-95113548D01*
X-50858772Y-95110395D01*
X-50817833Y-95108697D01*
X-50790147Y-95108374D01*
X-50743982Y-95109232D01*
X-50699094Y-95111808D01*
X-50655482Y-95116102D01*
X-50613147Y-95122112D01*
X-50572089Y-95129840D01*
X-50532307Y-95139286D01*
X-50493801Y-95150448D01*
X-50456572Y-95163328D01*
X-50420620Y-95177926D01*
X-50385944Y-95194240D01*
X-50352545Y-95212272D01*
X-50320422Y-95232021D01*
X-50289576Y-95253488D01*
X-50260006Y-95276672D01*
X-50231713Y-95301573D01*
X-50204697Y-95328192D01*
X-50179054Y-95356517D01*
X-50155066Y-95386536D01*
X-50132732Y-95418249D01*
X-50112053Y-95451657D01*
X-50093027Y-95486759D01*
X-50075657Y-95523556D01*
X-50059940Y-95562047D01*
X-50045878Y-95602233D01*
X-50033470Y-95644113D01*
X-50022717Y-95687687D01*
X-50013618Y-95732956D01*
X-50006173Y-95779919D01*
X-50000383Y-95828577D01*
X-49996247Y-95878929D01*
X-49993766Y-95930976D01*
X-49992938Y-95984717D01*
X-49992938Y-97500000D01*
G37*
G36*
X-47628423Y-97500000D02*
G01*
X-49425074Y-97500000D01*
X-49425074Y-96937264D01*
X-48922422Y-96937264D01*
X-48922422Y-95014584D01*
X-49425074Y-95014584D01*
X-49425074Y-94451849D01*
X-47628423Y-94451849D01*
X-47628423Y-95014584D01*
X-48131075Y-95014584D01*
X-48131075Y-96937264D01*
X-47628423Y-96937264D01*
X-47628423Y-97500000D01*
G37*
G36*
X-45547829Y-94405367D02*
G01*
X-45502638Y-94406606D01*
X-45458064Y-94408670D01*
X-45414106Y-94411560D01*
X-45370766Y-94415276D01*
X-45328042Y-94419818D01*
X-45285935Y-94425185D01*
X-45244445Y-94431378D01*
X-45203572Y-94438397D01*
X-45163316Y-94446242D01*
X-45123676Y-94454912D01*
X-45084653Y-94464408D01*
X-45046247Y-94474730D01*
X-45008458Y-94485878D01*
X-44971286Y-94497851D01*
X-44934730Y-94510650D01*
X-44898791Y-94524275D01*
X-44863469Y-94538726D01*
X-44828764Y-94554002D01*
X-44794676Y-94570104D01*
X-44761204Y-94587032D01*
X-44728350Y-94604786D01*
X-44696112Y-94623365D01*
X-44664491Y-94642770D01*
X-44633486Y-94663001D01*
X-44603099Y-94684058D01*
X-44573328Y-94705940D01*
X-44544174Y-94728648D01*
X-44515637Y-94752182D01*
X-44487717Y-94776542D01*
X-44460414Y-94801727D01*
X-44433727Y-94827739D01*
X-44407716Y-94854414D01*
X-44382530Y-94881686D01*
X-44358171Y-94909552D01*
X-44334637Y-94938014D01*
X-44311929Y-94967071D01*
X-44290046Y-94996724D01*
X-44268990Y-95026972D01*
X-44248759Y-95057815D01*
X-44229354Y-95089254D01*
X-44210774Y-95121288D01*
X-44193021Y-95153917D01*
X-44176093Y-95187142D01*
X-44159991Y-95220962D01*
X-44144714Y-95255377D01*
X-44130264Y-95290388D01*
X-44116639Y-95325994D01*
X-44103840Y-95362195D01*
X-44091866Y-95398992D01*
X-44080719Y-95436384D01*
X-44070397Y-95474371D01*
X-44060900Y-95512954D01*
X-44052230Y-95552132D01*
X-44044385Y-95591906D01*
X-44037367Y-95632274D01*
X-44031173Y-95673239D01*
X-44025806Y-95714798D01*
X-44021264Y-95756953D01*
X-44017549Y-95799703D01*
X-44014658Y-95843048D01*
X-44012594Y-95886989D01*
X-44011355Y-95931525D01*
X-44010943Y-95976657D01*
X-44011353Y-96021475D01*
X-44012585Y-96065712D01*
X-44014639Y-96109368D01*
X-44017514Y-96152443D01*
X-44021211Y-96194937D01*
X-44025729Y-96236850D01*
X-44031068Y-96278182D01*
X-44037229Y-96318933D01*
X-44044212Y-96359103D01*
X-44052015Y-96398691D01*
X-44060641Y-96437699D01*
X-44070088Y-96476126D01*
X-44080356Y-96513972D01*
X-44091445Y-96551236D01*
X-44103357Y-96587920D01*
X-44116089Y-96624023D01*
X-44129643Y-96659544D01*
X-44144019Y-96694485D01*
X-44159216Y-96728844D01*
X-44175234Y-96762623D01*
X-44192074Y-96795820D01*
X-44209735Y-96828437D01*
X-44228218Y-96860472D01*
X-44247522Y-96891926D01*
X-44267648Y-96922800D01*
X-44288595Y-96953092D01*
X-44310364Y-96982803D01*
X-44332954Y-97011934D01*
X-44356365Y-97040483D01*
X-44380598Y-97068451D01*
X-44405653Y-97095838D01*
X-44431529Y-97122644D01*
X-44458084Y-97148746D01*
X-44485270Y-97174018D01*
X-44513085Y-97198462D01*
X-44541530Y-97222078D01*
X-44570604Y-97244865D01*
X-44600308Y-97266823D01*
X-44630642Y-97287953D01*
X-44661606Y-97308254D01*
X-44693199Y-97327726D01*
X-44725422Y-97346370D01*
X-44758274Y-97364185D01*
X-44791756Y-97381172D01*
X-44825868Y-97397329D01*
X-44860610Y-97412659D01*
X-44895981Y-97427160D01*
X-44931982Y-97440832D01*
X-44968613Y-97453675D01*
X-45005873Y-97465690D01*
X-45043764Y-97476876D01*
X-45082283Y-97487234D01*
X-45121433Y-97496763D01*
X-45161212Y-97505463D01*
X-45201621Y-97513335D01*
X-45242659Y-97520379D01*
X-45284327Y-97526593D01*
X-45326625Y-97531979D01*
X-45369553Y-97536536D01*
X-45413110Y-97540265D01*
X-45457297Y-97543165D01*
X-45502114Y-97545237D01*
X-45547560Y-97546480D01*
X-45593636Y-97546894D01*
X-45639578Y-97546480D01*
X-45684895Y-97545237D01*
X-45729589Y-97543165D01*
X-45773658Y-97540265D01*
X-45817104Y-97536536D01*
X-45859926Y-97531979D01*
X-45902124Y-97526593D01*
X-45943697Y-97520379D01*
X-45984647Y-97513335D01*
X-46024973Y-97505463D01*
X-46064675Y-97496763D01*
X-46103753Y-97487234D01*
X-46142207Y-97476876D01*
X-46180037Y-97465690D01*
X-46217243Y-97453675D01*
X-46253825Y-97440832D01*
X-46289783Y-97427160D01*
X-46325117Y-97412659D01*
X-46359827Y-97397329D01*
X-46393913Y-97381172D01*
X-46427375Y-97364185D01*
X-46460214Y-97346370D01*
X-46492428Y-97327726D01*
X-46524018Y-97308254D01*
X-46554985Y-97287953D01*
X-46585327Y-97266823D01*
X-46615046Y-97244865D01*
X-46644140Y-97222078D01*
X-46672610Y-97198462D01*
X-46700457Y-97174018D01*
X-46727680Y-97148746D01*
X-46754278Y-97122644D01*
X-46780109Y-97095838D01*
X-46805120Y-97068451D01*
X-46829311Y-97040483D01*
X-46852681Y-97011934D01*
X-46875232Y-96982803D01*
X-46896963Y-96953092D01*
X-46917873Y-96922800D01*
X-46937964Y-96891926D01*
X-46957235Y-96860472D01*
X-46975685Y-96828437D01*
X-46993316Y-96795820D01*
X-47010126Y-96762623D01*
X-47026117Y-96728844D01*
X-47041287Y-96694485D01*
X-47055638Y-96659544D01*
X-47069168Y-96624023D01*
X-47081879Y-96587920D01*
X-47093769Y-96551236D01*
X-47104839Y-96513972D01*
X-47115090Y-96476126D01*
X-47124520Y-96437699D01*
X-47133130Y-96398691D01*
X-47140921Y-96359103D01*
X-47147891Y-96318933D01*
X-47154041Y-96278182D01*
X-47159371Y-96236850D01*
X-47163881Y-96194937D01*
X-47167571Y-96152443D01*
X-47170442Y-96109368D01*
X-47172492Y-96065712D01*
X-47173722Y-96021475D01*
X-47174132Y-95976657D01*
X-46352010Y-95976657D01*
X-46351764Y-96010234D01*
X-46351026Y-96043186D01*
X-46349795Y-96075515D01*
X-46348072Y-96107220D01*
X-46345856Y-96138301D01*
X-46343149Y-96168758D01*
X-46339949Y-96198591D01*
X-46336257Y-96227800D01*
X-46329795Y-96270443D01*
X-46322226Y-96311683D01*
X-46313549Y-96351518D01*
X-46303765Y-96389950D01*
X-46292872Y-96426978D01*
X-46288996Y-96439009D01*
X-46276833Y-96474111D01*
X-46263974Y-96507977D01*
X-46250420Y-96540606D01*
X-46236170Y-96571999D01*
X-46221225Y-96602155D01*
X-46205585Y-96631075D01*
X-46189249Y-96658758D01*
X-46172217Y-96685205D01*
X-46154490Y-96710416D01*
X-46136067Y-96734390D01*
X-46123399Y-96749685D01*
X-46103725Y-96771663D01*
X-46076551Y-96799243D01*
X-46048301Y-96824855D01*
X-46018974Y-96848496D01*
X-45988572Y-96870169D01*
X-45957093Y-96889873D01*
X-45924538Y-96907607D01*
X-45890907Y-96923372D01*
X-45882331Y-96927006D01*
X-45847492Y-96940401D01*
X-45812218Y-96952010D01*
X-45776509Y-96961833D01*
X-45740365Y-96969870D01*
X-45703786Y-96976121D01*
X-45666772Y-96980587D01*
X-45629322Y-96983266D01*
X-45591438Y-96984159D01*
X-45553565Y-96983254D01*
X-45516150Y-96980541D01*
X-45479193Y-96976018D01*
X-45442694Y-96969687D01*
X-45406653Y-96961547D01*
X-45371070Y-96951598D01*
X-45335945Y-96939840D01*
X-45301278Y-96926273D01*
X-45267206Y-96910622D01*
X-45234233Y-96892980D01*
X-45202359Y-96873345D01*
X-45171585Y-96851718D01*
X-45141909Y-96828099D01*
X-45113333Y-96802488D01*
X-45085855Y-96774884D01*
X-45065969Y-96752875D01*
X-45059477Y-96745289D01*
X-45038429Y-96718885D01*
X-45018424Y-96691605D01*
X-44999463Y-96663450D01*
X-44981545Y-96634418D01*
X-44964670Y-96604511D01*
X-44948838Y-96573728D01*
X-44934050Y-96542069D01*
X-44920304Y-96509534D01*
X-44907603Y-96476123D01*
X-44895944Y-96441836D01*
X-44888751Y-96418492D01*
X-44878799Y-96382473D01*
X-44869826Y-96345308D01*
X-44861832Y-96306997D01*
X-44854817Y-96267539D01*
X-44848780Y-96226934D01*
X-44843723Y-96185184D01*
X-44839644Y-96142287D01*
X-44837469Y-96113052D01*
X-44835729Y-96083308D01*
X-44834424Y-96053055D01*
X-44833553Y-96022291D01*
X-44833118Y-95991019D01*
X-44833064Y-95975191D01*
X-44833313Y-95941349D01*
X-44834060Y-95908147D01*
X-44835305Y-95875586D01*
X-44837048Y-95843667D01*
X-44839289Y-95812388D01*
X-44842028Y-95781751D01*
X-44845266Y-95751755D01*
X-44849001Y-95722400D01*
X-44855537Y-95679570D01*
X-44863195Y-95638182D01*
X-44871972Y-95598237D01*
X-44881871Y-95559734D01*
X-44892889Y-95522674D01*
X-44896811Y-95510642D01*
X-44909112Y-95475290D01*
X-44922108Y-95441227D01*
X-44935799Y-95408452D01*
X-44950186Y-95376964D01*
X-44965269Y-95346765D01*
X-44981047Y-95317854D01*
X-44997520Y-95290230D01*
X-45014689Y-95263895D01*
X-45032554Y-95238848D01*
X-45051114Y-95215089D01*
X-45063873Y-95199965D01*
X-45083810Y-95177614D01*
X-45104325Y-95156447D01*
X-45132581Y-95130069D01*
X-45161867Y-95105798D01*
X-45192184Y-95083633D01*
X-45223531Y-95063574D01*
X-45255908Y-95045622D01*
X-45289316Y-95029777D01*
X-45306407Y-95022644D01*
X-45340833Y-95009764D01*
X-45375604Y-94998602D01*
X-45410717Y-94989156D01*
X-45446175Y-94981428D01*
X-45481975Y-94975418D01*
X-45518119Y-94971124D01*
X-45554607Y-94968548D01*
X-45591438Y-94967690D01*
X-45628727Y-94968525D01*
X-45665489Y-94971033D01*
X-45701725Y-94975212D01*
X-45737434Y-94981062D01*
X-45772617Y-94988584D01*
X-45807272Y-94997777D01*
X-45841402Y-95008642D01*
X-45875004Y-95021179D01*
X-45907828Y-95035456D01*
X-45939988Y-95051908D01*
X-45971484Y-95070535D01*
X-46002316Y-95091338D01*
X-46032483Y-95114316D01*
X-46061987Y-95139469D01*
X-46083679Y-95159761D01*
X-46104998Y-95181277D01*
X-46119003Y-95196301D01*
X-46144236Y-95226068D01*
X-46162380Y-95250197D01*
X-46179853Y-95275871D01*
X-46196658Y-95303090D01*
X-46212792Y-95331856D01*
X-46228256Y-95362167D01*
X-46243051Y-95394023D01*
X-46257176Y-95427425D01*
X-46270632Y-95462373D01*
X-46283417Y-95498866D01*
X-46287530Y-95511374D01*
X-46299053Y-95549578D01*
X-46309443Y-95588903D01*
X-46318700Y-95629349D01*
X-46326823Y-95670914D01*
X-46333812Y-95713601D01*
X-46337842Y-95742681D01*
X-46341369Y-95772259D01*
X-46344391Y-95802335D01*
X-46346910Y-95832910D01*
X-46348925Y-95863982D01*
X-46350436Y-95895552D01*
X-46351444Y-95927621D01*
X-46351947Y-95960187D01*
X-46352010Y-95976657D01*
X-47174132Y-95976657D01*
X-47173722Y-95931525D01*
X-47172492Y-95886989D01*
X-47170442Y-95843048D01*
X-47167571Y-95799703D01*
X-47163881Y-95756953D01*
X-47159371Y-95714798D01*
X-47154041Y-95673239D01*
X-47147891Y-95632274D01*
X-47140921Y-95591906D01*
X-47133130Y-95552132D01*
X-47124520Y-95512954D01*
X-47115090Y-95474371D01*
X-47104839Y-95436384D01*
X-47093769Y-95398992D01*
X-47081879Y-95362195D01*
X-47069168Y-95325994D01*
X-47055638Y-95290388D01*
X-47041287Y-95255377D01*
X-47026117Y-95220962D01*
X-47010126Y-95187142D01*
X-46993316Y-95153917D01*
X-46975685Y-95121288D01*
X-46957235Y-95089254D01*
X-46937964Y-95057815D01*
X-46917873Y-95026972D01*
X-46896963Y-94996724D01*
X-46875232Y-94967071D01*
X-46852681Y-94938014D01*
X-46829311Y-94909552D01*
X-46805120Y-94881686D01*
X-46780109Y-94854414D01*
X-46754278Y-94827739D01*
X-46727680Y-94801727D01*
X-46700457Y-94776542D01*
X-46672610Y-94752182D01*
X-46644140Y-94728648D01*
X-46615046Y-94705940D01*
X-46585327Y-94684058D01*
X-46554985Y-94663001D01*
X-46524018Y-94642770D01*
X-46492428Y-94623365D01*
X-46460214Y-94604786D01*
X-46427375Y-94587032D01*
X-46393913Y-94570104D01*
X-46359827Y-94554002D01*
X-46325117Y-94538726D01*
X-46289783Y-94524275D01*
X-46253825Y-94510650D01*
X-46217243Y-94497851D01*
X-46180037Y-94485878D01*
X-46142207Y-94474730D01*
X-46103753Y-94464408D01*
X-46064675Y-94454912D01*
X-46024973Y-94446242D01*
X-45984647Y-94438397D01*
X-45943697Y-94431378D01*
X-45902124Y-94425185D01*
X-45859926Y-94419818D01*
X-45817104Y-94415276D01*
X-45773658Y-94411560D01*
X-45729589Y-94408670D01*
X-45684895Y-94406606D01*
X-45639578Y-94405367D01*
X-45593636Y-94404954D01*
X-45547829Y-94405367D01*
G37*
G36*
X-42668584Y-97500000D02*
G01*
X-43439414Y-97500000D01*
X-43439414Y-96702791D01*
X-42668584Y-96702791D01*
X-42668584Y-97500000D01*
G37*
G36*
X-40745171Y-97593789D02*
G01*
X-40782884Y-97593500D01*
X-40820185Y-97592632D01*
X-40857073Y-97591187D01*
X-40893549Y-97589163D01*
X-40929613Y-97586562D01*
X-40965265Y-97583382D01*
X-41000504Y-97579624D01*
X-41035332Y-97575287D01*
X-41069747Y-97570373D01*
X-41103750Y-97564880D01*
X-41137342Y-97558810D01*
X-41170520Y-97552161D01*
X-41203287Y-97544934D01*
X-41235642Y-97537128D01*
X-41267584Y-97528745D01*
X-41299114Y-97519783D01*
X-41330095Y-97510312D01*
X-41360572Y-97500217D01*
X-41390545Y-97489498D01*
X-41420014Y-97478155D01*
X-41448980Y-97466188D01*
X-41477442Y-97453597D01*
X-41505400Y-97440382D01*
X-41532855Y-97426543D01*
X-41559805Y-97412081D01*
X-41586252Y-97396994D01*
X-41612195Y-97381283D01*
X-41637635Y-97364948D01*
X-41662571Y-97347990D01*
X-41687002Y-97330407D01*
X-41710931Y-97312201D01*
X-41734355Y-97293370D01*
X-41756932Y-97273916D01*
X-41778868Y-97253837D01*
X-41800163Y-97233135D01*
X-41820817Y-97211808D01*
X-41840830Y-97189858D01*
X-41860201Y-97167283D01*
X-41878932Y-97144085D01*
X-41897021Y-97120263D01*
X-41914469Y-97095817D01*
X-41931276Y-97070747D01*
X-41947442Y-97045052D01*
X-41962966Y-97018734D01*
X-41977850Y-96991792D01*
X-41992092Y-96964226D01*
X-42005694Y-96936036D01*
X-42018654Y-96907222D01*
X-42030898Y-96877784D01*
X-42042353Y-96847722D01*
X-42053017Y-96817036D01*
X-42062892Y-96785727D01*
X-42071977Y-96753793D01*
X-42080272Y-96721235D01*
X-42087776Y-96688053D01*
X-42094491Y-96654248D01*
X-42100416Y-96619818D01*
X-42105551Y-96584764D01*
X-42109896Y-96549087D01*
X-42113450Y-96512785D01*
X-42116215Y-96475860D01*
X-42118190Y-96438310D01*
X-42119375Y-96400137D01*
X-42119770Y-96361339D01*
X-42119349Y-96320564D01*
X-42118087Y-96280487D01*
X-42115983Y-96241109D01*
X-42113038Y-96202429D01*
X-42109252Y-96164447D01*
X-42104623Y-96127164D01*
X-42099154Y-96090579D01*
X-42092842Y-96054692D01*
X-42085690Y-96019504D01*
X-42077696Y-95985015D01*
X-42068860Y-95951223D01*
X-42059183Y-95918130D01*
X-42048664Y-95885736D01*
X-42037304Y-95854039D01*
X-42025102Y-95823041D01*
X-42012059Y-95792742D01*
X-41998169Y-95763112D01*
X-41983609Y-95734124D01*
X-41968379Y-95705776D01*
X-41952479Y-95678070D01*
X-41935910Y-95651005D01*
X-41918671Y-95624581D01*
X-41900762Y-95598798D01*
X-41882183Y-95573656D01*
X-41862935Y-95549156D01*
X-41843016Y-95525296D01*
X-41822428Y-95502078D01*
X-41801171Y-95479501D01*
X-41779243Y-95457564D01*
X-41756646Y-95436270D01*
X-41733379Y-95415616D01*
X-41709442Y-95395603D01*
X-41685772Y-95377322D01*
X-41661655Y-95359665D01*
X-41637091Y-95342632D01*
X-41612081Y-95326223D01*
X-41586624Y-95310438D01*
X-41560721Y-95295277D01*
X-41534372Y-95280739D01*
X-41507576Y-95266826D01*
X-41480333Y-95253537D01*
X-41452644Y-95240871D01*
X-41424508Y-95228830D01*
X-41395926Y-95217413D01*
X-41366897Y-95206619D01*
X-41337422Y-95196450D01*
X-41307501Y-95186904D01*
X-41277132Y-95177983D01*
X-41246378Y-95169554D01*
X-41215480Y-95161668D01*
X-41184439Y-95154326D01*
X-41153255Y-95147529D01*
X-41121928Y-95141275D01*
X-41090458Y-95135565D01*
X-41058845Y-95130398D01*
X-41027089Y-95125776D01*
X-40995189Y-95121697D01*
X-40963147Y-95118162D01*
X-40930961Y-95115171D01*
X-40898632Y-95112724D01*
X-40866160Y-95110821D01*
X-40833545Y-95109461D01*
X-40800787Y-95108645D01*
X-40767886Y-95108374D01*
X-40738445Y-95108571D01*
X-40694821Y-95109608D01*
X-40651840Y-95111533D01*
X-40609504Y-95114348D01*
X-40567811Y-95118051D01*
X-40526763Y-95122642D01*
X-40486358Y-95128123D01*
X-40446597Y-95134492D01*
X-40407481Y-95141750D01*
X-40369008Y-95149896D01*
X-40331180Y-95158932D01*
X-40293912Y-95168545D01*
X-40257120Y-95178698D01*
X-40220805Y-95189393D01*
X-40184966Y-95200629D01*
X-40149604Y-95212405D01*
X-40114719Y-95224723D01*
X-40080310Y-95237581D01*
X-40046377Y-95250981D01*
X-40012922Y-95264921D01*
X-39979942Y-95279403D01*
X-39958221Y-95289357D01*
X-39958221Y-95905582D01*
X-40063001Y-95905582D01*
X-40088710Y-95887872D01*
X-40113897Y-95870768D01*
X-40141283Y-95852381D01*
X-40167049Y-95835240D01*
X-40194988Y-95817714D01*
X-40221057Y-95802859D01*
X-40249084Y-95788159D01*
X-40279069Y-95773613D01*
X-40311011Y-95759222D01*
X-40316525Y-95756838D01*
X-40348966Y-95743289D01*
X-40376865Y-95732705D01*
X-40405552Y-95722766D01*
X-40435026Y-95713471D01*
X-40465286Y-95704820D01*
X-40496334Y-95696813D01*
X-40502638Y-95695289D01*
X-40534831Y-95688323D01*
X-40568670Y-95682538D01*
X-40604154Y-95677933D01*
X-40633727Y-95675100D01*
X-40664352Y-95673022D01*
X-40696031Y-95671699D01*
X-40728764Y-95671133D01*
X-40737111Y-95671109D01*
X-40773671Y-95671836D01*
X-40809159Y-95674017D01*
X-40843577Y-95677652D01*
X-40876925Y-95682741D01*
X-40909202Y-95689284D01*
X-40940409Y-95697281D01*
X-40970546Y-95706732D01*
X-40999611Y-95717637D01*
X-41027607Y-95729996D01*
X-41054532Y-95743809D01*
X-41080386Y-95759077D01*
X-41105170Y-95775798D01*
X-41128884Y-95793973D01*
X-41151527Y-95813602D01*
X-41173099Y-95834685D01*
X-41193601Y-95857222D01*
X-41212944Y-95880916D01*
X-41231039Y-95905651D01*
X-41247886Y-95931428D01*
X-41263485Y-95958247D01*
X-41277836Y-95986108D01*
X-41290940Y-96015011D01*
X-41302795Y-96044955D01*
X-41313402Y-96075942D01*
X-41322762Y-96107970D01*
X-41330873Y-96141040D01*
X-41337737Y-96175152D01*
X-41343353Y-96210306D01*
X-41347720Y-96246501D01*
X-41350840Y-96283739D01*
X-41352712Y-96322018D01*
X-41353336Y-96361339D01*
X-41352698Y-96401845D01*
X-41350783Y-96441115D01*
X-41347592Y-96479148D01*
X-41343124Y-96515945D01*
X-41337379Y-96551505D01*
X-41330358Y-96585829D01*
X-41322061Y-96618916D01*
X-41312487Y-96650767D01*
X-41301636Y-96681381D01*
X-41289509Y-96710759D01*
X-41276105Y-96738901D01*
X-41261425Y-96765806D01*
X-41245468Y-96791474D01*
X-41228234Y-96815906D01*
X-41209724Y-96839101D01*
X-41189938Y-96861060D01*
X-41168886Y-96881645D01*
X-41146764Y-96900902D01*
X-41123571Y-96918831D01*
X-41099308Y-96935432D01*
X-41073975Y-96950705D01*
X-41047571Y-96964650D01*
X-41020096Y-96977266D01*
X-40991551Y-96988555D01*
X-40961936Y-96998516D01*
X-40931250Y-97007148D01*
X-40899494Y-97014452D01*
X-40866667Y-97020429D01*
X-40832770Y-97025077D01*
X-40797802Y-97028397D01*
X-40761764Y-97030389D01*
X-40724655Y-97031053D01*
X-40690102Y-97030641D01*
X-40656420Y-97029405D01*
X-40623607Y-97027344D01*
X-40591665Y-97024459D01*
X-40560593Y-97020749D01*
X-40530390Y-97016215D01*
X-40501058Y-97010857D01*
X-40472596Y-97004675D01*
X-40438282Y-96996199D01*
X-40405864Y-96987258D01*
X-40375342Y-96977852D01*
X-40346716Y-96967981D01*
X-40314868Y-96955522D01*
X-40285751Y-96942393D01*
X-40256068Y-96927186D01*
X-40227928Y-96911699D01*
X-40201331Y-96895931D01*
X-40176276Y-96879882D01*
X-40162652Y-96870586D01*
X-40136091Y-96851672D01*
X-40110629Y-96833033D01*
X-40086265Y-96814669D01*
X-40063001Y-96796580D01*
X-39958221Y-96796580D01*
X-39958221Y-97417934D01*
X-39991192Y-97432757D01*
X-40024433Y-97447000D01*
X-40057944Y-97460663D01*
X-40091726Y-97473747D01*
X-40125779Y-97486252D01*
X-40160102Y-97498176D01*
X-40194696Y-97509521D01*
X-40229560Y-97520287D01*
X-40264694Y-97530473D01*
X-40300099Y-97540079D01*
X-40323853Y-97546161D01*
X-40359927Y-97554673D01*
X-40396710Y-97562347D01*
X-40434202Y-97569184D01*
X-40472402Y-97575184D01*
X-40511310Y-97580347D01*
X-40550927Y-97584673D01*
X-40591252Y-97588161D01*
X-40632285Y-97590812D01*
X-40674027Y-97592626D01*
X-40716478Y-97593603D01*
X-40745171Y-97593789D01*
G37*
G36*
X-38344518Y-95108699D02*
G01*
X-38307452Y-95109676D01*
X-38270925Y-95111304D01*
X-38234935Y-95113583D01*
X-38199484Y-95116513D01*
X-38164570Y-95120094D01*
X-38130195Y-95124327D01*
X-38096358Y-95129211D01*
X-38063059Y-95134745D01*
X-38030298Y-95140931D01*
X-37998075Y-95147768D01*
X-37966390Y-95155257D01*
X-37935243Y-95163396D01*
X-37904635Y-95172187D01*
X-37874564Y-95181629D01*
X-37845032Y-95191721D01*
X-37816038Y-95202465D01*
X-37787581Y-95213861D01*
X-37759663Y-95225907D01*
X-37732283Y-95238605D01*
X-37705441Y-95251953D01*
X-37679138Y-95265953D01*
X-37653372Y-95280604D01*
X-37628144Y-95295906D01*
X-37603455Y-95311860D01*
X-37555690Y-95345720D01*
X-37510078Y-95382184D01*
X-37466618Y-95421254D01*
X-37445695Y-95441765D01*
X-37425319Y-95462840D01*
X-37386507Y-95506414D01*
X-37350283Y-95551889D01*
X-37316646Y-95599264D01*
X-37285597Y-95648540D01*
X-37257135Y-95699717D01*
X-37243874Y-95726018D01*
X-37231260Y-95752794D01*
X-37219293Y-95780045D01*
X-37207973Y-95807772D01*
X-37197300Y-95835973D01*
X-37187274Y-95864650D01*
X-37177894Y-95893801D01*
X-37169161Y-95923428D01*
X-37161076Y-95953530D01*
X-37153637Y-95984107D01*
X-37146845Y-96015159D01*
X-37140699Y-96046687D01*
X-37135201Y-96078689D01*
X-37130350Y-96111167D01*
X-37126145Y-96144120D01*
X-37122587Y-96177548D01*
X-37119676Y-96211451D01*
X-37117412Y-96245829D01*
X-37115795Y-96280682D01*
X-37114825Y-96316010D01*
X-37114502Y-96351814D01*
X-37114826Y-96387662D01*
X-37115801Y-96423032D01*
X-37117425Y-96457924D01*
X-37119699Y-96492337D01*
X-37122623Y-96526273D01*
X-37126197Y-96559731D01*
X-37130420Y-96592711D01*
X-37135293Y-96625213D01*
X-37140815Y-96657237D01*
X-37146988Y-96688783D01*
X-37153810Y-96719851D01*
X-37161282Y-96750441D01*
X-37169403Y-96780553D01*
X-37178175Y-96810187D01*
X-37187596Y-96839343D01*
X-37197666Y-96868021D01*
X-37208387Y-96896221D01*
X-37219757Y-96923943D01*
X-37231777Y-96951187D01*
X-37244446Y-96977953D01*
X-37257766Y-97004241D01*
X-37271735Y-97030051D01*
X-37301622Y-97080238D01*
X-37334108Y-97128512D01*
X-37369193Y-97174874D01*
X-37406877Y-97219324D01*
X-37447160Y-97261863D01*
X-37468215Y-97282284D01*
X-37511904Y-97321182D01*
X-37557699Y-97357486D01*
X-37605601Y-97391197D01*
X-37630342Y-97407080D01*
X-37655610Y-97422315D01*
X-37681404Y-97436902D01*
X-37707725Y-97450840D01*
X-37734573Y-97464130D01*
X-37761947Y-97476772D01*
X-37789848Y-97488765D01*
X-37818276Y-97500110D01*
X-37847230Y-97510807D01*
X-37876711Y-97520856D01*
X-37906718Y-97530256D01*
X-37937253Y-97539008D01*
X-37968313Y-97547112D01*
X-37999901Y-97554567D01*
X-38032015Y-97561374D01*
X-38064656Y-97567533D01*
X-38097823Y-97573043D01*
X-38131517Y-97577906D01*
X-38165738Y-97582119D01*
X-38200485Y-97585685D01*
X-38235759Y-97588602D01*
X-38271560Y-97590871D01*
X-38307887Y-97592492D01*
X-38344741Y-97593465D01*
X-38382122Y-97593789D01*
X-38419457Y-97593465D01*
X-38456268Y-97592492D01*
X-38492553Y-97590871D01*
X-38528313Y-97588602D01*
X-38563547Y-97585685D01*
X-38598257Y-97582119D01*
X-38632441Y-97577906D01*
X-38666100Y-97573043D01*
X-38699234Y-97567533D01*
X-38731842Y-97561374D01*
X-38763926Y-97554567D01*
X-38795484Y-97547112D01*
X-38826517Y-97539008D01*
X-38857024Y-97530256D01*
X-38887007Y-97520856D01*
X-38916464Y-97510807D01*
X-38945396Y-97500110D01*
X-38973803Y-97488765D01*
X-39001685Y-97476772D01*
X-39029041Y-97464130D01*
X-39055872Y-97450840D01*
X-39082178Y-97436902D01*
X-39107959Y-97422315D01*
X-39133214Y-97407080D01*
X-39157945Y-97391197D01*
X-39182150Y-97374666D01*
X-39228984Y-97339658D01*
X-39273718Y-97302057D01*
X-39316351Y-97261863D01*
X-39336817Y-97240833D01*
X-39375801Y-97197338D01*
X-39412185Y-97151932D01*
X-39445971Y-97104614D01*
X-39477158Y-97055384D01*
X-39505745Y-97004241D01*
X-39519065Y-96977953D01*
X-39531734Y-96951187D01*
X-39543754Y-96923943D01*
X-39555124Y-96896221D01*
X-39565845Y-96868021D01*
X-39575916Y-96839343D01*
X-39585337Y-96810187D01*
X-39594108Y-96780553D01*
X-39602229Y-96750441D01*
X-39609701Y-96719851D01*
X-39616523Y-96688783D01*
X-39622696Y-96657237D01*
X-39628218Y-96625213D01*
X-39633091Y-96592711D01*
X-39637315Y-96559731D01*
X-39640888Y-96526273D01*
X-39643812Y-96492337D01*
X-39646086Y-96457924D01*
X-39647710Y-96423032D01*
X-39648685Y-96387662D01*
X-39648970Y-96356210D01*
X-38880377Y-96356210D01*
X-38880068Y-96392030D01*
X-38879141Y-96426947D01*
X-38877595Y-96460963D01*
X-38875431Y-96494078D01*
X-38872649Y-96526291D01*
X-38869249Y-96557602D01*
X-38865230Y-96588011D01*
X-38860594Y-96617520D01*
X-38853450Y-96655461D01*
X-38845206Y-96691800D01*
X-38835910Y-96726467D01*
X-38825606Y-96759394D01*
X-38814294Y-96790581D01*
X-38801975Y-96820027D01*
X-38788649Y-96847734D01*
X-38774315Y-96873700D01*
X-38754981Y-96903710D01*
X-38742624Y-96920411D01*
X-38721390Y-96944983D01*
X-38698904Y-96967409D01*
X-38675165Y-96987688D01*
X-38650175Y-97005820D01*
X-38623932Y-97021805D01*
X-38596436Y-97035644D01*
X-38585088Y-97040579D01*
X-38555628Y-97051344D01*
X-38524952Y-97060285D01*
X-38493060Y-97067401D01*
X-38459951Y-97072693D01*
X-38425626Y-97076160D01*
X-38390085Y-97077802D01*
X-38375527Y-97077948D01*
X-38344161Y-97077107D01*
X-38313260Y-97074585D01*
X-38282824Y-97070381D01*
X-38252853Y-97064495D01*
X-38223347Y-97056928D01*
X-38194306Y-97047680D01*
X-38182820Y-97043510D01*
X-38154877Y-97031374D01*
X-38128294Y-97016948D01*
X-38103071Y-97000233D01*
X-38079207Y-96981228D01*
X-38056703Y-96959933D01*
X-38035558Y-96936348D01*
X-38027481Y-96926273D01*
X-38005707Y-96897196D01*
X-37989575Y-96872621D01*
X-37974589Y-96846879D01*
X-37960747Y-96819968D01*
X-37948050Y-96791890D01*
X-37936498Y-96762643D01*
X-37926091Y-96732230D01*
X-37919037Y-96708653D01*
X-37910623Y-96675256D01*
X-37903330Y-96638814D01*
X-37898596Y-96609485D01*
X-37894494Y-96578442D01*
X-37891023Y-96545686D01*
X-37888183Y-96511217D01*
X-37885974Y-96475035D01*
X-37884396Y-96437140D01*
X-37883449Y-96397531D01*
X-37883134Y-96356210D01*
X-37883462Y-96317785D01*
X-37884448Y-96280545D01*
X-37886090Y-96244489D01*
X-37888389Y-96209619D01*
X-37891345Y-96175933D01*
X-37894958Y-96143433D01*
X-37899227Y-96112117D01*
X-37904154Y-96081987D01*
X-37909737Y-96053041D01*
X-37918204Y-96016290D01*
X-37920503Y-96007431D01*
X-37930120Y-95972970D01*
X-37940653Y-95940295D01*
X-37952102Y-95909406D01*
X-37964467Y-95880303D01*
X-37977747Y-95852986D01*
X-37995636Y-95821351D01*
X-38014956Y-95792507D01*
X-38023085Y-95781751D01*
X-38044355Y-95756177D01*
X-38066948Y-95733036D01*
X-38090866Y-95712328D01*
X-38116107Y-95694053D01*
X-38142672Y-95678210D01*
X-38170561Y-95664801D01*
X-38182087Y-95660118D01*
X-38211314Y-95649775D01*
X-38241292Y-95641185D01*
X-38272022Y-95634347D01*
X-38303502Y-95629263D01*
X-38335735Y-95625932D01*
X-38368718Y-95624355D01*
X-38382122Y-95624214D01*
X-38414980Y-95624930D01*
X-38446694Y-95627077D01*
X-38477262Y-95630654D01*
X-38506686Y-95635663D01*
X-38540483Y-95643563D01*
X-38572631Y-95653524D01*
X-38603475Y-95666601D01*
X-38633906Y-95683852D01*
X-38658950Y-95701415D01*
X-38683708Y-95721876D01*
X-38708180Y-95745236D01*
X-38732366Y-95771493D01*
X-38752770Y-95798623D01*
X-38771851Y-95828723D01*
X-38786162Y-95854941D01*
X-38799625Y-95883059D01*
X-38812242Y-95913078D01*
X-38824012Y-95944998D01*
X-38834934Y-95978818D01*
X-38840077Y-95996441D01*
X-38849523Y-96033317D01*
X-38855780Y-96062493D01*
X-38861329Y-96092969D01*
X-38866170Y-96124746D01*
X-38870302Y-96157824D01*
X-38873726Y-96192203D01*
X-38876442Y-96227883D01*
X-38878449Y-96264863D01*
X-38879748Y-96303145D01*
X-38880338Y-96342727D01*
X-38880377Y-96356210D01*
X-39648970Y-96356210D01*
X-39649010Y-96351814D01*
X-39648683Y-96315742D01*
X-39647702Y-96280158D01*
X-39646066Y-96245062D01*
X-39643777Y-96210455D01*
X-39640834Y-96176335D01*
X-39637237Y-96142703D01*
X-39632986Y-96109559D01*
X-39628081Y-96076903D01*
X-39622522Y-96044736D01*
X-39616309Y-96013056D01*
X-39609442Y-95981864D01*
X-39601920Y-95951160D01*
X-39593745Y-95920944D01*
X-39584916Y-95891217D01*
X-39575433Y-95861977D01*
X-39565295Y-95833225D01*
X-39554504Y-95804962D01*
X-39543059Y-95777186D01*
X-39530959Y-95749898D01*
X-39518206Y-95723098D01*
X-39504799Y-95696787D01*
X-39490737Y-95670963D01*
X-39460653Y-95620780D01*
X-39427952Y-95572548D01*
X-39392635Y-95526269D01*
X-39354702Y-95481942D01*
X-39314153Y-95439567D01*
X-39292968Y-95419191D01*
X-39271271Y-95399461D01*
X-39226340Y-95361943D01*
X-39179359Y-95327013D01*
X-39155100Y-95310518D01*
X-39130329Y-95294670D01*
X-39105046Y-95279469D01*
X-39079250Y-95264914D01*
X-39052942Y-95251007D01*
X-39026122Y-95237746D01*
X-38998789Y-95225132D01*
X-38970944Y-95213165D01*
X-38942586Y-95201845D01*
X-38913716Y-95191172D01*
X-38884334Y-95181146D01*
X-38854440Y-95171766D01*
X-38824033Y-95163033D01*
X-38793114Y-95154948D01*
X-38761682Y-95147509D01*
X-38729739Y-95140717D01*
X-38697282Y-95134571D01*
X-38664314Y-95129073D01*
X-38630833Y-95124222D01*
X-38596840Y-95120017D01*
X-38562335Y-95116459D01*
X-38527317Y-95113548D01*
X-38491786Y-95111284D01*
X-38455744Y-95109667D01*
X-38419189Y-95108697D01*
X-38382122Y-95108374D01*
X-38344518Y-95108699D01*
G37*
G36*
X-34336728Y-95856489D02*
G01*
X-34336728Y-97500000D01*
X-35082645Y-97500000D01*
X-35082645Y-96341556D01*
X-35082716Y-96310264D01*
X-35082929Y-96279861D01*
X-35083283Y-96250346D01*
X-35083976Y-96212376D01*
X-35084920Y-96175986D01*
X-35086116Y-96141175D01*
X-35087565Y-96107945D01*
X-35089265Y-96076294D01*
X-35090705Y-96053593D01*
X-35093940Y-96017572D01*
X-35098605Y-95983698D01*
X-35104702Y-95951970D01*
X-35112229Y-95922389D01*
X-35123151Y-95889725D01*
X-35136134Y-95860153D01*
X-35151487Y-95833818D01*
X-35169519Y-95810316D01*
X-35193943Y-95786479D01*
X-35217779Y-95769117D01*
X-35244295Y-95754588D01*
X-35248975Y-95752442D01*
X-35279140Y-95740738D01*
X-35307544Y-95732835D01*
X-35338917Y-95726613D01*
X-35373260Y-95722073D01*
X-35402873Y-95719652D01*
X-35434386Y-95718306D01*
X-35459268Y-95718004D01*
X-35493242Y-95719095D01*
X-35526931Y-95722369D01*
X-35560333Y-95727825D01*
X-35593449Y-95735463D01*
X-35626278Y-95745284D01*
X-35658822Y-95757288D01*
X-35671759Y-95762700D01*
X-35703526Y-95776582D01*
X-35734256Y-95790750D01*
X-35763948Y-95805204D01*
X-35792602Y-95819945D01*
X-35820219Y-95834971D01*
X-35846798Y-95850284D01*
X-35857139Y-95856489D01*
X-35857139Y-97500000D01*
X-36599393Y-97500000D01*
X-36599393Y-95202163D01*
X-35857139Y-95202163D01*
X-35857139Y-95429309D01*
X-35833297Y-95410698D01*
X-35809581Y-95392604D01*
X-35785990Y-95375024D01*
X-35750841Y-95349620D01*
X-35715975Y-95325376D01*
X-35681392Y-95302290D01*
X-35647092Y-95280364D01*
X-35613076Y-95259598D01*
X-35579344Y-95239990D01*
X-35545894Y-95221541D01*
X-35512728Y-95204252D01*
X-35490775Y-95193370D01*
X-35457611Y-95178180D01*
X-35423791Y-95164485D01*
X-35389313Y-95152283D01*
X-35354178Y-95141575D01*
X-35318387Y-95132362D01*
X-35281939Y-95124642D01*
X-35244834Y-95118417D01*
X-35207072Y-95113686D01*
X-35168653Y-95110449D01*
X-35129577Y-95108706D01*
X-35103162Y-95108374D01*
X-35060767Y-95109275D01*
X-35019313Y-95111980D01*
X-34978799Y-95116488D01*
X-34939225Y-95122799D01*
X-34900592Y-95130914D01*
X-34862898Y-95140831D01*
X-34826145Y-95152552D01*
X-34790332Y-95166076D01*
X-34755460Y-95181403D01*
X-34721527Y-95198533D01*
X-34699428Y-95210956D01*
X-34667263Y-95231040D01*
X-34636437Y-95252824D01*
X-34606950Y-95276309D01*
X-34578803Y-95301493D01*
X-34551995Y-95328378D01*
X-34526527Y-95356963D01*
X-34502399Y-95387248D01*
X-34479610Y-95419234D01*
X-34458160Y-95452919D01*
X-34438050Y-95488305D01*
X-34425388Y-95512840D01*
X-34397593Y-95489527D01*
X-34369895Y-95466850D01*
X-34342295Y-95444808D01*
X-34314792Y-95423401D01*
X-34287386Y-95402630D01*
X-34260077Y-95382494D01*
X-34232866Y-95362994D01*
X-34205752Y-95344129D01*
X-34178736Y-95325899D01*
X-34151817Y-95308305D01*
X-34124995Y-95291347D01*
X-34098270Y-95275023D01*
X-34071643Y-95259336D01*
X-34045113Y-95244283D01*
X-34018681Y-95229866D01*
X-33992345Y-95216085D01*
X-33966093Y-95203041D01*
X-33926843Y-95185055D01*
X-33887748Y-95168961D01*
X-33848808Y-95154761D01*
X-33810022Y-95142454D01*
X-33771390Y-95132041D01*
X-33732914Y-95123520D01*
X-33694591Y-95116894D01*
X-33656424Y-95112160D01*
X-33618410Y-95109320D01*
X-33580552Y-95108374D01*
X-33534361Y-95109258D01*
X-33489579Y-95111911D01*
X-33446205Y-95116333D01*
X-33404239Y-95122524D01*
X-33363681Y-95130484D01*
X-33324532Y-95140213D01*
X-33286791Y-95151710D01*
X-33250458Y-95164977D01*
X-33215533Y-95180012D01*
X-33182016Y-95196816D01*
X-33149908Y-95215389D01*
X-33119208Y-95235731D01*
X-33089916Y-95257842D01*
X-33062032Y-95281721D01*
X-33035556Y-95307369D01*
X-33010489Y-95334787D01*
X-32986887Y-95363772D01*
X-32964808Y-95394309D01*
X-32944251Y-95426398D01*
X-32925218Y-95460037D01*
X-32907707Y-95495228D01*
X-32891718Y-95531971D01*
X-32877253Y-95570264D01*
X-32864310Y-95610109D01*
X-32852889Y-95651506D01*
X-32842992Y-95694453D01*
X-32834617Y-95738952D01*
X-32827765Y-95785003D01*
X-32822435Y-95832604D01*
X-32818629Y-95881757D01*
X-32816345Y-95932461D01*
X-32815583Y-95984717D01*
X-32815583Y-97500000D01*
X-33561501Y-97500000D01*
X-33561501Y-96341556D01*
X-33561565Y-96309884D01*
X-33561758Y-96279165D01*
X-33562080Y-96249399D01*
X-33562710Y-96211194D01*
X-33563569Y-96174684D01*
X-33564656Y-96139868D01*
X-33565973Y-96106746D01*
X-33567519Y-96075319D01*
X-33568828Y-96052861D01*
X-33571833Y-96017051D01*
X-33576270Y-95983352D01*
X-33582137Y-95951763D01*
X-33589436Y-95922286D01*
X-33600084Y-95889700D01*
X-33612792Y-95860153D01*
X-33627424Y-95833818D01*
X-33644940Y-95810316D01*
X-33669023Y-95786479D01*
X-33692791Y-95769117D01*
X-33719444Y-95754588D01*
X-33724167Y-95752442D01*
X-33754933Y-95740738D01*
X-33783916Y-95732835D01*
X-33815941Y-95726613D01*
X-33851007Y-95722073D01*
X-33881249Y-95719652D01*
X-33913437Y-95718306D01*
X-33938856Y-95718004D01*
X-33973598Y-95719137D01*
X-34008030Y-95722537D01*
X-34042154Y-95728205D01*
X-34075968Y-95736139D01*
X-34109473Y-95746340D01*
X-34120573Y-95750244D01*
X-34149227Y-95761145D01*
X-34179778Y-95774158D01*
X-34212225Y-95789281D01*
X-34239547Y-95802899D01*
X-34268084Y-95817869D01*
X-34297834Y-95834189D01*
X-34328797Y-95851860D01*
X-34336728Y-95856489D01*
G37*
%LPC*%
D11*
X-71664466Y-35945534D03*
X-25944466Y-71505534D03*
X-18324466Y-91825534D03*
X-89444466Y-13085534D03*
X-71664466Y-18165534D03*
X-31024466Y-8005534D03*
X-36104466Y-30865534D03*
X-84364466Y-56265534D03*
X-58964466Y-25785534D03*
X-544466Y-63885534D03*
X-51344466Y-15625534D03*
X-71664466Y-56265534D03*
X-544466Y-76585534D03*
X-91984466Y-20705534D03*
X-3084466Y-35945534D03*
X-15784466Y-10545534D03*
X-81824466Y-41025534D03*
X-15784466Y-30865534D03*
X-31024466Y-15625534D03*
X-76744466Y-35945534D03*
X-25944466Y-35945534D03*
X-74204466Y-91825534D03*
X-13244466Y-74045534D03*
X-84364466Y-91825534D03*
X1995534Y-76585534D03*
X-86904466Y-13085534D03*
X-33564466Y-5465534D03*
X-81824466Y-43565534D03*
X-79284466Y-94365534D03*
X-10704466Y-91825534D03*
X-31024466Y-28325534D03*
X-25944466Y-53725534D03*
X-53884466Y-2925534D03*
X-74204466Y-84205534D03*
X-5624466Y-25785534D03*
X-53884466Y-10545534D03*
X-79284466Y-58805534D03*
X-13244466Y-56265534D03*
X-76744466Y-13085534D03*
X-36104466Y-51185534D03*
X-13244466Y-46105534D03*
X-38644466Y-15625534D03*
X-15784466Y-48645534D03*
X-31024466Y-20705534D03*
X-28484466Y-33405534D03*
X-56424466Y-10545534D03*
X-13244466Y-48645534D03*
X-89444466Y-23245534D03*
X-56424466Y-56265534D03*
X-33564466Y-53725534D03*
X-79284466Y-48645534D03*
X-53884466Y-61345534D03*
X-76744466Y-74045534D03*
X-51344466Y-91825534D03*
X-28484466Y-25785534D03*
X-43724466Y-2925534D03*
X-61504466Y-8005534D03*
X-28484466Y-23245534D03*
X-64044466Y-76585534D03*
X-544466Y-48645534D03*
X-38644466Y-2925534D03*
X1995534Y-79125534D03*
X-13244466Y-71505534D03*
X-36104466Y-53725534D03*
X-86904466Y-66425534D03*
X-3084466Y-51185534D03*
D12*
X-544466Y-94365534D03*
D11*
X-10704466Y-71505534D03*
X-91984466Y-33405534D03*
X-46264466Y-23245534D03*
X-89444466Y-68965534D03*
X-48804466Y-51185534D03*
X-56424466Y-66425534D03*
X-18324466Y-25785534D03*
X-53884466Y-23245534D03*
X-58964466Y-68965534D03*
X-64044466Y-20705534D03*
X-43724466Y-25785534D03*
X-71664466Y-25785534D03*
X-91984466Y-89285534D03*
X-48804466Y-41025534D03*
X-81824466Y-13085534D03*
X-46264466Y-28325534D03*
X1995534Y-66425534D03*
X-51344466Y-58805534D03*
X-5624466Y-2925534D03*
X-15784466Y-46105534D03*
X-13244466Y-68965534D03*
X-86904466Y-43565534D03*
X-81824466Y-5465534D03*
X-89444466Y-89285534D03*
X-86904466Y-68965534D03*
X-61504466Y-25785534D03*
X-76744466Y-10545534D03*
X-43724466Y-71505534D03*
X-38644466Y-68965534D03*
X-41184466Y-84205534D03*
X-23404466Y-5465534D03*
X-58964466Y-48645534D03*
X-41184466Y-23245534D03*
X-56424466Y-71505534D03*
X-71664466Y-53725534D03*
X-48804466Y-71505534D03*
X-43724466Y-66425534D03*
X-46264466Y-86745534D03*
X-79284466Y-8005534D03*
X-64044466Y-68965534D03*
X-71664466Y-58805534D03*
X-86904466Y-58805534D03*
X-61504466Y-71505534D03*
X-25944466Y-79125534D03*
X-74204466Y-96905534D03*
X-18324466Y-61345534D03*
X-76744466Y-91825534D03*
X-71664466Y-41025534D03*
X-38644466Y-76585534D03*
X-43724466Y-74045534D03*
X-66584466Y-61345534D03*
X-64044466Y-71505534D03*
X-13244466Y-89285534D03*
X-5624466Y-89285534D03*
X-58964466Y-53725534D03*
X-38644466Y-79125534D03*
X-31024466Y-48645534D03*
X-36104466Y-10545534D03*
X-18324466Y-10545534D03*
X-46264466Y-35945534D03*
X-5624466Y-8005534D03*
X-61504466Y-48645534D03*
X-41184466Y-38485534D03*
X-544466Y-20705534D03*
X-66584466Y-84205534D03*
X-5624466Y-5465534D03*
X-36104466Y-61345534D03*
X-53884466Y-89285534D03*
X-18324466Y-8005534D03*
X-61504466Y-91825534D03*
X-61504466Y-66425534D03*
X-46264466Y-18165534D03*
X-64044466Y-33405534D03*
X-15784466Y-91825534D03*
X-48804466Y-81665534D03*
X-25944466Y-28325534D03*
X-33564466Y-23245534D03*
X-10704466Y-38485534D03*
X-74204466Y-18165534D03*
X-38644466Y-18165534D03*
X-58964466Y-8005534D03*
X-3084466Y-41025534D03*
X-13244466Y-43565534D03*
X-36104466Y-13085534D03*
X-31024466Y-61345534D03*
X-18324466Y-46105534D03*
X-33564466Y-28325534D03*
X-36104466Y-2925534D03*
X-28484466Y-41025534D03*
X-64044466Y-61345534D03*
X-10704466Y-8005534D03*
X-33564466Y-48645534D03*
X-79284466Y-18165534D03*
X-84364466Y-68965534D03*
X-76744466Y-76585534D03*
X-15784466Y-8005534D03*
X-79284466Y-84205534D03*
X-89444466Y-28325534D03*
X-51344466Y-18165534D03*
X-46264466Y-5465534D03*
X-64044466Y-53725534D03*
X-48804466Y-13085534D03*
X-79284466Y-89285534D03*
X-8164466Y-58805534D03*
X-18324466Y-94365534D03*
X-66584466Y-25785534D03*
X-66584466Y-91825534D03*
X-84364466Y-15625534D03*
X-79284466Y-53725534D03*
X-18324466Y-63885534D03*
X-48804466Y-28325534D03*
X-89444466Y-63885534D03*
X-544466Y-18165534D03*
X-5624466Y-51185534D03*
X-66584466Y-20705534D03*
X-51344466Y-66425534D03*
X-53884466Y-84205534D03*
X-43724466Y-76585534D03*
X-89444466Y-84205534D03*
X-41184466Y-33405534D03*
X-18324466Y-79125534D03*
X-31024466Y-25785534D03*
X-20864466Y-76585534D03*
X-46264466Y-53725534D03*
X-8164466Y-96905534D03*
X-56424466Y-86745534D03*
X-89444466Y-38485534D03*
X-41184466Y-30865534D03*
X1995534Y-71505534D03*
X-13244466Y-58805534D03*
X-48804466Y-79125534D03*
X-46264466Y-76585534D03*
X-31024466Y-94365534D03*
X-28484466Y-46105534D03*
X-31024466Y-79125534D03*
X-81824466Y-23245534D03*
X-51344466Y-13085534D03*
X-56424466Y-76585534D03*
X-43724466Y-43565534D03*
X-48804466Y-38485534D03*
X-56424466Y-58805534D03*
X-31024466Y-33405534D03*
X-69124466Y-35945534D03*
X-41184466Y-71505534D03*
X-18324466Y-84205534D03*
X-84364466Y-71505534D03*
X-46264466Y-38485534D03*
X-544466Y-10545534D03*
X-3084466Y-23245534D03*
X-91984466Y-43565534D03*
X-81824466Y-79125534D03*
X-71664466Y-61345534D03*
X-43724466Y-46105534D03*
X-51344466Y-81665534D03*
X-66584466Y-15625534D03*
X-48804466Y-63885534D03*
X-56424466Y-43565534D03*
X1995534Y-84205534D03*
X-69124466Y-30865534D03*
X-10704466Y-35945534D03*
X-66584466Y-35945534D03*
X-86904466Y-86745534D03*
X-23404466Y-94365534D03*
X-10704466Y-51185534D03*
X-81824466Y-94365534D03*
X-69124466Y-23245534D03*
X-51344466Y-79125534D03*
X-33564466Y-71505534D03*
X-64044466Y-28325534D03*
X-3084466Y-86745534D03*
X-58964466Y-81665534D03*
X1995534Y-86745534D03*
X-41184466Y-13085534D03*
X-48804466Y-15625534D03*
X-43724466Y-35945534D03*
X-43724466Y-61345534D03*
X-76744466Y-89285534D03*
X-74204466Y-35945534D03*
X-48804466Y-18165534D03*
X-46264466Y-91825534D03*
X-544466Y-86745534D03*
X-38644466Y-35945534D03*
X-33564466Y-58805534D03*
X-74204466Y-94365534D03*
X-3084466Y-84205534D03*
X-91984466Y-28325534D03*
X-43724466Y-53725534D03*
X-46264466Y-8005534D03*
X-61504466Y-5465534D03*
X-61504466Y-63885534D03*
X-20864466Y-58805534D03*
X-69124466Y-56265534D03*
X-10704466Y-10545534D03*
X-48804466Y-20705534D03*
X-3084466Y-66425534D03*
X-8164466Y-43565534D03*
X-3084466Y-33405534D03*
X-81824466Y-35945534D03*
X-18324466Y-66425534D03*
X-81824466Y-68965534D03*
X-46264466Y-30865534D03*
X-81824466Y-61345534D03*
X-89444466Y-81665534D03*
X-79284466Y-91825534D03*
X-64044466Y-35945534D03*
X-18324466Y-15625534D03*
X-58964466Y-96905534D03*
X-64044466Y-96905534D03*
X-10704466Y-43565534D03*
X-10704466Y-5465534D03*
X-15784466Y-35945534D03*
X-28484466Y-28325534D03*
X-33564466Y-35945534D03*
X-20864466Y-79125534D03*
X-86904466Y-30865534D03*
X-76744466Y-71505534D03*
X-56424466Y-41025534D03*
X-53884466Y-33405534D03*
X-15784466Y-86745534D03*
X-71664466Y-91825534D03*
X-48804466Y-53725534D03*
X-15784466Y-94365534D03*
X-46264466Y-20705534D03*
X-5624466Y-81665534D03*
X-91984466Y-41025534D03*
X-20864466Y-28325534D03*
X-33564466Y-79125534D03*
X-3084466Y-28325534D03*
X-28484466Y-10545534D03*
X-5624466Y-91825534D03*
X-13244466Y-5465534D03*
X-76744466Y-8005534D03*
X-25944466Y-18165534D03*
X-38644466Y-23245534D03*
X-56424466Y-51185534D03*
X-28484466Y-96905534D03*
X-91984466Y-10545534D03*
X-79284466Y-28325534D03*
X-79284466Y-71505534D03*
X-81824466Y-46105534D03*
X-64044466Y-51185534D03*
X-71664466Y-94365534D03*
X-79284466Y-63885534D03*
X-15784466Y-61345534D03*
X-79284466Y-2925534D03*
X-28484466Y-81665534D03*
X-51344466Y-74045534D03*
X1995534Y-23245534D03*
X-544466Y-53725534D03*
X-56424466Y-84205534D03*
X-61504466Y-18165534D03*
X-51344466Y-8005534D03*
X-79284466Y-86745534D03*
X-74204466Y-15625534D03*
X-15784466Y-2925534D03*
X-23404466Y-79125534D03*
X-544466Y-71505534D03*
X1995534Y-35945534D03*
X-81824466Y-18165534D03*
X-20864466Y-30865534D03*
X-64044466Y-81665534D03*
X-15784466Y-23245534D03*
X-23404466Y-91825534D03*
X-23404466Y-86745534D03*
X-53884466Y-8005534D03*
X-10704466Y-61345534D03*
X-41184466Y-10545534D03*
X-61504466Y-51185534D03*
X-91984466Y-48645534D03*
X-48804466Y-35945534D03*
X-46264466Y-43565534D03*
X-89444466Y-15625534D03*
X-28484466Y-13085534D03*
X-43724466Y-13085534D03*
X-86904466Y-61345534D03*
X-79284466Y-20705534D03*
X-20864466Y-23245534D03*
X-71664466Y-96905534D03*
X-58964466Y-30865534D03*
X-33564466Y-91825534D03*
X-3084466Y-13085534D03*
X-79284466Y-51185534D03*
X-64044466Y-25785534D03*
X-31024466Y-63885534D03*
X-13244466Y-84205534D03*
X-10704466Y-89285534D03*
X-46264466Y-89285534D03*
X-46264466Y-66425534D03*
X-74204466Y-74045534D03*
X1995534Y-20705534D03*
X-13244466Y-79125534D03*
X-76744466Y-15625534D03*
X-18324466Y-53725534D03*
X-58964466Y-79125534D03*
X-53884466Y-68965534D03*
X-18324466Y-89285534D03*
X-58964466Y-38485534D03*
X-43724466Y-58805534D03*
X-76744466Y-66425534D03*
X-64044466Y-48645534D03*
X-5624466Y-30865534D03*
X-58964466Y-51185534D03*
X-10704466Y-23245534D03*
X-61504466Y-23245534D03*
X-58964466Y-66425534D03*
X-69124466Y-41025534D03*
X-51344466Y-89285534D03*
X-91984466Y-23245534D03*
X-61504466Y-53725534D03*
X-28484466Y-61345534D03*
X1995534Y-18165534D03*
X-51344466Y-33405534D03*
X-64044466Y-8005534D03*
X-23404466Y-8005534D03*
X-74204466Y-8005534D03*
X-51344466Y-23245534D03*
X-25944466Y-58805534D03*
X-43724466Y-84205534D03*
X-15784466Y-51185534D03*
X-61504466Y-76585534D03*
X-31024466Y-89285534D03*
X-25944466Y-81665534D03*
X-51344466Y-51185534D03*
X-23404466Y-23245534D03*
X-544466Y-35945534D03*
X-76744466Y-46105534D03*
X-28484466Y-51185534D03*
X-53884466Y-15625534D03*
X-3084466Y-74045534D03*
X-28484466Y-38485534D03*
X1995534Y-13085534D03*
X-20864466Y-61345534D03*
X-79284466Y-68965534D03*
X-3084466Y-10545534D03*
X-51344466Y-61345534D03*
X-25944466Y-10545534D03*
X-46264466Y-84205534D03*
X-8164466Y-56265534D03*
X-41184466Y-76585534D03*
X-36104466Y-23245534D03*
X-84364466Y-86745534D03*
X-5624466Y-13085534D03*
X-10704466Y-2925534D03*
X-66584466Y-94365534D03*
X-69124466Y-15625534D03*
X-3084466Y-18165534D03*
X-23404466Y-38485534D03*
X-61504466Y-81665534D03*
X-66584466Y-86745534D03*
X-81824466Y-48645534D03*
X-69124466Y-58805534D03*
X-13244466Y-8005534D03*
X-3084466Y-81665534D03*
X-66584466Y-68965534D03*
X-69124466Y-5465534D03*
X-46264466Y-51185534D03*
X-66584466Y-56265534D03*
X-58964466Y-61345534D03*
X-18324466Y-18165534D03*
X-3084466Y-58805534D03*
X-61504466Y-46105534D03*
X-31024466Y-58805534D03*
D12*
X-89444466Y-94365534D03*
D11*
X-13244466Y-41025534D03*
X-48804466Y-10545534D03*
X-66584466Y-8005534D03*
X-53884466Y-38485534D03*
X-76744466Y-38485534D03*
X-20864466Y-18165534D03*
X-43724466Y-51185534D03*
X-25944466Y-86745534D03*
X-18324466Y-51185534D03*
X-64044466Y-30865534D03*
X-8164466Y-68965534D03*
X-74204466Y-20705534D03*
X-71664466Y-84205534D03*
X-51344466Y-43565534D03*
X-79284466Y-41025534D03*
X-41184466Y-20705534D03*
X-18324466Y-13085534D03*
X1995534Y-48645534D03*
X-61504466Y-43565534D03*
X1995534Y-43565534D03*
X-33564466Y-13085534D03*
X-76744466Y-86745534D03*
X-28484466Y-2925534D03*
X-41184466Y-35945534D03*
X-3084466Y-43565534D03*
X-33564466Y-38485534D03*
X-15784466Y-96905534D03*
X-64044466Y-74045534D03*
X-69124466Y-46105534D03*
X-61504466Y-79125534D03*
X-74204466Y-51185534D03*
X-48804466Y-46105534D03*
X-71664466Y-28325534D03*
X-20864466Y-74045534D03*
X-5624466Y-84205534D03*
X-544466Y-23245534D03*
X-23404466Y-35945534D03*
X-74204466Y-56265534D03*
X-13244466Y-13085534D03*
X-69124466Y-94365534D03*
X1995534Y-33405534D03*
X-48804466Y-8005534D03*
X-91984466Y-71505534D03*
X-53884466Y-58805534D03*
X-53884466Y-28325534D03*
X-5624466Y-33405534D03*
X-544466Y-30865534D03*
X-58964466Y-23245534D03*
X-31024466Y-74045534D03*
X-15784466Y-71505534D03*
X-69124466Y-20705534D03*
X-10704466Y-79125534D03*
X-33564466Y-76585534D03*
X-51344466Y-5465534D03*
X-71664466Y-51185534D03*
X-74204466Y-25785534D03*
X-8164466Y-46105534D03*
X-69124466Y-91825534D03*
X-76744466Y-2925534D03*
X-69124466Y-84205534D03*
X-69124466Y-43565534D03*
X-84364466Y-66425534D03*
X-10704466Y-41025534D03*
X-79284466Y-23245534D03*
X-43724466Y-33405534D03*
X-56424466Y-74045534D03*
X-18324466Y-76585534D03*
X-544466Y-51185534D03*
X-69124466Y-53725534D03*
X-81824466Y-86745534D03*
X-8164466Y-71505534D03*
X-15784466Y-58805534D03*
X-31024466Y-56265534D03*
X-66584466Y-71505534D03*
X-13244466Y-66425534D03*
X1995534Y-28325534D03*
X-31024466Y-5465534D03*
X-38644466Y-86745534D03*
X-53884466Y-20705534D03*
X-20864466Y-96905534D03*
X-91984466Y-81665534D03*
X-86904466Y-89285534D03*
X-38644466Y-28325534D03*
X-5624466Y-96905534D03*
X-38644466Y-43565534D03*
X-5624466Y-46105534D03*
X-13244466Y-18165534D03*
X-36104466Y-66425534D03*
X-25944466Y-61345534D03*
X-23404466Y-25785534D03*
X-38644466Y-91825534D03*
X-10704466Y-28325534D03*
X-5624466Y-68965534D03*
X-69124466Y-2925534D03*
X-84364466Y-28325534D03*
X-66584466Y-23245534D03*
X-25944466Y-23245534D03*
X-84364466Y-58805534D03*
X-41184466Y-41025534D03*
X-71664466Y-5465534D03*
X-43724466Y-89285534D03*
X-33564466Y-8005534D03*
X-20864466Y-15625534D03*
X-20864466Y-41025534D03*
X-8164466Y-30865534D03*
X-8164466Y-10545534D03*
X-41184466Y-58805534D03*
X-28484466Y-84205534D03*
X-58964466Y-58805534D03*
X-33564466Y-46105534D03*
X-81824466Y-84205534D03*
X-3084466Y-25785534D03*
X-38644466Y-5465534D03*
X1995534Y-46105534D03*
X-48804466Y-84205534D03*
X-43724466Y-56265534D03*
X-74204466Y-38485534D03*
X-15784466Y-20705534D03*
X-58964466Y-74045534D03*
X-10704466Y-63885534D03*
X-41184466Y-56265534D03*
X-41184466Y-2925534D03*
X-56424466Y-5465534D03*
X-20864466Y-66425534D03*
X-74204466Y-30865534D03*
X-20864466Y-8005534D03*
X-36104466Y-68965534D03*
X-544466Y-58805534D03*
X-544466Y-74045534D03*
X-36104466Y-18165534D03*
X-61504466Y-15625534D03*
X-8164466Y-91825534D03*
X-86904466Y-81665534D03*
X-25944466Y-20705534D03*
X-25944466Y-48645534D03*
X-74204466Y-41025534D03*
X-20864466Y-2925534D03*
X-56424466Y-38485534D03*
X-31024466Y-91825534D03*
X-544466Y-61345534D03*
X-15784466Y-76585534D03*
X-31024466Y-71505534D03*
X-8164466Y-48645534D03*
X-56424466Y-61345534D03*
X-48804466Y-74045534D03*
X-74204466Y-53725534D03*
X-36104466Y-63885534D03*
X-86904466Y-71505534D03*
X-69124466Y-18165534D03*
X-18324466Y-86745534D03*
X-8164466Y-89285534D03*
X-20864466Y-89285534D03*
X-10704466Y-46105534D03*
X-86904466Y-41025534D03*
X-36104466Y-48645534D03*
X-86904466Y-76585534D03*
X-41184466Y-28325534D03*
X-38644466Y-38485534D03*
X-33564466Y-66425534D03*
X1995534Y-10545534D03*
X-28484466Y-30865534D03*
X-51344466Y-25785534D03*
X-25944466Y-74045534D03*
X-5624466Y-86745534D03*
X-91984466Y-74045534D03*
X-25944466Y-89285534D03*
X-5624466Y-74045534D03*
X-69124466Y-28325534D03*
X-46264466Y-2925534D03*
X-20864466Y-48645534D03*
X-58964466Y-91825534D03*
X1995534Y-61345534D03*
X-89444466Y-51185534D03*
X-23404466Y-53725534D03*
X-5624466Y-15625534D03*
X-84364466Y-79125534D03*
X-31024466Y-10545534D03*
X-76744466Y-53725534D03*
X-61504466Y-58805534D03*
X-13244466Y-20705534D03*
X-28484466Y-71505534D03*
X-8164466Y-38485534D03*
X-15784466Y-74045534D03*
X-23404466Y-58805534D03*
X-51344466Y-76585534D03*
X-31024466Y-18165534D03*
D12*
X-89444466Y-5465534D03*
D11*
X-5624466Y-28325534D03*
X-10704466Y-58805534D03*
X-66584466Y-30865534D03*
X-69124466Y-66425534D03*
X-84364466Y-5465534D03*
X1995534Y-81665534D03*
X-81824466Y-10545534D03*
X-20864466Y-68965534D03*
X-41184466Y-18165534D03*
X-544466Y-79125534D03*
X-13244466Y-86745534D03*
X-23404466Y-28325534D03*
X-76744466Y-51185534D03*
X-13244466Y-76585534D03*
X-43724466Y-63885534D03*
X-41184466Y-43565534D03*
X-86904466Y-84205534D03*
X-8164466Y-79125534D03*
X-74204466Y-28325534D03*
X-36104466Y-89285534D03*
X-79284466Y-38485534D03*
X-86904466Y-63885534D03*
X-76744466Y-68965534D03*
X-41184466Y-25785534D03*
X1995534Y-30865534D03*
X-8164466Y-66425534D03*
X-71664466Y-10545534D03*
X-544466Y-33405534D03*
X-79284466Y-56265534D03*
X-48804466Y-25785534D03*
X-41184466Y-66425534D03*
X-89444466Y-41025534D03*
X-58964466Y-46105534D03*
X-86904466Y-48645534D03*
X-13244466Y-38485534D03*
X-10704466Y-86745534D03*
X-86904466Y-51185534D03*
X-64044466Y-91825534D03*
X-71664466Y-48645534D03*
X-56424466Y-53725534D03*
X-20864466Y-56265534D03*
X-46264466Y-56265534D03*
X-51344466Y-48645534D03*
X-20864466Y-38485534D03*
X-15784466Y-41025534D03*
X-81824466Y-8005534D03*
X-89444466Y-74045534D03*
X-51344466Y-56265534D03*
X-66584466Y-58805534D03*
X-84364466Y-48645534D03*
X-81824466Y-15625534D03*
X-89444466Y-18165534D03*
X-56424466Y-8005534D03*
X-64044466Y-86745534D03*
X-58964466Y-71505534D03*
X-51344466Y-38485534D03*
X-28484466Y-89285534D03*
X-61504466Y-94365534D03*
X-13244466Y-94365534D03*
X-66584466Y-2925534D03*
X-13244466Y-30865534D03*
X-43724466Y-68965534D03*
X-38644466Y-48645534D03*
X-56424466Y-28325534D03*
X-31024466Y-30865534D03*
X-53884466Y-56265534D03*
X-20864466Y-63885534D03*
X-76744466Y-43565534D03*
X-5624466Y-53725534D03*
X-91984466Y-15625534D03*
X-20864466Y-81665534D03*
X-5624466Y-38485534D03*
X-71664466Y-74045534D03*
X-84364466Y-23245534D03*
X-10704466Y-76585534D03*
X-544466Y-28325534D03*
X-25944466Y-2925534D03*
X-71664466Y-66425534D03*
X-91984466Y-25785534D03*
X-23404466Y-13085534D03*
X-8164466Y-84205534D03*
X-64044466Y-5465534D03*
X-48804466Y-48645534D03*
X-84364466Y-41025534D03*
X-74204466Y-10545534D03*
X-18324466Y-5465534D03*
X-76744466Y-5465534D03*
X-64044466Y-41025534D03*
X-33564466Y-20705534D03*
X-69124466Y-74045534D03*
X-3084466Y-56265534D03*
X-18324466Y-68965534D03*
X-66584466Y-96905534D03*
X-25944466Y-94365534D03*
X-10704466Y-66425534D03*
X-69124466Y-10545534D03*
X-38644466Y-33405534D03*
X-76744466Y-28325534D03*
X-86904466Y-35945534D03*
X-15784466Y-84205534D03*
X-69124466Y-76585534D03*
X-38644466Y-63885534D03*
X-33564466Y-63885534D03*
X-46264466Y-48645534D03*
X-53884466Y-79125534D03*
X-86904466Y-56265534D03*
X-89444466Y-48645534D03*
X-53884466Y-35945534D03*
X-18324466Y-35945534D03*
X-76744466Y-23245534D03*
X-43724466Y-79125534D03*
X-28484466Y-94365534D03*
X-71664466Y-43565534D03*
X-76744466Y-79125534D03*
X-41184466Y-89285534D03*
X-89444466Y-66425534D03*
X-31024466Y-86745534D03*
X-53884466Y-30865534D03*
X-61504466Y-56265534D03*
X-3084466Y-76585534D03*
X-36104466Y-38485534D03*
X-58964466Y-63885534D03*
X-48804466Y-61345534D03*
X-61504466Y-41025534D03*
X-5624466Y-56265534D03*
X-33564466Y-18165534D03*
X-38644466Y-8005534D03*
X-86904466Y-79125534D03*
X-43724466Y-5465534D03*
X-58964466Y-28325534D03*
X-23404466Y-15625534D03*
X-38644466Y-25785534D03*
X-38644466Y-61345534D03*
X1995534Y-53725534D03*
X-38644466Y-71505534D03*
X-56424466Y-48645534D03*
X-10704466Y-15625534D03*
X-36104466Y-81665534D03*
X-36104466Y-56265534D03*
X-41184466Y-5465534D03*
X-18324466Y-96905534D03*
X-8164466Y-61345534D03*
X-48804466Y-89285534D03*
X-28484466Y-58805534D03*
X-76744466Y-30865534D03*
X-81824466Y-66425534D03*
X-61504466Y-84205534D03*
X-79284466Y-46105534D03*
X-84364466Y-10545534D03*
X-89444466Y-43565534D03*
X-48804466Y-91825534D03*
X-23404466Y-46105534D03*
X-69124466Y-71505534D03*
X-66584466Y-48645534D03*
X-10704466Y-84205534D03*
X-46264466Y-74045534D03*
X-79284466Y-33405534D03*
X-91984466Y-13085534D03*
X-23404466Y-43565534D03*
X-25944466Y-51185534D03*
X-74204466Y-66425534D03*
X-79284466Y-30865534D03*
X-13244466Y-23245534D03*
X-69124466Y-86745534D03*
X-38644466Y-20705534D03*
X-41184466Y-15625534D03*
X-61504466Y-28325534D03*
X-15784466Y-5465534D03*
X-38644466Y-13085534D03*
X-84364466Y-20705534D03*
X-18324466Y-20705534D03*
X-13244466Y-2925534D03*
X-84364466Y-33405534D03*
X-84364466Y-8005534D03*
X-46264466Y-68965534D03*
X-86904466Y-15625534D03*
X-25944466Y-41025534D03*
X-33564466Y-68965534D03*
X-89444466Y-35945534D03*
X-74204466Y-89285534D03*
X-86904466Y-46105534D03*
X-8164466Y-5465534D03*
X-544466Y-41025534D03*
X-13244466Y-33405534D03*
X-84364466Y-74045534D03*
X-74204466Y-58805534D03*
X-61504466Y-96905534D03*
X-23404466Y-89285534D03*
X-89444466Y-79125534D03*
X-23404466Y-81665534D03*
X-38644466Y-51185534D03*
X-10704466Y-74045534D03*
X-71664466Y-8005534D03*
X-69124466Y-89285534D03*
X-8164466Y-63885534D03*
X-5624466Y-18165534D03*
X-13244466Y-81665534D03*
X-69124466Y-81665534D03*
X-36104466Y-41025534D03*
X-84364466Y-89285534D03*
X-25944466Y-33405534D03*
X-38644466Y-10545534D03*
X-74204466Y-5465534D03*
X-15784466Y-89285534D03*
X-36104466Y-5465534D03*
X-71664466Y-63885534D03*
X-31024466Y-84205534D03*
X-3084466Y-48645534D03*
X-3084466Y-79125534D03*
X-71664466Y-68965534D03*
X-91984466Y-58805534D03*
X-79284466Y-81665534D03*
X-58964466Y-86745534D03*
X-79284466Y-61345534D03*
X-48804466Y-43565534D03*
X-23404466Y-10545534D03*
X-36104466Y-28325534D03*
X-56424466Y-20705534D03*
X-53884466Y-91825534D03*
X-31024466Y-41025534D03*
X-20864466Y-86745534D03*
X-84364466Y-63885534D03*
X-46264466Y-13085534D03*
X1995534Y-51185534D03*
X-25944466Y-96905534D03*
X-89444466Y-30865534D03*
X-51344466Y-20705534D03*
X-31024466Y-96905534D03*
X-89444466Y-53725534D03*
X-10704466Y-20705534D03*
X-69124466Y-68965534D03*
X-25944466Y-46105534D03*
X1995534Y-58805534D03*
X-53884466Y-18165534D03*
X-8164466Y-15625534D03*
X-41184466Y-74045534D03*
X-20864466Y-35945534D03*
X-53884466Y-71505534D03*
X-58964466Y-10545534D03*
X-25944466Y-8005534D03*
X-41184466Y-79125534D03*
X-48804466Y-58805534D03*
X-79284466Y-76585534D03*
X-18324466Y-28325534D03*
X-76744466Y-81665534D03*
X-36104466Y-84205534D03*
X-46264466Y-63885534D03*
X-79284466Y-10545534D03*
X-36104466Y-86745534D03*
X-89444466Y-46105534D03*
X-89444466Y-58805534D03*
X-58964466Y-94365534D03*
X-91984466Y-79125534D03*
X-71664466Y-79125534D03*
X-66584466Y-41025534D03*
X-15784466Y-25785534D03*
X-13244466Y-35945534D03*
X-76744466Y-20705534D03*
X-31024466Y-81665534D03*
X-74204466Y-23245534D03*
X-31024466Y-13085534D03*
X-13244466Y-15625534D03*
X-18324466Y-23245534D03*
X-89444466Y-20705534D03*
X-41184466Y-68965534D03*
X-25944466Y-30865534D03*
X1995534Y-41025534D03*
X-3084466Y-68965534D03*
X-91984466Y-53725534D03*
X-23404466Y-18165534D03*
X-41184466Y-51185534D03*
X-28484466Y-76585534D03*
X-36104466Y-43565534D03*
X-43724466Y-20705534D03*
X-51344466Y-84205534D03*
X-56424466Y-89285534D03*
X-66584466Y-79125534D03*
X-10704466Y-56265534D03*
X-74204466Y-68965534D03*
X-71664466Y-13085534D03*
X-18324466Y-48645534D03*
X-84364466Y-94365534D03*
X-66584466Y-89285534D03*
X-15784466Y-18165534D03*
X-544466Y-13085534D03*
X-53884466Y-43565534D03*
X-56424466Y-33405534D03*
X-64044466Y-23245534D03*
X-48804466Y-5465534D03*
X-91984466Y-46105534D03*
X-46264466Y-81665534D03*
X-544466Y-81665534D03*
X-5624466Y-66425534D03*
X-5624466Y-48645534D03*
X-5624466Y-63885534D03*
X-76744466Y-56265534D03*
X-79284466Y-35945534D03*
X-53884466Y-48645534D03*
X-10704466Y-68965534D03*
X-89444466Y-25785534D03*
X-33564466Y-43565534D03*
X-48804466Y-56265534D03*
X-56424466Y-23245534D03*
X-20864466Y-43565534D03*
X-66584466Y-18165534D03*
D12*
X-544466Y-5465534D03*
D11*
X-33564466Y-74045534D03*
X-81824466Y-20705534D03*
X-51344466Y-71505534D03*
X-544466Y-46105534D03*
X-43724466Y-15625534D03*
X-56424466Y-68965534D03*
X-15784466Y-15625534D03*
X-48804466Y-76585534D03*
X-23404466Y-41025534D03*
X-13244466Y-25785534D03*
X-74204466Y-46105534D03*
X-64044466Y-94365534D03*
X-41184466Y-53725534D03*
X-81824466Y-76585534D03*
X-81824466Y-30865534D03*
X-91984466Y-84205534D03*
X-71664466Y-81665534D03*
X-66584466Y-28325534D03*
X-81824466Y-74045534D03*
X-25944466Y-68965534D03*
X-43724466Y-91825534D03*
X-64044466Y-46105534D03*
X-38644466Y-56265534D03*
X-5624466Y-35945534D03*
X-91984466Y-18165534D03*
X-15784466Y-38485534D03*
X-91984466Y-86745534D03*
X-544466Y-68965534D03*
X-23404466Y-61345534D03*
X-56424466Y-15625534D03*
X-33564466Y-30865534D03*
X-33564466Y-41025534D03*
X-84364466Y-96905534D03*
X-18324466Y-38485534D03*
X-28484466Y-56265534D03*
X-20864466Y-33405534D03*
X-25944466Y-84205534D03*
X-51344466Y-10545534D03*
X-64044466Y-13085534D03*
X-33564466Y-89285534D03*
X-61504466Y-10545534D03*
X-36104466Y-91825534D03*
X-25944466Y-66425534D03*
X-58964466Y-84205534D03*
X-61504466Y-68965534D03*
X-69124466Y-33405534D03*
X-64044466Y-89285534D03*
X-36104466Y-33405534D03*
X-74204466Y-61345534D03*
X-81824466Y-63885534D03*
X-18324466Y-43565534D03*
X-10704466Y-25785534D03*
X-544466Y-25785534D03*
X-66584466Y-5465534D03*
X-46264466Y-41025534D03*
X-71664466Y-89285534D03*
X-3084466Y-38485534D03*
X-79284466Y-25785534D03*
X-18324466Y-56265534D03*
X-71664466Y-20705534D03*
X-28484466Y-68965534D03*
X-3084466Y-63885534D03*
X-51344466Y-41025534D03*
X-5624466Y-94365534D03*
X-33564466Y-25785534D03*
X-74204466Y-2925534D03*
X-8164466Y-18165534D03*
X-28484466Y-5465534D03*
X-84364466Y-38485534D03*
X-544466Y-15625534D03*
X-10704466Y-96905534D03*
X-64044466Y-58805534D03*
X-544466Y-84205534D03*
X-79284466Y-15625534D03*
X-48804466Y-68965534D03*
X-61504466Y-33405534D03*
X-76744466Y-48645534D03*
X-81824466Y-28325534D03*
X-66584466Y-33405534D03*
X-58964466Y-13085534D03*
X-91984466Y-61345534D03*
X-23404466Y-20705534D03*
X-74204466Y-33405534D03*
X-13244466Y-10545534D03*
X-5624466Y-41025534D03*
X-46264466Y-15625534D03*
X-51344466Y-68965534D03*
X-74204466Y-86745534D03*
X-43724466Y-81665534D03*
X-33564466Y-15625534D03*
X-25944466Y-43565534D03*
X-66584466Y-76585534D03*
X-84364466Y-35945534D03*
X-31024466Y-46105534D03*
X-69124466Y-8005534D03*
X-91984466Y-51185534D03*
X-64044466Y-38485534D03*
X-25944466Y-15625534D03*
X-28484466Y-66425534D03*
X-71664466Y-15625534D03*
X-15784466Y-56265534D03*
X-53884466Y-53725534D03*
X-8164466Y-23245534D03*
X-81824466Y-25785534D03*
X-86904466Y-28325534D03*
X-74204466Y-81665534D03*
X-56424466Y-63885534D03*
X-79284466Y-79125534D03*
X-64044466Y-84205534D03*
X-48804466Y-33405534D03*
X-76744466Y-33405534D03*
X-28484466Y-79125534D03*
X-79284466Y-96905534D03*
X-10704466Y-30865534D03*
X-23404466Y-2925534D03*
X-43724466Y-30865534D03*
X-66584466Y-43565534D03*
X-38644466Y-89285534D03*
X-23404466Y-71505534D03*
X-53884466Y-76585534D03*
X-48804466Y-86745534D03*
X-20864466Y-53725534D03*
X-56424466Y-91825534D03*
X-38644466Y-58805534D03*
X-41184466Y-61345534D03*
X-66584466Y-53725534D03*
X-8164466Y-94365534D03*
X-61504466Y-13085534D03*
X-31024466Y-53725534D03*
X-53884466Y-86745534D03*
X-544466Y-38485534D03*
X-8164466Y-41025534D03*
X-38644466Y-46105534D03*
X-33564466Y-81665534D03*
X-13244466Y-61345534D03*
X-544466Y-89285534D03*
X-84364466Y-18165534D03*
X-38644466Y-81665534D03*
X-51344466Y-53725534D03*
X-36104466Y-46105534D03*
X-56424466Y-13085534D03*
X-76744466Y-96905534D03*
X1995534Y-74045534D03*
X-89444466Y-61345534D03*
X-18324466Y-71505534D03*
X-8164466Y-20705534D03*
X-43724466Y-38485534D03*
X-25944466Y-38485534D03*
X-3084466Y-71505534D03*
X-23404466Y-48645534D03*
X-58964466Y-5465534D03*
X-31024466Y-66425534D03*
X-20864466Y-10545534D03*
X-89444466Y-33405534D03*
X-38644466Y-84205534D03*
X-64044466Y-43565534D03*
X1995534Y-25785534D03*
X-31024466Y-35945534D03*
X-25944466Y-76585534D03*
X-61504466Y-74045534D03*
X-15784466Y-28325534D03*
X-56424466Y-81665534D03*
X-79284466Y-43565534D03*
X-51344466Y-86745534D03*
X-74204466Y-13085534D03*
X-66584466Y-63885534D03*
X-18324466Y-33405534D03*
X-20864466Y-94365534D03*
X-38644466Y-66425534D03*
X-544466Y-43565534D03*
X-86904466Y-38485534D03*
X-51344466Y-35945534D03*
X-84364466Y-81665534D03*
X-69124466Y-38485534D03*
X-20864466Y-91825534D03*
X-69124466Y-25785534D03*
X-81824466Y-89285534D03*
X-58964466Y-35945534D03*
X-89444466Y-86745534D03*
X-41184466Y-81665534D03*
X-56424466Y-79125534D03*
X-15784466Y-79125534D03*
X-76744466Y-18165534D03*
X-41184466Y-8005534D03*
X-69124466Y-63885534D03*
X-86904466Y-18165534D03*
X-18324466Y-81665534D03*
X-91984466Y-56265534D03*
X-61504466Y-2925534D03*
X-8164466Y-74045534D03*
X-15784466Y-81665534D03*
X-56424466Y-25785534D03*
X-3084466Y-15625534D03*
X-71664466Y-86745534D03*
X-56424466Y-30865534D03*
X-91984466Y-68965534D03*
X-544466Y-56265534D03*
X-25944466Y-13085534D03*
X-10704466Y-48645534D03*
X-36104466Y-35945534D03*
X-86904466Y-10545534D03*
X-5624466Y-61345534D03*
X-43724466Y-18165534D03*
X-69124466Y-96905534D03*
X-23404466Y-66425534D03*
X-28484466Y-15625534D03*
X-10704466Y-13085534D03*
X-5624466Y-23245534D03*
X-3084466Y-20705534D03*
X-20864466Y-13085534D03*
X-38644466Y-30865534D03*
X-61504466Y-89285534D03*
X-56424466Y-2925534D03*
X-20864466Y-46105534D03*
X-81824466Y-2925534D03*
X-5624466Y-79125534D03*
X-41184466Y-91825534D03*
X-18324466Y-30865534D03*
X-13244466Y-53725534D03*
X-84364466Y-51185534D03*
X-8164466Y-2925534D03*
X-64044466Y-66425534D03*
X-33564466Y-61345534D03*
X-66584466Y-46105534D03*
X-10704466Y-18165534D03*
X-41184466Y-46105534D03*
X-18324466Y-2925534D03*
X-64044466Y-2925534D03*
X-81824466Y-58805534D03*
X-36104466Y-15625534D03*
X-8164466Y-8005534D03*
X-51344466Y-46105534D03*
X-84364466Y-84205534D03*
X-48804466Y-23245534D03*
X-64044466Y-10545534D03*
X-53884466Y-81665534D03*
X-3084466Y-30865534D03*
X-10704466Y-53725534D03*
X-58964466Y-56265534D03*
X-31024466Y-68965534D03*
X-58964466Y-43565534D03*
X-28484466Y-18165534D03*
X-8164466Y-76585534D03*
X-79284466Y-66425534D03*
X-43724466Y-23245534D03*
X-69124466Y-79125534D03*
X1995534Y-56265534D03*
X-23404466Y-33405534D03*
X-58964466Y-41025534D03*
X-74204466Y-71505534D03*
X1995534Y-38485534D03*
X-43724466Y-41025534D03*
X-46264466Y-33405534D03*
X-61504466Y-86745534D03*
X-86904466Y-25785534D03*
X-86904466Y-33405534D03*
X-79284466Y-74045534D03*
X-23404466Y-74045534D03*
X-61504466Y-61345534D03*
X-53884466Y-13085534D03*
X-53884466Y-41025534D03*
X-46264466Y-46105534D03*
X-33564466Y-51185534D03*
X-74204466Y-48645534D03*
X-71664466Y-30865534D03*
X-71664466Y-38485534D03*
X-10704466Y-81665534D03*
X-86904466Y-53725534D03*
X-69124466Y-61345534D03*
X-86904466Y-20705534D03*
X-64044466Y-63885534D03*
X-84364466Y-53725534D03*
X-5624466Y-43565534D03*
X-10704466Y-33405534D03*
X-79284466Y-5465534D03*
X-28484466Y-74045534D03*
X-5624466Y-10545534D03*
X-43724466Y-28325534D03*
X-28484466Y-20705534D03*
X-36104466Y-58805534D03*
X-91984466Y-30865534D03*
X-81824466Y-91825534D03*
X-43724466Y-48645534D03*
X-91984466Y-76585534D03*
X-20864466Y-5465534D03*
X-61504466Y-20705534D03*
X-23404466Y-84205534D03*
X-76744466Y-63885534D03*
X-18324466Y-41025534D03*
X-33564466Y-10545534D03*
X-36104466Y-76585534D03*
X-58964466Y-33405534D03*
X-84364466Y-30865534D03*
X-66584466Y-74045534D03*
X-71664466Y-2925534D03*
X-91984466Y-38485534D03*
X-46264466Y-61345534D03*
X-41184466Y-86745534D03*
X-61504466Y-30865534D03*
X-8164466Y-28325534D03*
X1995534Y-15625534D03*
X-91984466Y-66425534D03*
X-79284466Y-13085534D03*
X-46264466Y-71505534D03*
X-15784466Y-43565534D03*
X-15784466Y-33405534D03*
X-8164466Y-51185534D03*
X-8164466Y-86745534D03*
X-23404466Y-68965534D03*
X-84364466Y-76585534D03*
X-56424466Y-46105534D03*
X-46264466Y-10545534D03*
X-8164466Y-53725534D03*
X-43724466Y-86745534D03*
X-10704466Y-94365534D03*
X-53884466Y-66425534D03*
X-51344466Y-63885534D03*
X-31024466Y-76585534D03*
X-8164466Y-33405534D03*
X-71664466Y-76585534D03*
X-25944466Y-91825534D03*
X-81824466Y-53725534D03*
X-64044466Y-56265534D03*
X-53884466Y-25785534D03*
X-36104466Y-74045534D03*
X-25944466Y-56265534D03*
X-5624466Y-58805534D03*
X-69124466Y-51185534D03*
X-36104466Y-71505534D03*
X-84364466Y-13085534D03*
X-86904466Y-23245534D03*
X-89444466Y-56265534D03*
X-28484466Y-8005534D03*
X-20864466Y-20705534D03*
X-58964466Y-76585534D03*
X-43724466Y-8005534D03*
X-38644466Y-41025534D03*
X-3084466Y-53725534D03*
X-15784466Y-13085534D03*
X-66584466Y-10545534D03*
X-64044466Y-15625534D03*
X-3084466Y-61345534D03*
X-31024466Y-2925534D03*
X-66584466Y-13085534D03*
X-28484466Y-48645534D03*
X-8164466Y-81665534D03*
X-84364466Y-61345534D03*
X-18324466Y-58805534D03*
X-13244466Y-63885534D03*
X-544466Y-66425534D03*
X-84364466Y-25785534D03*
X-66584466Y-66425534D03*
X-64044466Y-79125534D03*
X-51344466Y-28325534D03*
X-81824466Y-33405534D03*
X-76744466Y-84205534D03*
X-48804466Y-2925534D03*
X-51344466Y-2925534D03*
X-33564466Y-33405534D03*
X-71664466Y-71505534D03*
X-84364466Y-46105534D03*
X-28484466Y-86745534D03*
X-28484466Y-91825534D03*
X-76744466Y-61345534D03*
X-53884466Y-51185534D03*
X-13244466Y-91825534D03*
X-58964466Y-20705534D03*
X-8164466Y-13085534D03*
X-74204466Y-79125534D03*
X-13244466Y-28325534D03*
X-66584466Y-81665534D03*
X-58964466Y-89285534D03*
X-89444466Y-71505534D03*
X-8164466Y-25785534D03*
X-23404466Y-96905534D03*
X-13244466Y-96905534D03*
X-91984466Y-35945534D03*
X-81824466Y-56265534D03*
X-25944466Y-63885534D03*
X-36104466Y-25785534D03*
X-23404466Y-56265534D03*
X-18324466Y-74045534D03*
X-71664466Y-23245534D03*
X-20864466Y-84205534D03*
X-64044466Y-18165534D03*
X-25944466Y-25785534D03*
X-20864466Y-51185534D03*
X1995534Y-68965534D03*
X-31024466Y-51185534D03*
X-31024466Y-38485534D03*
X-23404466Y-63885534D03*
X-89444466Y-76585534D03*
X-3084466Y-46105534D03*
X-28484466Y-43565534D03*
X-81824466Y-51185534D03*
X-33564466Y-84205534D03*
X-5624466Y-76585534D03*
X-61504466Y-35945534D03*
X-33564466Y-56265534D03*
X-56424466Y-18165534D03*
X-46264466Y-79125534D03*
X-91984466Y-63885534D03*
X-89444466Y-10545534D03*
X-41184466Y-48645534D03*
X-76744466Y-58805534D03*
X-86904466Y-74045534D03*
X-66584466Y-38485534D03*
X-15784466Y-66425534D03*
X-33564466Y-86745534D03*
X-5624466Y-71505534D03*
X-84364466Y-43565534D03*
X-61504466Y-38485534D03*
X-36104466Y-20705534D03*
X-15784466Y-63885534D03*
X-48804466Y-66425534D03*
X-66584466Y-51185534D03*
X-31024466Y-23245534D03*
X-28484466Y-63885534D03*
X-38644466Y-74045534D03*
X-76744466Y-94365534D03*
X-74204466Y-76585534D03*
X-74204466Y-63885534D03*
X-20864466Y-71505534D03*
X-51344466Y-30865534D03*
X-58964466Y-15625534D03*
X-20864466Y-25785534D03*
X-8164466Y-35945534D03*
X-58964466Y-2925534D03*
X-15784466Y-53725534D03*
X-15784466Y-68965534D03*
X-36104466Y-79125534D03*
X-76744466Y-25785534D03*
X-3084466Y-89285534D03*
X-81824466Y-38485534D03*
X1995534Y-63885534D03*
X-81824466Y-81665534D03*
X-38644466Y-53725534D03*
X-56424466Y-35945534D03*
X-53884466Y-5465534D03*
X-23404466Y-76585534D03*
X-23404466Y-51185534D03*
X-46264466Y-58805534D03*
X-71664466Y-33405534D03*
X-33564466Y-2925534D03*
X-23404466Y-30865534D03*
X-84364466Y-2925534D03*
X-53884466Y-46105534D03*
X-28484466Y-53725534D03*
X-25944466Y-5465534D03*
X1995534Y-89285534D03*
X-81824466Y-96905534D03*
X-71664466Y-46105534D03*
X-28484466Y-35945534D03*
X-5624466Y-20705534D03*
X-43724466Y-10545534D03*
X-36104466Y-8005534D03*
X-69124466Y-48645534D03*
X-53884466Y-74045534D03*
X-48804466Y-30865534D03*
X-31024466Y-43565534D03*
X-13244466Y-51185534D03*
X-76744466Y-41025534D03*
X-81824466Y-71505534D03*
X-41184466Y-63885534D03*
X-46264466Y-25785534D03*
X-53884466Y-63885534D03*
X-74204466Y-43565534D03*
X-69124466Y-13085534D03*
X-58964466Y-18165534D03*
%LPD*%
M02*
