%TF.GenerationSoftware,KiCad,Pcbnew,7.0.9*%
%TF.CreationDate,2024-01-12T02:26:01+08:00*%
%TF.ProjectId,UINIO-Peg-Board,55494e49-4f2d-4506-9567-2d426f617264,Version 1.0.1*%
%TF.SameCoordinates,PX637cc00PY32311f0*%
%TF.FileFunction,Legend,Bot*%
%TF.FilePolarity,Positive*%
%FSLAX46Y46*%
G04 Gerber Fmt 4.6, Leading zero omitted, Abs format (unit mm)*
G04 Created by KiCad (PCBNEW 7.0.9) date 2024-01-12 02:26:01*
%MOMM*%
%LPD*%
G01*
G04 APERTURE LIST*
%ADD10C,0.200000*%
%ADD11C,2.000000*%
%ADD12C,5.000000*%
G04 APERTURE END LIST*
D10*
G36*
X36696909Y-1925628D02*
G01*
X37099909Y-1925628D01*
X37099909Y-837526D01*
X37099504Y-809746D01*
X37098289Y-782920D01*
X37096264Y-757047D01*
X37093429Y-732127D01*
X37089784Y-708160D01*
X37085329Y-685147D01*
X37080064Y-663086D01*
X37073989Y-641979D01*
X37067104Y-621824D01*
X37059409Y-602623D01*
X37050904Y-584375D01*
X37041589Y-567080D01*
X37031464Y-550738D01*
X37020529Y-535350D01*
X37008783Y-520914D01*
X36996228Y-507431D01*
X36982789Y-494876D01*
X36968390Y-483131D01*
X36953033Y-472196D01*
X36936717Y-462071D01*
X36919442Y-452756D01*
X36901208Y-444251D01*
X36882016Y-436556D01*
X36861864Y-429671D01*
X36840754Y-423596D01*
X36818685Y-418331D01*
X36795657Y-413875D01*
X36771670Y-410230D01*
X36746724Y-407395D01*
X36720820Y-405370D01*
X36693956Y-404155D01*
X36666134Y-403750D01*
X36181068Y-403750D01*
X36153246Y-404155D01*
X36126382Y-405370D01*
X36100478Y-407395D01*
X36075532Y-410230D01*
X36051545Y-413875D01*
X36028517Y-418331D01*
X36006448Y-423596D01*
X35985338Y-429671D01*
X35965186Y-436556D01*
X35945994Y-444251D01*
X35927760Y-452756D01*
X35910485Y-462071D01*
X35894169Y-472196D01*
X35878812Y-483131D01*
X35864413Y-494876D01*
X35850974Y-507431D01*
X35838418Y-520914D01*
X35826673Y-535350D01*
X35815738Y-550738D01*
X35805613Y-567080D01*
X35796298Y-584375D01*
X35787793Y-602623D01*
X35780098Y-621824D01*
X35773213Y-641979D01*
X35767138Y-663086D01*
X35761873Y-685147D01*
X35757418Y-708160D01*
X35753773Y-732127D01*
X35750938Y-757047D01*
X35748913Y-782920D01*
X35747698Y-809746D01*
X35747293Y-837526D01*
X35747293Y-1925628D01*
X36150293Y-1925628D01*
X36150293Y-837526D01*
X36151304Y-817033D01*
X36154338Y-798555D01*
X36159393Y-782093D01*
X36166471Y-767647D01*
X36175570Y-755217D01*
X36186692Y-744803D01*
X36199836Y-736404D01*
X36215002Y-730021D01*
X36232191Y-725653D01*
X36251401Y-723302D01*
X36265332Y-722854D01*
X36581870Y-722854D01*
X36602429Y-723862D01*
X36620965Y-726885D01*
X36637480Y-731924D01*
X36651972Y-738979D01*
X36664442Y-748050D01*
X36674890Y-759137D01*
X36683315Y-772239D01*
X36689719Y-787357D01*
X36694100Y-804490D01*
X36696459Y-823640D01*
X36696909Y-837526D01*
X36696909Y-1925628D01*
G37*
G36*
X38040733Y-425000D02*
G01*
X37257812Y-425000D01*
X37257812Y-743736D01*
X37447589Y-743736D01*
X37447589Y-1606891D01*
X37257812Y-1606891D01*
X37257812Y-1925628D01*
X38040733Y-1925628D01*
X38040733Y-1606891D01*
X37850956Y-1606891D01*
X37850956Y-743736D01*
X38040733Y-743736D01*
X38040733Y-425000D01*
G37*
G36*
X39512418Y-425000D02*
G01*
X39092931Y-425000D01*
X38604934Y-1278995D01*
X38604934Y-425000D01*
X38201933Y-425000D01*
X38201933Y-1925628D01*
X38621420Y-1925628D01*
X39109051Y-1071999D01*
X39109051Y-1925628D01*
X39512418Y-1925628D01*
X39512418Y-425000D01*
G37*
G36*
X40454341Y-425000D02*
G01*
X39671420Y-425000D01*
X39671420Y-743736D01*
X39861197Y-743736D01*
X39861197Y-1606891D01*
X39671420Y-1606891D01*
X39671420Y-1925628D01*
X40454341Y-1925628D01*
X40454341Y-1606891D01*
X40264564Y-1606891D01*
X40264564Y-743736D01*
X40454341Y-743736D01*
X40454341Y-425000D01*
G37*
G36*
X41562205Y-404155D02*
G01*
X41589068Y-405370D01*
X41614973Y-407395D01*
X41639918Y-410230D01*
X41663905Y-413875D01*
X41686933Y-418331D01*
X41709002Y-423596D01*
X41730113Y-429671D01*
X41750264Y-436556D01*
X41769457Y-444251D01*
X41787691Y-452756D01*
X41804965Y-462071D01*
X41821282Y-472196D01*
X41836639Y-483131D01*
X41851037Y-494876D01*
X41864477Y-507431D01*
X41877032Y-520914D01*
X41888777Y-535350D01*
X41899712Y-550738D01*
X41909837Y-567080D01*
X41919152Y-584375D01*
X41927657Y-602623D01*
X41935353Y-621824D01*
X41942238Y-641979D01*
X41948313Y-663086D01*
X41953578Y-685147D01*
X41958033Y-708160D01*
X41961678Y-732127D01*
X41964513Y-757047D01*
X41966538Y-782920D01*
X41967753Y-809746D01*
X41968158Y-837526D01*
X41968158Y-1513101D01*
X41967753Y-1540879D01*
X41966538Y-1567701D01*
X41964513Y-1593567D01*
X41961678Y-1618477D01*
X41958033Y-1642431D01*
X41953578Y-1665429D01*
X41948313Y-1687471D01*
X41942238Y-1708557D01*
X41935353Y-1728687D01*
X41927657Y-1747861D01*
X41919152Y-1766079D01*
X41909837Y-1783341D01*
X41899712Y-1799647D01*
X41888777Y-1814997D01*
X41877032Y-1829391D01*
X41864477Y-1842829D01*
X41851037Y-1855429D01*
X41836639Y-1867215D01*
X41821282Y-1878189D01*
X41804965Y-1888350D01*
X41787691Y-1897698D01*
X41769457Y-1906233D01*
X41750264Y-1913955D01*
X41730113Y-1920865D01*
X41709002Y-1926961D01*
X41686933Y-1932245D01*
X41663905Y-1936716D01*
X41639918Y-1940374D01*
X41614973Y-1943219D01*
X41589068Y-1945251D01*
X41562205Y-1946470D01*
X41534383Y-1946877D01*
X41006818Y-1946877D01*
X40979039Y-1946470D01*
X40952213Y-1945251D01*
X40926340Y-1943219D01*
X40901420Y-1940374D01*
X40877453Y-1936716D01*
X40854439Y-1932245D01*
X40832379Y-1926961D01*
X40811271Y-1920865D01*
X40791117Y-1913955D01*
X40771916Y-1906233D01*
X40753667Y-1897698D01*
X40736372Y-1888350D01*
X40720031Y-1878189D01*
X40704642Y-1867215D01*
X40690206Y-1855429D01*
X40676724Y-1842829D01*
X40664169Y-1829391D01*
X40652424Y-1814997D01*
X40641488Y-1799647D01*
X40631363Y-1783341D01*
X40622048Y-1766079D01*
X40613543Y-1747861D01*
X40605848Y-1728687D01*
X40598963Y-1708557D01*
X40592888Y-1687471D01*
X40587623Y-1665429D01*
X40583168Y-1642431D01*
X40579523Y-1618477D01*
X40576688Y-1593567D01*
X40574663Y-1567701D01*
X40573448Y-1540879D01*
X40573043Y-1513101D01*
X40976410Y-1513101D01*
X40976859Y-1526987D01*
X40979218Y-1546137D01*
X40983600Y-1563270D01*
X40990003Y-1578388D01*
X40998429Y-1591490D01*
X41008877Y-1602577D01*
X41021347Y-1611648D01*
X41035839Y-1618703D01*
X41052353Y-1623742D01*
X41070890Y-1626766D01*
X41091448Y-1627773D01*
X41450119Y-1627773D01*
X41464049Y-1627325D01*
X41483260Y-1624974D01*
X41500448Y-1620606D01*
X41515614Y-1614223D01*
X41528758Y-1605824D01*
X41539880Y-1595410D01*
X41548980Y-1582980D01*
X41556057Y-1568534D01*
X41561113Y-1552072D01*
X41564146Y-1533595D01*
X41565157Y-1513101D01*
X41565157Y-837526D01*
X41564708Y-823640D01*
X41562349Y-804490D01*
X41557967Y-787357D01*
X41551564Y-772239D01*
X41543138Y-759137D01*
X41532690Y-748050D01*
X41520220Y-738979D01*
X41505728Y-731924D01*
X41489214Y-726885D01*
X41470677Y-723862D01*
X41450119Y-722854D01*
X41091448Y-722854D01*
X41077518Y-723302D01*
X41058307Y-725653D01*
X41041119Y-730021D01*
X41025953Y-736404D01*
X41012809Y-744803D01*
X41001687Y-755217D01*
X40992587Y-767647D01*
X40985509Y-782093D01*
X40980454Y-798555D01*
X40977421Y-817033D01*
X40976410Y-837526D01*
X40976410Y-1513101D01*
X40573043Y-1513101D01*
X40573043Y-837526D01*
X40573448Y-809746D01*
X40574663Y-782920D01*
X40576688Y-757047D01*
X40579523Y-732127D01*
X40583168Y-708160D01*
X40587623Y-685147D01*
X40592888Y-663086D01*
X40598963Y-641979D01*
X40605848Y-621824D01*
X40613543Y-602623D01*
X40622048Y-584375D01*
X40631363Y-567080D01*
X40641488Y-550738D01*
X40652424Y-535350D01*
X40664169Y-520914D01*
X40676724Y-507431D01*
X40690206Y-494876D01*
X40704642Y-483131D01*
X40720031Y-472196D01*
X40736372Y-462071D01*
X40753667Y-452756D01*
X40771916Y-444251D01*
X40791117Y-436556D01*
X40811271Y-429671D01*
X40832379Y-423596D01*
X40854439Y-418331D01*
X40877453Y-413875D01*
X40901420Y-410230D01*
X40926340Y-407395D01*
X40952213Y-405370D01*
X40979039Y-404155D01*
X41006818Y-403750D01*
X41534383Y-403750D01*
X41562205Y-404155D01*
G37*
G36*
X42085028Y-1015945D02*
G01*
X42085028Y-1334682D01*
X42973461Y-1334682D01*
X42973461Y-1015945D01*
X42085028Y-1015945D01*
G37*
G36*
X43537662Y-847051D02*
G01*
X44032621Y-847051D01*
X44060443Y-847456D01*
X44087306Y-848671D01*
X44113211Y-850696D01*
X44138156Y-853531D01*
X44162143Y-857176D01*
X44185171Y-861631D01*
X44207240Y-866896D01*
X44228351Y-872971D01*
X44248502Y-879856D01*
X44267695Y-887552D01*
X44285928Y-896057D01*
X44303203Y-905372D01*
X44319520Y-915497D01*
X44334877Y-926432D01*
X44349275Y-938177D01*
X44362715Y-950732D01*
X44375270Y-964172D01*
X44387015Y-978570D01*
X44397950Y-993927D01*
X44408075Y-1010244D01*
X44417390Y-1027518D01*
X44425895Y-1045752D01*
X44433590Y-1064945D01*
X44440476Y-1085096D01*
X44446551Y-1106207D01*
X44451816Y-1128276D01*
X44456271Y-1151304D01*
X44459916Y-1175291D01*
X44462751Y-1200236D01*
X44464776Y-1226141D01*
X44465991Y-1253004D01*
X44466396Y-1280826D01*
X44466396Y-1491852D01*
X44465991Y-1519674D01*
X44464776Y-1546538D01*
X44462751Y-1572442D01*
X44459916Y-1597388D01*
X44456271Y-1621375D01*
X44451816Y-1644403D01*
X44446551Y-1666472D01*
X44440476Y-1687582D01*
X44433590Y-1707734D01*
X44425895Y-1726926D01*
X44417390Y-1745160D01*
X44408075Y-1762435D01*
X44397950Y-1778751D01*
X44387015Y-1794109D01*
X44375270Y-1808507D01*
X44362715Y-1821946D01*
X44349275Y-1834502D01*
X44334877Y-1846247D01*
X44319520Y-1857182D01*
X44303203Y-1867307D01*
X44285928Y-1876622D01*
X44267695Y-1885127D01*
X44248502Y-1892822D01*
X44228351Y-1899707D01*
X44207240Y-1905782D01*
X44185171Y-1911047D01*
X44162143Y-1915502D01*
X44138156Y-1919147D01*
X44113211Y-1921983D01*
X44087306Y-1924008D01*
X44060443Y-1925223D01*
X44032621Y-1925628D01*
X43134662Y-1925628D01*
X43134662Y-1165788D01*
X43537662Y-1165788D01*
X43537662Y-1606891D01*
X43947990Y-1606891D01*
X43961921Y-1606441D01*
X43981131Y-1604082D01*
X43998320Y-1599701D01*
X44013486Y-1593297D01*
X44026630Y-1584872D01*
X44037752Y-1574424D01*
X44046851Y-1561954D01*
X44053929Y-1547462D01*
X44058984Y-1530947D01*
X44062018Y-1512411D01*
X44063029Y-1491852D01*
X44063029Y-1280826D01*
X44062579Y-1266896D01*
X44060220Y-1247685D01*
X44055839Y-1230497D01*
X44049435Y-1215331D01*
X44041010Y-1202187D01*
X44030562Y-1191065D01*
X44018092Y-1181965D01*
X44003600Y-1174888D01*
X43987085Y-1169832D01*
X43968549Y-1166799D01*
X43947990Y-1165788D01*
X43537662Y-1165788D01*
X43134662Y-1165788D01*
X43134662Y-425000D01*
X43537662Y-425000D01*
X43537662Y-847051D01*
G37*
G36*
X44931648Y-403793D02*
G01*
X44952667Y-403921D01*
X44973854Y-404134D01*
X44995208Y-404432D01*
X45016730Y-404815D01*
X45038419Y-405283D01*
X45060276Y-405837D01*
X45082300Y-406475D01*
X45104491Y-407199D01*
X45126850Y-408008D01*
X45149377Y-408902D01*
X45172071Y-409881D01*
X45194932Y-410946D01*
X45217961Y-412095D01*
X45241157Y-413330D01*
X45264520Y-414650D01*
X45288051Y-416055D01*
X45311750Y-417545D01*
X45335616Y-419120D01*
X45359649Y-420781D01*
X45383850Y-422526D01*
X45408218Y-424357D01*
X45432754Y-426273D01*
X45457457Y-428274D01*
X45482328Y-430360D01*
X45507366Y-432531D01*
X45532571Y-434788D01*
X45557944Y-437130D01*
X45583484Y-439556D01*
X45609192Y-442068D01*
X45635067Y-444665D01*
X45661110Y-447348D01*
X45661110Y-734577D01*
X45635368Y-732549D01*
X45610031Y-730585D01*
X45585096Y-728685D01*
X45560566Y-726849D01*
X45536439Y-725078D01*
X45512715Y-723372D01*
X45489395Y-721730D01*
X45466479Y-720152D01*
X45443966Y-718638D01*
X45421857Y-717189D01*
X45400151Y-715805D01*
X45378849Y-714485D01*
X45357950Y-713229D01*
X45337455Y-712037D01*
X45317364Y-710910D01*
X45297676Y-709848D01*
X45278392Y-708850D01*
X45259511Y-707916D01*
X45241034Y-707046D01*
X45222961Y-706241D01*
X45205291Y-705501D01*
X45188025Y-704825D01*
X45171162Y-704213D01*
X45154703Y-703665D01*
X45138647Y-703182D01*
X45122995Y-702764D01*
X45107747Y-702410D01*
X45092902Y-702120D01*
X45064423Y-701733D01*
X45037558Y-701605D01*
X45034249Y-701673D01*
X45018736Y-704077D01*
X45004940Y-709916D01*
X44992861Y-719190D01*
X44990732Y-721425D01*
X44982145Y-733719D01*
X44976993Y-747872D01*
X44975276Y-763886D01*
X44975276Y-836427D01*
X45703608Y-836427D01*
X45703608Y-1238695D01*
X45703243Y-1258800D01*
X45702148Y-1278359D01*
X45700324Y-1297372D01*
X45697769Y-1315837D01*
X45694485Y-1333756D01*
X45690470Y-1351128D01*
X45685726Y-1367954D01*
X45680252Y-1384233D01*
X45674048Y-1399965D01*
X45667115Y-1415150D01*
X45659451Y-1429789D01*
X45651058Y-1443881D01*
X45641934Y-1457427D01*
X45632081Y-1470426D01*
X45621498Y-1482878D01*
X45610185Y-1494783D01*
X45598280Y-1506052D01*
X45585828Y-1516593D01*
X45572829Y-1526408D01*
X45559283Y-1535495D01*
X45545191Y-1543856D01*
X45530552Y-1551489D01*
X45515367Y-1558396D01*
X45499635Y-1564576D01*
X45483356Y-1570028D01*
X45466530Y-1574754D01*
X45449158Y-1578752D01*
X45431239Y-1582024D01*
X45412773Y-1584568D01*
X45393761Y-1586386D01*
X45374202Y-1587476D01*
X45354096Y-1587840D01*
X44932045Y-1587840D01*
X44911938Y-1587476D01*
X44892374Y-1586386D01*
X44873355Y-1584568D01*
X44854879Y-1582024D01*
X44836948Y-1578752D01*
X44819560Y-1574754D01*
X44802715Y-1570028D01*
X44786415Y-1564576D01*
X44770658Y-1558396D01*
X44755446Y-1551489D01*
X44740777Y-1543856D01*
X44726652Y-1535495D01*
X44713071Y-1526408D01*
X44700033Y-1516593D01*
X44687540Y-1506052D01*
X44675590Y-1494783D01*
X44664321Y-1482878D01*
X44653780Y-1470426D01*
X44643965Y-1457427D01*
X44634878Y-1443881D01*
X44626517Y-1429789D01*
X44618883Y-1415150D01*
X44611977Y-1399965D01*
X44605797Y-1384233D01*
X44600345Y-1367954D01*
X44595619Y-1351128D01*
X44591621Y-1333756D01*
X44588349Y-1315837D01*
X44585805Y-1297372D01*
X44583987Y-1278359D01*
X44582897Y-1258800D01*
X44582533Y-1238695D01*
X44582533Y-1123656D01*
X44975276Y-1123656D01*
X44975276Y-1228070D01*
X44975347Y-1232533D01*
X44977056Y-1248968D01*
X44981043Y-1263136D01*
X44989231Y-1277658D01*
X45000978Y-1288638D01*
X45016286Y-1296076D01*
X45031095Y-1299477D01*
X45048182Y-1300610D01*
X45237959Y-1300610D01*
X45242444Y-1300539D01*
X45258962Y-1298839D01*
X45273202Y-1294872D01*
X45287797Y-1286725D01*
X45298833Y-1275037D01*
X45306309Y-1259806D01*
X45309726Y-1245072D01*
X45310865Y-1228070D01*
X45310865Y-1123656D01*
X44975276Y-1123656D01*
X44582533Y-1123656D01*
X44582533Y-732013D01*
X44582885Y-713737D01*
X44583942Y-695914D01*
X44585702Y-678544D01*
X44588166Y-661625D01*
X44591335Y-645159D01*
X44595207Y-629145D01*
X44599784Y-613583D01*
X44605065Y-598473D01*
X44611050Y-583816D01*
X44617739Y-569610D01*
X44625132Y-555857D01*
X44633229Y-542557D01*
X44642030Y-529708D01*
X44651536Y-517312D01*
X44661745Y-505368D01*
X44672659Y-493876D01*
X44684151Y-482962D01*
X44696095Y-472753D01*
X44708491Y-463247D01*
X44721340Y-454446D01*
X44734640Y-446349D01*
X44748393Y-438956D01*
X44762598Y-432267D01*
X44777256Y-426282D01*
X44792366Y-421001D01*
X44807927Y-416424D01*
X44823942Y-412552D01*
X44840408Y-409383D01*
X44857327Y-406919D01*
X44874697Y-405159D01*
X44892520Y-404102D01*
X44910796Y-403750D01*
X44931648Y-403793D01*
G37*
G36*
X46673374Y-45432D02*
G01*
X46691234Y-46488D01*
X46708637Y-48248D01*
X46725581Y-50713D01*
X46742067Y-53881D01*
X46758096Y-57754D01*
X46773666Y-62330D01*
X46788779Y-67611D01*
X46803434Y-73596D01*
X46817630Y-80285D01*
X46831369Y-87678D01*
X46844649Y-95775D01*
X46857472Y-104577D01*
X46869837Y-114082D01*
X46881744Y-124292D01*
X46893193Y-135205D01*
X46904106Y-146697D01*
X46914316Y-158641D01*
X46923821Y-171038D01*
X46932623Y-183886D01*
X46940720Y-197187D01*
X46948113Y-210940D01*
X46954802Y-225145D01*
X46960787Y-239802D01*
X46966068Y-254912D01*
X46970644Y-270474D01*
X46974517Y-286488D01*
X46977686Y-302954D01*
X46980150Y-319873D01*
X46981910Y-337244D01*
X46982966Y-355067D01*
X46983318Y-373342D01*
X46983318Y-1566957D01*
X46190872Y-1566957D01*
X46170765Y-1566592D01*
X46151202Y-1565497D01*
X46132183Y-1563673D01*
X46113707Y-1561118D01*
X46095775Y-1557834D01*
X46078387Y-1553819D01*
X46061543Y-1549075D01*
X46045243Y-1543601D01*
X46029486Y-1537397D01*
X46014273Y-1530464D01*
X45999605Y-1522800D01*
X45985479Y-1514407D01*
X45971898Y-1505283D01*
X45958861Y-1495430D01*
X45946367Y-1484847D01*
X45934417Y-1473534D01*
X45923149Y-1461629D01*
X45912607Y-1449177D01*
X45902793Y-1436178D01*
X45893705Y-1422632D01*
X45885345Y-1408540D01*
X45877711Y-1393901D01*
X45870805Y-1378716D01*
X45864625Y-1362984D01*
X45859173Y-1346705D01*
X45854447Y-1329879D01*
X45850448Y-1312507D01*
X45847177Y-1294588D01*
X45844632Y-1276122D01*
X45842815Y-1257110D01*
X45841724Y-1237551D01*
X45841361Y-1217445D01*
X45841361Y-1185938D01*
X46234103Y-1185938D01*
X46234175Y-1190401D01*
X46235883Y-1206836D01*
X46239870Y-1221004D01*
X46248058Y-1235526D01*
X46259806Y-1246506D01*
X46275113Y-1253944D01*
X46289922Y-1257345D01*
X46307010Y-1258478D01*
X46590576Y-1258478D01*
X46590576Y-794661D01*
X46583708Y-793489D01*
X46562841Y-790196D01*
X46541581Y-787238D01*
X46519929Y-784615D01*
X46505276Y-783052D01*
X46490448Y-781638D01*
X46475446Y-780373D01*
X46460269Y-779257D01*
X46444917Y-778289D01*
X46429391Y-777471D01*
X46413691Y-776801D01*
X46397815Y-776280D01*
X46381765Y-775908D01*
X46365541Y-775685D01*
X46349142Y-775610D01*
X46296385Y-775610D01*
X46293077Y-775679D01*
X46277563Y-778083D01*
X46263767Y-783922D01*
X46251689Y-793196D01*
X46249559Y-795430D01*
X46240973Y-807673D01*
X46235821Y-821705D01*
X46234103Y-837526D01*
X46234103Y-1185938D01*
X45841361Y-1185938D01*
X45841361Y-795394D01*
X45841713Y-777118D01*
X45842769Y-759295D01*
X45844529Y-741925D01*
X45846994Y-725006D01*
X45850162Y-708540D01*
X45854035Y-692526D01*
X45858612Y-676964D01*
X45863892Y-661854D01*
X45869877Y-647197D01*
X45876566Y-632991D01*
X45883959Y-619238D01*
X45892057Y-605938D01*
X45900858Y-593089D01*
X45910363Y-580693D01*
X45920573Y-568749D01*
X45931487Y-557257D01*
X45942978Y-546343D01*
X45954922Y-536134D01*
X45967319Y-526628D01*
X45980167Y-517827D01*
X45993468Y-509730D01*
X46007221Y-502337D01*
X46021426Y-495648D01*
X46036084Y-489663D01*
X46051193Y-484382D01*
X46066755Y-479805D01*
X46082769Y-475933D01*
X46099236Y-472764D01*
X46116154Y-470300D01*
X46133525Y-468540D01*
X46151348Y-467483D01*
X46169623Y-467131D01*
X46243629Y-467131D01*
X46263145Y-467286D01*
X46282950Y-467750D01*
X46303044Y-468522D01*
X46323428Y-469604D01*
X46344100Y-470995D01*
X46365061Y-472696D01*
X46386312Y-474705D01*
X46407852Y-477023D01*
X46429680Y-479651D01*
X46451798Y-482587D01*
X46474205Y-485833D01*
X46496901Y-489388D01*
X46519886Y-493252D01*
X46543160Y-497425D01*
X46566724Y-501907D01*
X46590576Y-506699D01*
X46590576Y-415474D01*
X46590507Y-412167D01*
X46588103Y-396704D01*
X46582264Y-383029D01*
X46572990Y-371144D01*
X46570756Y-369014D01*
X46558513Y-360428D01*
X46544481Y-355276D01*
X46528660Y-353558D01*
X46501751Y-353686D01*
X46473231Y-354068D01*
X46458366Y-354355D01*
X46443098Y-354705D01*
X46427428Y-355119D01*
X46411355Y-355596D01*
X46394879Y-356138D01*
X46378000Y-356743D01*
X46360718Y-357411D01*
X46343034Y-358144D01*
X46324946Y-358940D01*
X46306456Y-359800D01*
X46287563Y-360723D01*
X46268267Y-361710D01*
X46248568Y-362761D01*
X46228466Y-363875D01*
X46207962Y-365054D01*
X46187054Y-366295D01*
X46165744Y-367601D01*
X46144031Y-368970D01*
X46121915Y-370403D01*
X46099396Y-371900D01*
X46076474Y-373460D01*
X46053150Y-375084D01*
X46029422Y-376771D01*
X46005292Y-378523D01*
X45980759Y-380338D01*
X45955823Y-382216D01*
X45930484Y-384159D01*
X45904742Y-386165D01*
X45904742Y-88311D01*
X45930807Y-85651D01*
X45956703Y-83076D01*
X45982430Y-80585D01*
X46007988Y-78178D01*
X46033377Y-75856D01*
X46058598Y-73619D01*
X46083649Y-71466D01*
X46108532Y-69397D01*
X46133246Y-67413D01*
X46157791Y-65513D01*
X46182167Y-63698D01*
X46206374Y-61967D01*
X46230413Y-60320D01*
X46254282Y-58758D01*
X46277983Y-57281D01*
X46301514Y-55887D01*
X46324877Y-54579D01*
X46348071Y-53354D01*
X46371096Y-52215D01*
X46393953Y-51159D01*
X46416640Y-50188D01*
X46439159Y-49302D01*
X46461508Y-48499D01*
X46483689Y-47782D01*
X46505701Y-47148D01*
X46527544Y-46600D01*
X46549218Y-46135D01*
X46570723Y-45755D01*
X46592060Y-45460D01*
X46613227Y-45249D01*
X46634226Y-45122D01*
X46655056Y-45080D01*
X46673374Y-45432D01*
G37*
G36*
X47121804Y-1015945D02*
G01*
X47121804Y-1334682D01*
X48010237Y-1334682D01*
X48010237Y-1015945D01*
X47121804Y-1015945D01*
G37*
G36*
X49116314Y-425392D02*
G01*
X49141479Y-426568D01*
X49165773Y-428529D01*
X49189198Y-431273D01*
X49211752Y-434803D01*
X49233436Y-439116D01*
X49254250Y-444214D01*
X49274194Y-450095D01*
X49293268Y-456762D01*
X49311472Y-464212D01*
X49328805Y-472447D01*
X49345269Y-481465D01*
X49360862Y-491268D01*
X49375585Y-501856D01*
X49389439Y-513227D01*
X49402422Y-525383D01*
X49414622Y-538409D01*
X49426035Y-552300D01*
X49436661Y-567054D01*
X49446500Y-582674D01*
X49455552Y-599157D01*
X49463816Y-616505D01*
X49471294Y-634717D01*
X49477984Y-653794D01*
X49483888Y-673735D01*
X49489004Y-694541D01*
X49493333Y-716210D01*
X49496875Y-738745D01*
X49499630Y-762143D01*
X49501598Y-786406D01*
X49502778Y-811534D01*
X49503172Y-837526D01*
X49503150Y-843046D01*
X49502828Y-859353D01*
X49502120Y-875280D01*
X49501025Y-890827D01*
X49499544Y-905995D01*
X49497676Y-920782D01*
X49494585Y-939907D01*
X49490807Y-958357D01*
X49486342Y-976132D01*
X49481190Y-993230D01*
X49473001Y-1016054D01*
X49464188Y-1037721D01*
X49454752Y-1058232D01*
X49444691Y-1077586D01*
X49434006Y-1095784D01*
X49422698Y-1112826D01*
X49410765Y-1128711D01*
X49398208Y-1143440D01*
X49385028Y-1157012D01*
X49371223Y-1169429D01*
X49356795Y-1180689D01*
X49341743Y-1190792D01*
X49326066Y-1199740D01*
X49309766Y-1207531D01*
X49292842Y-1214165D01*
X49275293Y-1219644D01*
X49288030Y-1225649D01*
X49300962Y-1233588D01*
X49314088Y-1243463D01*
X49327409Y-1255273D01*
X49340924Y-1269017D01*
X49351188Y-1280595D01*
X49361562Y-1293261D01*
X49372045Y-1307016D01*
X49382638Y-1321859D01*
X49386154Y-1327035D01*
X49396033Y-1343126D01*
X49404907Y-1360060D01*
X49412777Y-1377837D01*
X49419642Y-1396458D01*
X49425503Y-1415923D01*
X49430358Y-1436232D01*
X49434209Y-1457384D01*
X49436219Y-1471954D01*
X49437782Y-1486899D01*
X49438898Y-1502219D01*
X49439568Y-1517914D01*
X49439791Y-1533984D01*
X49439397Y-1558231D01*
X49438217Y-1581697D01*
X49436249Y-1604382D01*
X49433494Y-1626285D01*
X49429952Y-1647407D01*
X49425623Y-1667747D01*
X49420507Y-1687306D01*
X49414603Y-1706084D01*
X49407913Y-1724080D01*
X49400435Y-1741295D01*
X49392171Y-1757728D01*
X49383119Y-1773380D01*
X49373280Y-1788251D01*
X49362654Y-1802340D01*
X49351241Y-1815648D01*
X49339041Y-1828175D01*
X49326059Y-1839976D01*
X49312210Y-1851015D01*
X49297494Y-1861293D01*
X49281911Y-1870810D01*
X49265460Y-1879566D01*
X49248142Y-1887560D01*
X49229957Y-1894793D01*
X49210905Y-1901264D01*
X49190985Y-1906974D01*
X49170198Y-1911923D01*
X49148544Y-1916111D01*
X49126023Y-1919537D01*
X49102634Y-1922201D01*
X49078378Y-1924105D01*
X49053255Y-1925247D01*
X49027265Y-1925628D01*
X48171438Y-1925628D01*
X48171438Y-1334682D01*
X48574438Y-1334682D01*
X48574438Y-1606891D01*
X48921752Y-1606891D01*
X48935638Y-1606441D01*
X48954787Y-1604082D01*
X48971921Y-1599701D01*
X48987039Y-1593297D01*
X49000141Y-1584872D01*
X49011227Y-1574424D01*
X49020298Y-1561954D01*
X49027353Y-1547462D01*
X49032392Y-1530947D01*
X49035416Y-1512411D01*
X49036424Y-1491852D01*
X49036424Y-1449720D01*
X49035976Y-1435790D01*
X49033624Y-1416579D01*
X49029257Y-1399391D01*
X49022874Y-1384225D01*
X49014475Y-1371081D01*
X49004060Y-1359959D01*
X48991630Y-1350859D01*
X48977184Y-1343782D01*
X48960722Y-1338726D01*
X48942245Y-1335693D01*
X48921752Y-1334682D01*
X48574438Y-1334682D01*
X48171438Y-1334682D01*
X48171438Y-743736D01*
X48574438Y-743736D01*
X48574438Y-1015945D01*
X48984766Y-1015945D01*
X48998697Y-1015496D01*
X49017907Y-1013137D01*
X49035096Y-1008755D01*
X49050262Y-1002352D01*
X49063406Y-993926D01*
X49074528Y-983478D01*
X49083627Y-971008D01*
X49090705Y-956516D01*
X49095760Y-940002D01*
X49098794Y-921465D01*
X49099805Y-900907D01*
X49099805Y-858775D01*
X49099355Y-844844D01*
X49096996Y-825634D01*
X49092615Y-808446D01*
X49086211Y-793279D01*
X49077786Y-780135D01*
X49067338Y-769013D01*
X49054868Y-759914D01*
X49040376Y-752836D01*
X49023861Y-747781D01*
X49005325Y-744747D01*
X48984766Y-743736D01*
X48574438Y-743736D01*
X48171438Y-743736D01*
X48171438Y-425000D01*
X49090279Y-425000D01*
X49116314Y-425392D01*
G37*
G36*
X50474359Y-404114D02*
G01*
X50493918Y-405204D01*
X50512930Y-407022D01*
X50531396Y-409566D01*
X50549315Y-412838D01*
X50566687Y-416836D01*
X50583513Y-421562D01*
X50599792Y-427015D01*
X50615524Y-433194D01*
X50630709Y-440101D01*
X50645348Y-447734D01*
X50659440Y-456095D01*
X50672986Y-465182D01*
X50685985Y-474997D01*
X50698437Y-485538D01*
X50710342Y-496807D01*
X50721611Y-508757D01*
X50732152Y-521250D01*
X50741967Y-534288D01*
X50751054Y-547869D01*
X50759415Y-561994D01*
X50767048Y-576663D01*
X50773955Y-591876D01*
X50780134Y-607632D01*
X50785587Y-623932D01*
X50790313Y-640777D01*
X50794311Y-658165D01*
X50797583Y-676096D01*
X50800127Y-694572D01*
X50801945Y-713592D01*
X50803035Y-733155D01*
X50803399Y-753262D01*
X50803399Y-1238695D01*
X50803035Y-1258800D01*
X50801945Y-1278359D01*
X50800127Y-1297372D01*
X50797583Y-1315837D01*
X50794311Y-1333756D01*
X50790313Y-1351128D01*
X50785587Y-1367954D01*
X50780134Y-1384233D01*
X50773955Y-1399965D01*
X50767048Y-1415150D01*
X50759415Y-1429789D01*
X50751054Y-1443881D01*
X50741967Y-1457427D01*
X50732152Y-1470426D01*
X50721611Y-1482878D01*
X50710342Y-1494783D01*
X50698437Y-1506052D01*
X50685985Y-1516593D01*
X50672986Y-1526408D01*
X50659440Y-1535495D01*
X50645348Y-1543856D01*
X50630709Y-1551489D01*
X50615524Y-1558396D01*
X50599792Y-1564576D01*
X50583513Y-1570028D01*
X50566687Y-1574754D01*
X50549315Y-1578752D01*
X50531396Y-1582024D01*
X50512930Y-1584568D01*
X50493918Y-1586386D01*
X50474359Y-1587476D01*
X50454253Y-1587840D01*
X49968821Y-1587840D01*
X49948714Y-1587476D01*
X49929150Y-1586386D01*
X49910131Y-1584568D01*
X49891655Y-1582024D01*
X49873724Y-1578752D01*
X49856336Y-1574754D01*
X49839491Y-1570028D01*
X49823191Y-1564576D01*
X49807434Y-1558396D01*
X49792222Y-1551489D01*
X49777553Y-1543856D01*
X49763428Y-1535495D01*
X49749847Y-1526408D01*
X49736809Y-1516593D01*
X49724316Y-1506052D01*
X49712366Y-1494783D01*
X49701097Y-1482878D01*
X49690556Y-1470426D01*
X49680741Y-1457427D01*
X49671654Y-1443881D01*
X49663293Y-1429789D01*
X49655659Y-1415150D01*
X49648753Y-1399965D01*
X49642573Y-1384233D01*
X49637121Y-1367954D01*
X49632395Y-1351128D01*
X49628397Y-1333756D01*
X49625125Y-1315837D01*
X49622581Y-1297372D01*
X49620763Y-1278359D01*
X49619673Y-1258800D01*
X49619309Y-1238695D01*
X49619309Y-1206821D01*
X50012052Y-1206821D01*
X50012123Y-1211306D01*
X50013832Y-1227824D01*
X50017819Y-1242064D01*
X50026007Y-1256659D01*
X50037754Y-1267695D01*
X50053062Y-1275171D01*
X50067871Y-1278588D01*
X50084958Y-1279727D01*
X50338116Y-1279727D01*
X50342579Y-1279656D01*
X50359014Y-1277947D01*
X50373182Y-1273960D01*
X50387704Y-1265773D01*
X50398684Y-1254025D01*
X50406122Y-1238717D01*
X50409523Y-1223908D01*
X50410656Y-1206821D01*
X50410656Y-784769D01*
X50410585Y-780306D01*
X50408885Y-763871D01*
X50404918Y-749703D01*
X50396771Y-735181D01*
X50385083Y-724201D01*
X50369852Y-716763D01*
X50355118Y-713363D01*
X50338116Y-712229D01*
X50084958Y-712229D01*
X50080473Y-712300D01*
X50063955Y-714000D01*
X50049715Y-717967D01*
X50035120Y-726114D01*
X50024084Y-737802D01*
X50016608Y-753033D01*
X50013191Y-767768D01*
X50012052Y-784769D01*
X50012052Y-1206821D01*
X49619309Y-1206821D01*
X49619309Y-753262D01*
X49619673Y-733155D01*
X49620763Y-713592D01*
X49622581Y-694572D01*
X49625125Y-676096D01*
X49628397Y-658165D01*
X49632395Y-640777D01*
X49637121Y-623932D01*
X49642573Y-607632D01*
X49648753Y-591876D01*
X49655659Y-576663D01*
X49663293Y-561994D01*
X49671654Y-547869D01*
X49680741Y-534288D01*
X49690556Y-521250D01*
X49701097Y-508757D01*
X49712366Y-496807D01*
X49724316Y-485538D01*
X49736809Y-474997D01*
X49749847Y-465182D01*
X49763428Y-456095D01*
X49777553Y-447734D01*
X49792222Y-440101D01*
X49807434Y-433194D01*
X49823191Y-427015D01*
X49839491Y-421562D01*
X49856336Y-416836D01*
X49873724Y-412838D01*
X49891655Y-409566D01*
X49910131Y-407022D01*
X49929150Y-405204D01*
X49948714Y-404114D01*
X49968821Y-403750D01*
X50454253Y-403750D01*
X50474359Y-404114D01*
G37*
G36*
X51316524Y-403781D02*
G01*
X51335615Y-404511D01*
X51350609Y-405697D01*
X51366184Y-407430D01*
X51382337Y-409711D01*
X51399070Y-412539D01*
X51416383Y-415915D01*
X51434276Y-419838D01*
X51452748Y-424308D01*
X51471799Y-429326D01*
X51491431Y-434891D01*
X51504631Y-438884D01*
X51524132Y-445249D01*
X51543271Y-452065D01*
X51562050Y-459331D01*
X51580469Y-467048D01*
X51598526Y-475216D01*
X51616224Y-483835D01*
X51633560Y-492905D01*
X51650536Y-502425D01*
X51667151Y-512397D01*
X51683406Y-522819D01*
X51703189Y-425000D01*
X52051602Y-425000D01*
X52051602Y-1259577D01*
X52051250Y-1277896D01*
X52050193Y-1295756D01*
X52048433Y-1313158D01*
X52045969Y-1330102D01*
X52042800Y-1346589D01*
X52038928Y-1362617D01*
X52034351Y-1378188D01*
X52029070Y-1393300D01*
X52023085Y-1407955D01*
X52016396Y-1422151D01*
X52009003Y-1435890D01*
X52000906Y-1449171D01*
X51992105Y-1461994D01*
X51982599Y-1474358D01*
X51972390Y-1486265D01*
X51961476Y-1497714D01*
X51949984Y-1508628D01*
X51938040Y-1518837D01*
X51925644Y-1528343D01*
X51912795Y-1537144D01*
X51899495Y-1545241D01*
X51885742Y-1552634D01*
X51871537Y-1559323D01*
X51856879Y-1565308D01*
X51841769Y-1570589D01*
X51826208Y-1575166D01*
X51810193Y-1579038D01*
X51793727Y-1582207D01*
X51776808Y-1584671D01*
X51759438Y-1586431D01*
X51741615Y-1587488D01*
X51723339Y-1587840D01*
X51703815Y-1587797D01*
X51684123Y-1587671D01*
X51664262Y-1587460D01*
X51644233Y-1587164D01*
X51624036Y-1586784D01*
X51603671Y-1586320D01*
X51583138Y-1585771D01*
X51562437Y-1585138D01*
X51541567Y-1584420D01*
X51520529Y-1583618D01*
X51499324Y-1582731D01*
X51477950Y-1581760D01*
X51456408Y-1580705D01*
X51434697Y-1579565D01*
X51412819Y-1578341D01*
X51390772Y-1577032D01*
X51368557Y-1575639D01*
X51346174Y-1574161D01*
X51323623Y-1572599D01*
X51300904Y-1570953D01*
X51278017Y-1569222D01*
X51254961Y-1567406D01*
X51231737Y-1565507D01*
X51208346Y-1563522D01*
X51184786Y-1561454D01*
X51161057Y-1559300D01*
X51137161Y-1557063D01*
X51113097Y-1554741D01*
X51088864Y-1552335D01*
X51064463Y-1549844D01*
X51039894Y-1547268D01*
X51015157Y-1544609D01*
X51015157Y-1257745D01*
X51029557Y-1258639D01*
X51044363Y-1259577D01*
X51059576Y-1260562D01*
X51075195Y-1261592D01*
X51091221Y-1262669D01*
X51107653Y-1263790D01*
X51124491Y-1264958D01*
X51141736Y-1266172D01*
X51159387Y-1267431D01*
X51177445Y-1268736D01*
X51195909Y-1270087D01*
X51214780Y-1271484D01*
X51234057Y-1272927D01*
X51253740Y-1274415D01*
X51273830Y-1275949D01*
X51294327Y-1277529D01*
X51314913Y-1279082D01*
X51335274Y-1280534D01*
X51355408Y-1281887D01*
X51375316Y-1283139D01*
X51394998Y-1284291D01*
X51414454Y-1285343D01*
X51433684Y-1286295D01*
X51452688Y-1287146D01*
X51471465Y-1287898D01*
X51490017Y-1288549D01*
X51508342Y-1289100D01*
X51526441Y-1289550D01*
X51544315Y-1289901D01*
X51561962Y-1290152D01*
X51579382Y-1290302D01*
X51596577Y-1290352D01*
X51599929Y-1290282D01*
X51615571Y-1287827D01*
X51629353Y-1281867D01*
X51641274Y-1272400D01*
X51643403Y-1270166D01*
X51651990Y-1257923D01*
X51657142Y-1243891D01*
X51658859Y-1228070D01*
X51658859Y-1155530D01*
X51237907Y-1155530D01*
X51219587Y-1155178D01*
X51201722Y-1154122D01*
X51184313Y-1152361D01*
X51167359Y-1149897D01*
X51150859Y-1146729D01*
X51134815Y-1142856D01*
X51119226Y-1138279D01*
X51104092Y-1132998D01*
X51089413Y-1127014D01*
X51075189Y-1120325D01*
X51061421Y-1112931D01*
X51048107Y-1104834D01*
X51035249Y-1096033D01*
X51022845Y-1086527D01*
X51010897Y-1076318D01*
X50999403Y-1065404D01*
X50988534Y-1053912D01*
X50978366Y-1041968D01*
X50968899Y-1029572D01*
X50960134Y-1016724D01*
X50952070Y-1003423D01*
X50944706Y-989670D01*
X50938045Y-975465D01*
X50932084Y-960807D01*
X50926825Y-945698D01*
X50922267Y-930136D01*
X50918410Y-914122D01*
X50915254Y-897655D01*
X50912800Y-880737D01*
X50911047Y-863366D01*
X50909995Y-845543D01*
X50909644Y-827267D01*
X50909644Y-806018D01*
X51302387Y-806018D01*
X51302455Y-809326D01*
X51304860Y-824789D01*
X51310699Y-838463D01*
X51319972Y-850348D01*
X51322208Y-852522D01*
X51334501Y-861288D01*
X51348655Y-866547D01*
X51364669Y-868300D01*
X51658859Y-868300D01*
X51658859Y-762055D01*
X51650660Y-759643D01*
X51634388Y-755049D01*
X51618285Y-750761D01*
X51602351Y-746780D01*
X51586586Y-743105D01*
X51570990Y-739736D01*
X51555563Y-736674D01*
X51540304Y-733917D01*
X51525215Y-731467D01*
X51510294Y-729323D01*
X51495542Y-727486D01*
X51480959Y-725955D01*
X51459401Y-724232D01*
X51438223Y-723198D01*
X51417425Y-722854D01*
X51364669Y-722854D01*
X51361317Y-722922D01*
X51345675Y-725327D01*
X51331893Y-731166D01*
X51319972Y-740439D01*
X51317843Y-742673D01*
X51309256Y-754916D01*
X51304104Y-768948D01*
X51302387Y-784769D01*
X51302387Y-806018D01*
X50909644Y-806018D01*
X50909644Y-732013D01*
X50909995Y-713737D01*
X50911047Y-695914D01*
X50912800Y-678544D01*
X50915254Y-661625D01*
X50918410Y-645159D01*
X50922267Y-629145D01*
X50926825Y-613583D01*
X50932084Y-598473D01*
X50938045Y-583816D01*
X50944706Y-569610D01*
X50952070Y-555857D01*
X50960134Y-542557D01*
X50968899Y-529708D01*
X50978366Y-517312D01*
X50988534Y-505368D01*
X50999403Y-493876D01*
X51010897Y-482962D01*
X51022845Y-472753D01*
X51035249Y-463247D01*
X51048107Y-454446D01*
X51061421Y-446349D01*
X51075189Y-438956D01*
X51089413Y-432267D01*
X51104092Y-426282D01*
X51119226Y-421001D01*
X51134815Y-416424D01*
X51150859Y-412552D01*
X51167359Y-409383D01*
X51184313Y-406919D01*
X51201722Y-405159D01*
X51219587Y-404102D01*
X51237907Y-403750D01*
X51311912Y-403750D01*
X51316524Y-403781D01*
G37*
G36*
X52866396Y-1237595D02*
G01*
X52850085Y-1237364D01*
X52833761Y-1236668D01*
X52817422Y-1235509D01*
X52801068Y-1233886D01*
X52784701Y-1231799D01*
X52768319Y-1229249D01*
X52751923Y-1226235D01*
X52735512Y-1222758D01*
X52719087Y-1218816D01*
X52702648Y-1214411D01*
X52686195Y-1209543D01*
X52669727Y-1204211D01*
X52653245Y-1198415D01*
X52636748Y-1192155D01*
X52620238Y-1185431D01*
X52603713Y-1178244D01*
X52603713Y-425000D01*
X52210970Y-425000D01*
X52210970Y-1566957D01*
X52560115Y-1566957D01*
X52579166Y-1440561D01*
X52600410Y-1458396D01*
X52621916Y-1475080D01*
X52643686Y-1490613D01*
X52665720Y-1504996D01*
X52688016Y-1518228D01*
X52710577Y-1530309D01*
X52733400Y-1541240D01*
X52756487Y-1551020D01*
X52779837Y-1559650D01*
X52803450Y-1567129D01*
X52827327Y-1573457D01*
X52851466Y-1578635D01*
X52875870Y-1582662D01*
X52900536Y-1585538D01*
X52925466Y-1587264D01*
X52950660Y-1587840D01*
X53057272Y-1587840D01*
X53057272Y-1237595D01*
X52866396Y-1237595D01*
G37*
G36*
X53541088Y-403781D02*
G01*
X53560179Y-404511D01*
X53575173Y-405697D01*
X53590747Y-407430D01*
X53606901Y-409711D01*
X53623634Y-412539D01*
X53640947Y-415915D01*
X53658840Y-419838D01*
X53677312Y-424308D01*
X53696363Y-429326D01*
X53715995Y-434891D01*
X53729195Y-438884D01*
X53748695Y-445249D01*
X53767835Y-452065D01*
X53786614Y-459331D01*
X53805033Y-467048D01*
X53823090Y-475216D01*
X53840787Y-483835D01*
X53858124Y-492905D01*
X53875100Y-502425D01*
X53891715Y-512397D01*
X53907969Y-522819D01*
X53927753Y-425000D01*
X54276166Y-425000D01*
X54276166Y-1925628D01*
X53883423Y-1925628D01*
X53883423Y-1566957D01*
X53462470Y-1566957D01*
X53442363Y-1566592D01*
X53422800Y-1565497D01*
X53403781Y-1563673D01*
X53385305Y-1561118D01*
X53367373Y-1557834D01*
X53349985Y-1553819D01*
X53333141Y-1549075D01*
X53316841Y-1543601D01*
X53301084Y-1537397D01*
X53285871Y-1530464D01*
X53271203Y-1522800D01*
X53257078Y-1514407D01*
X53243496Y-1505283D01*
X53230459Y-1495430D01*
X53217965Y-1484847D01*
X53206015Y-1473534D01*
X53194747Y-1461629D01*
X53184205Y-1449177D01*
X53174391Y-1436178D01*
X53165303Y-1422632D01*
X53156943Y-1408540D01*
X53149309Y-1393901D01*
X53142403Y-1378716D01*
X53136223Y-1362984D01*
X53130771Y-1346705D01*
X53126045Y-1329879D01*
X53122047Y-1312507D01*
X53118775Y-1294588D01*
X53116230Y-1276122D01*
X53114413Y-1257110D01*
X53113322Y-1237551D01*
X53112959Y-1217445D01*
X53112959Y-1185938D01*
X53505701Y-1185938D01*
X53505773Y-1190401D01*
X53507481Y-1206836D01*
X53511468Y-1221004D01*
X53519656Y-1235526D01*
X53531404Y-1246506D01*
X53546711Y-1253944D01*
X53561521Y-1257345D01*
X53578608Y-1258478D01*
X53883423Y-1258478D01*
X53883423Y-772679D01*
X53875224Y-770267D01*
X53858952Y-765674D01*
X53842849Y-761386D01*
X53826915Y-757405D01*
X53811150Y-753730D01*
X53795554Y-750361D01*
X53780127Y-747298D01*
X53764868Y-744542D01*
X53749778Y-742092D01*
X53734858Y-739948D01*
X53720106Y-738110D01*
X53705523Y-736579D01*
X53683965Y-734856D01*
X53662787Y-733823D01*
X53641989Y-733478D01*
X53567983Y-733478D01*
X53564675Y-733547D01*
X53549161Y-735951D01*
X53535366Y-741790D01*
X53523287Y-751064D01*
X53521157Y-753298D01*
X53512571Y-765541D01*
X53507419Y-779573D01*
X53505701Y-795394D01*
X53505701Y-1185938D01*
X53112959Y-1185938D01*
X53112959Y-732013D01*
X53113311Y-713737D01*
X53114367Y-695914D01*
X53116127Y-678544D01*
X53118592Y-661625D01*
X53121760Y-645159D01*
X53125633Y-629145D01*
X53130210Y-613583D01*
X53135490Y-598473D01*
X53141475Y-583816D01*
X53148164Y-569610D01*
X53155557Y-555857D01*
X53163655Y-542557D01*
X53172456Y-529708D01*
X53181961Y-517312D01*
X53192171Y-505368D01*
X53203085Y-493876D01*
X53214576Y-482962D01*
X53226520Y-472753D01*
X53238917Y-463247D01*
X53251765Y-454446D01*
X53265066Y-446349D01*
X53278819Y-438956D01*
X53293024Y-432267D01*
X53307682Y-426282D01*
X53322791Y-421001D01*
X53338353Y-416424D01*
X53354367Y-412552D01*
X53370834Y-409383D01*
X53387752Y-406919D01*
X53405123Y-405159D01*
X53422946Y-404102D01*
X53441221Y-403750D01*
X53536476Y-403750D01*
X53541088Y-403781D01*
G37*
G36*
X92994371Y-41706909D02*
G01*
X92994371Y-42109909D01*
X94082473Y-42109909D01*
X94110253Y-42109504D01*
X94137079Y-42108289D01*
X94162952Y-42106264D01*
X94187872Y-42103429D01*
X94211839Y-42099784D01*
X94234852Y-42095329D01*
X94256913Y-42090064D01*
X94278020Y-42083989D01*
X94298175Y-42077104D01*
X94317376Y-42069409D01*
X94335624Y-42060904D01*
X94352919Y-42051589D01*
X94369261Y-42041464D01*
X94384649Y-42030529D01*
X94399085Y-42018783D01*
X94412568Y-42006228D01*
X94425123Y-41992789D01*
X94436868Y-41978390D01*
X94447803Y-41963033D01*
X94457928Y-41946717D01*
X94467243Y-41929442D01*
X94475748Y-41911208D01*
X94483443Y-41892016D01*
X94490328Y-41871864D01*
X94496403Y-41850754D01*
X94501668Y-41828685D01*
X94506124Y-41805657D01*
X94509769Y-41781670D01*
X94512604Y-41756724D01*
X94514629Y-41730820D01*
X94515844Y-41703956D01*
X94516249Y-41676134D01*
X94516249Y-41191068D01*
X94515844Y-41163246D01*
X94514629Y-41136382D01*
X94512604Y-41110478D01*
X94509769Y-41085532D01*
X94506124Y-41061545D01*
X94501668Y-41038517D01*
X94496403Y-41016448D01*
X94490328Y-40995338D01*
X94483443Y-40975186D01*
X94475748Y-40955994D01*
X94467243Y-40937760D01*
X94457928Y-40920485D01*
X94447803Y-40904169D01*
X94436868Y-40888812D01*
X94425123Y-40874413D01*
X94412568Y-40860974D01*
X94399085Y-40848418D01*
X94384649Y-40836673D01*
X94369261Y-40825738D01*
X94352919Y-40815613D01*
X94335624Y-40806298D01*
X94317376Y-40797793D01*
X94298175Y-40790098D01*
X94278020Y-40783213D01*
X94256913Y-40777138D01*
X94234852Y-40771873D01*
X94211839Y-40767418D01*
X94187872Y-40763773D01*
X94162952Y-40760938D01*
X94137079Y-40758913D01*
X94110253Y-40757698D01*
X94082473Y-40757293D01*
X92994371Y-40757293D01*
X92994371Y-41160293D01*
X94082473Y-41160293D01*
X94102966Y-41161304D01*
X94121444Y-41164338D01*
X94137906Y-41169393D01*
X94152352Y-41176471D01*
X94164782Y-41185570D01*
X94175196Y-41196692D01*
X94183595Y-41209836D01*
X94189978Y-41225002D01*
X94194346Y-41242191D01*
X94196697Y-41261401D01*
X94197145Y-41275332D01*
X94197145Y-41591870D01*
X94196137Y-41612429D01*
X94193114Y-41630965D01*
X94188075Y-41647480D01*
X94181020Y-41661972D01*
X94171949Y-41674442D01*
X94160862Y-41684890D01*
X94147760Y-41693315D01*
X94132642Y-41699719D01*
X94115509Y-41704100D01*
X94096359Y-41706459D01*
X94082473Y-41706909D01*
X92994371Y-41706909D01*
G37*
G36*
X94495000Y-43050733D02*
G01*
X94495000Y-42267812D01*
X94176263Y-42267812D01*
X94176263Y-42457589D01*
X93313108Y-42457589D01*
X93313108Y-42267812D01*
X92994371Y-42267812D01*
X92994371Y-43050733D01*
X93313108Y-43050733D01*
X93313108Y-42860956D01*
X94176263Y-42860956D01*
X94176263Y-43050733D01*
X94495000Y-43050733D01*
G37*
G36*
X94495000Y-44522418D02*
G01*
X94495000Y-44102931D01*
X93641004Y-43614934D01*
X94495000Y-43614934D01*
X94495000Y-43211933D01*
X92994371Y-43211933D01*
X92994371Y-43631420D01*
X93848000Y-44119051D01*
X92994371Y-44119051D01*
X92994371Y-44522418D01*
X94495000Y-44522418D01*
G37*
G36*
X94495000Y-45464341D02*
G01*
X94495000Y-44681420D01*
X94176263Y-44681420D01*
X94176263Y-44871197D01*
X93313108Y-44871197D01*
X93313108Y-44681420D01*
X92994371Y-44681420D01*
X92994371Y-45464341D01*
X93313108Y-45464341D01*
X93313108Y-45274564D01*
X94176263Y-45274564D01*
X94176263Y-45464341D01*
X94495000Y-45464341D01*
G37*
G36*
X94110253Y-45583448D02*
G01*
X94137079Y-45584663D01*
X94162952Y-45586688D01*
X94187872Y-45589523D01*
X94211839Y-45593168D01*
X94234852Y-45597623D01*
X94256913Y-45602888D01*
X94278020Y-45608963D01*
X94298175Y-45615848D01*
X94317376Y-45623543D01*
X94335624Y-45632048D01*
X94352919Y-45641363D01*
X94369261Y-45651488D01*
X94384649Y-45662424D01*
X94399085Y-45674169D01*
X94412568Y-45686724D01*
X94425123Y-45700206D01*
X94436868Y-45714642D01*
X94447803Y-45730031D01*
X94457928Y-45746372D01*
X94467243Y-45763667D01*
X94475748Y-45781916D01*
X94483443Y-45801117D01*
X94490328Y-45821271D01*
X94496403Y-45842379D01*
X94501668Y-45864439D01*
X94506124Y-45887453D01*
X94509769Y-45911420D01*
X94512604Y-45936340D01*
X94514629Y-45962213D01*
X94515844Y-45989039D01*
X94516249Y-46016818D01*
X94516249Y-46544383D01*
X94515844Y-46572205D01*
X94514629Y-46599068D01*
X94512604Y-46624973D01*
X94509769Y-46649918D01*
X94506124Y-46673905D01*
X94501668Y-46696933D01*
X94496403Y-46719002D01*
X94490328Y-46740113D01*
X94483443Y-46760264D01*
X94475748Y-46779457D01*
X94467243Y-46797691D01*
X94457928Y-46814965D01*
X94447803Y-46831282D01*
X94436868Y-46846639D01*
X94425123Y-46861037D01*
X94412568Y-46874477D01*
X94399085Y-46887032D01*
X94384649Y-46898777D01*
X94369261Y-46909712D01*
X94352919Y-46919837D01*
X94335624Y-46929152D01*
X94317376Y-46937657D01*
X94298175Y-46945353D01*
X94278020Y-46952238D01*
X94256913Y-46958313D01*
X94234852Y-46963578D01*
X94211839Y-46968033D01*
X94187872Y-46971678D01*
X94162952Y-46974513D01*
X94137079Y-46976538D01*
X94110253Y-46977753D01*
X94082473Y-46978158D01*
X93406898Y-46978158D01*
X93379120Y-46977753D01*
X93352298Y-46976538D01*
X93326432Y-46974513D01*
X93301522Y-46971678D01*
X93277568Y-46968033D01*
X93254570Y-46963578D01*
X93232528Y-46958313D01*
X93211442Y-46952238D01*
X93191312Y-46945353D01*
X93172138Y-46937657D01*
X93153920Y-46929152D01*
X93136658Y-46919837D01*
X93120352Y-46909712D01*
X93105002Y-46898777D01*
X93090608Y-46887032D01*
X93077170Y-46874477D01*
X93064570Y-46861037D01*
X93052784Y-46846639D01*
X93041810Y-46831282D01*
X93031649Y-46814965D01*
X93022301Y-46797691D01*
X93013766Y-46779457D01*
X93006044Y-46760264D01*
X92999134Y-46740113D01*
X92993038Y-46719002D01*
X92987754Y-46696933D01*
X92983283Y-46673905D01*
X92979625Y-46649918D01*
X92976780Y-46624973D01*
X92974748Y-46599068D01*
X92973529Y-46572205D01*
X92973122Y-46544383D01*
X92973122Y-46460119D01*
X93292226Y-46460119D01*
X93292674Y-46474049D01*
X93295025Y-46493260D01*
X93299393Y-46510448D01*
X93305776Y-46525614D01*
X93314175Y-46538758D01*
X93324589Y-46549880D01*
X93337019Y-46558980D01*
X93351465Y-46566057D01*
X93367927Y-46571113D01*
X93386404Y-46574146D01*
X93406898Y-46575157D01*
X94082473Y-46575157D01*
X94096359Y-46574708D01*
X94115509Y-46572349D01*
X94132642Y-46567967D01*
X94147760Y-46561564D01*
X94160862Y-46553138D01*
X94171949Y-46542690D01*
X94181020Y-46530220D01*
X94188075Y-46515728D01*
X94193114Y-46499214D01*
X94196137Y-46480677D01*
X94197145Y-46460119D01*
X94197145Y-46101448D01*
X94196697Y-46087518D01*
X94194346Y-46068307D01*
X94189978Y-46051119D01*
X94183595Y-46035953D01*
X94175196Y-46022809D01*
X94164782Y-46011687D01*
X94152352Y-46002587D01*
X94137906Y-45995509D01*
X94121444Y-45990454D01*
X94102966Y-45987421D01*
X94082473Y-45986410D01*
X93406898Y-45986410D01*
X93393012Y-45986859D01*
X93373862Y-45989218D01*
X93356729Y-45993600D01*
X93341611Y-46000003D01*
X93328509Y-46008429D01*
X93317422Y-46018877D01*
X93308351Y-46031347D01*
X93301296Y-46045839D01*
X93296257Y-46062353D01*
X93293233Y-46080890D01*
X93292226Y-46101448D01*
X93292226Y-46460119D01*
X92973122Y-46460119D01*
X92973122Y-46016818D01*
X92973529Y-45989039D01*
X92974748Y-45962213D01*
X92976780Y-45936340D01*
X92979625Y-45911420D01*
X92983283Y-45887453D01*
X92987754Y-45864439D01*
X92993038Y-45842379D01*
X92999134Y-45821271D01*
X93006044Y-45801117D01*
X93013766Y-45781916D01*
X93022301Y-45763667D01*
X93031649Y-45746372D01*
X93041810Y-45730031D01*
X93052784Y-45714642D01*
X93064570Y-45700206D01*
X93077170Y-45686724D01*
X93090608Y-45674169D01*
X93105002Y-45662424D01*
X93120352Y-45651488D01*
X93136658Y-45641363D01*
X93153920Y-45632048D01*
X93172138Y-45623543D01*
X93191312Y-45615848D01*
X93211442Y-45608963D01*
X93232528Y-45602888D01*
X93254570Y-45597623D01*
X93277568Y-45593168D01*
X93301522Y-45589523D01*
X93326432Y-45586688D01*
X93352298Y-45584663D01*
X93379120Y-45583448D01*
X93406898Y-45583043D01*
X94082473Y-45583043D01*
X94110253Y-45583448D01*
G37*
G36*
X93904054Y-47095028D02*
G01*
X93585317Y-47095028D01*
X93585317Y-47983461D01*
X93904054Y-47983461D01*
X93904054Y-47095028D01*
G37*
G36*
X94495000Y-48547662D02*
G01*
X94072948Y-48547662D01*
X94072948Y-49042621D01*
X94072543Y-49070443D01*
X94071328Y-49097306D01*
X94069303Y-49123211D01*
X94066468Y-49148156D01*
X94062823Y-49172143D01*
X94058368Y-49195171D01*
X94053103Y-49217240D01*
X94047028Y-49238351D01*
X94040143Y-49258502D01*
X94032447Y-49277695D01*
X94023942Y-49295928D01*
X94014627Y-49313203D01*
X94004502Y-49329520D01*
X93993567Y-49344877D01*
X93981822Y-49359275D01*
X93969267Y-49372715D01*
X93955827Y-49385270D01*
X93941429Y-49397015D01*
X93926072Y-49407950D01*
X93909755Y-49418075D01*
X93892481Y-49427390D01*
X93874247Y-49435895D01*
X93855054Y-49443590D01*
X93834903Y-49450476D01*
X93813792Y-49456551D01*
X93791723Y-49461816D01*
X93768695Y-49466271D01*
X93744708Y-49469916D01*
X93719763Y-49472751D01*
X93693858Y-49474776D01*
X93666995Y-49475991D01*
X93639173Y-49476396D01*
X93428147Y-49476396D01*
X93400325Y-49475991D01*
X93373461Y-49474776D01*
X93347557Y-49472751D01*
X93322611Y-49469916D01*
X93298624Y-49466271D01*
X93275596Y-49461816D01*
X93253527Y-49456551D01*
X93232417Y-49450476D01*
X93212265Y-49443590D01*
X93193073Y-49435895D01*
X93174839Y-49427390D01*
X93157564Y-49418075D01*
X93141248Y-49407950D01*
X93125890Y-49397015D01*
X93111492Y-49385270D01*
X93098053Y-49372715D01*
X93085497Y-49359275D01*
X93073752Y-49344877D01*
X93062817Y-49329520D01*
X93052692Y-49313203D01*
X93043377Y-49295928D01*
X93034872Y-49277695D01*
X93027177Y-49258502D01*
X93020292Y-49238351D01*
X93014217Y-49217240D01*
X93008952Y-49195171D01*
X93004497Y-49172143D01*
X93000852Y-49148156D01*
X92998016Y-49123211D01*
X92995991Y-49097306D01*
X92994776Y-49070443D01*
X92994371Y-49042621D01*
X92994371Y-48547662D01*
X93313108Y-48547662D01*
X93313108Y-48957990D01*
X93313558Y-48971921D01*
X93315917Y-48991131D01*
X93320298Y-49008320D01*
X93326702Y-49023486D01*
X93335127Y-49036630D01*
X93345575Y-49047752D01*
X93358045Y-49056851D01*
X93372537Y-49063929D01*
X93389052Y-49068984D01*
X93407588Y-49072018D01*
X93428147Y-49073029D01*
X93639173Y-49073029D01*
X93653103Y-49072579D01*
X93672314Y-49070220D01*
X93689502Y-49065839D01*
X93704668Y-49059435D01*
X93717812Y-49051010D01*
X93728934Y-49040562D01*
X93738034Y-49028092D01*
X93745111Y-49013600D01*
X93750167Y-48997085D01*
X93753200Y-48978549D01*
X93754211Y-48957990D01*
X93754211Y-48547662D01*
X93313108Y-48547662D01*
X92994371Y-48547662D01*
X92994371Y-48144662D01*
X94495000Y-48144662D01*
X94495000Y-48547662D01*
G37*
G36*
X94206262Y-49592885D02*
G01*
X94224085Y-49593942D01*
X94241455Y-49595702D01*
X94258374Y-49598166D01*
X94274840Y-49601335D01*
X94290854Y-49605207D01*
X94306416Y-49609784D01*
X94321526Y-49615065D01*
X94336183Y-49621050D01*
X94350389Y-49627739D01*
X94364142Y-49635132D01*
X94377442Y-49643229D01*
X94390291Y-49652030D01*
X94402687Y-49661536D01*
X94414631Y-49671745D01*
X94426123Y-49682659D01*
X94437037Y-49694151D01*
X94447246Y-49706095D01*
X94456752Y-49718491D01*
X94465553Y-49731340D01*
X94473650Y-49744640D01*
X94481043Y-49758393D01*
X94487732Y-49772598D01*
X94493717Y-49787256D01*
X94498998Y-49802366D01*
X94503575Y-49817927D01*
X94507447Y-49833942D01*
X94510616Y-49850408D01*
X94513080Y-49867327D01*
X94514840Y-49884697D01*
X94515897Y-49902520D01*
X94516249Y-49920796D01*
X94516206Y-49941648D01*
X94516078Y-49962667D01*
X94515865Y-49983854D01*
X94515567Y-50005208D01*
X94515184Y-50026730D01*
X94514716Y-50048419D01*
X94514162Y-50070276D01*
X94513524Y-50092300D01*
X94512800Y-50114491D01*
X94511991Y-50136850D01*
X94511097Y-50159377D01*
X94510118Y-50182071D01*
X94509053Y-50204932D01*
X94507904Y-50227961D01*
X94506669Y-50251157D01*
X94505349Y-50274520D01*
X94503944Y-50298051D01*
X94502454Y-50321750D01*
X94500879Y-50345616D01*
X94499218Y-50369649D01*
X94497473Y-50393850D01*
X94495642Y-50418218D01*
X94493726Y-50442754D01*
X94491725Y-50467457D01*
X94489639Y-50492328D01*
X94487468Y-50517366D01*
X94485211Y-50542571D01*
X94482869Y-50567944D01*
X94480443Y-50593484D01*
X94477931Y-50619192D01*
X94475334Y-50645067D01*
X94472651Y-50671110D01*
X94185422Y-50671110D01*
X94187450Y-50645368D01*
X94189414Y-50620031D01*
X94191314Y-50595096D01*
X94193150Y-50570566D01*
X94194921Y-50546439D01*
X94196627Y-50522715D01*
X94198269Y-50499395D01*
X94199847Y-50476479D01*
X94201361Y-50453966D01*
X94202810Y-50431857D01*
X94204194Y-50410151D01*
X94205514Y-50388849D01*
X94206770Y-50367950D01*
X94207962Y-50347455D01*
X94209089Y-50327364D01*
X94210151Y-50307676D01*
X94211149Y-50288392D01*
X94212083Y-50269511D01*
X94212953Y-50251034D01*
X94213758Y-50232961D01*
X94214498Y-50215291D01*
X94215174Y-50198025D01*
X94215786Y-50181162D01*
X94216334Y-50164703D01*
X94216817Y-50148647D01*
X94217235Y-50132995D01*
X94217589Y-50117747D01*
X94217879Y-50102902D01*
X94218266Y-50074423D01*
X94218394Y-50047558D01*
X94218326Y-50044249D01*
X94215922Y-50028736D01*
X94210083Y-50014940D01*
X94200809Y-50002861D01*
X94198574Y-50000732D01*
X94186280Y-49992145D01*
X94172127Y-49986993D01*
X94156113Y-49985276D01*
X94083572Y-49985276D01*
X94083572Y-50713608D01*
X93681304Y-50713608D01*
X93661199Y-50713243D01*
X93641640Y-50712148D01*
X93622627Y-50710324D01*
X93604162Y-50707769D01*
X93586243Y-50704485D01*
X93568871Y-50700470D01*
X93552045Y-50695726D01*
X93535766Y-50690252D01*
X93520034Y-50684048D01*
X93504849Y-50677115D01*
X93490210Y-50669451D01*
X93476118Y-50661058D01*
X93462572Y-50651934D01*
X93449573Y-50642081D01*
X93437121Y-50631498D01*
X93425216Y-50620185D01*
X93413947Y-50608280D01*
X93403406Y-50595828D01*
X93393591Y-50582829D01*
X93384504Y-50569283D01*
X93376143Y-50555191D01*
X93368510Y-50540552D01*
X93361603Y-50525367D01*
X93355423Y-50509635D01*
X93349971Y-50493356D01*
X93345245Y-50476530D01*
X93341247Y-50459158D01*
X93337975Y-50441239D01*
X93335431Y-50422773D01*
X93333613Y-50403761D01*
X93332523Y-50384202D01*
X93332159Y-50364096D01*
X93332159Y-50247959D01*
X93619389Y-50247959D01*
X93619460Y-50252444D01*
X93621160Y-50268962D01*
X93625127Y-50283202D01*
X93633274Y-50297797D01*
X93644962Y-50308833D01*
X93660193Y-50316309D01*
X93674927Y-50319726D01*
X93691929Y-50320865D01*
X93796343Y-50320865D01*
X93796343Y-49985276D01*
X93691929Y-49985276D01*
X93687466Y-49985347D01*
X93671031Y-49987056D01*
X93656863Y-49991043D01*
X93642341Y-49999231D01*
X93631361Y-50010978D01*
X93623923Y-50026286D01*
X93620522Y-50041095D01*
X93619389Y-50058182D01*
X93619389Y-50247959D01*
X93332159Y-50247959D01*
X93332159Y-49942045D01*
X93332523Y-49921938D01*
X93333613Y-49902374D01*
X93335431Y-49883355D01*
X93337975Y-49864879D01*
X93341247Y-49846948D01*
X93345245Y-49829560D01*
X93349971Y-49812715D01*
X93355423Y-49796415D01*
X93361603Y-49780658D01*
X93368510Y-49765446D01*
X93376143Y-49750777D01*
X93384504Y-49736652D01*
X93393591Y-49723071D01*
X93403406Y-49710033D01*
X93413947Y-49697540D01*
X93425216Y-49685590D01*
X93437121Y-49674321D01*
X93449573Y-49663780D01*
X93462572Y-49653965D01*
X93476118Y-49644878D01*
X93490210Y-49636517D01*
X93504849Y-49628883D01*
X93520034Y-49621977D01*
X93535766Y-49615797D01*
X93552045Y-49610345D01*
X93568871Y-49605619D01*
X93586243Y-49601621D01*
X93604162Y-49598349D01*
X93622627Y-49595805D01*
X93641640Y-49593987D01*
X93661199Y-49592897D01*
X93681304Y-49592533D01*
X94187986Y-49592533D01*
X94206262Y-49592885D01*
G37*
G36*
X94142881Y-50851713D02*
G01*
X94160704Y-50852769D01*
X94178074Y-50854529D01*
X94194993Y-50856994D01*
X94211459Y-50860162D01*
X94227473Y-50864035D01*
X94243035Y-50868612D01*
X94258145Y-50873892D01*
X94272802Y-50879877D01*
X94287008Y-50886566D01*
X94300761Y-50893959D01*
X94314061Y-50902057D01*
X94326910Y-50910858D01*
X94339306Y-50920363D01*
X94351250Y-50930573D01*
X94362742Y-50941487D01*
X94373656Y-50952978D01*
X94383865Y-50964922D01*
X94393371Y-50977319D01*
X94402172Y-50990167D01*
X94410269Y-51003468D01*
X94417662Y-51017221D01*
X94424351Y-51031426D01*
X94430336Y-51046084D01*
X94435617Y-51061193D01*
X94440194Y-51076755D01*
X94444066Y-51092769D01*
X94447235Y-51109236D01*
X94449699Y-51126154D01*
X94451459Y-51143525D01*
X94452516Y-51161348D01*
X94452868Y-51179623D01*
X94452868Y-51253629D01*
X94452713Y-51273145D01*
X94452249Y-51292950D01*
X94451477Y-51313044D01*
X94450395Y-51333428D01*
X94449004Y-51354100D01*
X94447303Y-51375061D01*
X94445294Y-51396312D01*
X94442976Y-51417852D01*
X94440348Y-51439680D01*
X94437412Y-51461798D01*
X94434166Y-51484205D01*
X94430611Y-51506901D01*
X94426747Y-51529886D01*
X94422574Y-51553160D01*
X94418092Y-51576724D01*
X94413300Y-51600576D01*
X94504525Y-51600576D01*
X94507832Y-51600507D01*
X94523295Y-51598103D01*
X94536970Y-51592264D01*
X94548855Y-51582990D01*
X94550985Y-51580756D01*
X94559571Y-51568513D01*
X94564723Y-51554481D01*
X94566441Y-51538660D01*
X94566313Y-51511751D01*
X94565931Y-51483231D01*
X94565644Y-51468366D01*
X94565294Y-51453098D01*
X94564880Y-51437428D01*
X94564403Y-51421355D01*
X94563861Y-51404879D01*
X94563256Y-51388000D01*
X94562588Y-51370718D01*
X94561855Y-51353034D01*
X94561059Y-51334946D01*
X94560199Y-51316456D01*
X94559276Y-51297563D01*
X94558289Y-51278267D01*
X94557238Y-51258568D01*
X94556124Y-51238466D01*
X94554945Y-51217962D01*
X94553704Y-51197054D01*
X94552398Y-51175744D01*
X94551029Y-51154031D01*
X94549596Y-51131915D01*
X94548099Y-51109396D01*
X94546539Y-51086474D01*
X94544915Y-51063150D01*
X94543228Y-51039422D01*
X94541476Y-51015292D01*
X94539661Y-50990759D01*
X94537783Y-50965823D01*
X94535840Y-50940484D01*
X94533834Y-50914742D01*
X94831688Y-50914742D01*
X94834348Y-50940807D01*
X94836923Y-50966703D01*
X94839414Y-50992430D01*
X94841821Y-51017988D01*
X94844143Y-51043377D01*
X94846380Y-51068598D01*
X94848533Y-51093649D01*
X94850602Y-51118532D01*
X94852586Y-51143246D01*
X94854486Y-51167791D01*
X94856301Y-51192167D01*
X94858032Y-51216374D01*
X94859679Y-51240413D01*
X94861241Y-51264282D01*
X94862718Y-51287983D01*
X94864112Y-51311514D01*
X94865420Y-51334877D01*
X94866645Y-51358071D01*
X94867784Y-51381096D01*
X94868840Y-51403953D01*
X94869811Y-51426640D01*
X94870697Y-51449159D01*
X94871500Y-51471508D01*
X94872217Y-51493689D01*
X94872851Y-51515701D01*
X94873399Y-51537544D01*
X94873864Y-51559218D01*
X94874244Y-51580723D01*
X94874539Y-51602060D01*
X94874750Y-51623227D01*
X94874877Y-51644226D01*
X94874919Y-51665056D01*
X94874567Y-51683374D01*
X94873511Y-51701234D01*
X94871751Y-51718637D01*
X94869286Y-51735581D01*
X94866118Y-51752067D01*
X94862245Y-51768096D01*
X94857669Y-51783666D01*
X94852388Y-51798779D01*
X94846403Y-51813434D01*
X94839714Y-51827630D01*
X94832321Y-51841369D01*
X94824224Y-51854649D01*
X94815422Y-51867472D01*
X94805917Y-51879837D01*
X94795707Y-51891744D01*
X94784794Y-51903193D01*
X94773302Y-51914106D01*
X94761358Y-51924316D01*
X94748961Y-51933821D01*
X94736113Y-51942623D01*
X94722812Y-51950720D01*
X94709059Y-51958113D01*
X94694854Y-51964802D01*
X94680197Y-51970787D01*
X94665087Y-51976068D01*
X94649525Y-51980644D01*
X94633511Y-51984517D01*
X94617045Y-51987686D01*
X94600126Y-51990150D01*
X94582755Y-51991910D01*
X94564932Y-51992966D01*
X94546657Y-51993318D01*
X93353042Y-51993318D01*
X93353042Y-51600576D01*
X93661521Y-51600576D01*
X94125338Y-51600576D01*
X94126510Y-51593708D01*
X94129803Y-51572841D01*
X94132761Y-51551581D01*
X94135384Y-51529929D01*
X94136947Y-51515276D01*
X94138361Y-51500448D01*
X94139626Y-51485446D01*
X94140742Y-51470269D01*
X94141710Y-51454917D01*
X94142528Y-51439391D01*
X94143198Y-51423691D01*
X94143719Y-51407815D01*
X94144091Y-51391765D01*
X94144314Y-51375541D01*
X94144389Y-51359142D01*
X94144389Y-51306385D01*
X94144320Y-51303077D01*
X94141916Y-51287563D01*
X94136077Y-51273767D01*
X94126803Y-51261689D01*
X94124569Y-51259559D01*
X94112326Y-51250973D01*
X94098294Y-51245821D01*
X94082473Y-51244103D01*
X93734061Y-51244103D01*
X93729598Y-51244175D01*
X93713163Y-51245883D01*
X93698995Y-51249870D01*
X93684473Y-51258058D01*
X93673493Y-51269806D01*
X93666055Y-51285113D01*
X93662654Y-51299922D01*
X93661521Y-51317010D01*
X93661521Y-51600576D01*
X93353042Y-51600576D01*
X93353042Y-51200872D01*
X93353407Y-51180765D01*
X93354502Y-51161202D01*
X93356326Y-51142183D01*
X93358881Y-51123707D01*
X93362165Y-51105775D01*
X93366180Y-51088387D01*
X93370924Y-51071543D01*
X93376398Y-51055243D01*
X93382602Y-51039486D01*
X93389535Y-51024273D01*
X93397199Y-51009605D01*
X93405592Y-50995479D01*
X93414716Y-50981898D01*
X93424569Y-50968861D01*
X93435152Y-50956367D01*
X93446465Y-50944417D01*
X93458370Y-50933149D01*
X93470822Y-50922607D01*
X93483821Y-50912793D01*
X93497367Y-50903705D01*
X93511459Y-50895345D01*
X93526098Y-50887711D01*
X93541283Y-50880805D01*
X93557015Y-50874625D01*
X93573294Y-50869173D01*
X93590120Y-50864447D01*
X93607492Y-50860448D01*
X93625411Y-50857177D01*
X93643877Y-50854632D01*
X93662889Y-50852815D01*
X93682448Y-50851724D01*
X93702554Y-50851361D01*
X94124605Y-50851361D01*
X94142881Y-50851713D01*
G37*
G36*
X93904054Y-52131804D02*
G01*
X93585317Y-52131804D01*
X93585317Y-53020237D01*
X93904054Y-53020237D01*
X93904054Y-52131804D01*
G37*
G36*
X94495000Y-54100279D02*
G01*
X94494607Y-54126314D01*
X94493431Y-54151479D01*
X94491470Y-54175773D01*
X94488726Y-54199198D01*
X94485196Y-54221752D01*
X94480883Y-54243436D01*
X94475785Y-54264250D01*
X94469904Y-54284194D01*
X94463237Y-54303268D01*
X94455787Y-54321472D01*
X94447552Y-54338805D01*
X94438534Y-54355269D01*
X94428731Y-54370862D01*
X94418143Y-54385585D01*
X94406772Y-54399439D01*
X94394616Y-54412422D01*
X94381590Y-54424622D01*
X94367699Y-54436035D01*
X94352945Y-54446661D01*
X94337325Y-54456500D01*
X94320842Y-54465552D01*
X94303494Y-54473816D01*
X94285282Y-54481294D01*
X94266205Y-54487984D01*
X94246264Y-54493888D01*
X94225458Y-54499004D01*
X94203789Y-54503333D01*
X94181254Y-54506875D01*
X94157856Y-54509630D01*
X94133593Y-54511598D01*
X94108465Y-54512778D01*
X94082473Y-54513172D01*
X94076953Y-54513150D01*
X94060646Y-54512828D01*
X94044719Y-54512120D01*
X94029172Y-54511025D01*
X94014004Y-54509544D01*
X93999217Y-54507676D01*
X93980092Y-54504585D01*
X93961642Y-54500807D01*
X93943867Y-54496342D01*
X93926769Y-54491190D01*
X93903945Y-54483001D01*
X93882278Y-54474188D01*
X93861767Y-54464752D01*
X93842413Y-54454691D01*
X93824215Y-54444006D01*
X93807173Y-54432698D01*
X93791288Y-54420765D01*
X93776559Y-54408208D01*
X93762987Y-54395028D01*
X93750570Y-54381223D01*
X93739310Y-54366795D01*
X93729207Y-54351743D01*
X93720259Y-54336066D01*
X93712468Y-54319766D01*
X93705834Y-54302842D01*
X93700355Y-54285293D01*
X93694350Y-54298030D01*
X93686411Y-54310962D01*
X93676536Y-54324088D01*
X93664726Y-54337409D01*
X93650982Y-54350924D01*
X93639404Y-54361188D01*
X93626738Y-54371562D01*
X93612983Y-54382045D01*
X93598140Y-54392638D01*
X93592964Y-54396154D01*
X93576873Y-54406033D01*
X93559939Y-54414907D01*
X93542162Y-54422777D01*
X93523541Y-54429642D01*
X93504076Y-54435503D01*
X93483767Y-54440358D01*
X93462615Y-54444209D01*
X93448045Y-54446219D01*
X93433100Y-54447782D01*
X93417780Y-54448898D01*
X93402085Y-54449568D01*
X93386015Y-54449791D01*
X93361768Y-54449397D01*
X93338302Y-54448217D01*
X93315617Y-54446249D01*
X93293714Y-54443494D01*
X93272592Y-54439952D01*
X93252252Y-54435623D01*
X93232693Y-54430507D01*
X93213915Y-54424603D01*
X93195919Y-54417913D01*
X93178704Y-54410435D01*
X93162271Y-54402171D01*
X93146619Y-54393119D01*
X93131748Y-54383280D01*
X93117659Y-54372654D01*
X93104351Y-54361241D01*
X93091824Y-54349041D01*
X93080023Y-54336059D01*
X93068984Y-54322210D01*
X93058706Y-54307494D01*
X93049189Y-54291911D01*
X93040433Y-54275460D01*
X93032439Y-54258142D01*
X93025206Y-54239957D01*
X93018735Y-54220905D01*
X93013025Y-54200985D01*
X93008076Y-54180198D01*
X93003888Y-54158544D01*
X93000462Y-54136023D01*
X92997798Y-54112634D01*
X92995894Y-54088378D01*
X92994752Y-54063255D01*
X92994371Y-54037265D01*
X92994371Y-53584438D01*
X93313108Y-53584438D01*
X93313108Y-53931752D01*
X93313558Y-53945638D01*
X93315917Y-53964787D01*
X93320298Y-53981921D01*
X93326702Y-53997039D01*
X93335127Y-54010141D01*
X93345575Y-54021227D01*
X93358045Y-54030298D01*
X93372537Y-54037353D01*
X93389052Y-54042392D01*
X93407588Y-54045416D01*
X93428147Y-54046424D01*
X93470279Y-54046424D01*
X93484209Y-54045976D01*
X93503420Y-54043624D01*
X93520608Y-54039257D01*
X93535774Y-54032874D01*
X93548918Y-54024475D01*
X93560040Y-54014060D01*
X93569140Y-54001630D01*
X93576217Y-53987184D01*
X93581273Y-53970722D01*
X93584306Y-53952245D01*
X93585317Y-53931752D01*
X93585317Y-53584438D01*
X93904054Y-53584438D01*
X93904054Y-53994766D01*
X93904503Y-54008697D01*
X93906862Y-54027907D01*
X93911244Y-54045096D01*
X93917647Y-54060262D01*
X93926073Y-54073406D01*
X93936521Y-54084528D01*
X93948991Y-54093627D01*
X93963483Y-54100705D01*
X93979997Y-54105760D01*
X93998534Y-54108794D01*
X94019092Y-54109805D01*
X94061224Y-54109805D01*
X94075155Y-54109355D01*
X94094365Y-54106996D01*
X94111553Y-54102615D01*
X94126720Y-54096211D01*
X94139864Y-54087786D01*
X94150986Y-54077338D01*
X94160085Y-54064868D01*
X94167163Y-54050376D01*
X94172218Y-54033861D01*
X94175252Y-54015325D01*
X94176263Y-53994766D01*
X94176263Y-53584438D01*
X93904054Y-53584438D01*
X93585317Y-53584438D01*
X93313108Y-53584438D01*
X92994371Y-53584438D01*
X92994371Y-53181438D01*
X94495000Y-53181438D01*
X94495000Y-54100279D01*
G37*
G36*
X94186844Y-54629673D02*
G01*
X94206407Y-54630763D01*
X94225427Y-54632581D01*
X94243903Y-54635125D01*
X94261834Y-54638397D01*
X94279222Y-54642395D01*
X94296067Y-54647121D01*
X94312367Y-54652573D01*
X94328123Y-54658753D01*
X94343336Y-54665659D01*
X94358005Y-54673293D01*
X94372130Y-54681654D01*
X94385711Y-54690741D01*
X94398749Y-54700556D01*
X94411242Y-54711097D01*
X94423192Y-54722366D01*
X94434461Y-54734316D01*
X94445002Y-54746809D01*
X94454817Y-54759847D01*
X94463904Y-54773428D01*
X94472265Y-54787553D01*
X94479898Y-54802222D01*
X94486805Y-54817434D01*
X94492984Y-54833191D01*
X94498437Y-54849491D01*
X94503163Y-54866336D01*
X94507161Y-54883724D01*
X94510433Y-54901655D01*
X94512977Y-54920131D01*
X94514795Y-54939150D01*
X94515885Y-54958714D01*
X94516249Y-54978821D01*
X94516249Y-55464253D01*
X94515885Y-55484359D01*
X94514795Y-55503918D01*
X94512977Y-55522930D01*
X94510433Y-55541396D01*
X94507161Y-55559315D01*
X94503163Y-55576687D01*
X94498437Y-55593513D01*
X94492984Y-55609792D01*
X94486805Y-55625524D01*
X94479898Y-55640709D01*
X94472265Y-55655348D01*
X94463904Y-55669440D01*
X94454817Y-55682986D01*
X94445002Y-55695985D01*
X94434461Y-55708437D01*
X94423192Y-55720342D01*
X94411242Y-55731611D01*
X94398749Y-55742152D01*
X94385711Y-55751967D01*
X94372130Y-55761054D01*
X94358005Y-55769415D01*
X94343336Y-55777048D01*
X94328123Y-55783955D01*
X94312367Y-55790134D01*
X94296067Y-55795587D01*
X94279222Y-55800313D01*
X94261834Y-55804311D01*
X94243903Y-55807583D01*
X94225427Y-55810127D01*
X94206407Y-55811945D01*
X94186844Y-55813035D01*
X94166737Y-55813399D01*
X93681304Y-55813399D01*
X93661199Y-55813035D01*
X93641640Y-55811945D01*
X93622627Y-55810127D01*
X93604162Y-55807583D01*
X93586243Y-55804311D01*
X93568871Y-55800313D01*
X93552045Y-55795587D01*
X93535766Y-55790134D01*
X93520034Y-55783955D01*
X93504849Y-55777048D01*
X93490210Y-55769415D01*
X93476118Y-55761054D01*
X93462572Y-55751967D01*
X93449573Y-55742152D01*
X93437121Y-55731611D01*
X93425216Y-55720342D01*
X93413947Y-55708437D01*
X93403406Y-55695985D01*
X93393591Y-55682986D01*
X93384504Y-55669440D01*
X93376143Y-55655348D01*
X93368510Y-55640709D01*
X93361603Y-55625524D01*
X93355423Y-55609792D01*
X93349971Y-55593513D01*
X93345245Y-55576687D01*
X93341247Y-55559315D01*
X93337975Y-55541396D01*
X93335431Y-55522930D01*
X93333613Y-55503918D01*
X93332523Y-55484359D01*
X93332159Y-55464253D01*
X93332159Y-55348116D01*
X93640272Y-55348116D01*
X93640343Y-55352579D01*
X93642052Y-55369014D01*
X93646039Y-55383182D01*
X93654226Y-55397704D01*
X93665974Y-55408684D01*
X93681282Y-55416122D01*
X93696091Y-55419523D01*
X93713178Y-55420656D01*
X94135230Y-55420656D01*
X94139693Y-55420585D01*
X94156128Y-55418885D01*
X94170296Y-55414918D01*
X94184818Y-55406771D01*
X94195798Y-55395083D01*
X94203236Y-55379852D01*
X94206636Y-55365118D01*
X94207770Y-55348116D01*
X94207770Y-55094958D01*
X94207699Y-55090473D01*
X94205999Y-55073955D01*
X94202032Y-55059715D01*
X94193885Y-55045120D01*
X94182197Y-55034084D01*
X94166966Y-55026608D01*
X94152231Y-55023191D01*
X94135230Y-55022052D01*
X93713178Y-55022052D01*
X93708693Y-55022123D01*
X93692175Y-55023832D01*
X93677935Y-55027819D01*
X93663340Y-55036007D01*
X93652304Y-55047754D01*
X93644828Y-55063062D01*
X93641411Y-55077871D01*
X93640272Y-55094958D01*
X93640272Y-55348116D01*
X93332159Y-55348116D01*
X93332159Y-54978821D01*
X93332523Y-54958714D01*
X93333613Y-54939150D01*
X93335431Y-54920131D01*
X93337975Y-54901655D01*
X93341247Y-54883724D01*
X93345245Y-54866336D01*
X93349971Y-54849491D01*
X93355423Y-54833191D01*
X93361603Y-54817434D01*
X93368510Y-54802222D01*
X93376143Y-54787553D01*
X93384504Y-54773428D01*
X93393591Y-54759847D01*
X93403406Y-54746809D01*
X93413947Y-54734316D01*
X93425216Y-54722366D01*
X93437121Y-54711097D01*
X93449573Y-54700556D01*
X93462572Y-54690741D01*
X93476118Y-54681654D01*
X93490210Y-54673293D01*
X93504849Y-54665659D01*
X93520034Y-54658753D01*
X93535766Y-54652573D01*
X93552045Y-54647121D01*
X93568871Y-54642395D01*
X93586243Y-54638397D01*
X93604162Y-54635125D01*
X93622627Y-54632581D01*
X93641640Y-54630763D01*
X93661199Y-54629673D01*
X93681304Y-54629309D01*
X94166737Y-54629309D01*
X94186844Y-54629673D01*
G37*
G36*
X94206262Y-55919995D02*
G01*
X94224085Y-55921047D01*
X94241455Y-55922800D01*
X94258374Y-55925254D01*
X94274840Y-55928410D01*
X94290854Y-55932267D01*
X94306416Y-55936825D01*
X94321526Y-55942084D01*
X94336183Y-55948045D01*
X94350389Y-55954706D01*
X94364142Y-55962070D01*
X94377442Y-55970134D01*
X94390291Y-55978899D01*
X94402687Y-55988366D01*
X94414631Y-55998534D01*
X94426123Y-56009403D01*
X94437037Y-56020897D01*
X94447246Y-56032845D01*
X94456752Y-56045249D01*
X94465553Y-56058107D01*
X94473650Y-56071421D01*
X94481043Y-56085189D01*
X94487732Y-56099413D01*
X94493717Y-56114092D01*
X94498998Y-56129226D01*
X94503575Y-56144815D01*
X94507447Y-56160859D01*
X94510616Y-56177359D01*
X94513080Y-56194313D01*
X94514840Y-56211722D01*
X94515897Y-56229587D01*
X94516249Y-56247907D01*
X94516249Y-56321912D01*
X94516218Y-56326524D01*
X94515488Y-56345615D01*
X94514302Y-56360609D01*
X94512569Y-56376184D01*
X94510288Y-56392337D01*
X94507460Y-56409070D01*
X94504084Y-56426383D01*
X94500161Y-56444276D01*
X94495691Y-56462748D01*
X94490673Y-56481799D01*
X94485108Y-56501431D01*
X94481115Y-56514631D01*
X94474750Y-56534132D01*
X94467934Y-56553271D01*
X94460668Y-56572050D01*
X94452951Y-56590469D01*
X94444783Y-56608526D01*
X94436164Y-56626224D01*
X94427094Y-56643560D01*
X94417574Y-56660536D01*
X94407602Y-56677151D01*
X94397180Y-56693406D01*
X94495000Y-56713189D01*
X94495000Y-57061602D01*
X93660422Y-57061602D01*
X93642103Y-57061250D01*
X93624243Y-57060193D01*
X93606841Y-57058433D01*
X93589897Y-57055969D01*
X93573410Y-57052800D01*
X93557382Y-57048928D01*
X93541811Y-57044351D01*
X93526699Y-57039070D01*
X93512044Y-57033085D01*
X93497848Y-57026396D01*
X93484109Y-57019003D01*
X93470828Y-57010906D01*
X93458005Y-57002105D01*
X93445641Y-56992599D01*
X93433734Y-56982390D01*
X93422285Y-56971476D01*
X93411371Y-56959984D01*
X93401162Y-56948040D01*
X93391656Y-56935644D01*
X93382855Y-56922795D01*
X93374758Y-56909495D01*
X93367365Y-56895742D01*
X93360676Y-56881537D01*
X93354691Y-56866879D01*
X93349410Y-56851769D01*
X93344833Y-56836208D01*
X93340961Y-56820193D01*
X93337792Y-56803727D01*
X93335328Y-56786808D01*
X93333568Y-56769438D01*
X93332511Y-56751615D01*
X93332159Y-56733339D01*
X93332202Y-56713815D01*
X93332328Y-56694123D01*
X93332539Y-56674262D01*
X93332835Y-56654233D01*
X93333215Y-56634036D01*
X93333679Y-56613671D01*
X93334228Y-56593138D01*
X93334861Y-56572437D01*
X93335579Y-56551567D01*
X93336381Y-56530529D01*
X93337268Y-56509324D01*
X93338239Y-56487950D01*
X93339294Y-56466408D01*
X93340434Y-56444697D01*
X93341658Y-56422819D01*
X93342967Y-56400772D01*
X93344360Y-56378557D01*
X93345838Y-56356174D01*
X93347400Y-56333623D01*
X93349046Y-56310904D01*
X93350777Y-56288017D01*
X93352593Y-56264961D01*
X93354492Y-56241737D01*
X93356477Y-56218346D01*
X93358545Y-56194786D01*
X93360699Y-56171057D01*
X93362936Y-56147161D01*
X93365258Y-56123097D01*
X93367664Y-56098864D01*
X93370155Y-56074463D01*
X93372731Y-56049894D01*
X93375390Y-56025157D01*
X93662254Y-56025157D01*
X93661360Y-56039557D01*
X93660422Y-56054363D01*
X93659437Y-56069576D01*
X93658407Y-56085195D01*
X93657330Y-56101221D01*
X93656209Y-56117653D01*
X93655041Y-56134491D01*
X93653827Y-56151736D01*
X93652568Y-56169387D01*
X93651263Y-56187445D01*
X93649912Y-56205909D01*
X93648515Y-56224780D01*
X93647072Y-56244057D01*
X93645584Y-56263740D01*
X93644050Y-56283830D01*
X93642470Y-56304327D01*
X93640917Y-56324913D01*
X93639465Y-56345274D01*
X93638112Y-56365408D01*
X93636860Y-56385316D01*
X93635708Y-56404998D01*
X93634656Y-56424454D01*
X93633704Y-56443684D01*
X93632853Y-56462688D01*
X93632101Y-56481465D01*
X93631450Y-56500017D01*
X93630899Y-56518342D01*
X93630449Y-56536441D01*
X93630098Y-56554315D01*
X93629847Y-56571962D01*
X93629697Y-56589382D01*
X93629647Y-56606577D01*
X93629717Y-56609929D01*
X93632172Y-56625571D01*
X93638132Y-56639353D01*
X93647599Y-56651274D01*
X93649833Y-56653403D01*
X93662076Y-56661990D01*
X93676108Y-56667142D01*
X93691929Y-56668859D01*
X93764469Y-56668859D01*
X94051699Y-56668859D01*
X94157944Y-56668859D01*
X94160356Y-56660660D01*
X94164950Y-56644388D01*
X94169238Y-56628285D01*
X94173219Y-56612351D01*
X94176894Y-56596586D01*
X94180263Y-56580990D01*
X94183325Y-56565563D01*
X94186082Y-56550304D01*
X94188532Y-56535215D01*
X94190676Y-56520294D01*
X94192513Y-56505542D01*
X94194044Y-56490959D01*
X94195767Y-56469401D01*
X94196801Y-56448223D01*
X94197145Y-56427425D01*
X94197145Y-56374669D01*
X94197077Y-56371317D01*
X94194672Y-56355675D01*
X94188833Y-56341893D01*
X94179560Y-56329972D01*
X94177326Y-56327843D01*
X94165083Y-56319256D01*
X94151051Y-56314104D01*
X94135230Y-56312387D01*
X94113981Y-56312387D01*
X94110673Y-56312455D01*
X94095210Y-56314860D01*
X94081536Y-56320699D01*
X94069651Y-56329972D01*
X94067477Y-56332208D01*
X94058711Y-56344501D01*
X94053452Y-56358655D01*
X94051699Y-56374669D01*
X94051699Y-56668859D01*
X93764469Y-56668859D01*
X93764469Y-56247907D01*
X93764821Y-56229587D01*
X93765877Y-56211722D01*
X93767638Y-56194313D01*
X93770102Y-56177359D01*
X93773270Y-56160859D01*
X93777143Y-56144815D01*
X93781720Y-56129226D01*
X93787001Y-56114092D01*
X93792985Y-56099413D01*
X93799674Y-56085189D01*
X93807068Y-56071421D01*
X93815165Y-56058107D01*
X93823966Y-56045249D01*
X93833472Y-56032845D01*
X93843681Y-56020897D01*
X93854595Y-56009403D01*
X93866087Y-55998534D01*
X93878031Y-55988366D01*
X93890427Y-55978899D01*
X93903275Y-55970134D01*
X93916576Y-55962070D01*
X93930329Y-55954706D01*
X93944534Y-55948045D01*
X93959192Y-55942084D01*
X93974301Y-55936825D01*
X93989863Y-55932267D01*
X94005877Y-55928410D01*
X94022344Y-55925254D01*
X94039262Y-55922800D01*
X94056633Y-55921047D01*
X94074456Y-55919995D01*
X94092732Y-55919644D01*
X94187986Y-55919644D01*
X94206262Y-55919995D01*
G37*
G36*
X93682404Y-57876396D02*
G01*
X93682635Y-57860085D01*
X93683331Y-57843761D01*
X93684490Y-57827422D01*
X93686113Y-57811068D01*
X93688200Y-57794701D01*
X93690750Y-57778319D01*
X93693764Y-57761923D01*
X93697241Y-57745512D01*
X93701183Y-57729087D01*
X93705588Y-57712648D01*
X93710456Y-57696195D01*
X93715788Y-57679727D01*
X93721584Y-57663245D01*
X93727844Y-57646748D01*
X93734568Y-57630238D01*
X93741755Y-57613713D01*
X94495000Y-57613713D01*
X94495000Y-57220970D01*
X93353042Y-57220970D01*
X93353042Y-57570115D01*
X93479438Y-57589166D01*
X93461603Y-57610410D01*
X93444919Y-57631916D01*
X93429386Y-57653686D01*
X93415003Y-57675720D01*
X93401771Y-57698016D01*
X93389690Y-57720577D01*
X93378759Y-57743400D01*
X93368979Y-57766487D01*
X93360349Y-57789837D01*
X93352870Y-57813450D01*
X93346542Y-57837327D01*
X93341364Y-57861466D01*
X93337337Y-57885870D01*
X93334461Y-57910536D01*
X93332735Y-57935466D01*
X93332159Y-57960660D01*
X93332159Y-58067272D01*
X93682404Y-58067272D01*
X93682404Y-57876396D01*
G37*
G36*
X94206262Y-58123311D02*
G01*
X94224085Y-58124367D01*
X94241455Y-58126127D01*
X94258374Y-58128592D01*
X94274840Y-58131760D01*
X94290854Y-58135633D01*
X94306416Y-58140210D01*
X94321526Y-58145490D01*
X94336183Y-58151475D01*
X94350389Y-58158164D01*
X94364142Y-58165557D01*
X94377442Y-58173655D01*
X94390291Y-58182456D01*
X94402687Y-58191961D01*
X94414631Y-58202171D01*
X94426123Y-58213085D01*
X94437037Y-58224576D01*
X94447246Y-58236520D01*
X94456752Y-58248917D01*
X94465553Y-58261765D01*
X94473650Y-58275066D01*
X94481043Y-58288819D01*
X94487732Y-58303024D01*
X94493717Y-58317682D01*
X94498998Y-58332791D01*
X94503575Y-58348353D01*
X94507447Y-58364367D01*
X94510616Y-58380834D01*
X94513080Y-58397752D01*
X94514840Y-58415123D01*
X94515897Y-58432946D01*
X94516249Y-58451221D01*
X94516249Y-58546476D01*
X94516218Y-58551088D01*
X94515488Y-58570179D01*
X94514302Y-58585173D01*
X94512569Y-58600747D01*
X94510288Y-58616901D01*
X94507460Y-58633634D01*
X94504084Y-58650947D01*
X94500161Y-58668840D01*
X94495691Y-58687312D01*
X94490673Y-58706363D01*
X94485108Y-58725995D01*
X94481115Y-58739195D01*
X94474750Y-58758695D01*
X94467934Y-58777835D01*
X94460668Y-58796614D01*
X94452951Y-58815033D01*
X94444783Y-58833090D01*
X94436164Y-58850787D01*
X94427094Y-58868124D01*
X94417574Y-58885100D01*
X94407602Y-58901715D01*
X94397180Y-58917969D01*
X94495000Y-58937753D01*
X94495000Y-59286166D01*
X92994371Y-59286166D01*
X92994371Y-58893423D01*
X93353042Y-58893423D01*
X93661521Y-58893423D01*
X94147320Y-58893423D01*
X94149732Y-58885224D01*
X94154325Y-58868952D01*
X94158613Y-58852849D01*
X94162594Y-58836915D01*
X94166269Y-58821150D01*
X94169638Y-58805554D01*
X94172701Y-58790127D01*
X94175457Y-58774868D01*
X94177907Y-58759778D01*
X94180051Y-58744858D01*
X94181889Y-58730106D01*
X94183420Y-58715523D01*
X94185143Y-58693965D01*
X94186176Y-58672787D01*
X94186521Y-58651989D01*
X94186521Y-58577983D01*
X94186452Y-58574675D01*
X94184048Y-58559161D01*
X94178209Y-58545366D01*
X94168935Y-58533287D01*
X94166701Y-58531157D01*
X94154458Y-58522571D01*
X94140426Y-58517419D01*
X94124605Y-58515701D01*
X93734061Y-58515701D01*
X93729598Y-58515773D01*
X93713163Y-58517481D01*
X93698995Y-58521468D01*
X93684473Y-58529656D01*
X93673493Y-58541404D01*
X93666055Y-58556711D01*
X93662654Y-58571521D01*
X93661521Y-58588608D01*
X93661521Y-58893423D01*
X93353042Y-58893423D01*
X93353042Y-58472470D01*
X93353407Y-58452363D01*
X93354502Y-58432800D01*
X93356326Y-58413781D01*
X93358881Y-58395305D01*
X93362165Y-58377373D01*
X93366180Y-58359985D01*
X93370924Y-58343141D01*
X93376398Y-58326841D01*
X93382602Y-58311084D01*
X93389535Y-58295871D01*
X93397199Y-58281203D01*
X93405592Y-58267078D01*
X93414716Y-58253496D01*
X93424569Y-58240459D01*
X93435152Y-58227965D01*
X93446465Y-58216015D01*
X93458370Y-58204747D01*
X93470822Y-58194205D01*
X93483821Y-58184391D01*
X93497367Y-58175303D01*
X93511459Y-58166943D01*
X93526098Y-58159309D01*
X93541283Y-58152403D01*
X93557015Y-58146223D01*
X93573294Y-58140771D01*
X93590120Y-58136045D01*
X93607492Y-58132047D01*
X93625411Y-58128775D01*
X93643877Y-58126230D01*
X93662889Y-58124413D01*
X93682448Y-58123322D01*
X93702554Y-58122959D01*
X94187986Y-58122959D01*
X94206262Y-58123311D01*
G37*
G36*
X-2984372Y-58284158D02*
G01*
X-2984372Y-57881158D01*
X-4072474Y-57881158D01*
X-4100254Y-57881563D01*
X-4127080Y-57882778D01*
X-4152953Y-57884803D01*
X-4177873Y-57887638D01*
X-4201840Y-57891283D01*
X-4224853Y-57895738D01*
X-4246914Y-57901003D01*
X-4268021Y-57907078D01*
X-4288176Y-57913963D01*
X-4307377Y-57921658D01*
X-4325625Y-57930163D01*
X-4342920Y-57939478D01*
X-4359262Y-57949603D01*
X-4374650Y-57960538D01*
X-4389086Y-57972284D01*
X-4402569Y-57984839D01*
X-4415124Y-57998278D01*
X-4426869Y-58012677D01*
X-4437804Y-58028034D01*
X-4447929Y-58044350D01*
X-4457244Y-58061625D01*
X-4465749Y-58079859D01*
X-4473444Y-58099051D01*
X-4480329Y-58119203D01*
X-4486404Y-58140313D01*
X-4491669Y-58162382D01*
X-4496125Y-58185410D01*
X-4499770Y-58209397D01*
X-4502605Y-58234343D01*
X-4504630Y-58260247D01*
X-4505845Y-58287111D01*
X-4506250Y-58314933D01*
X-4506250Y-58799999D01*
X-4505845Y-58827821D01*
X-4504630Y-58854685D01*
X-4502605Y-58880589D01*
X-4499770Y-58905535D01*
X-4496125Y-58929522D01*
X-4491669Y-58952550D01*
X-4486404Y-58974619D01*
X-4480329Y-58995729D01*
X-4473444Y-59015881D01*
X-4465749Y-59035073D01*
X-4457244Y-59053307D01*
X-4447929Y-59070582D01*
X-4437804Y-59086898D01*
X-4426869Y-59102255D01*
X-4415124Y-59116654D01*
X-4402569Y-59130093D01*
X-4389086Y-59142649D01*
X-4374650Y-59154394D01*
X-4359262Y-59165329D01*
X-4342920Y-59175454D01*
X-4325625Y-59184769D01*
X-4307377Y-59193274D01*
X-4288176Y-59200969D01*
X-4268021Y-59207854D01*
X-4246914Y-59213929D01*
X-4224853Y-59219194D01*
X-4201840Y-59223649D01*
X-4177873Y-59227294D01*
X-4152953Y-59230129D01*
X-4127080Y-59232154D01*
X-4100254Y-59233369D01*
X-4072474Y-59233774D01*
X-2984372Y-59233774D01*
X-2984372Y-58830774D01*
X-4072474Y-58830774D01*
X-4092967Y-58829763D01*
X-4111445Y-58826729D01*
X-4127907Y-58821674D01*
X-4142353Y-58814596D01*
X-4154783Y-58805497D01*
X-4165197Y-58794375D01*
X-4173596Y-58781231D01*
X-4179979Y-58766065D01*
X-4184347Y-58748876D01*
X-4186698Y-58729666D01*
X-4187146Y-58715735D01*
X-4187146Y-58399197D01*
X-4186138Y-58378638D01*
X-4183115Y-58360102D01*
X-4178076Y-58343587D01*
X-4171021Y-58329095D01*
X-4161950Y-58316625D01*
X-4150863Y-58306177D01*
X-4137761Y-58297752D01*
X-4122643Y-58291348D01*
X-4105510Y-58286967D01*
X-4086360Y-58284608D01*
X-4072474Y-58284158D01*
X-2984372Y-58284158D01*
G37*
G36*
X-4485000Y-56940334D02*
G01*
X-4485000Y-57723255D01*
X-4166264Y-57723255D01*
X-4166264Y-57533478D01*
X-3303109Y-57533478D01*
X-3303109Y-57723255D01*
X-2984372Y-57723255D01*
X-2984372Y-56940334D01*
X-3303109Y-56940334D01*
X-3303109Y-57130111D01*
X-4166264Y-57130111D01*
X-4166264Y-56940334D01*
X-4485000Y-56940334D01*
G37*
G36*
X-4485000Y-55468649D02*
G01*
X-4485000Y-55888136D01*
X-3631005Y-56376133D01*
X-4485000Y-56376133D01*
X-4485000Y-56779134D01*
X-2984372Y-56779134D01*
X-2984372Y-56359647D01*
X-3838001Y-55872016D01*
X-2984372Y-55872016D01*
X-2984372Y-55468649D01*
X-4485000Y-55468649D01*
G37*
G36*
X-4485000Y-54526726D02*
G01*
X-4485000Y-55309647D01*
X-4166264Y-55309647D01*
X-4166264Y-55119870D01*
X-3303109Y-55119870D01*
X-3303109Y-55309647D01*
X-2984372Y-55309647D01*
X-2984372Y-54526726D01*
X-3303109Y-54526726D01*
X-3303109Y-54716503D01*
X-4166264Y-54716503D01*
X-4166264Y-54526726D01*
X-4485000Y-54526726D01*
G37*
G36*
X-3369121Y-53013314D02*
G01*
X-3342299Y-53014529D01*
X-3316433Y-53016554D01*
X-3291523Y-53019389D01*
X-3267569Y-53023034D01*
X-3244571Y-53027489D01*
X-3222529Y-53032754D01*
X-3201443Y-53038829D01*
X-3181313Y-53045714D01*
X-3162139Y-53053410D01*
X-3143921Y-53061915D01*
X-3126659Y-53071230D01*
X-3110353Y-53081355D01*
X-3095003Y-53092290D01*
X-3080609Y-53104035D01*
X-3067171Y-53116590D01*
X-3054571Y-53130030D01*
X-3042785Y-53144428D01*
X-3031811Y-53159785D01*
X-3021650Y-53176102D01*
X-3012302Y-53193376D01*
X-3003767Y-53211610D01*
X-2996045Y-53230803D01*
X-2989135Y-53250954D01*
X-2983039Y-53272065D01*
X-2977755Y-53294134D01*
X-2973284Y-53317162D01*
X-2969626Y-53341149D01*
X-2966781Y-53366094D01*
X-2964749Y-53391999D01*
X-2963530Y-53418862D01*
X-2963123Y-53446684D01*
X-2963123Y-53974249D01*
X-2963530Y-54002028D01*
X-2964749Y-54028854D01*
X-2966781Y-54054727D01*
X-2969626Y-54079647D01*
X-2973284Y-54103614D01*
X-2977755Y-54126628D01*
X-2983039Y-54148688D01*
X-2989135Y-54169796D01*
X-2996045Y-54189950D01*
X-3003767Y-54209151D01*
X-3012302Y-54227400D01*
X-3021650Y-54244695D01*
X-3031811Y-54261036D01*
X-3042785Y-54276425D01*
X-3054571Y-54290861D01*
X-3067171Y-54304343D01*
X-3080609Y-54316898D01*
X-3095003Y-54328643D01*
X-3110353Y-54339579D01*
X-3126659Y-54349704D01*
X-3143921Y-54359019D01*
X-3162139Y-54367524D01*
X-3181313Y-54375219D01*
X-3201443Y-54382104D01*
X-3222529Y-54388179D01*
X-3244571Y-54393444D01*
X-3267569Y-54397899D01*
X-3291523Y-54401544D01*
X-3316433Y-54404379D01*
X-3342299Y-54406404D01*
X-3369121Y-54407619D01*
X-3396899Y-54408024D01*
X-4072474Y-54408024D01*
X-4100254Y-54407619D01*
X-4127080Y-54406404D01*
X-4152953Y-54404379D01*
X-4177873Y-54401544D01*
X-4201840Y-54397899D01*
X-4224853Y-54393444D01*
X-4246914Y-54388179D01*
X-4268021Y-54382104D01*
X-4288176Y-54375219D01*
X-4307377Y-54367524D01*
X-4325625Y-54359019D01*
X-4342920Y-54349704D01*
X-4359262Y-54339579D01*
X-4374650Y-54328643D01*
X-4389086Y-54316898D01*
X-4402569Y-54304343D01*
X-4415124Y-54290861D01*
X-4426869Y-54276425D01*
X-4437804Y-54261036D01*
X-4447929Y-54244695D01*
X-4457244Y-54227400D01*
X-4465749Y-54209151D01*
X-4473444Y-54189950D01*
X-4480329Y-54169796D01*
X-4486404Y-54148688D01*
X-4491669Y-54126628D01*
X-4496125Y-54103614D01*
X-4499770Y-54079647D01*
X-4502605Y-54054727D01*
X-4504630Y-54028854D01*
X-4505845Y-54002028D01*
X-4506250Y-53974249D01*
X-4506250Y-53889619D01*
X-4187146Y-53889619D01*
X-4186698Y-53903549D01*
X-4184347Y-53922760D01*
X-4179979Y-53939948D01*
X-4173596Y-53955114D01*
X-4165197Y-53968258D01*
X-4154783Y-53979380D01*
X-4142353Y-53988480D01*
X-4127907Y-53995558D01*
X-4111445Y-54000613D01*
X-4092967Y-54003646D01*
X-4072474Y-54004657D01*
X-3396899Y-54004657D01*
X-3383013Y-54004208D01*
X-3363863Y-54001849D01*
X-3346730Y-53997467D01*
X-3331612Y-53991064D01*
X-3318510Y-53982638D01*
X-3307423Y-53972190D01*
X-3298352Y-53959720D01*
X-3291297Y-53945228D01*
X-3286258Y-53928714D01*
X-3283234Y-53910177D01*
X-3282227Y-53889619D01*
X-3282227Y-53530948D01*
X-3282675Y-53517018D01*
X-3285026Y-53497807D01*
X-3289394Y-53480619D01*
X-3295777Y-53465453D01*
X-3304176Y-53452309D01*
X-3314590Y-53441187D01*
X-3327020Y-53432087D01*
X-3341466Y-53425010D01*
X-3357928Y-53419954D01*
X-3376405Y-53416921D01*
X-3396899Y-53415910D01*
X-4072474Y-53415910D01*
X-4086360Y-53416359D01*
X-4105510Y-53418718D01*
X-4122643Y-53423100D01*
X-4137761Y-53429503D01*
X-4150863Y-53437929D01*
X-4161950Y-53448377D01*
X-4171021Y-53460847D01*
X-4178076Y-53475339D01*
X-4183115Y-53491853D01*
X-4186138Y-53510390D01*
X-4187146Y-53530948D01*
X-4187146Y-53889619D01*
X-4506250Y-53889619D01*
X-4506250Y-53446684D01*
X-4505845Y-53418862D01*
X-4504630Y-53391999D01*
X-4502605Y-53366094D01*
X-4499770Y-53341149D01*
X-4496125Y-53317162D01*
X-4491669Y-53294134D01*
X-4486404Y-53272065D01*
X-4480329Y-53250954D01*
X-4473444Y-53230803D01*
X-4465749Y-53211610D01*
X-4457244Y-53193376D01*
X-4447929Y-53176102D01*
X-4437804Y-53159785D01*
X-4426869Y-53144428D01*
X-4415124Y-53130030D01*
X-4402569Y-53116590D01*
X-4389086Y-53104035D01*
X-4374650Y-53092290D01*
X-4359262Y-53081355D01*
X-4342920Y-53071230D01*
X-4325625Y-53061915D01*
X-4307377Y-53053410D01*
X-4288176Y-53045714D01*
X-4268021Y-53038829D01*
X-4246914Y-53032754D01*
X-4224853Y-53027489D01*
X-4201840Y-53023034D01*
X-4177873Y-53019389D01*
X-4152953Y-53016554D01*
X-4127080Y-53014529D01*
X-4100254Y-53013314D01*
X-4072474Y-53012909D01*
X-3396899Y-53012909D01*
X-3369121Y-53013314D01*
G37*
G36*
X-3894055Y-52896039D02*
G01*
X-3575318Y-52896039D01*
X-3575318Y-52007606D01*
X-3894055Y-52007606D01*
X-3894055Y-52896039D01*
G37*
G36*
X-3390326Y-50515076D02*
G01*
X-3363462Y-50516291D01*
X-3337558Y-50518316D01*
X-3312612Y-50521151D01*
X-3288625Y-50524796D01*
X-3265597Y-50529251D01*
X-3243528Y-50534516D01*
X-3222418Y-50540591D01*
X-3202266Y-50547477D01*
X-3183074Y-50555172D01*
X-3164840Y-50563677D01*
X-3147565Y-50572992D01*
X-3131249Y-50583117D01*
X-3115891Y-50594052D01*
X-3101493Y-50605797D01*
X-3088054Y-50618352D01*
X-3075498Y-50631792D01*
X-3063753Y-50646190D01*
X-3052818Y-50661547D01*
X-3042693Y-50677864D01*
X-3033378Y-50695139D01*
X-3024873Y-50713372D01*
X-3017178Y-50732565D01*
X-3010293Y-50752716D01*
X-3004218Y-50773827D01*
X-2998953Y-50795896D01*
X-2994498Y-50818924D01*
X-2990853Y-50842911D01*
X-2988017Y-50867856D01*
X-2985992Y-50893761D01*
X-2984777Y-50920624D01*
X-2984372Y-50948446D01*
X-2984372Y-51846405D01*
X-4485000Y-51846405D01*
X-4485000Y-51443405D01*
X-4062949Y-51443405D01*
X-3744212Y-51443405D01*
X-3303109Y-51443405D01*
X-3303109Y-51033077D01*
X-3303559Y-51019146D01*
X-3305918Y-50999936D01*
X-3310299Y-50982747D01*
X-3316703Y-50967581D01*
X-3325128Y-50954437D01*
X-3335576Y-50943315D01*
X-3348046Y-50934216D01*
X-3362538Y-50927138D01*
X-3379053Y-50922083D01*
X-3397589Y-50919049D01*
X-3418148Y-50918038D01*
X-3629174Y-50918038D01*
X-3643104Y-50918488D01*
X-3662315Y-50920847D01*
X-3679503Y-50925228D01*
X-3694669Y-50931632D01*
X-3707813Y-50940057D01*
X-3718935Y-50950505D01*
X-3728035Y-50962975D01*
X-3735112Y-50977467D01*
X-3740168Y-50993982D01*
X-3743201Y-51012518D01*
X-3744212Y-51033077D01*
X-3744212Y-51443405D01*
X-4062949Y-51443405D01*
X-4062949Y-50948446D01*
X-4062544Y-50920624D01*
X-4061329Y-50893761D01*
X-4059304Y-50867856D01*
X-4056469Y-50842911D01*
X-4052824Y-50818924D01*
X-4048369Y-50795896D01*
X-4043104Y-50773827D01*
X-4037029Y-50752716D01*
X-4030144Y-50732565D01*
X-4022448Y-50713372D01*
X-4013943Y-50695139D01*
X-4004628Y-50677864D01*
X-3994503Y-50661547D01*
X-3983568Y-50646190D01*
X-3971823Y-50631792D01*
X-3959268Y-50618352D01*
X-3945828Y-50605797D01*
X-3931430Y-50594052D01*
X-3916073Y-50583117D01*
X-3899756Y-50572992D01*
X-3882482Y-50563677D01*
X-3864248Y-50555172D01*
X-3845055Y-50547477D01*
X-3824904Y-50540591D01*
X-3803793Y-50534516D01*
X-3781724Y-50529251D01*
X-3758696Y-50524796D01*
X-3734709Y-50521151D01*
X-3709764Y-50518316D01*
X-3683859Y-50516291D01*
X-3656996Y-50515076D01*
X-3629174Y-50514671D01*
X-3418148Y-50514671D01*
X-3390326Y-50515076D01*
G37*
G36*
X-3651200Y-49277824D02*
G01*
X-3631641Y-49278919D01*
X-3612628Y-49280743D01*
X-3594163Y-49283298D01*
X-3576244Y-49286582D01*
X-3558872Y-49290597D01*
X-3542046Y-49295341D01*
X-3525767Y-49300815D01*
X-3510035Y-49307019D01*
X-3494850Y-49313952D01*
X-3480211Y-49321616D01*
X-3466119Y-49330009D01*
X-3452573Y-49339133D01*
X-3439574Y-49348986D01*
X-3427122Y-49359569D01*
X-3415217Y-49370882D01*
X-3403948Y-49382787D01*
X-3393407Y-49395239D01*
X-3383592Y-49408238D01*
X-3374505Y-49421784D01*
X-3366144Y-49435876D01*
X-3358511Y-49450515D01*
X-3351604Y-49465700D01*
X-3345424Y-49481432D01*
X-3339972Y-49497711D01*
X-3335246Y-49514537D01*
X-3331248Y-49531909D01*
X-3327976Y-49549828D01*
X-3325432Y-49568294D01*
X-3323614Y-49587306D01*
X-3322524Y-49606865D01*
X-3322160Y-49626971D01*
X-3322160Y-50049022D01*
X-3322524Y-50069129D01*
X-3323614Y-50088693D01*
X-3325432Y-50107712D01*
X-3327976Y-50126188D01*
X-3331248Y-50144119D01*
X-3335246Y-50161507D01*
X-3339972Y-50178352D01*
X-3345424Y-50194652D01*
X-3351604Y-50210409D01*
X-3358511Y-50225621D01*
X-3366144Y-50240290D01*
X-3374505Y-50254415D01*
X-3383592Y-50267996D01*
X-3393407Y-50281034D01*
X-3403948Y-50293527D01*
X-3415217Y-50305477D01*
X-3427122Y-50316746D01*
X-3439574Y-50327287D01*
X-3452573Y-50337102D01*
X-3466119Y-50346189D01*
X-3480211Y-50354550D01*
X-3494850Y-50362184D01*
X-3510035Y-50369090D01*
X-3525767Y-50375270D01*
X-3542046Y-50380722D01*
X-3558872Y-50385448D01*
X-3576244Y-50389446D01*
X-3594163Y-50392718D01*
X-3612628Y-50395262D01*
X-3631641Y-50397080D01*
X-3651200Y-50398170D01*
X-3671305Y-50398534D01*
X-4177987Y-50398534D01*
X-4196263Y-50398182D01*
X-4214086Y-50397125D01*
X-4231456Y-50395365D01*
X-4248375Y-50392901D01*
X-4264841Y-50389732D01*
X-4280855Y-50385860D01*
X-4296417Y-50381283D01*
X-4311527Y-50376002D01*
X-4326184Y-50370017D01*
X-4340390Y-50363328D01*
X-4354143Y-50355935D01*
X-4367443Y-50347838D01*
X-4380292Y-50339037D01*
X-4392688Y-50329531D01*
X-4404632Y-50319322D01*
X-4416124Y-50308408D01*
X-4427038Y-50296916D01*
X-4437247Y-50284972D01*
X-4446753Y-50272576D01*
X-4455554Y-50259727D01*
X-4463651Y-50246427D01*
X-4471044Y-50232674D01*
X-4477733Y-50218469D01*
X-4483718Y-50203811D01*
X-4488999Y-50188701D01*
X-4493576Y-50173140D01*
X-4497448Y-50157125D01*
X-4500617Y-50140659D01*
X-4503081Y-50123740D01*
X-4504841Y-50106370D01*
X-4505898Y-50088547D01*
X-4506250Y-50070271D01*
X-4506207Y-50049419D01*
X-4506079Y-50028400D01*
X-4505866Y-50007213D01*
X-4505568Y-49985859D01*
X-4505185Y-49964337D01*
X-4504717Y-49942648D01*
X-4504163Y-49920791D01*
X-4503525Y-49898767D01*
X-4502801Y-49876576D01*
X-4501992Y-49854217D01*
X-4501098Y-49831690D01*
X-4500119Y-49808996D01*
X-4499054Y-49786135D01*
X-4497905Y-49763106D01*
X-4496670Y-49739910D01*
X-4495350Y-49716547D01*
X-4493945Y-49693016D01*
X-4492455Y-49669317D01*
X-4490880Y-49645451D01*
X-4489219Y-49621418D01*
X-4487474Y-49597217D01*
X-4485643Y-49572849D01*
X-4483727Y-49548313D01*
X-4481726Y-49523610D01*
X-4479640Y-49498739D01*
X-4477469Y-49473701D01*
X-4475212Y-49448496D01*
X-4472870Y-49423123D01*
X-4470444Y-49397583D01*
X-4467932Y-49371875D01*
X-4465335Y-49346000D01*
X-4462652Y-49319957D01*
X-4175423Y-49319957D01*
X-4177451Y-49345699D01*
X-4179415Y-49371036D01*
X-4181315Y-49395971D01*
X-4183151Y-49420501D01*
X-4184922Y-49444628D01*
X-4186628Y-49468352D01*
X-4188270Y-49491672D01*
X-4189848Y-49514588D01*
X-4191362Y-49537101D01*
X-4192811Y-49559210D01*
X-4194195Y-49580916D01*
X-4195515Y-49602218D01*
X-4196771Y-49623117D01*
X-4197963Y-49643612D01*
X-4199090Y-49663703D01*
X-4200152Y-49683391D01*
X-4201150Y-49702675D01*
X-4202084Y-49721556D01*
X-4202954Y-49740033D01*
X-4203759Y-49758106D01*
X-4204499Y-49775776D01*
X-4205175Y-49793042D01*
X-4205787Y-49809905D01*
X-4206335Y-49826364D01*
X-4206818Y-49842420D01*
X-4207236Y-49858072D01*
X-4207590Y-49873320D01*
X-4207880Y-49888165D01*
X-4208267Y-49916644D01*
X-4208395Y-49943509D01*
X-4208327Y-49946818D01*
X-4205923Y-49962331D01*
X-4200084Y-49976127D01*
X-4190810Y-49988206D01*
X-4188575Y-49990335D01*
X-4176281Y-49998922D01*
X-4162128Y-50004074D01*
X-4146114Y-50005791D01*
X-4073573Y-50005791D01*
X-4073573Y-49670202D01*
X-3786344Y-49670202D01*
X-3786344Y-50005791D01*
X-3681930Y-50005791D01*
X-3677467Y-50005720D01*
X-3661032Y-50004011D01*
X-3646864Y-50000024D01*
X-3632342Y-49991836D01*
X-3621362Y-49980089D01*
X-3613924Y-49964781D01*
X-3610523Y-49949972D01*
X-3609390Y-49932885D01*
X-3609390Y-49743108D01*
X-3609461Y-49738623D01*
X-3611161Y-49722105D01*
X-3615128Y-49707865D01*
X-3623275Y-49693270D01*
X-3634963Y-49682234D01*
X-3650194Y-49674758D01*
X-3664928Y-49671341D01*
X-3681930Y-49670202D01*
X-3786344Y-49670202D01*
X-4073573Y-49670202D01*
X-4073573Y-49277459D01*
X-3671305Y-49277459D01*
X-3651200Y-49277824D01*
G37*
G36*
X-3343043Y-48790195D02*
G01*
X-3343408Y-48810302D01*
X-3344503Y-48829865D01*
X-3346327Y-48848884D01*
X-3348882Y-48867360D01*
X-3352166Y-48885292D01*
X-3356181Y-48902680D01*
X-3360925Y-48919524D01*
X-3366399Y-48935824D01*
X-3372603Y-48951581D01*
X-3379536Y-48966794D01*
X-3387200Y-48981462D01*
X-3395593Y-48995588D01*
X-3404717Y-49009169D01*
X-3414570Y-49022206D01*
X-3425153Y-49034700D01*
X-3436466Y-49046650D01*
X-3448371Y-49057918D01*
X-3460823Y-49068460D01*
X-3473822Y-49078274D01*
X-3487368Y-49087362D01*
X-3501460Y-49095722D01*
X-3516099Y-49103356D01*
X-3531284Y-49110262D01*
X-3547016Y-49116442D01*
X-3563295Y-49121894D01*
X-3580121Y-49126620D01*
X-3597493Y-49130619D01*
X-3615412Y-49133890D01*
X-3633878Y-49136435D01*
X-3652890Y-49138252D01*
X-3672449Y-49139343D01*
X-3692555Y-49139706D01*
X-4114606Y-49139706D01*
X-4132882Y-49139354D01*
X-4150705Y-49138298D01*
X-4168075Y-49136538D01*
X-4184994Y-49134073D01*
X-4201460Y-49130905D01*
X-4217474Y-49127032D01*
X-4233036Y-49122455D01*
X-4248146Y-49117175D01*
X-4262803Y-49111190D01*
X-4277009Y-49104501D01*
X-4290762Y-49097108D01*
X-4304062Y-49089010D01*
X-4316911Y-49080209D01*
X-4329307Y-49070704D01*
X-4341251Y-49060494D01*
X-4352743Y-49049580D01*
X-4363657Y-49038089D01*
X-4373866Y-49026145D01*
X-4383372Y-49013748D01*
X-4392173Y-49000900D01*
X-4400270Y-48987599D01*
X-4407663Y-48973846D01*
X-4414352Y-48959641D01*
X-4420337Y-48944983D01*
X-4425618Y-48929874D01*
X-4430195Y-48914312D01*
X-4434067Y-48898298D01*
X-4437236Y-48881831D01*
X-4439700Y-48864913D01*
X-4441460Y-48847542D01*
X-4442517Y-48829719D01*
X-4442869Y-48811444D01*
X-4442869Y-48737438D01*
X-4442714Y-48717922D01*
X-4442250Y-48698117D01*
X-4441734Y-48684682D01*
X-4134390Y-48684682D01*
X-4134321Y-48687990D01*
X-4131917Y-48703504D01*
X-4126078Y-48717300D01*
X-4116804Y-48729378D01*
X-4114570Y-48731508D01*
X-4102327Y-48740094D01*
X-4088295Y-48745246D01*
X-4072474Y-48746964D01*
X-3724062Y-48746964D01*
X-3719599Y-48746892D01*
X-3703164Y-48745184D01*
X-3688996Y-48741197D01*
X-3674474Y-48733009D01*
X-3663494Y-48721261D01*
X-3656056Y-48705954D01*
X-3652655Y-48691145D01*
X-3651522Y-48674057D01*
X-3651522Y-48390491D01*
X-4115339Y-48390491D01*
X-4116511Y-48397359D01*
X-4119804Y-48418226D01*
X-4122762Y-48439486D01*
X-4125385Y-48461138D01*
X-4126948Y-48475791D01*
X-4128362Y-48490619D01*
X-4129627Y-48505621D01*
X-4130743Y-48520798D01*
X-4131711Y-48536150D01*
X-4132529Y-48551676D01*
X-4133199Y-48567376D01*
X-4133720Y-48583252D01*
X-4134092Y-48599302D01*
X-4134315Y-48615526D01*
X-4134390Y-48631925D01*
X-4134390Y-48684682D01*
X-4441734Y-48684682D01*
X-4441478Y-48678023D01*
X-4440396Y-48657639D01*
X-4439005Y-48636967D01*
X-4437304Y-48616006D01*
X-4435295Y-48594755D01*
X-4432977Y-48573215D01*
X-4430349Y-48551387D01*
X-4427413Y-48529269D01*
X-4424167Y-48506862D01*
X-4420612Y-48484166D01*
X-4416748Y-48461181D01*
X-4412575Y-48437907D01*
X-4408093Y-48414343D01*
X-4403301Y-48390491D01*
X-4494526Y-48390491D01*
X-4497833Y-48390560D01*
X-4513296Y-48392964D01*
X-4526971Y-48398803D01*
X-4538856Y-48408077D01*
X-4540986Y-48410311D01*
X-4549572Y-48422554D01*
X-4554724Y-48436586D01*
X-4556442Y-48452407D01*
X-4556314Y-48479316D01*
X-4555932Y-48507836D01*
X-4555645Y-48522701D01*
X-4555295Y-48537969D01*
X-4554881Y-48553639D01*
X-4554404Y-48569712D01*
X-4553862Y-48586188D01*
X-4553257Y-48603067D01*
X-4552589Y-48620349D01*
X-4551856Y-48638033D01*
X-4551060Y-48656121D01*
X-4550200Y-48674611D01*
X-4549277Y-48693504D01*
X-4548290Y-48712800D01*
X-4547239Y-48732499D01*
X-4546125Y-48752601D01*
X-4544946Y-48773105D01*
X-4543705Y-48794013D01*
X-4542399Y-48815323D01*
X-4541030Y-48837036D01*
X-4539597Y-48859152D01*
X-4538100Y-48881671D01*
X-4536540Y-48904593D01*
X-4534916Y-48927917D01*
X-4533229Y-48951645D01*
X-4531477Y-48975775D01*
X-4529662Y-49000308D01*
X-4527784Y-49025244D01*
X-4525841Y-49050583D01*
X-4523835Y-49076325D01*
X-4821689Y-49076325D01*
X-4824349Y-49050260D01*
X-4826924Y-49024364D01*
X-4829415Y-48998637D01*
X-4831822Y-48973079D01*
X-4834144Y-48947690D01*
X-4836381Y-48922469D01*
X-4838534Y-48897418D01*
X-4840603Y-48872535D01*
X-4842587Y-48847821D01*
X-4844487Y-48823276D01*
X-4846302Y-48798900D01*
X-4848033Y-48774693D01*
X-4849680Y-48750654D01*
X-4851242Y-48726785D01*
X-4852719Y-48703084D01*
X-4854113Y-48679553D01*
X-4855421Y-48656190D01*
X-4856646Y-48632996D01*
X-4857785Y-48609971D01*
X-4858841Y-48587114D01*
X-4859812Y-48564427D01*
X-4860698Y-48541908D01*
X-4861501Y-48519559D01*
X-4862218Y-48497378D01*
X-4862852Y-48475366D01*
X-4863400Y-48453523D01*
X-4863865Y-48431849D01*
X-4864245Y-48410344D01*
X-4864540Y-48389007D01*
X-4864751Y-48367840D01*
X-4864878Y-48346841D01*
X-4864920Y-48326011D01*
X-4864568Y-48307693D01*
X-4863512Y-48289833D01*
X-4861752Y-48272430D01*
X-4859287Y-48255486D01*
X-4856119Y-48239000D01*
X-4852246Y-48222971D01*
X-4847670Y-48207401D01*
X-4842389Y-48192288D01*
X-4836404Y-48177633D01*
X-4829715Y-48163437D01*
X-4822322Y-48149698D01*
X-4814225Y-48136418D01*
X-4805423Y-48123595D01*
X-4795918Y-48111230D01*
X-4785708Y-48099323D01*
X-4774795Y-48087874D01*
X-4763303Y-48076961D01*
X-4751359Y-48066751D01*
X-4738962Y-48057246D01*
X-4726114Y-48048444D01*
X-4712813Y-48040347D01*
X-4699060Y-48032954D01*
X-4684855Y-48026265D01*
X-4670198Y-48020280D01*
X-4655088Y-48014999D01*
X-4639526Y-48010423D01*
X-4623512Y-48006550D01*
X-4607046Y-48003381D01*
X-4590127Y-48000917D01*
X-4572756Y-47999157D01*
X-4554933Y-47998101D01*
X-4536658Y-47997749D01*
X-3343043Y-47997749D01*
X-3343043Y-48790195D01*
G37*
G36*
X-3894055Y-47859263D02*
G01*
X-3575318Y-47859263D01*
X-3575318Y-46970830D01*
X-3894055Y-46970830D01*
X-3894055Y-47859263D01*
G37*
G36*
X-4066954Y-45477917D02*
G01*
X-4050647Y-45478239D01*
X-4034720Y-45478947D01*
X-4019173Y-45480042D01*
X-4004005Y-45481523D01*
X-3989218Y-45483391D01*
X-3970093Y-45486482D01*
X-3951643Y-45490260D01*
X-3933868Y-45494725D01*
X-3916770Y-45499877D01*
X-3893946Y-45508066D01*
X-3872279Y-45516879D01*
X-3851768Y-45526315D01*
X-3832414Y-45536376D01*
X-3814216Y-45547061D01*
X-3797174Y-45558369D01*
X-3781289Y-45570302D01*
X-3766560Y-45582859D01*
X-3752988Y-45596039D01*
X-3740571Y-45609844D01*
X-3729311Y-45624272D01*
X-3719208Y-45639324D01*
X-3710260Y-45655001D01*
X-3702469Y-45671301D01*
X-3695835Y-45688225D01*
X-3690356Y-45705774D01*
X-3684351Y-45693037D01*
X-3676412Y-45680105D01*
X-3666537Y-45666979D01*
X-3654727Y-45653658D01*
X-3640983Y-45640143D01*
X-3629405Y-45629879D01*
X-3616739Y-45619505D01*
X-3602984Y-45609022D01*
X-3588141Y-45598429D01*
X-3582965Y-45594913D01*
X-3566874Y-45585034D01*
X-3549940Y-45576160D01*
X-3532163Y-45568290D01*
X-3513542Y-45561425D01*
X-3494077Y-45555564D01*
X-3473768Y-45550709D01*
X-3452616Y-45546858D01*
X-3438046Y-45544848D01*
X-3423101Y-45543285D01*
X-3407781Y-45542169D01*
X-3392086Y-45541499D01*
X-3376016Y-45541276D01*
X-3351769Y-45541670D01*
X-3328303Y-45542850D01*
X-3305618Y-45544818D01*
X-3283715Y-45547573D01*
X-3262593Y-45551115D01*
X-3242253Y-45555444D01*
X-3222694Y-45560560D01*
X-3203916Y-45566464D01*
X-3185920Y-45573154D01*
X-3168705Y-45580632D01*
X-3152272Y-45588896D01*
X-3136620Y-45597948D01*
X-3121749Y-45607787D01*
X-3107660Y-45618413D01*
X-3094352Y-45629826D01*
X-3081825Y-45642026D01*
X-3070024Y-45655008D01*
X-3058985Y-45668857D01*
X-3048707Y-45683573D01*
X-3039190Y-45699156D01*
X-3030434Y-45715607D01*
X-3022440Y-45732925D01*
X-3015207Y-45751110D01*
X-3008736Y-45770162D01*
X-3003026Y-45790082D01*
X-2998077Y-45810869D01*
X-2993889Y-45832523D01*
X-2990463Y-45855044D01*
X-2987799Y-45878433D01*
X-2985895Y-45902689D01*
X-2984753Y-45927812D01*
X-2984372Y-45953802D01*
X-2984372Y-46809629D01*
X-4485000Y-46809629D01*
X-4485000Y-46406629D01*
X-4166264Y-46406629D01*
X-3894055Y-46406629D01*
X-3575318Y-46406629D01*
X-3303109Y-46406629D01*
X-3303109Y-46059315D01*
X-3303559Y-46045429D01*
X-3305918Y-46026280D01*
X-3310299Y-46009146D01*
X-3316703Y-45994028D01*
X-3325128Y-45980926D01*
X-3335576Y-45969840D01*
X-3348046Y-45960769D01*
X-3362538Y-45953714D01*
X-3379053Y-45948675D01*
X-3397589Y-45945651D01*
X-3418148Y-45944643D01*
X-3460280Y-45944643D01*
X-3474210Y-45945091D01*
X-3493421Y-45947443D01*
X-3510609Y-45951810D01*
X-3525775Y-45958193D01*
X-3538919Y-45966592D01*
X-3550041Y-45977007D01*
X-3559141Y-45989437D01*
X-3566218Y-46003883D01*
X-3571274Y-46020345D01*
X-3574307Y-46038822D01*
X-3575318Y-46059315D01*
X-3575318Y-46406629D01*
X-3894055Y-46406629D01*
X-3894055Y-45996301D01*
X-3894504Y-45982370D01*
X-3896863Y-45963160D01*
X-3901245Y-45945971D01*
X-3907648Y-45930805D01*
X-3916074Y-45917661D01*
X-3926522Y-45906539D01*
X-3938992Y-45897440D01*
X-3953484Y-45890362D01*
X-3969998Y-45885307D01*
X-3988535Y-45882273D01*
X-4009093Y-45881262D01*
X-4051225Y-45881262D01*
X-4065156Y-45881712D01*
X-4084366Y-45884071D01*
X-4101554Y-45888452D01*
X-4116721Y-45894856D01*
X-4129865Y-45903281D01*
X-4140987Y-45913729D01*
X-4150086Y-45926199D01*
X-4157164Y-45940691D01*
X-4162219Y-45957206D01*
X-4165253Y-45975742D01*
X-4166264Y-45996301D01*
X-4166264Y-46406629D01*
X-4485000Y-46406629D01*
X-4485000Y-45890788D01*
X-4484608Y-45864753D01*
X-4483432Y-45839588D01*
X-4481471Y-45815294D01*
X-4478727Y-45791869D01*
X-4475197Y-45769315D01*
X-4470884Y-45747631D01*
X-4465786Y-45726817D01*
X-4459905Y-45706873D01*
X-4453238Y-45687799D01*
X-4445788Y-45669595D01*
X-4437553Y-45652262D01*
X-4428535Y-45635798D01*
X-4418732Y-45620205D01*
X-4408144Y-45605482D01*
X-4396773Y-45591628D01*
X-4384617Y-45578645D01*
X-4371591Y-45566445D01*
X-4357700Y-45555032D01*
X-4342946Y-45544406D01*
X-4327326Y-45534567D01*
X-4310843Y-45525515D01*
X-4293495Y-45517251D01*
X-4275283Y-45509773D01*
X-4256206Y-45503083D01*
X-4236265Y-45497179D01*
X-4215459Y-45492063D01*
X-4193790Y-45487734D01*
X-4171255Y-45484192D01*
X-4147857Y-45481437D01*
X-4123594Y-45479469D01*
X-4098466Y-45478289D01*
X-4072474Y-45477895D01*
X-4066954Y-45477917D01*
G37*
G36*
X-3651200Y-44178032D02*
G01*
X-3631641Y-44179122D01*
X-3612628Y-44180940D01*
X-3594163Y-44183484D01*
X-3576244Y-44186756D01*
X-3558872Y-44190754D01*
X-3542046Y-44195480D01*
X-3525767Y-44200933D01*
X-3510035Y-44207112D01*
X-3494850Y-44214019D01*
X-3480211Y-44221652D01*
X-3466119Y-44230013D01*
X-3452573Y-44239100D01*
X-3439574Y-44248915D01*
X-3427122Y-44259456D01*
X-3415217Y-44270725D01*
X-3403948Y-44282630D01*
X-3393407Y-44295082D01*
X-3383592Y-44308081D01*
X-3374505Y-44321627D01*
X-3366144Y-44335719D01*
X-3358511Y-44350358D01*
X-3351604Y-44365543D01*
X-3345424Y-44381275D01*
X-3339972Y-44397554D01*
X-3335246Y-44414380D01*
X-3331248Y-44431752D01*
X-3327976Y-44449671D01*
X-3325432Y-44468137D01*
X-3323614Y-44487149D01*
X-3322524Y-44506708D01*
X-3322160Y-44526814D01*
X-3322160Y-45012246D01*
X-3322524Y-45032353D01*
X-3323614Y-45051917D01*
X-3325432Y-45070936D01*
X-3327976Y-45089412D01*
X-3331248Y-45107343D01*
X-3335246Y-45124731D01*
X-3339972Y-45141576D01*
X-3345424Y-45157876D01*
X-3351604Y-45173633D01*
X-3358511Y-45188845D01*
X-3366144Y-45203514D01*
X-3374505Y-45217639D01*
X-3383592Y-45231220D01*
X-3393407Y-45244258D01*
X-3403948Y-45256751D01*
X-3415217Y-45268701D01*
X-3427122Y-45279970D01*
X-3439574Y-45290511D01*
X-3452573Y-45300326D01*
X-3466119Y-45309413D01*
X-3480211Y-45317774D01*
X-3494850Y-45325408D01*
X-3510035Y-45332314D01*
X-3525767Y-45338494D01*
X-3542046Y-45343946D01*
X-3558872Y-45348672D01*
X-3576244Y-45352670D01*
X-3594163Y-45355942D01*
X-3612628Y-45358486D01*
X-3631641Y-45360304D01*
X-3651200Y-45361394D01*
X-3671305Y-45361758D01*
X-4156738Y-45361758D01*
X-4176845Y-45361394D01*
X-4196408Y-45360304D01*
X-4215428Y-45358486D01*
X-4233904Y-45355942D01*
X-4251835Y-45352670D01*
X-4269223Y-45348672D01*
X-4286068Y-45343946D01*
X-4302368Y-45338494D01*
X-4318124Y-45332314D01*
X-4333337Y-45325408D01*
X-4348006Y-45317774D01*
X-4362131Y-45309413D01*
X-4375712Y-45300326D01*
X-4388750Y-45290511D01*
X-4401243Y-45279970D01*
X-4413193Y-45268701D01*
X-4424462Y-45256751D01*
X-4435003Y-45244258D01*
X-4444818Y-45231220D01*
X-4453905Y-45217639D01*
X-4462266Y-45203514D01*
X-4469899Y-45188845D01*
X-4476806Y-45173633D01*
X-4482985Y-45157876D01*
X-4488438Y-45141576D01*
X-4493164Y-45124731D01*
X-4497162Y-45107343D01*
X-4500434Y-45089412D01*
X-4502978Y-45070936D01*
X-4504796Y-45051917D01*
X-4505886Y-45032353D01*
X-4506250Y-45012246D01*
X-4506250Y-44896109D01*
X-4197771Y-44896109D01*
X-4197700Y-44900594D01*
X-4196000Y-44917112D01*
X-4192033Y-44931352D01*
X-4183886Y-44945947D01*
X-4172198Y-44956983D01*
X-4156967Y-44964459D01*
X-4142232Y-44967876D01*
X-4125231Y-44969015D01*
X-3703179Y-44969015D01*
X-3698694Y-44968944D01*
X-3682176Y-44967235D01*
X-3667936Y-44963248D01*
X-3653341Y-44955060D01*
X-3642305Y-44943313D01*
X-3634829Y-44928005D01*
X-3631412Y-44913196D01*
X-3630273Y-44896109D01*
X-3630273Y-44642951D01*
X-3630344Y-44638488D01*
X-3632053Y-44622053D01*
X-3636040Y-44607885D01*
X-3644227Y-44593363D01*
X-3655975Y-44582383D01*
X-3671283Y-44574945D01*
X-3686092Y-44571544D01*
X-3703179Y-44570411D01*
X-4125231Y-44570411D01*
X-4129694Y-44570482D01*
X-4146129Y-44572182D01*
X-4160297Y-44576149D01*
X-4174819Y-44584296D01*
X-4185799Y-44595984D01*
X-4193237Y-44611215D01*
X-4196637Y-44625949D01*
X-4197771Y-44642951D01*
X-4197771Y-44896109D01*
X-4506250Y-44896109D01*
X-4506250Y-44526814D01*
X-4505886Y-44506708D01*
X-4504796Y-44487149D01*
X-4502978Y-44468137D01*
X-4500434Y-44449671D01*
X-4497162Y-44431752D01*
X-4493164Y-44414380D01*
X-4488438Y-44397554D01*
X-4482985Y-44381275D01*
X-4476806Y-44365543D01*
X-4469899Y-44350358D01*
X-4462266Y-44335719D01*
X-4453905Y-44321627D01*
X-4444818Y-44308081D01*
X-4435003Y-44295082D01*
X-4424462Y-44282630D01*
X-4413193Y-44270725D01*
X-4401243Y-44259456D01*
X-4388750Y-44248915D01*
X-4375712Y-44239100D01*
X-4362131Y-44230013D01*
X-4348006Y-44221652D01*
X-4333337Y-44214019D01*
X-4318124Y-44207112D01*
X-4302368Y-44200933D01*
X-4286068Y-44195480D01*
X-4269223Y-44190754D01*
X-4251835Y-44186756D01*
X-4233904Y-44183484D01*
X-4215428Y-44180940D01*
X-4196408Y-44179122D01*
X-4176845Y-44178032D01*
X-4156738Y-44177668D01*
X-3671305Y-44177668D01*
X-3651200Y-44178032D01*
G37*
G36*
X-3632104Y-42929817D02*
G01*
X-3614244Y-42930874D01*
X-3596842Y-42932634D01*
X-3579898Y-42935098D01*
X-3563411Y-42938267D01*
X-3547383Y-42942139D01*
X-3531812Y-42946716D01*
X-3516700Y-42951997D01*
X-3502045Y-42957982D01*
X-3487849Y-42964671D01*
X-3474110Y-42972064D01*
X-3460829Y-42980161D01*
X-3448006Y-42988962D01*
X-3435642Y-42998468D01*
X-3423735Y-43008677D01*
X-3412286Y-43019591D01*
X-3401372Y-43031083D01*
X-3391163Y-43043027D01*
X-3381657Y-43055423D01*
X-3372856Y-43068272D01*
X-3364759Y-43081572D01*
X-3357366Y-43095325D01*
X-3350677Y-43109530D01*
X-3344692Y-43124188D01*
X-3339411Y-43139298D01*
X-3334834Y-43154859D01*
X-3330962Y-43170874D01*
X-3327793Y-43187340D01*
X-3325329Y-43204259D01*
X-3323569Y-43221629D01*
X-3322512Y-43239452D01*
X-3322160Y-43257728D01*
X-3322203Y-43277252D01*
X-3322329Y-43296944D01*
X-3322540Y-43316805D01*
X-3322836Y-43336834D01*
X-3323216Y-43357031D01*
X-3323680Y-43377396D01*
X-3324229Y-43397929D01*
X-3324862Y-43418630D01*
X-3325580Y-43439500D01*
X-3326382Y-43460538D01*
X-3327269Y-43481743D01*
X-3328240Y-43503117D01*
X-3329295Y-43524659D01*
X-3330435Y-43546370D01*
X-3331659Y-43568248D01*
X-3332968Y-43590295D01*
X-3334361Y-43612510D01*
X-3335839Y-43634893D01*
X-3337401Y-43657444D01*
X-3339047Y-43680163D01*
X-3340778Y-43703050D01*
X-3342594Y-43726106D01*
X-3344493Y-43749330D01*
X-3346478Y-43772721D01*
X-3348546Y-43796281D01*
X-3350700Y-43820010D01*
X-3352937Y-43843906D01*
X-3355259Y-43867970D01*
X-3357665Y-43892203D01*
X-3360156Y-43916604D01*
X-3362732Y-43941173D01*
X-3365391Y-43965910D01*
X-3652255Y-43965910D01*
X-3651361Y-43951510D01*
X-3650423Y-43936704D01*
X-3649438Y-43921491D01*
X-3648408Y-43905872D01*
X-3647331Y-43889846D01*
X-3646210Y-43873414D01*
X-3645042Y-43856576D01*
X-3643828Y-43839331D01*
X-3642569Y-43821680D01*
X-3641264Y-43803622D01*
X-3639913Y-43785158D01*
X-3638516Y-43766287D01*
X-3637073Y-43747010D01*
X-3635585Y-43727327D01*
X-3634051Y-43707237D01*
X-3632471Y-43686740D01*
X-3630918Y-43666154D01*
X-3629466Y-43645793D01*
X-3628113Y-43625659D01*
X-3626861Y-43605751D01*
X-3625709Y-43586069D01*
X-3624657Y-43566613D01*
X-3623705Y-43547383D01*
X-3622854Y-43528379D01*
X-3622102Y-43509602D01*
X-3621451Y-43491050D01*
X-3620900Y-43472725D01*
X-3620450Y-43454626D01*
X-3620099Y-43436752D01*
X-3619848Y-43419105D01*
X-3619698Y-43401685D01*
X-3619648Y-43384490D01*
X-3619718Y-43381138D01*
X-3622173Y-43365496D01*
X-3628133Y-43351714D01*
X-3637600Y-43339793D01*
X-3639834Y-43337664D01*
X-3652077Y-43329077D01*
X-3666109Y-43323925D01*
X-3681930Y-43322208D01*
X-3754470Y-43322208D01*
X-3754470Y-43743160D01*
X-3754822Y-43761480D01*
X-3755878Y-43779345D01*
X-3757639Y-43796754D01*
X-3760103Y-43813708D01*
X-3763271Y-43830208D01*
X-3767144Y-43846252D01*
X-3771721Y-43861841D01*
X-3777002Y-43876975D01*
X-3782986Y-43891654D01*
X-3789675Y-43905878D01*
X-3797069Y-43919646D01*
X-3805166Y-43932960D01*
X-3813967Y-43945818D01*
X-3823473Y-43958222D01*
X-3833682Y-43970170D01*
X-3844596Y-43981664D01*
X-3856088Y-43992533D01*
X-3868032Y-44002701D01*
X-3880428Y-44012168D01*
X-3893276Y-44020933D01*
X-3906577Y-44028997D01*
X-3920330Y-44036361D01*
X-3934535Y-44043022D01*
X-3949193Y-44048983D01*
X-3964302Y-44054242D01*
X-3979864Y-44058800D01*
X-3995878Y-44062657D01*
X-4012345Y-44065813D01*
X-4029263Y-44068267D01*
X-4046634Y-44070020D01*
X-4064457Y-44071072D01*
X-4082733Y-44071423D01*
X-4177987Y-44071423D01*
X-4196263Y-44071072D01*
X-4214086Y-44070020D01*
X-4231456Y-44068267D01*
X-4248375Y-44065813D01*
X-4264841Y-44062657D01*
X-4280855Y-44058800D01*
X-4296417Y-44054242D01*
X-4311527Y-44048983D01*
X-4326184Y-44043022D01*
X-4340390Y-44036361D01*
X-4354143Y-44028997D01*
X-4367443Y-44020933D01*
X-4380292Y-44012168D01*
X-4392688Y-44002701D01*
X-4404632Y-43992533D01*
X-4416124Y-43981664D01*
X-4427038Y-43970170D01*
X-4437247Y-43958222D01*
X-4446753Y-43945818D01*
X-4455554Y-43932960D01*
X-4463651Y-43919646D01*
X-4471044Y-43905878D01*
X-4477733Y-43891654D01*
X-4483718Y-43876975D01*
X-4488999Y-43861841D01*
X-4493576Y-43846252D01*
X-4497448Y-43830208D01*
X-4500617Y-43813708D01*
X-4503081Y-43796754D01*
X-4504841Y-43779345D01*
X-4505898Y-43761480D01*
X-4506250Y-43743160D01*
X-4506250Y-43669155D01*
X-4506219Y-43664543D01*
X-4505489Y-43645452D01*
X-4504303Y-43630458D01*
X-4502739Y-43616398D01*
X-4187146Y-43616398D01*
X-4187078Y-43619750D01*
X-4184673Y-43635392D01*
X-4178834Y-43649174D01*
X-4169561Y-43661095D01*
X-4167327Y-43663224D01*
X-4155084Y-43671811D01*
X-4141052Y-43676963D01*
X-4125231Y-43678680D01*
X-4103982Y-43678680D01*
X-4100674Y-43678612D01*
X-4085211Y-43676207D01*
X-4071537Y-43670368D01*
X-4059652Y-43661095D01*
X-4057478Y-43658859D01*
X-4048712Y-43646566D01*
X-4043453Y-43632412D01*
X-4041700Y-43616398D01*
X-4041700Y-43322208D01*
X-4147945Y-43322208D01*
X-4150357Y-43330407D01*
X-4154951Y-43346679D01*
X-4159239Y-43362782D01*
X-4163220Y-43378716D01*
X-4166895Y-43394481D01*
X-4170264Y-43410077D01*
X-4173326Y-43425504D01*
X-4176083Y-43440763D01*
X-4178533Y-43455852D01*
X-4180677Y-43470773D01*
X-4182514Y-43485525D01*
X-4184045Y-43500108D01*
X-4185768Y-43521666D01*
X-4186802Y-43542844D01*
X-4187146Y-43563642D01*
X-4187146Y-43616398D01*
X-4502739Y-43616398D01*
X-4502570Y-43614883D01*
X-4500289Y-43598730D01*
X-4497461Y-43581997D01*
X-4494085Y-43564684D01*
X-4490162Y-43546791D01*
X-4485692Y-43528319D01*
X-4480674Y-43509268D01*
X-4475109Y-43489636D01*
X-4471116Y-43476436D01*
X-4464751Y-43456935D01*
X-4457935Y-43437796D01*
X-4450669Y-43419017D01*
X-4442952Y-43400598D01*
X-4434784Y-43382541D01*
X-4426165Y-43364843D01*
X-4417095Y-43347507D01*
X-4407575Y-43330531D01*
X-4397603Y-43313916D01*
X-4387181Y-43297661D01*
X-4485000Y-43277878D01*
X-4485000Y-42929465D01*
X-3650423Y-42929465D01*
X-3632104Y-42929817D01*
G37*
G36*
X-3672405Y-42114671D02*
G01*
X-3672636Y-42130982D01*
X-3673332Y-42147306D01*
X-3674491Y-42163645D01*
X-3676114Y-42179999D01*
X-3678201Y-42196366D01*
X-3680751Y-42212748D01*
X-3683765Y-42229144D01*
X-3687242Y-42245555D01*
X-3691184Y-42261980D01*
X-3695589Y-42278419D01*
X-3700457Y-42294872D01*
X-3705789Y-42311340D01*
X-3711585Y-42327822D01*
X-3717845Y-42344319D01*
X-3724569Y-42360829D01*
X-3731756Y-42377354D01*
X-4485000Y-42377354D01*
X-4485000Y-42770097D01*
X-3343043Y-42770097D01*
X-3343043Y-42420952D01*
X-3469439Y-42401901D01*
X-3451604Y-42380657D01*
X-3434920Y-42359151D01*
X-3419387Y-42337381D01*
X-3405004Y-42315347D01*
X-3391772Y-42293051D01*
X-3379691Y-42270490D01*
X-3368760Y-42247667D01*
X-3358980Y-42224580D01*
X-3350350Y-42201230D01*
X-3342871Y-42177617D01*
X-3336543Y-42153740D01*
X-3331365Y-42129601D01*
X-3327338Y-42105197D01*
X-3324462Y-42080531D01*
X-3322736Y-42055601D01*
X-3322160Y-42030407D01*
X-3322160Y-41923795D01*
X-3672405Y-41923795D01*
X-3672405Y-42114671D01*
G37*
G36*
X-2984372Y-41097644D02*
G01*
X-3343043Y-41097644D01*
X-3343043Y-41518597D01*
X-3343408Y-41538704D01*
X-3344503Y-41558267D01*
X-3346327Y-41577286D01*
X-3348882Y-41595762D01*
X-3352166Y-41613694D01*
X-3356181Y-41631082D01*
X-3360925Y-41647926D01*
X-3366399Y-41664226D01*
X-3372603Y-41679983D01*
X-3379536Y-41695196D01*
X-3387200Y-41709864D01*
X-3395593Y-41723989D01*
X-3404717Y-41737571D01*
X-3414570Y-41750608D01*
X-3425153Y-41763102D01*
X-3436466Y-41775052D01*
X-3448371Y-41786320D01*
X-3460823Y-41796862D01*
X-3473822Y-41806676D01*
X-3487368Y-41815764D01*
X-3501460Y-41824124D01*
X-3516099Y-41831758D01*
X-3531284Y-41838664D01*
X-3547016Y-41844844D01*
X-3563295Y-41850296D01*
X-3580121Y-41855022D01*
X-3597493Y-41859020D01*
X-3615412Y-41862292D01*
X-3633878Y-41864837D01*
X-3652890Y-41866654D01*
X-3672449Y-41867745D01*
X-3692555Y-41868108D01*
X-4177987Y-41868108D01*
X-4196263Y-41867756D01*
X-4214086Y-41866700D01*
X-4231456Y-41864940D01*
X-4248375Y-41862475D01*
X-4264841Y-41859307D01*
X-4280855Y-41855434D01*
X-4296417Y-41850857D01*
X-4311527Y-41845577D01*
X-4326184Y-41839592D01*
X-4340390Y-41832903D01*
X-4354143Y-41825510D01*
X-4367443Y-41817412D01*
X-4380292Y-41808611D01*
X-4392688Y-41799106D01*
X-4404632Y-41788896D01*
X-4416124Y-41777982D01*
X-4427038Y-41766491D01*
X-4437247Y-41754547D01*
X-4446753Y-41742150D01*
X-4455554Y-41729302D01*
X-4463651Y-41716001D01*
X-4471044Y-41702248D01*
X-4477733Y-41688043D01*
X-4483718Y-41673385D01*
X-4488999Y-41658276D01*
X-4493576Y-41642714D01*
X-4497448Y-41626700D01*
X-4500617Y-41610233D01*
X-4503081Y-41593315D01*
X-4504841Y-41575944D01*
X-4505898Y-41558121D01*
X-4506250Y-41539846D01*
X-4506250Y-41444591D01*
X-4506219Y-41439979D01*
X-4505489Y-41420888D01*
X-4504872Y-41413084D01*
X-4176522Y-41413084D01*
X-4176453Y-41416392D01*
X-4174049Y-41431906D01*
X-4168210Y-41445701D01*
X-4158936Y-41457780D01*
X-4156702Y-41459910D01*
X-4144459Y-41468496D01*
X-4130427Y-41473648D01*
X-4114606Y-41475366D01*
X-3724062Y-41475366D01*
X-3719599Y-41475294D01*
X-3703164Y-41473586D01*
X-3688996Y-41469599D01*
X-3674474Y-41461411D01*
X-3663494Y-41449663D01*
X-3656056Y-41434356D01*
X-3652655Y-41419546D01*
X-3651522Y-41402459D01*
X-3651522Y-41097644D01*
X-4137321Y-41097644D01*
X-4139733Y-41105843D01*
X-4144326Y-41122115D01*
X-4148614Y-41138218D01*
X-4152595Y-41154152D01*
X-4156270Y-41169917D01*
X-4159639Y-41185513D01*
X-4162702Y-41200940D01*
X-4165458Y-41216199D01*
X-4167908Y-41231289D01*
X-4170052Y-41246209D01*
X-4171890Y-41260961D01*
X-4173421Y-41275544D01*
X-4175144Y-41297102D01*
X-4176177Y-41318280D01*
X-4176522Y-41339078D01*
X-4176522Y-41413084D01*
X-4504872Y-41413084D01*
X-4504303Y-41405894D01*
X-4502570Y-41390320D01*
X-4500289Y-41374166D01*
X-4497461Y-41357433D01*
X-4494085Y-41340120D01*
X-4490162Y-41322227D01*
X-4485692Y-41303755D01*
X-4480674Y-41284704D01*
X-4475109Y-41265072D01*
X-4471116Y-41251872D01*
X-4464751Y-41232372D01*
X-4457935Y-41213232D01*
X-4450669Y-41194453D01*
X-4442952Y-41176034D01*
X-4434784Y-41157977D01*
X-4426165Y-41140280D01*
X-4417095Y-41122943D01*
X-4407575Y-41105967D01*
X-4397603Y-41089352D01*
X-4387181Y-41073098D01*
X-4485000Y-41053314D01*
X-4485000Y-40704901D01*
X-2984372Y-40704901D01*
X-2984372Y-41097644D01*
G37*
G36*
X55488450Y-93913535D02*
G01*
X54548115Y-93913535D01*
X54548115Y-96452439D01*
X54549060Y-96517258D01*
X54551895Y-96579852D01*
X54556620Y-96640223D01*
X54563235Y-96698369D01*
X54571741Y-96754292D01*
X54582136Y-96807990D01*
X54594421Y-96859465D01*
X54608596Y-96908716D01*
X54624661Y-96955742D01*
X54642616Y-97000545D01*
X54662462Y-97043124D01*
X54684197Y-97083479D01*
X54707822Y-97121610D01*
X54733337Y-97157517D01*
X54760743Y-97191200D01*
X54790038Y-97222659D01*
X54821397Y-97251955D01*
X54854993Y-97279360D01*
X54890827Y-97304875D01*
X54928898Y-97328500D01*
X54969206Y-97350236D01*
X55011751Y-97370081D01*
X55056534Y-97388036D01*
X55103554Y-97404101D01*
X55152811Y-97418276D01*
X55204306Y-97430561D01*
X55258038Y-97440957D01*
X55314007Y-97449462D01*
X55372214Y-97456077D01*
X55432658Y-97460802D01*
X55495339Y-97463637D01*
X55560258Y-97464582D01*
X56692079Y-97464582D01*
X56756998Y-97463637D01*
X56819679Y-97460802D01*
X56880123Y-97456077D01*
X56938329Y-97449462D01*
X56994299Y-97440957D01*
X57048031Y-97430561D01*
X57099525Y-97418276D01*
X57148783Y-97404101D01*
X57195803Y-97388036D01*
X57240586Y-97370081D01*
X57283131Y-97350236D01*
X57323439Y-97328500D01*
X57361510Y-97304875D01*
X57397344Y-97279360D01*
X57430940Y-97251955D01*
X57462299Y-97222659D01*
X57491594Y-97191200D01*
X57518999Y-97157517D01*
X57544515Y-97121610D01*
X57568140Y-97083479D01*
X57589875Y-97043124D01*
X57609720Y-97000545D01*
X57627676Y-96955742D01*
X57643741Y-96908716D01*
X57657916Y-96859465D01*
X57670201Y-96807990D01*
X57680596Y-96754292D01*
X57689101Y-96698369D01*
X57695716Y-96640223D01*
X57700441Y-96579852D01*
X57703276Y-96517258D01*
X57704221Y-96452439D01*
X57704221Y-93913535D01*
X56763886Y-93913535D01*
X56763886Y-96452439D01*
X56761527Y-96500257D01*
X56754450Y-96543371D01*
X56742654Y-96581781D01*
X56726139Y-96615489D01*
X56704907Y-96644493D01*
X56678956Y-96668793D01*
X56648286Y-96688391D01*
X56612899Y-96703284D01*
X56572792Y-96713475D01*
X56527968Y-96718962D01*
X56495464Y-96720007D01*
X55756873Y-96720007D01*
X55708903Y-96717656D01*
X55665651Y-96710601D01*
X55627118Y-96698842D01*
X55593303Y-96682381D01*
X55564206Y-96661216D01*
X55539828Y-96635347D01*
X55520168Y-96604776D01*
X55505227Y-96569500D01*
X55495004Y-96529522D01*
X55489499Y-96484840D01*
X55488450Y-96452439D01*
X55488450Y-93913535D01*
G37*
G36*
X52943562Y-94848741D02*
G01*
X52943562Y-97415001D01*
X53859961Y-97415001D01*
X53859961Y-95568525D01*
X54229256Y-95568525D01*
X54229256Y-94848741D01*
X52943562Y-94848741D01*
G37*
G36*
X53859961Y-93863954D02*
G01*
X52943562Y-93863954D01*
X52943562Y-94608528D01*
X53859961Y-94608528D01*
X53859961Y-93863954D01*
G37*
G36*
X51035537Y-95470217D02*
G01*
X51084065Y-95471021D01*
X51133481Y-95473433D01*
X51183782Y-95477452D01*
X51217809Y-95481025D01*
X51252230Y-95485313D01*
X51287046Y-95490315D01*
X51322255Y-95496032D01*
X51357858Y-95502463D01*
X51393855Y-95509609D01*
X51430246Y-95517470D01*
X51467032Y-95526045D01*
X51504211Y-95535335D01*
X51541784Y-95545339D01*
X51579752Y-95556058D01*
X51598883Y-95561686D01*
X51598883Y-97415001D01*
X52515282Y-97415001D01*
X52515282Y-94750433D01*
X51702320Y-94750433D01*
X51657013Y-94978678D01*
X51618940Y-94954513D01*
X51580056Y-94931384D01*
X51540361Y-94909292D01*
X51499854Y-94888238D01*
X51458536Y-94868220D01*
X51416406Y-94849238D01*
X51373465Y-94831294D01*
X51329712Y-94814387D01*
X51285148Y-94798516D01*
X51239773Y-94783682D01*
X51209071Y-94774369D01*
X51163258Y-94761383D01*
X51118781Y-94749675D01*
X51075642Y-94739244D01*
X51033840Y-94730090D01*
X50993376Y-94722214D01*
X50954249Y-94715615D01*
X50916460Y-94710293D01*
X50880008Y-94706248D01*
X50844893Y-94703481D01*
X50800153Y-94701778D01*
X50789340Y-94701707D01*
X50567934Y-94701707D01*
X50525191Y-94702528D01*
X50483517Y-94704993D01*
X50442912Y-94709100D01*
X50403375Y-94714850D01*
X50364907Y-94722243D01*
X50327507Y-94731279D01*
X50291176Y-94741958D01*
X50255914Y-94754280D01*
X50221720Y-94768245D01*
X50188594Y-94783852D01*
X50156537Y-94801103D01*
X50125549Y-94819997D01*
X50095629Y-94840533D01*
X50066778Y-94862712D01*
X50038995Y-94886535D01*
X50012281Y-94912000D01*
X49986816Y-94938714D01*
X49962994Y-94966496D01*
X49940815Y-94995348D01*
X49920278Y-95025267D01*
X49901385Y-95056256D01*
X49884134Y-95088313D01*
X49868526Y-95121438D01*
X49854562Y-95155632D01*
X49842240Y-95190895D01*
X49831561Y-95227226D01*
X49822525Y-95264625D01*
X49815132Y-95303094D01*
X49809381Y-95342630D01*
X49805274Y-95383236D01*
X49802810Y-95424910D01*
X49801988Y-95467652D01*
X49801988Y-97415001D01*
X50718387Y-97415001D01*
X50718387Y-95614686D01*
X50722395Y-95577771D01*
X50734416Y-95545030D01*
X50754451Y-95516462D01*
X50759420Y-95511250D01*
X50787153Y-95489611D01*
X50819059Y-95475987D01*
X50855140Y-95470377D01*
X50862857Y-95470217D01*
X51035537Y-95470217D01*
G37*
G36*
X47702477Y-97415001D02*
G01*
X49529291Y-97415001D01*
X49529291Y-96671281D01*
X49086479Y-96671281D01*
X49086479Y-94657255D01*
X49529291Y-94657255D01*
X49529291Y-93913535D01*
X47702477Y-93913535D01*
X47702477Y-94657255D01*
X48145289Y-94657255D01*
X48145289Y-96671281D01*
X47702477Y-96671281D01*
X47702477Y-97415001D01*
G37*
G36*
X46478181Y-93864902D02*
G01*
X46540776Y-93867747D01*
X46601146Y-93872489D01*
X46659293Y-93879127D01*
X46715215Y-93887662D01*
X46768914Y-93898094D01*
X46820389Y-93910423D01*
X46869639Y-93924648D01*
X46916666Y-93940770D01*
X46961469Y-93958789D01*
X47004048Y-93978704D01*
X47044403Y-94000516D01*
X47082534Y-94024225D01*
X47118441Y-94049830D01*
X47152124Y-94077332D01*
X47183583Y-94106731D01*
X47212878Y-94138087D01*
X47240283Y-94171673D01*
X47265799Y-94207490D01*
X47289424Y-94245537D01*
X47311159Y-94285816D01*
X47331004Y-94328324D01*
X47348960Y-94373064D01*
X47365025Y-94420034D01*
X47379200Y-94469234D01*
X47391485Y-94520666D01*
X47401880Y-94574327D01*
X47410385Y-94630220D01*
X47417000Y-94688343D01*
X47421725Y-94748697D01*
X47424560Y-94811281D01*
X47425505Y-94876096D01*
X47425505Y-96452439D01*
X47424560Y-96517258D01*
X47421725Y-96579852D01*
X47417000Y-96640223D01*
X47410385Y-96698369D01*
X47401880Y-96754292D01*
X47391485Y-96807990D01*
X47379200Y-96859465D01*
X47365025Y-96908716D01*
X47348960Y-96955742D01*
X47331004Y-97000545D01*
X47311159Y-97043124D01*
X47289424Y-97083479D01*
X47265799Y-97121610D01*
X47240283Y-97157517D01*
X47212878Y-97191200D01*
X47183583Y-97222659D01*
X47152124Y-97251955D01*
X47118441Y-97279360D01*
X47082534Y-97304875D01*
X47044403Y-97328500D01*
X47004048Y-97350236D01*
X46961469Y-97370081D01*
X46916666Y-97388036D01*
X46869639Y-97404101D01*
X46820389Y-97418276D01*
X46768914Y-97430561D01*
X46715215Y-97440957D01*
X46659293Y-97449462D01*
X46601146Y-97456077D01*
X46540776Y-97460802D01*
X46478181Y-97463637D01*
X46413363Y-97464582D01*
X45182379Y-97464582D01*
X45117461Y-97463637D01*
X45054779Y-97460802D01*
X44994336Y-97456077D01*
X44936129Y-97449462D01*
X44880160Y-97440957D01*
X44826428Y-97430561D01*
X44774933Y-97418276D01*
X44725676Y-97404101D01*
X44678655Y-97388036D01*
X44633873Y-97370081D01*
X44591327Y-97350236D01*
X44551019Y-97328500D01*
X44512948Y-97304875D01*
X44477115Y-97279360D01*
X44443518Y-97251955D01*
X44412159Y-97222659D01*
X44382864Y-97191200D01*
X44355459Y-97157517D01*
X44329943Y-97121610D01*
X44306318Y-97083479D01*
X44284583Y-97043124D01*
X44264738Y-97000545D01*
X44246783Y-96955742D01*
X44230717Y-96908716D01*
X44216542Y-96859465D01*
X44204257Y-96807990D01*
X44193862Y-96754292D01*
X44185357Y-96698369D01*
X44178742Y-96640223D01*
X44174017Y-96579852D01*
X44171182Y-96517258D01*
X44170237Y-96452439D01*
X45110572Y-96452439D01*
X45111620Y-96484840D01*
X45117125Y-96529522D01*
X45127348Y-96569500D01*
X45142290Y-96604776D01*
X45161950Y-96635347D01*
X45186328Y-96661216D01*
X45215424Y-96682381D01*
X45249239Y-96698842D01*
X45287773Y-96710601D01*
X45331025Y-96717656D01*
X45378995Y-96720007D01*
X46215893Y-96720007D01*
X46248397Y-96718962D01*
X46293222Y-96713475D01*
X46333328Y-96703284D01*
X46368716Y-96688391D01*
X46399385Y-96668793D01*
X46425336Y-96644493D01*
X46446569Y-96615489D01*
X46463083Y-96581781D01*
X46474879Y-96543371D01*
X46481956Y-96500257D01*
X46484316Y-96452439D01*
X46484316Y-94876096D01*
X46483267Y-94843695D01*
X46477762Y-94799014D01*
X46467539Y-94759035D01*
X46452598Y-94723760D01*
X46432938Y-94693188D01*
X46408560Y-94667320D01*
X46379463Y-94646155D01*
X46345648Y-94629693D01*
X46307115Y-94617935D01*
X46263863Y-94610880D01*
X46215893Y-94608528D01*
X45378995Y-94608528D01*
X45346490Y-94609573D01*
X45301666Y-94615060D01*
X45261560Y-94625251D01*
X45226172Y-94640145D01*
X45195502Y-94659742D01*
X45169551Y-94684043D01*
X45148319Y-94713047D01*
X45131804Y-94746754D01*
X45120008Y-94785165D01*
X45112931Y-94828279D01*
X45110572Y-94876096D01*
X45110572Y-96452439D01*
X44170237Y-96452439D01*
X44170237Y-94876096D01*
X44171182Y-94811281D01*
X44174017Y-94748697D01*
X44178742Y-94688343D01*
X44185357Y-94630220D01*
X44193862Y-94574327D01*
X44204257Y-94520666D01*
X44216542Y-94469234D01*
X44230717Y-94420034D01*
X44246783Y-94373064D01*
X44264738Y-94328324D01*
X44284583Y-94285816D01*
X44306318Y-94245537D01*
X44329943Y-94207490D01*
X44355459Y-94171673D01*
X44382864Y-94138087D01*
X44412159Y-94106731D01*
X44443518Y-94077332D01*
X44477115Y-94049830D01*
X44512948Y-94024225D01*
X44551019Y-94000516D01*
X44591327Y-93978704D01*
X44633873Y-93958789D01*
X44678655Y-93940770D01*
X44725676Y-93924648D01*
X44774933Y-93910423D01*
X44826428Y-93898094D01*
X44880160Y-93887662D01*
X44936129Y-93879127D01*
X44994336Y-93872489D01*
X45054779Y-93867747D01*
X45117461Y-93864902D01*
X45182379Y-93863954D01*
X46413363Y-93863954D01*
X46478181Y-93864902D01*
G37*
G36*
X43897540Y-96621700D02*
G01*
X42956350Y-96621700D01*
X42956350Y-97415001D01*
X43897540Y-97415001D01*
X43897540Y-96621700D01*
G37*
G36*
X40254169Y-97362855D02*
G01*
X40313079Y-97369113D01*
X40371521Y-97375173D01*
X40429493Y-97381034D01*
X40486995Y-97386697D01*
X40544029Y-97392161D01*
X40600594Y-97397426D01*
X40656689Y-97402492D01*
X40712315Y-97407360D01*
X40767472Y-97412029D01*
X40822160Y-97416500D01*
X40876379Y-97420772D01*
X40930128Y-97424845D01*
X40983409Y-97428719D01*
X41036220Y-97432395D01*
X41088562Y-97435872D01*
X41140435Y-97439150D01*
X41191838Y-97442230D01*
X41242773Y-97445111D01*
X41293238Y-97447793D01*
X41343235Y-97450276D01*
X41392762Y-97452561D01*
X41441819Y-97454648D01*
X41490408Y-97456535D01*
X41538528Y-97458224D01*
X41586178Y-97459714D01*
X41633359Y-97461005D01*
X41680071Y-97462098D01*
X41726314Y-97462992D01*
X41772088Y-97463688D01*
X41817392Y-97464184D01*
X41862228Y-97464482D01*
X41906594Y-97464582D01*
X41949236Y-97463760D01*
X41990823Y-97461296D01*
X42031355Y-97457189D01*
X42070832Y-97451438D01*
X42109254Y-97444045D01*
X42146620Y-97435009D01*
X42182931Y-97424330D01*
X42218187Y-97412009D01*
X42252388Y-97398044D01*
X42285533Y-97382436D01*
X42317623Y-97365185D01*
X42348658Y-97346292D01*
X42378638Y-97325755D01*
X42407563Y-97303576D01*
X42435432Y-97279754D01*
X42462247Y-97254289D01*
X42487712Y-97227474D01*
X42511534Y-97199605D01*
X42533713Y-97170680D01*
X42554250Y-97140701D01*
X42573143Y-97109665D01*
X42590394Y-97077575D01*
X42606002Y-97044430D01*
X42619966Y-97010229D01*
X42632288Y-96974973D01*
X42642967Y-96938662D01*
X42652003Y-96901296D01*
X42659396Y-96862874D01*
X42665147Y-96823398D01*
X42669254Y-96782866D01*
X42671718Y-96741279D01*
X42672540Y-96698636D01*
X42672540Y-95565960D01*
X42671691Y-95519047D01*
X42669147Y-95473409D01*
X42664906Y-95429047D01*
X42658969Y-95385961D01*
X42651335Y-95344150D01*
X42642005Y-95303615D01*
X42630979Y-95264355D01*
X42618257Y-95226371D01*
X42603838Y-95189662D01*
X42587722Y-95154230D01*
X42569911Y-95120072D01*
X42550403Y-95087191D01*
X42529199Y-95055585D01*
X42506298Y-95025254D01*
X42481701Y-94996199D01*
X42455408Y-94968420D01*
X42427525Y-94942023D01*
X42398373Y-94917329D01*
X42367953Y-94894338D01*
X42336263Y-94873051D01*
X42303305Y-94853466D01*
X42269077Y-94835584D01*
X42233581Y-94819406D01*
X42196816Y-94804930D01*
X42158781Y-94792157D01*
X42119478Y-94781088D01*
X42078906Y-94771721D01*
X42037066Y-94764057D01*
X41993956Y-94758097D01*
X41949577Y-94753839D01*
X41903929Y-94751285D01*
X41857013Y-94750433D01*
X40254169Y-94750433D01*
X40254169Y-95470217D01*
X41586025Y-95470217D01*
X41625896Y-95472862D01*
X41660451Y-95480796D01*
X41696168Y-95498151D01*
X41723579Y-95523772D01*
X41742684Y-95557657D01*
X41751987Y-95590716D01*
X41755974Y-95629064D01*
X41756140Y-95639477D01*
X41756140Y-96599474D01*
X41752133Y-96636840D01*
X41740112Y-96669865D01*
X41720076Y-96698549D01*
X41715108Y-96703765D01*
X41686924Y-96725404D01*
X41654734Y-96739028D01*
X41618536Y-96744638D01*
X41610816Y-96744798D01*
X41553725Y-96744501D01*
X41492940Y-96743609D01*
X41428462Y-96742123D01*
X41360292Y-96740043D01*
X41324821Y-96738780D01*
X41288427Y-96737368D01*
X41251110Y-96735808D01*
X41212870Y-96734099D01*
X41173706Y-96732242D01*
X41133619Y-96730236D01*
X41092609Y-96728081D01*
X41050676Y-96725778D01*
X41007819Y-96723326D01*
X40964038Y-96720725D01*
X40919335Y-96717976D01*
X40873708Y-96715079D01*
X40827158Y-96712032D01*
X40779685Y-96708838D01*
X40731288Y-96705494D01*
X40681968Y-96702002D01*
X40631725Y-96698362D01*
X40580558Y-96694572D01*
X40528468Y-96690635D01*
X40475455Y-96686548D01*
X40421518Y-96682313D01*
X40366659Y-96677929D01*
X40310876Y-96673397D01*
X40254169Y-96668716D01*
X40254169Y-97362855D01*
G37*
G36*
X39209442Y-94702555D02*
G01*
X39255090Y-94705099D01*
X39299469Y-94709340D01*
X39342578Y-94715277D01*
X39384419Y-94722911D01*
X39424991Y-94732241D01*
X39464294Y-94743267D01*
X39502329Y-94755990D01*
X39539094Y-94770409D01*
X39574590Y-94786524D01*
X39608817Y-94804335D01*
X39641776Y-94823843D01*
X39673465Y-94845048D01*
X39703886Y-94867948D01*
X39733038Y-94892545D01*
X39760921Y-94918839D01*
X39787214Y-94946618D01*
X39811811Y-94975673D01*
X39834712Y-95006003D01*
X39855916Y-95037609D01*
X39875424Y-95070491D01*
X39893235Y-95104648D01*
X39909351Y-95140081D01*
X39923770Y-95176790D01*
X39936492Y-95214774D01*
X39947518Y-95254033D01*
X39956848Y-95294569D01*
X39964482Y-95336379D01*
X39970419Y-95379466D01*
X39974660Y-95423828D01*
X39977204Y-95469465D01*
X39978053Y-95516379D01*
X39978053Y-96649055D01*
X39977204Y-96695972D01*
X39974660Y-96741619D01*
X39970419Y-96785998D01*
X39964482Y-96829108D01*
X39956848Y-96870949D01*
X39947518Y-96911521D01*
X39936492Y-96950824D01*
X39923770Y-96988858D01*
X39909351Y-97025623D01*
X39893235Y-97061119D01*
X39875424Y-97095347D01*
X39855916Y-97128305D01*
X39834712Y-97159995D01*
X39811811Y-97190415D01*
X39787214Y-97219567D01*
X39760921Y-97247450D01*
X39733038Y-97273743D01*
X39703886Y-97298340D01*
X39673465Y-97321241D01*
X39641776Y-97342445D01*
X39608817Y-97361953D01*
X39574590Y-97379765D01*
X39539094Y-97395880D01*
X39502329Y-97410299D01*
X39464294Y-97423021D01*
X39424991Y-97434048D01*
X39384419Y-97443378D01*
X39342578Y-97451011D01*
X39299469Y-97456948D01*
X39255090Y-97461189D01*
X39209442Y-97463734D01*
X39162526Y-97464582D01*
X38029849Y-97464582D01*
X37982936Y-97463734D01*
X37937299Y-97461189D01*
X37892937Y-97456948D01*
X37849850Y-97451011D01*
X37808039Y-97443378D01*
X37767504Y-97434048D01*
X37728244Y-97423021D01*
X37690260Y-97410299D01*
X37653552Y-97395880D01*
X37618119Y-97379765D01*
X37583962Y-97361953D01*
X37551080Y-97342445D01*
X37519474Y-97321241D01*
X37489144Y-97298340D01*
X37460089Y-97273743D01*
X37432309Y-97247450D01*
X37406016Y-97219567D01*
X37381419Y-97190415D01*
X37358518Y-97159995D01*
X37337314Y-97128305D01*
X37317806Y-97095347D01*
X37299995Y-97061119D01*
X37283879Y-97025623D01*
X37269460Y-96988858D01*
X37256738Y-96950824D01*
X37245712Y-96911521D01*
X37236382Y-96870949D01*
X37228748Y-96829108D01*
X37222811Y-96785998D01*
X37218570Y-96741619D01*
X37216026Y-96695972D01*
X37215177Y-96649055D01*
X37215177Y-96575538D01*
X38131577Y-96575538D01*
X38131742Y-96585951D01*
X38135709Y-96624299D01*
X38144965Y-96657358D01*
X38163974Y-96691243D01*
X38191247Y-96716864D01*
X38226786Y-96734219D01*
X38261167Y-96742153D01*
X38300837Y-96744798D01*
X38891538Y-96744798D01*
X38902004Y-96744633D01*
X38940546Y-96740666D01*
X38973772Y-96731409D01*
X39007828Y-96712401D01*
X39033578Y-96685127D01*
X39051021Y-96649589D01*
X39058995Y-96615208D01*
X39061653Y-96575538D01*
X39061653Y-95590751D01*
X39061487Y-95580285D01*
X39057500Y-95541743D01*
X39048197Y-95508517D01*
X39029092Y-95474461D01*
X39001681Y-95448711D01*
X38965964Y-95431268D01*
X38931409Y-95423294D01*
X38891538Y-95420636D01*
X38300837Y-95420636D01*
X38290423Y-95420802D01*
X38252075Y-95424789D01*
X38219017Y-95434092D01*
X38185132Y-95453197D01*
X38159511Y-95480608D01*
X38142155Y-95516325D01*
X38134221Y-95550880D01*
X38131577Y-95590751D01*
X38131577Y-96575538D01*
X37215177Y-96575538D01*
X37215177Y-95516379D01*
X37216026Y-95469465D01*
X37218570Y-95423828D01*
X37222811Y-95379466D01*
X37228748Y-95336379D01*
X37236382Y-95294569D01*
X37245712Y-95254033D01*
X37256738Y-95214774D01*
X37269460Y-95176790D01*
X37283879Y-95140081D01*
X37299995Y-95104648D01*
X37317806Y-95070491D01*
X37337314Y-95037609D01*
X37358518Y-95006003D01*
X37381419Y-94975673D01*
X37406016Y-94946618D01*
X37432309Y-94918839D01*
X37460089Y-94892545D01*
X37489144Y-94867948D01*
X37519474Y-94845048D01*
X37551080Y-94823843D01*
X37583962Y-94804335D01*
X37618119Y-94786524D01*
X37653552Y-94770409D01*
X37690260Y-94755990D01*
X37728244Y-94743267D01*
X37767504Y-94732241D01*
X37808039Y-94722911D01*
X37849850Y-94715277D01*
X37892937Y-94709340D01*
X37937299Y-94705099D01*
X37982936Y-94702555D01*
X38029849Y-94701707D01*
X39162526Y-94701707D01*
X39209442Y-94702555D01*
G37*
G36*
X35068649Y-94701707D02*
G01*
X35017933Y-94702819D01*
X34968792Y-94706155D01*
X34921228Y-94711714D01*
X34875239Y-94719498D01*
X34830827Y-94729506D01*
X34787991Y-94741738D01*
X34746731Y-94756193D01*
X34707048Y-94772873D01*
X34668940Y-94791777D01*
X34632409Y-94812904D01*
X34597453Y-94836255D01*
X34564074Y-94861831D01*
X34532271Y-94889630D01*
X34502044Y-94919653D01*
X34473393Y-94951901D01*
X34446318Y-94986372D01*
X34406698Y-94960686D01*
X34366056Y-94936203D01*
X34324392Y-94912921D01*
X34281706Y-94890842D01*
X34237999Y-94869965D01*
X34193269Y-94850290D01*
X34147518Y-94831818D01*
X34100745Y-94814547D01*
X34052951Y-94798478D01*
X34004134Y-94783612D01*
X33971022Y-94774369D01*
X33937800Y-94765570D01*
X33888805Y-94753436D01*
X33840817Y-94742579D01*
X33793837Y-94733000D01*
X33747863Y-94724697D01*
X33702895Y-94717673D01*
X33658935Y-94711925D01*
X33615981Y-94707454D01*
X33574034Y-94704261D01*
X33533094Y-94702345D01*
X33493161Y-94701707D01*
X33443579Y-94701707D01*
X33400937Y-94702528D01*
X33359350Y-94704993D01*
X33318818Y-94709100D01*
X33279341Y-94714850D01*
X33240920Y-94722243D01*
X33203554Y-94731279D01*
X33167242Y-94741958D01*
X33131987Y-94754280D01*
X33097786Y-94768245D01*
X33064640Y-94783852D01*
X33032550Y-94801103D01*
X33001515Y-94819997D01*
X32971535Y-94840533D01*
X32942611Y-94862712D01*
X32914741Y-94886535D01*
X32887927Y-94912000D01*
X32862462Y-94938714D01*
X32838639Y-94966496D01*
X32816460Y-94995348D01*
X32795924Y-95025267D01*
X32777030Y-95056256D01*
X32759780Y-95088313D01*
X32744172Y-95121438D01*
X32730207Y-95155632D01*
X32717885Y-95190895D01*
X32707206Y-95227226D01*
X32698170Y-95264625D01*
X32690777Y-95303094D01*
X32685027Y-95342630D01*
X32680920Y-95383236D01*
X32678455Y-95424910D01*
X32677634Y-95467652D01*
X32677634Y-97415001D01*
X33594033Y-97415001D01*
X33594033Y-95614686D01*
X33598124Y-95577771D01*
X33610395Y-95545030D01*
X33630848Y-95516462D01*
X33635921Y-95511250D01*
X33663653Y-95489611D01*
X33695560Y-95475987D01*
X33731640Y-95470377D01*
X33739357Y-95470217D01*
X33764148Y-95470217D01*
X33805922Y-95471021D01*
X33849500Y-95473433D01*
X33894880Y-95477452D01*
X33942064Y-95483080D01*
X33991051Y-95490315D01*
X34041841Y-95499158D01*
X34076703Y-95505947D01*
X34112366Y-95513450D01*
X34148831Y-95521668D01*
X34186097Y-95530601D01*
X34224164Y-95540248D01*
X34263033Y-95550609D01*
X34302704Y-95561686D01*
X34302704Y-97415001D01*
X35219103Y-97415001D01*
X35219103Y-95614686D01*
X35223110Y-95577771D01*
X35235131Y-95545030D01*
X35255167Y-95516462D01*
X35260136Y-95511250D01*
X35287952Y-95489611D01*
X35320109Y-95475987D01*
X35356607Y-95470377D01*
X35364427Y-95470217D01*
X35389218Y-95470217D01*
X35430992Y-95471021D01*
X35474569Y-95473433D01*
X35519950Y-95477452D01*
X35567134Y-95483080D01*
X35616120Y-95490315D01*
X35666911Y-95499158D01*
X35701772Y-95505947D01*
X35737436Y-95513450D01*
X35773900Y-95521668D01*
X35811167Y-95530601D01*
X35849234Y-95540248D01*
X35888103Y-95550609D01*
X35927773Y-95561686D01*
X35927773Y-97415001D01*
X36844173Y-97415001D01*
X36844173Y-94750433D01*
X36031210Y-94750433D01*
X35985903Y-94978678D01*
X35947831Y-94954513D01*
X35908947Y-94931384D01*
X35869251Y-94909292D01*
X35828744Y-94888238D01*
X35787426Y-94868220D01*
X35745296Y-94849238D01*
X35702355Y-94831294D01*
X35658603Y-94814387D01*
X35614038Y-94798516D01*
X35568663Y-94783682D01*
X35537962Y-94774369D01*
X35492148Y-94761383D01*
X35447672Y-94749675D01*
X35404533Y-94739244D01*
X35362731Y-94730090D01*
X35322267Y-94722214D01*
X35283140Y-94715615D01*
X35245350Y-94710293D01*
X35208898Y-94706248D01*
X35173783Y-94703481D01*
X35129044Y-94701778D01*
X35118230Y-94701707D01*
X35068649Y-94701707D01*
G37*
%LPC*%
D11*
X18335534Y-35945534D03*
X64055534Y-71505534D03*
X71675534Y-91825534D03*
X555534Y-13085534D03*
X18335534Y-18165534D03*
X58975534Y-8005534D03*
X53895534Y-30865534D03*
X5635534Y-56265534D03*
X31035534Y-25785534D03*
X89455534Y-63885534D03*
X38655534Y-15625534D03*
X18335534Y-56265534D03*
X89455534Y-76585534D03*
X-1984466Y-20705534D03*
X86915534Y-35945534D03*
X74215534Y-10545534D03*
X8175534Y-41025534D03*
X74215534Y-30865534D03*
X58975534Y-15625534D03*
X13255534Y-35945534D03*
X64055534Y-35945534D03*
X15795534Y-91825534D03*
X76755534Y-74045534D03*
X5635534Y-91825534D03*
X91995534Y-76585534D03*
X3095534Y-13085534D03*
X56435534Y-5465534D03*
X8175534Y-43565534D03*
X10715534Y-94365534D03*
X79295534Y-91825534D03*
X58975534Y-28325534D03*
X64055534Y-53725534D03*
X36115534Y-2925534D03*
X15795534Y-84205534D03*
X84375534Y-25785534D03*
X36115534Y-10545534D03*
X10715534Y-58805534D03*
X76755534Y-56265534D03*
X13255534Y-13085534D03*
X53895534Y-51185534D03*
X76755534Y-46105534D03*
X51355534Y-15625534D03*
X74215534Y-48645534D03*
X58975534Y-20705534D03*
X61515534Y-33405534D03*
X33575534Y-10545534D03*
X76755534Y-48645534D03*
X555534Y-23245534D03*
X33575534Y-56265534D03*
X56435534Y-53725534D03*
X10715534Y-48645534D03*
X36115534Y-61345534D03*
X13255534Y-74045534D03*
X38655534Y-91825534D03*
X61515534Y-25785534D03*
X46275534Y-2925534D03*
X28495534Y-8005534D03*
X61515534Y-23245534D03*
X25955534Y-76585534D03*
X89455534Y-48645534D03*
X51355534Y-2925534D03*
X91995534Y-79125534D03*
X76755534Y-71505534D03*
X53895534Y-53725534D03*
X3095534Y-66425534D03*
X86915534Y-51185534D03*
D12*
X89455534Y-94365534D03*
D11*
X79295534Y-71505534D03*
X-1984466Y-33405534D03*
X43735534Y-23245534D03*
X555534Y-68965534D03*
X41195534Y-51185534D03*
X33575534Y-66425534D03*
X71675534Y-25785534D03*
X36115534Y-23245534D03*
X31035534Y-68965534D03*
X25955534Y-20705534D03*
X46275534Y-25785534D03*
X18335534Y-25785534D03*
X-1984466Y-89285534D03*
X41195534Y-41025534D03*
X8175534Y-13085534D03*
X43735534Y-28325534D03*
X91995534Y-66425534D03*
X38655534Y-58805534D03*
X84375534Y-2925534D03*
X74215534Y-46105534D03*
X76755534Y-68965534D03*
X3095534Y-43565534D03*
X8175534Y-5465534D03*
X555534Y-89285534D03*
X3095534Y-68965534D03*
X28495534Y-25785534D03*
X13255534Y-10545534D03*
X46275534Y-71505534D03*
X51355534Y-68965534D03*
X48815534Y-84205534D03*
X66595534Y-5465534D03*
X31035534Y-48645534D03*
X48815534Y-23245534D03*
X33575534Y-71505534D03*
X18335534Y-53725534D03*
X41195534Y-71505534D03*
X46275534Y-66425534D03*
X43735534Y-86745534D03*
X10715534Y-8005534D03*
X25955534Y-68965534D03*
X18335534Y-58805534D03*
X3095534Y-58805534D03*
X28495534Y-71505534D03*
X64055534Y-79125534D03*
X15795534Y-96905534D03*
X71675534Y-61345534D03*
X13255534Y-91825534D03*
X18335534Y-41025534D03*
X51355534Y-76585534D03*
X46275534Y-74045534D03*
X23415534Y-61345534D03*
X25955534Y-71505534D03*
X76755534Y-89285534D03*
X84375534Y-89285534D03*
X31035534Y-53725534D03*
X51355534Y-79125534D03*
X58975534Y-48645534D03*
X53895534Y-10545534D03*
X71675534Y-10545534D03*
X43735534Y-35945534D03*
X84375534Y-8005534D03*
X28495534Y-48645534D03*
X48815534Y-38485534D03*
X89455534Y-20705534D03*
X23415534Y-84205534D03*
X84375534Y-5465534D03*
X53895534Y-61345534D03*
X36115534Y-89285534D03*
X71675534Y-8005534D03*
X28495534Y-91825534D03*
X28495534Y-66425534D03*
X43735534Y-18165534D03*
X25955534Y-33405534D03*
X74215534Y-91825534D03*
X41195534Y-81665534D03*
X64055534Y-28325534D03*
X56435534Y-23245534D03*
X79295534Y-38485534D03*
X15795534Y-18165534D03*
X51355534Y-18165534D03*
X31035534Y-8005534D03*
X86915534Y-41025534D03*
X76755534Y-43565534D03*
X53895534Y-13085534D03*
X58975534Y-61345534D03*
X71675534Y-46105534D03*
X56435534Y-28325534D03*
X53895534Y-2925534D03*
X61515534Y-41025534D03*
X25955534Y-61345534D03*
X79295534Y-8005534D03*
X56435534Y-48645534D03*
X10715534Y-18165534D03*
X5635534Y-68965534D03*
X13255534Y-76585534D03*
X74215534Y-8005534D03*
X10715534Y-84205534D03*
X555534Y-28325534D03*
X38655534Y-18165534D03*
X43735534Y-5465534D03*
X25955534Y-53725534D03*
X41195534Y-13085534D03*
X10715534Y-89285534D03*
X81835534Y-58805534D03*
X71675534Y-94365534D03*
X23415534Y-25785534D03*
X23415534Y-91825534D03*
X5635534Y-15625534D03*
X10715534Y-53725534D03*
X71675534Y-63885534D03*
X41195534Y-28325534D03*
X555534Y-63885534D03*
X89455534Y-18165534D03*
X84375534Y-51185534D03*
X23415534Y-20705534D03*
X38655534Y-66425534D03*
X36115534Y-84205534D03*
X46275534Y-76585534D03*
X555534Y-84205534D03*
X48815534Y-33405534D03*
X71675534Y-79125534D03*
X58975534Y-25785534D03*
X69135534Y-76585534D03*
X43735534Y-53725534D03*
X81835534Y-96905534D03*
X33575534Y-86745534D03*
X555534Y-38485534D03*
X48815534Y-30865534D03*
X91995534Y-71505534D03*
X76755534Y-58805534D03*
X41195534Y-79125534D03*
X43735534Y-76585534D03*
X58975534Y-94365534D03*
X61515534Y-46105534D03*
X58975534Y-79125534D03*
X8175534Y-23245534D03*
X38655534Y-13085534D03*
X33575534Y-76585534D03*
X46275534Y-43565534D03*
X41195534Y-38485534D03*
X33575534Y-58805534D03*
X58975534Y-33405534D03*
X20875534Y-35945534D03*
X48815534Y-71505534D03*
X71675534Y-84205534D03*
X5635534Y-71505534D03*
X43735534Y-38485534D03*
X89455534Y-10545534D03*
X86915534Y-23245534D03*
X-1984466Y-43565534D03*
X8175534Y-79125534D03*
X18335534Y-61345534D03*
X46275534Y-46105534D03*
X38655534Y-81665534D03*
X23415534Y-15625534D03*
X41195534Y-63885534D03*
X33575534Y-43565534D03*
X91995534Y-84205534D03*
X20875534Y-30865534D03*
X79295534Y-35945534D03*
X23415534Y-35945534D03*
X3095534Y-86745534D03*
X66595534Y-94365534D03*
X79295534Y-51185534D03*
X8175534Y-94365534D03*
X20875534Y-23245534D03*
X38655534Y-79125534D03*
X56435534Y-71505534D03*
X25955534Y-28325534D03*
X86915534Y-86745534D03*
X31035534Y-81665534D03*
X91995534Y-86745534D03*
X48815534Y-13085534D03*
X41195534Y-15625534D03*
X46275534Y-35945534D03*
X46275534Y-61345534D03*
X13255534Y-89285534D03*
X15795534Y-35945534D03*
X41195534Y-18165534D03*
X43735534Y-91825534D03*
X89455534Y-86745534D03*
X51355534Y-35945534D03*
X56435534Y-58805534D03*
X15795534Y-94365534D03*
X86915534Y-84205534D03*
X-1984466Y-28325534D03*
X46275534Y-53725534D03*
X43735534Y-8005534D03*
X28495534Y-5465534D03*
X28495534Y-63885534D03*
X69135534Y-58805534D03*
X20875534Y-56265534D03*
X79295534Y-10545534D03*
X41195534Y-20705534D03*
X86915534Y-66425534D03*
X81835534Y-43565534D03*
X86915534Y-33405534D03*
X8175534Y-35945534D03*
X71675534Y-66425534D03*
X8175534Y-68965534D03*
X43735534Y-30865534D03*
X8175534Y-61345534D03*
X555534Y-81665534D03*
X10715534Y-91825534D03*
X25955534Y-35945534D03*
X71675534Y-15625534D03*
X31035534Y-96905534D03*
X25955534Y-96905534D03*
X79295534Y-43565534D03*
X79295534Y-5465534D03*
X74215534Y-35945534D03*
X61515534Y-28325534D03*
X56435534Y-35945534D03*
X69135534Y-79125534D03*
X3095534Y-30865534D03*
X13255534Y-71505534D03*
X33575534Y-41025534D03*
X36115534Y-33405534D03*
X74215534Y-86745534D03*
X18335534Y-91825534D03*
X41195534Y-53725534D03*
X74215534Y-94365534D03*
X43735534Y-20705534D03*
X84375534Y-81665534D03*
X-1984466Y-41025534D03*
X69135534Y-28325534D03*
X56435534Y-79125534D03*
X86915534Y-28325534D03*
X61515534Y-10545534D03*
X84375534Y-91825534D03*
X76755534Y-5465534D03*
X13255534Y-8005534D03*
X64055534Y-18165534D03*
X51355534Y-23245534D03*
X33575534Y-51185534D03*
X61515534Y-96905534D03*
X-1984466Y-10545534D03*
X10715534Y-28325534D03*
X10715534Y-71505534D03*
X8175534Y-46105534D03*
X25955534Y-51185534D03*
X18335534Y-94365534D03*
X10715534Y-63885534D03*
X74215534Y-61345534D03*
X10715534Y-2925534D03*
X61515534Y-81665534D03*
X38655534Y-74045534D03*
X91995534Y-23245534D03*
X89455534Y-53725534D03*
X33575534Y-84205534D03*
X28495534Y-18165534D03*
X38655534Y-8005534D03*
X10715534Y-86745534D03*
X15795534Y-15625534D03*
X74215534Y-2925534D03*
X66595534Y-79125534D03*
X89455534Y-71505534D03*
X91995534Y-35945534D03*
X8175534Y-18165534D03*
X69135534Y-30865534D03*
X25955534Y-81665534D03*
X74215534Y-23245534D03*
X66595534Y-91825534D03*
X66595534Y-86745534D03*
X36115534Y-8005534D03*
X79295534Y-61345534D03*
X48815534Y-10545534D03*
X28495534Y-51185534D03*
X-1984466Y-48645534D03*
X41195534Y-35945534D03*
X43735534Y-43565534D03*
X555534Y-15625534D03*
X61515534Y-13085534D03*
X46275534Y-13085534D03*
X3095534Y-61345534D03*
X10715534Y-20705534D03*
X69135534Y-23245534D03*
X18335534Y-96905534D03*
X31035534Y-30865534D03*
X56435534Y-91825534D03*
X86915534Y-13085534D03*
X10715534Y-51185534D03*
X25955534Y-25785534D03*
X58975534Y-63885534D03*
X76755534Y-84205534D03*
X79295534Y-89285534D03*
X43735534Y-89285534D03*
X43735534Y-66425534D03*
X15795534Y-74045534D03*
X91995534Y-20705534D03*
X76755534Y-79125534D03*
X13255534Y-15625534D03*
X71675534Y-53725534D03*
X31035534Y-79125534D03*
X36115534Y-68965534D03*
X71675534Y-89285534D03*
X31035534Y-38485534D03*
X46275534Y-58805534D03*
X13255534Y-66425534D03*
X25955534Y-48645534D03*
X84375534Y-30865534D03*
X31035534Y-51185534D03*
X79295534Y-23245534D03*
X28495534Y-23245534D03*
X31035534Y-66425534D03*
X20875534Y-41025534D03*
X38655534Y-89285534D03*
X-1984466Y-23245534D03*
X28495534Y-53725534D03*
X61515534Y-61345534D03*
X91995534Y-18165534D03*
X38655534Y-33405534D03*
X25955534Y-8005534D03*
X66595534Y-8005534D03*
X15795534Y-8005534D03*
X38655534Y-23245534D03*
X64055534Y-58805534D03*
X46275534Y-84205534D03*
X74215534Y-51185534D03*
X28495534Y-76585534D03*
X58975534Y-89285534D03*
X64055534Y-81665534D03*
X38655534Y-51185534D03*
X66595534Y-23245534D03*
X89455534Y-35945534D03*
X13255534Y-46105534D03*
X61515534Y-51185534D03*
X36115534Y-15625534D03*
X86915534Y-74045534D03*
X61515534Y-38485534D03*
X91995534Y-13085534D03*
X69135534Y-61345534D03*
X10715534Y-68965534D03*
X86915534Y-10545534D03*
X38655534Y-61345534D03*
X64055534Y-10545534D03*
X43735534Y-84205534D03*
X81835534Y-56265534D03*
X48815534Y-76585534D03*
X53895534Y-23245534D03*
X5635534Y-86745534D03*
X84375534Y-13085534D03*
X79295534Y-2925534D03*
X23415534Y-94365534D03*
X20875534Y-15625534D03*
X86915534Y-18165534D03*
X66595534Y-38485534D03*
X28495534Y-81665534D03*
X23415534Y-86745534D03*
X8175534Y-48645534D03*
X20875534Y-58805534D03*
X76755534Y-8005534D03*
X86915534Y-81665534D03*
X23415534Y-68965534D03*
X20875534Y-5465534D03*
X43735534Y-51185534D03*
X23415534Y-56265534D03*
X31035534Y-61345534D03*
X71675534Y-18165534D03*
X86915534Y-58805534D03*
X28495534Y-46105534D03*
X58975534Y-58805534D03*
D12*
X555534Y-94365534D03*
D11*
X76755534Y-41025534D03*
X41195534Y-10545534D03*
X23415534Y-8005534D03*
X36115534Y-38485534D03*
X13255534Y-38485534D03*
X69135534Y-18165534D03*
X46275534Y-51185534D03*
X64055534Y-86745534D03*
X71675534Y-51185534D03*
X25955534Y-30865534D03*
X81835534Y-68965534D03*
X15795534Y-20705534D03*
X18335534Y-84205534D03*
X38655534Y-43565534D03*
X10715534Y-41025534D03*
X48815534Y-20705534D03*
X71675534Y-13085534D03*
X91995534Y-48645534D03*
X28495534Y-43565534D03*
X91995534Y-43565534D03*
X56435534Y-13085534D03*
X13255534Y-86745534D03*
X61515534Y-2925534D03*
X48815534Y-35945534D03*
X86915534Y-43565534D03*
X56435534Y-38485534D03*
X74215534Y-96905534D03*
X25955534Y-74045534D03*
X20875534Y-46105534D03*
X28495534Y-79125534D03*
X15795534Y-51185534D03*
X41195534Y-46105534D03*
X18335534Y-28325534D03*
X69135534Y-74045534D03*
X84375534Y-84205534D03*
X89455534Y-23245534D03*
X66595534Y-35945534D03*
X15795534Y-56265534D03*
X76755534Y-13085534D03*
X20875534Y-94365534D03*
X91995534Y-33405534D03*
X41195534Y-8005534D03*
X-1984466Y-71505534D03*
X36115534Y-58805534D03*
X36115534Y-28325534D03*
X84375534Y-33405534D03*
X89455534Y-30865534D03*
X31035534Y-23245534D03*
X58975534Y-74045534D03*
X74215534Y-71505534D03*
X20875534Y-20705534D03*
X79295534Y-79125534D03*
X56435534Y-76585534D03*
X38655534Y-5465534D03*
X18335534Y-51185534D03*
X15795534Y-25785534D03*
X81835534Y-46105534D03*
X20875534Y-91825534D03*
X13255534Y-2925534D03*
X20875534Y-84205534D03*
X20875534Y-43565534D03*
X5635534Y-66425534D03*
X79295534Y-41025534D03*
X10715534Y-23245534D03*
X46275534Y-33405534D03*
X33575534Y-74045534D03*
X71675534Y-76585534D03*
X89455534Y-51185534D03*
X20875534Y-53725534D03*
X8175534Y-86745534D03*
X81835534Y-71505534D03*
X74215534Y-58805534D03*
X58975534Y-56265534D03*
X23415534Y-71505534D03*
X76755534Y-66425534D03*
X91995534Y-28325534D03*
X58975534Y-5465534D03*
X51355534Y-86745534D03*
X36115534Y-20705534D03*
X69135534Y-96905534D03*
X-1984466Y-81665534D03*
X3095534Y-89285534D03*
X51355534Y-28325534D03*
X84375534Y-96905534D03*
X51355534Y-43565534D03*
X84375534Y-46105534D03*
X76755534Y-18165534D03*
X53895534Y-66425534D03*
X64055534Y-61345534D03*
X66595534Y-25785534D03*
X51355534Y-91825534D03*
X79295534Y-28325534D03*
X84375534Y-68965534D03*
X20875534Y-2925534D03*
X5635534Y-28325534D03*
X23415534Y-23245534D03*
X64055534Y-23245534D03*
X5635534Y-58805534D03*
X48815534Y-41025534D03*
X18335534Y-5465534D03*
X46275534Y-89285534D03*
X56435534Y-8005534D03*
X69135534Y-15625534D03*
X69135534Y-41025534D03*
X81835534Y-30865534D03*
X81835534Y-10545534D03*
X48815534Y-58805534D03*
X61515534Y-84205534D03*
X31035534Y-58805534D03*
X56435534Y-46105534D03*
X8175534Y-84205534D03*
X86915534Y-25785534D03*
X51355534Y-5465534D03*
X91995534Y-46105534D03*
X41195534Y-84205534D03*
X46275534Y-56265534D03*
X15795534Y-38485534D03*
X74215534Y-20705534D03*
X31035534Y-74045534D03*
X79295534Y-63885534D03*
X48815534Y-56265534D03*
X48815534Y-2925534D03*
X33575534Y-5465534D03*
X69135534Y-66425534D03*
X15795534Y-30865534D03*
X69135534Y-8005534D03*
X53895534Y-68965534D03*
X89455534Y-58805534D03*
X89455534Y-74045534D03*
X53895534Y-18165534D03*
X28495534Y-15625534D03*
X81835534Y-91825534D03*
X3095534Y-81665534D03*
X64055534Y-20705534D03*
X64055534Y-48645534D03*
X15795534Y-41025534D03*
X69135534Y-2925534D03*
X33575534Y-38485534D03*
X58975534Y-91825534D03*
X89455534Y-61345534D03*
X74215534Y-76585534D03*
X58975534Y-71505534D03*
X81835534Y-48645534D03*
X33575534Y-61345534D03*
X41195534Y-74045534D03*
X15795534Y-53725534D03*
X53895534Y-63885534D03*
X3095534Y-71505534D03*
X20875534Y-18165534D03*
X71675534Y-86745534D03*
X81835534Y-89285534D03*
X69135534Y-89285534D03*
X79295534Y-46105534D03*
X3095534Y-41025534D03*
X53895534Y-48645534D03*
X3095534Y-76585534D03*
X48815534Y-28325534D03*
X51355534Y-38485534D03*
X56435534Y-66425534D03*
X91995534Y-10545534D03*
X61515534Y-30865534D03*
X38655534Y-25785534D03*
X64055534Y-74045534D03*
X84375534Y-86745534D03*
X-1984466Y-74045534D03*
X64055534Y-89285534D03*
X84375534Y-74045534D03*
X20875534Y-28325534D03*
X43735534Y-2925534D03*
X69135534Y-48645534D03*
X31035534Y-91825534D03*
X91995534Y-61345534D03*
X555534Y-51185534D03*
X66595534Y-53725534D03*
X84375534Y-15625534D03*
X5635534Y-79125534D03*
X58975534Y-10545534D03*
X13255534Y-53725534D03*
X28495534Y-58805534D03*
X76755534Y-20705534D03*
X61515534Y-71505534D03*
X81835534Y-38485534D03*
X74215534Y-74045534D03*
X66595534Y-58805534D03*
X38655534Y-76585534D03*
X58975534Y-18165534D03*
D12*
X555534Y-5465534D03*
D11*
X84375534Y-28325534D03*
X79295534Y-58805534D03*
X23415534Y-30865534D03*
X20875534Y-66425534D03*
X5635534Y-5465534D03*
X91995534Y-81665534D03*
X8175534Y-10545534D03*
X69135534Y-68965534D03*
X48815534Y-18165534D03*
X89455534Y-79125534D03*
X76755534Y-86745534D03*
X66595534Y-28325534D03*
X13255534Y-51185534D03*
X76755534Y-76585534D03*
X46275534Y-63885534D03*
X48815534Y-43565534D03*
X3095534Y-84205534D03*
X81835534Y-79125534D03*
X15795534Y-28325534D03*
X53895534Y-89285534D03*
X10715534Y-38485534D03*
X3095534Y-63885534D03*
X13255534Y-68965534D03*
X48815534Y-25785534D03*
X91995534Y-30865534D03*
X81835534Y-66425534D03*
X18335534Y-10545534D03*
X89455534Y-33405534D03*
X10715534Y-56265534D03*
X41195534Y-25785534D03*
X48815534Y-66425534D03*
X555534Y-41025534D03*
X31035534Y-46105534D03*
X3095534Y-48645534D03*
X76755534Y-38485534D03*
X79295534Y-86745534D03*
X3095534Y-51185534D03*
X25955534Y-91825534D03*
X18335534Y-48645534D03*
X33575534Y-53725534D03*
X69135534Y-56265534D03*
X43735534Y-56265534D03*
X38655534Y-48645534D03*
X69135534Y-38485534D03*
X74215534Y-41025534D03*
X8175534Y-8005534D03*
X555534Y-74045534D03*
X38655534Y-56265534D03*
X23415534Y-58805534D03*
X5635534Y-48645534D03*
X8175534Y-15625534D03*
X555534Y-18165534D03*
X33575534Y-8005534D03*
X25955534Y-86745534D03*
X31035534Y-71505534D03*
X38655534Y-38485534D03*
X61515534Y-89285534D03*
X28495534Y-94365534D03*
X76755534Y-94365534D03*
X23415534Y-2925534D03*
X76755534Y-30865534D03*
X46275534Y-68965534D03*
X51355534Y-48645534D03*
X33575534Y-28325534D03*
X58975534Y-30865534D03*
X36115534Y-56265534D03*
X69135534Y-63885534D03*
X13255534Y-43565534D03*
X84375534Y-53725534D03*
X-1984466Y-15625534D03*
X69135534Y-81665534D03*
X84375534Y-38485534D03*
X18335534Y-74045534D03*
X5635534Y-23245534D03*
X79295534Y-76585534D03*
X89455534Y-28325534D03*
X64055534Y-2925534D03*
X18335534Y-66425534D03*
X-1984466Y-25785534D03*
X66595534Y-13085534D03*
X81835534Y-84205534D03*
X25955534Y-5465534D03*
X41195534Y-48645534D03*
X5635534Y-41025534D03*
X15795534Y-10545534D03*
X71675534Y-5465534D03*
X13255534Y-5465534D03*
X25955534Y-41025534D03*
X56435534Y-20705534D03*
X20875534Y-74045534D03*
X86915534Y-56265534D03*
X71675534Y-68965534D03*
X23415534Y-96905534D03*
X64055534Y-94365534D03*
X79295534Y-66425534D03*
X20875534Y-10545534D03*
X51355534Y-33405534D03*
X13255534Y-28325534D03*
X3095534Y-35945534D03*
X74215534Y-84205534D03*
X20875534Y-76585534D03*
X51355534Y-63885534D03*
X56435534Y-63885534D03*
X43735534Y-48645534D03*
X36115534Y-79125534D03*
X3095534Y-56265534D03*
X555534Y-48645534D03*
X36115534Y-35945534D03*
X71675534Y-35945534D03*
X13255534Y-23245534D03*
X46275534Y-79125534D03*
X61515534Y-94365534D03*
X18335534Y-43565534D03*
X13255534Y-79125534D03*
X48815534Y-89285534D03*
X555534Y-66425534D03*
X58975534Y-86745534D03*
X36115534Y-30865534D03*
X28495534Y-56265534D03*
X86915534Y-76585534D03*
X53895534Y-38485534D03*
X31035534Y-63885534D03*
X41195534Y-61345534D03*
X28495534Y-41025534D03*
X84375534Y-56265534D03*
X56435534Y-18165534D03*
X51355534Y-8005534D03*
X3095534Y-79125534D03*
X46275534Y-5465534D03*
X31035534Y-28325534D03*
X66595534Y-15625534D03*
X51355534Y-25785534D03*
X51355534Y-61345534D03*
X91995534Y-53725534D03*
X51355534Y-71505534D03*
X33575534Y-48645534D03*
X79295534Y-15625534D03*
X53895534Y-81665534D03*
X53895534Y-56265534D03*
X48815534Y-5465534D03*
X71675534Y-96905534D03*
X81835534Y-61345534D03*
X41195534Y-89285534D03*
X61515534Y-58805534D03*
X13255534Y-30865534D03*
X8175534Y-66425534D03*
X28495534Y-84205534D03*
X10715534Y-46105534D03*
X5635534Y-10545534D03*
X555534Y-43565534D03*
X41195534Y-91825534D03*
X66595534Y-46105534D03*
X20875534Y-71505534D03*
X23415534Y-48645534D03*
X79295534Y-84205534D03*
X43735534Y-74045534D03*
X10715534Y-33405534D03*
X-1984466Y-13085534D03*
X66595534Y-43565534D03*
X64055534Y-51185534D03*
X15795534Y-66425534D03*
X10715534Y-30865534D03*
X76755534Y-23245534D03*
X20875534Y-86745534D03*
X51355534Y-20705534D03*
X48815534Y-15625534D03*
X28495534Y-28325534D03*
X74215534Y-5465534D03*
X51355534Y-13085534D03*
X5635534Y-20705534D03*
X71675534Y-20705534D03*
X76755534Y-2925534D03*
X5635534Y-33405534D03*
X5635534Y-8005534D03*
X43735534Y-68965534D03*
X3095534Y-15625534D03*
X64055534Y-41025534D03*
X56435534Y-68965534D03*
X555534Y-35945534D03*
X15795534Y-89285534D03*
X3095534Y-46105534D03*
X81835534Y-5465534D03*
X89455534Y-41025534D03*
X76755534Y-33405534D03*
X5635534Y-74045534D03*
X15795534Y-58805534D03*
X28495534Y-96905534D03*
X66595534Y-89285534D03*
X555534Y-79125534D03*
X66595534Y-81665534D03*
X51355534Y-51185534D03*
X79295534Y-74045534D03*
X18335534Y-8005534D03*
X20875534Y-89285534D03*
X81835534Y-63885534D03*
X84375534Y-18165534D03*
X76755534Y-81665534D03*
X20875534Y-81665534D03*
X53895534Y-41025534D03*
X5635534Y-89285534D03*
X64055534Y-33405534D03*
X51355534Y-10545534D03*
X15795534Y-5465534D03*
X74215534Y-89285534D03*
X53895534Y-5465534D03*
X18335534Y-63885534D03*
X58975534Y-84205534D03*
X86915534Y-48645534D03*
X86915534Y-79125534D03*
X18335534Y-68965534D03*
X-1984466Y-58805534D03*
X10715534Y-81665534D03*
X31035534Y-86745534D03*
X10715534Y-61345534D03*
X41195534Y-43565534D03*
X66595534Y-10545534D03*
X53895534Y-28325534D03*
X33575534Y-20705534D03*
X36115534Y-91825534D03*
X58975534Y-41025534D03*
X69135534Y-86745534D03*
X5635534Y-63885534D03*
X43735534Y-13085534D03*
X91995534Y-51185534D03*
X64055534Y-96905534D03*
X555534Y-30865534D03*
X38655534Y-20705534D03*
X58975534Y-96905534D03*
X555534Y-53725534D03*
X79295534Y-20705534D03*
X20875534Y-68965534D03*
X64055534Y-46105534D03*
X91995534Y-58805534D03*
X36115534Y-18165534D03*
X81835534Y-15625534D03*
X48815534Y-74045534D03*
X69135534Y-35945534D03*
X36115534Y-71505534D03*
X31035534Y-10545534D03*
X64055534Y-8005534D03*
X48815534Y-79125534D03*
X41195534Y-58805534D03*
X10715534Y-76585534D03*
X71675534Y-28325534D03*
X13255534Y-81665534D03*
X53895534Y-84205534D03*
X43735534Y-63885534D03*
X10715534Y-10545534D03*
X53895534Y-86745534D03*
X555534Y-46105534D03*
X555534Y-58805534D03*
X31035534Y-94365534D03*
X-1984466Y-79125534D03*
X18335534Y-79125534D03*
X23415534Y-41025534D03*
X74215534Y-25785534D03*
X76755534Y-35945534D03*
X13255534Y-20705534D03*
X58975534Y-81665534D03*
X15795534Y-23245534D03*
X58975534Y-13085534D03*
X76755534Y-15625534D03*
X71675534Y-23245534D03*
X555534Y-20705534D03*
X48815534Y-68965534D03*
X64055534Y-30865534D03*
X91995534Y-41025534D03*
X86915534Y-68965534D03*
X-1984466Y-53725534D03*
X66595534Y-18165534D03*
X48815534Y-51185534D03*
X61515534Y-76585534D03*
X53895534Y-43565534D03*
X46275534Y-20705534D03*
X38655534Y-84205534D03*
X33575534Y-89285534D03*
X23415534Y-79125534D03*
X79295534Y-56265534D03*
X15795534Y-68965534D03*
X18335534Y-13085534D03*
X71675534Y-48645534D03*
X5635534Y-94365534D03*
X23415534Y-89285534D03*
X74215534Y-18165534D03*
X89455534Y-13085534D03*
X36115534Y-43565534D03*
X33575534Y-33405534D03*
X25955534Y-23245534D03*
X41195534Y-5465534D03*
X-1984466Y-46105534D03*
X43735534Y-81665534D03*
X89455534Y-81665534D03*
X84375534Y-66425534D03*
X84375534Y-48645534D03*
X84375534Y-63885534D03*
X13255534Y-56265534D03*
X10715534Y-35945534D03*
X36115534Y-48645534D03*
X79295534Y-68965534D03*
X555534Y-25785534D03*
X56435534Y-43565534D03*
X41195534Y-56265534D03*
X33575534Y-23245534D03*
X69135534Y-43565534D03*
X23415534Y-18165534D03*
D12*
X89455534Y-5465534D03*
D11*
X56435534Y-74045534D03*
X8175534Y-20705534D03*
X38655534Y-71505534D03*
X89455534Y-46105534D03*
X46275534Y-15625534D03*
X33575534Y-68965534D03*
X74215534Y-15625534D03*
X41195534Y-76585534D03*
X66595534Y-41025534D03*
X76755534Y-25785534D03*
X15795534Y-46105534D03*
X25955534Y-94365534D03*
X48815534Y-53725534D03*
X8175534Y-76585534D03*
X8175534Y-30865534D03*
X-1984466Y-84205534D03*
X18335534Y-81665534D03*
X23415534Y-28325534D03*
X8175534Y-74045534D03*
X64055534Y-68965534D03*
X46275534Y-91825534D03*
X25955534Y-46105534D03*
X51355534Y-56265534D03*
X84375534Y-35945534D03*
X-1984466Y-18165534D03*
X74215534Y-38485534D03*
X-1984466Y-86745534D03*
X89455534Y-68965534D03*
X66595534Y-61345534D03*
X33575534Y-15625534D03*
X56435534Y-30865534D03*
X56435534Y-41025534D03*
X5635534Y-96905534D03*
X71675534Y-38485534D03*
X61515534Y-56265534D03*
X69135534Y-33405534D03*
X64055534Y-84205534D03*
X38655534Y-10545534D03*
X25955534Y-13085534D03*
X56435534Y-89285534D03*
X28495534Y-10545534D03*
X53895534Y-91825534D03*
X64055534Y-66425534D03*
X31035534Y-84205534D03*
X28495534Y-68965534D03*
X20875534Y-33405534D03*
X25955534Y-89285534D03*
X53895534Y-33405534D03*
X15795534Y-61345534D03*
X8175534Y-63885534D03*
X71675534Y-43565534D03*
X79295534Y-25785534D03*
X89455534Y-25785534D03*
X23415534Y-5465534D03*
X43735534Y-41025534D03*
X18335534Y-89285534D03*
X86915534Y-38485534D03*
X10715534Y-25785534D03*
X71675534Y-56265534D03*
X18335534Y-20705534D03*
X61515534Y-68965534D03*
X86915534Y-63885534D03*
X38655534Y-41025534D03*
X84375534Y-94365534D03*
X56435534Y-25785534D03*
X15795534Y-2925534D03*
X81835534Y-18165534D03*
X61515534Y-5465534D03*
X5635534Y-38485534D03*
X89455534Y-15625534D03*
X79295534Y-96905534D03*
X25955534Y-58805534D03*
X89455534Y-84205534D03*
X10715534Y-15625534D03*
X41195534Y-68965534D03*
X28495534Y-33405534D03*
X13255534Y-48645534D03*
X8175534Y-28325534D03*
X23415534Y-33405534D03*
X31035534Y-13085534D03*
X-1984466Y-61345534D03*
X66595534Y-20705534D03*
X15795534Y-33405534D03*
X76755534Y-10545534D03*
X84375534Y-41025534D03*
X43735534Y-15625534D03*
X38655534Y-68965534D03*
X15795534Y-86745534D03*
X46275534Y-81665534D03*
X56435534Y-15625534D03*
X64055534Y-43565534D03*
X23415534Y-76585534D03*
X5635534Y-35945534D03*
X58975534Y-46105534D03*
X20875534Y-8005534D03*
X-1984466Y-51185534D03*
X25955534Y-38485534D03*
X64055534Y-15625534D03*
X61515534Y-66425534D03*
X18335534Y-15625534D03*
X74215534Y-56265534D03*
X36115534Y-53725534D03*
X81835534Y-23245534D03*
X8175534Y-25785534D03*
X3095534Y-28325534D03*
X15795534Y-81665534D03*
X33575534Y-63885534D03*
X10715534Y-79125534D03*
X25955534Y-84205534D03*
X41195534Y-33405534D03*
X13255534Y-33405534D03*
X61515534Y-79125534D03*
X10715534Y-96905534D03*
X79295534Y-30865534D03*
X66595534Y-2925534D03*
X46275534Y-30865534D03*
X23415534Y-43565534D03*
X51355534Y-89285534D03*
X66595534Y-71505534D03*
X36115534Y-76585534D03*
X41195534Y-86745534D03*
X69135534Y-53725534D03*
X33575534Y-91825534D03*
X51355534Y-58805534D03*
X48815534Y-61345534D03*
X23415534Y-53725534D03*
X81835534Y-94365534D03*
X28495534Y-13085534D03*
X58975534Y-53725534D03*
X36115534Y-86745534D03*
X89455534Y-38485534D03*
X81835534Y-41025534D03*
X51355534Y-46105534D03*
X56435534Y-81665534D03*
X76755534Y-61345534D03*
X89455534Y-89285534D03*
X5635534Y-18165534D03*
X51355534Y-81665534D03*
X38655534Y-53725534D03*
X53895534Y-46105534D03*
X33575534Y-13085534D03*
X13255534Y-96905534D03*
X91995534Y-74045534D03*
X555534Y-61345534D03*
X71675534Y-71505534D03*
X81835534Y-20705534D03*
X46275534Y-38485534D03*
X64055534Y-38485534D03*
X86915534Y-71505534D03*
X66595534Y-48645534D03*
X31035534Y-5465534D03*
X58975534Y-66425534D03*
X69135534Y-10545534D03*
X555534Y-33405534D03*
X51355534Y-84205534D03*
X25955534Y-43565534D03*
X91995534Y-25785534D03*
X58975534Y-35945534D03*
X64055534Y-76585534D03*
X28495534Y-74045534D03*
X74215534Y-28325534D03*
X33575534Y-81665534D03*
X10715534Y-43565534D03*
X38655534Y-86745534D03*
X15795534Y-13085534D03*
X23415534Y-63885534D03*
X71675534Y-33405534D03*
X69135534Y-94365534D03*
X51355534Y-66425534D03*
X89455534Y-43565534D03*
X3095534Y-38485534D03*
X38655534Y-35945534D03*
X5635534Y-81665534D03*
X20875534Y-38485534D03*
X69135534Y-91825534D03*
X20875534Y-25785534D03*
X8175534Y-89285534D03*
X31035534Y-35945534D03*
X555534Y-86745534D03*
X48815534Y-81665534D03*
X33575534Y-79125534D03*
X74215534Y-79125534D03*
X13255534Y-18165534D03*
X48815534Y-8005534D03*
X20875534Y-63885534D03*
X3095534Y-18165534D03*
X71675534Y-81665534D03*
X-1984466Y-56265534D03*
X28495534Y-2925534D03*
X81835534Y-74045534D03*
X74215534Y-81665534D03*
X33575534Y-25785534D03*
X86915534Y-15625534D03*
X18335534Y-86745534D03*
X33575534Y-30865534D03*
X-1984466Y-68965534D03*
X89455534Y-56265534D03*
X64055534Y-13085534D03*
X79295534Y-48645534D03*
X53895534Y-35945534D03*
X3095534Y-10545534D03*
X84375534Y-61345534D03*
X46275534Y-18165534D03*
X20875534Y-96905534D03*
X66595534Y-66425534D03*
X61515534Y-15625534D03*
X79295534Y-13085534D03*
X84375534Y-23245534D03*
X86915534Y-20705534D03*
X69135534Y-13085534D03*
X51355534Y-30865534D03*
X28495534Y-89285534D03*
X33575534Y-2925534D03*
X69135534Y-46105534D03*
X8175534Y-2925534D03*
X84375534Y-79125534D03*
X48815534Y-91825534D03*
X71675534Y-30865534D03*
X76755534Y-53725534D03*
X5635534Y-51185534D03*
X81835534Y-2925534D03*
X25955534Y-66425534D03*
X56435534Y-61345534D03*
X23415534Y-46105534D03*
X79295534Y-18165534D03*
X48815534Y-46105534D03*
X71675534Y-2925534D03*
X25955534Y-2925534D03*
X8175534Y-58805534D03*
X53895534Y-15625534D03*
X81835534Y-8005534D03*
X38655534Y-46105534D03*
X5635534Y-84205534D03*
X41195534Y-23245534D03*
X25955534Y-10545534D03*
X36115534Y-81665534D03*
X86915534Y-30865534D03*
X79295534Y-53725534D03*
X31035534Y-56265534D03*
X58975534Y-68965534D03*
X31035534Y-43565534D03*
X61515534Y-18165534D03*
X81835534Y-76585534D03*
X10715534Y-66425534D03*
X46275534Y-23245534D03*
X20875534Y-79125534D03*
X91995534Y-56265534D03*
X66595534Y-33405534D03*
X31035534Y-41025534D03*
X15795534Y-71505534D03*
X91995534Y-38485534D03*
X46275534Y-41025534D03*
X43735534Y-33405534D03*
X28495534Y-86745534D03*
X3095534Y-25785534D03*
X3095534Y-33405534D03*
X10715534Y-74045534D03*
X66595534Y-74045534D03*
X28495534Y-61345534D03*
X36115534Y-13085534D03*
X36115534Y-41025534D03*
X43735534Y-46105534D03*
X56435534Y-51185534D03*
X15795534Y-48645534D03*
X18335534Y-30865534D03*
X18335534Y-38485534D03*
X79295534Y-81665534D03*
X3095534Y-53725534D03*
X20875534Y-61345534D03*
X3095534Y-20705534D03*
X25955534Y-63885534D03*
X5635534Y-53725534D03*
X84375534Y-43565534D03*
X79295534Y-33405534D03*
X10715534Y-5465534D03*
X61515534Y-74045534D03*
X84375534Y-10545534D03*
X46275534Y-28325534D03*
X61515534Y-20705534D03*
X53895534Y-58805534D03*
X-1984466Y-30865534D03*
X8175534Y-91825534D03*
X46275534Y-48645534D03*
X-1984466Y-76585534D03*
X69135534Y-5465534D03*
X28495534Y-20705534D03*
X66595534Y-84205534D03*
X13255534Y-63885534D03*
X71675534Y-41025534D03*
X56435534Y-10545534D03*
X53895534Y-76585534D03*
X31035534Y-33405534D03*
X5635534Y-30865534D03*
X23415534Y-74045534D03*
X18335534Y-2925534D03*
X-1984466Y-38485534D03*
X43735534Y-61345534D03*
X48815534Y-86745534D03*
X28495534Y-30865534D03*
X81835534Y-28325534D03*
X91995534Y-15625534D03*
X-1984466Y-66425534D03*
X10715534Y-13085534D03*
X43735534Y-71505534D03*
X74215534Y-43565534D03*
X74215534Y-33405534D03*
X81835534Y-51185534D03*
X81835534Y-86745534D03*
X66595534Y-68965534D03*
X5635534Y-76585534D03*
X33575534Y-46105534D03*
X43735534Y-10545534D03*
X81835534Y-53725534D03*
X46275534Y-86745534D03*
X79295534Y-94365534D03*
X36115534Y-66425534D03*
X38655534Y-63885534D03*
X58975534Y-76585534D03*
X81835534Y-33405534D03*
X18335534Y-76585534D03*
X64055534Y-91825534D03*
X8175534Y-53725534D03*
X25955534Y-56265534D03*
X36115534Y-25785534D03*
X53895534Y-74045534D03*
X64055534Y-56265534D03*
X84375534Y-58805534D03*
X20875534Y-51185534D03*
X53895534Y-71505534D03*
X5635534Y-13085534D03*
X3095534Y-23245534D03*
X555534Y-56265534D03*
X61515534Y-8005534D03*
X69135534Y-20705534D03*
X31035534Y-76585534D03*
X46275534Y-8005534D03*
X51355534Y-41025534D03*
X86915534Y-53725534D03*
X74215534Y-13085534D03*
X23415534Y-10545534D03*
X25955534Y-15625534D03*
X86915534Y-61345534D03*
X58975534Y-2925534D03*
X23415534Y-13085534D03*
X61515534Y-48645534D03*
X81835534Y-81665534D03*
X5635534Y-61345534D03*
X71675534Y-58805534D03*
X76755534Y-63885534D03*
X89455534Y-66425534D03*
X5635534Y-25785534D03*
X23415534Y-66425534D03*
X25955534Y-79125534D03*
X38655534Y-28325534D03*
X8175534Y-33405534D03*
X13255534Y-84205534D03*
X41195534Y-2925534D03*
X38655534Y-2925534D03*
X56435534Y-33405534D03*
X18335534Y-71505534D03*
X5635534Y-46105534D03*
X61515534Y-86745534D03*
X61515534Y-91825534D03*
X13255534Y-61345534D03*
X36115534Y-51185534D03*
X76755534Y-91825534D03*
X31035534Y-20705534D03*
X81835534Y-13085534D03*
X15795534Y-79125534D03*
X76755534Y-28325534D03*
X23415534Y-81665534D03*
X31035534Y-89285534D03*
X555534Y-71505534D03*
X81835534Y-25785534D03*
X66595534Y-96905534D03*
X76755534Y-96905534D03*
X-1984466Y-35945534D03*
X8175534Y-56265534D03*
X64055534Y-63885534D03*
X53895534Y-25785534D03*
X66595534Y-56265534D03*
X71675534Y-74045534D03*
X18335534Y-23245534D03*
X69135534Y-84205534D03*
X25955534Y-18165534D03*
X64055534Y-25785534D03*
X69135534Y-51185534D03*
X91995534Y-68965534D03*
X58975534Y-51185534D03*
X58975534Y-38485534D03*
X66595534Y-63885534D03*
X555534Y-76585534D03*
X86915534Y-46105534D03*
X61515534Y-43565534D03*
X8175534Y-51185534D03*
X56435534Y-84205534D03*
X84375534Y-76585534D03*
X28495534Y-35945534D03*
X56435534Y-56265534D03*
X33575534Y-18165534D03*
X43735534Y-79125534D03*
X-1984466Y-63885534D03*
X555534Y-10545534D03*
X48815534Y-48645534D03*
X13255534Y-58805534D03*
X3095534Y-74045534D03*
X23415534Y-38485534D03*
X74215534Y-66425534D03*
X56435534Y-86745534D03*
X84375534Y-71505534D03*
X5635534Y-43565534D03*
X28495534Y-38485534D03*
X53895534Y-20705534D03*
X74215534Y-63885534D03*
X41195534Y-66425534D03*
X23415534Y-51185534D03*
X58975534Y-23245534D03*
X61515534Y-63885534D03*
X51355534Y-74045534D03*
X13255534Y-94365534D03*
X15795534Y-76585534D03*
X15795534Y-63885534D03*
X69135534Y-71505534D03*
X38655534Y-30865534D03*
X31035534Y-15625534D03*
X69135534Y-25785534D03*
X81835534Y-35945534D03*
X31035534Y-2925534D03*
X74215534Y-53725534D03*
X74215534Y-68965534D03*
X53895534Y-79125534D03*
X13255534Y-25785534D03*
X86915534Y-89285534D03*
X8175534Y-38485534D03*
X91995534Y-63885534D03*
X8175534Y-81665534D03*
X51355534Y-53725534D03*
X33575534Y-35945534D03*
X36115534Y-5465534D03*
X66595534Y-76585534D03*
X66595534Y-51185534D03*
X43735534Y-58805534D03*
X18335534Y-33405534D03*
X56435534Y-2925534D03*
X66595534Y-30865534D03*
X5635534Y-2925534D03*
X36115534Y-46105534D03*
X61515534Y-53725534D03*
X64055534Y-5465534D03*
X91995534Y-89285534D03*
X8175534Y-96905534D03*
X18335534Y-46105534D03*
X61515534Y-35945534D03*
X84375534Y-20705534D03*
X46275534Y-10545534D03*
X53895534Y-8005534D03*
X20875534Y-48645534D03*
X36115534Y-74045534D03*
X41195534Y-30865534D03*
X58975534Y-43565534D03*
X76755534Y-51185534D03*
X13255534Y-41025534D03*
X8175534Y-71505534D03*
X48815534Y-63885534D03*
X43735534Y-25785534D03*
X36115534Y-63885534D03*
X15795534Y-43565534D03*
X20875534Y-13085534D03*
X31035534Y-18165534D03*
%LPD*%
M02*
