%TF.GenerationSoftware,KiCad,Pcbnew,7.0.2*%
%TF.CreationDate,2023-04-30T21:26:10+08:00*%
%TF.ProjectId,UINIO-Peg-Board,55494e49-4f2d-4506-9567-2d426f617264,rev?*%
%TF.SameCoordinates,PXb951680PY32311f0*%
%TF.FileFunction,Legend,Top*%
%TF.FilePolarity,Positive*%
%FSLAX46Y46*%
G04 Gerber Fmt 4.6, Leading zero omitted, Abs format (unit mm)*
G04 Created by KiCad (PCBNEW 7.0.2) date 2023-04-30 21:26:10*
%MOMM*%
%LPD*%
G01*
G04 APERTURE LIST*
%ADD10C,0.200000*%
%ADD11C,2.000000*%
%ADD12C,5.000000*%
G04 APERTURE END LIST*
D10*
G36*
X-13710789Y-99380000D02*
G01*
X-13462883Y-99380000D01*
X-13146344Y-98348318D01*
X-13356393Y-98348318D01*
X-13490970Y-98850969D01*
X-13493943Y-98861565D01*
X-13496863Y-98872104D01*
X-13499735Y-98882591D01*
X-13502563Y-98893031D01*
X-13505350Y-98903427D01*
X-13508100Y-98913783D01*
X-13510818Y-98924104D01*
X-13513506Y-98934394D01*
X-13516168Y-98944656D01*
X-13518809Y-98954896D01*
X-13521433Y-98965116D01*
X-13524042Y-98975322D01*
X-13526641Y-98985516D01*
X-13529234Y-98995705D01*
X-13531824Y-99005890D01*
X-13534415Y-99016078D01*
X-13537011Y-99026271D01*
X-13539617Y-99036474D01*
X-13542234Y-99046690D01*
X-13544868Y-99056925D01*
X-13547523Y-99067182D01*
X-13550201Y-99077466D01*
X-13552907Y-99087780D01*
X-13555645Y-99098128D01*
X-13558418Y-99108515D01*
X-13561231Y-99118945D01*
X-13564086Y-99129421D01*
X-13566989Y-99139949D01*
X-13569942Y-99150532D01*
X-13572949Y-99161173D01*
X-13576015Y-99171879D01*
X-13579142Y-99182651D01*
X-13585981Y-99182651D01*
X-13588975Y-99171879D01*
X-13591916Y-99161173D01*
X-13594807Y-99150531D01*
X-13597651Y-99139948D01*
X-13600452Y-99129419D01*
X-13603214Y-99118941D01*
X-13605941Y-99108510D01*
X-13608634Y-99098120D01*
X-13611300Y-99087769D01*
X-13613940Y-99077451D01*
X-13616559Y-99067163D01*
X-13619160Y-99056900D01*
X-13621746Y-99046658D01*
X-13624322Y-99036433D01*
X-13626891Y-99026220D01*
X-13629456Y-99016017D01*
X-13632021Y-99005817D01*
X-13634590Y-98995618D01*
X-13637166Y-98985414D01*
X-13639753Y-98975202D01*
X-13642353Y-98964978D01*
X-13644972Y-98954737D01*
X-13647613Y-98944475D01*
X-13650278Y-98934188D01*
X-13652972Y-98923871D01*
X-13655698Y-98913521D01*
X-13658460Y-98903133D01*
X-13661261Y-98892704D01*
X-13664105Y-98882228D01*
X-13666996Y-98871701D01*
X-13669937Y-98861121D01*
X-13672931Y-98850481D01*
X-13810196Y-98348318D01*
X-14027084Y-98348318D01*
X-13710789Y-99380000D01*
G37*
G36*
X-12736862Y-98583251D02*
G01*
X-12717557Y-98584620D01*
X-12698864Y-98586878D01*
X-12680783Y-98590006D01*
X-12663316Y-98593984D01*
X-12646465Y-98598794D01*
X-12630231Y-98604417D01*
X-12614616Y-98610833D01*
X-12599620Y-98618023D01*
X-12585246Y-98625969D01*
X-12571495Y-98634650D01*
X-12558369Y-98644048D01*
X-12545868Y-98654144D01*
X-12533995Y-98664918D01*
X-12522751Y-98676352D01*
X-12512137Y-98688426D01*
X-12502155Y-98701121D01*
X-12492806Y-98714418D01*
X-12484092Y-98728298D01*
X-12476014Y-98742741D01*
X-12468574Y-98757729D01*
X-12461773Y-98773243D01*
X-12455613Y-98789262D01*
X-12450095Y-98805769D01*
X-12445221Y-98822744D01*
X-12440992Y-98840168D01*
X-12437409Y-98858021D01*
X-12434475Y-98876285D01*
X-12432190Y-98894940D01*
X-12430556Y-98913968D01*
X-12429574Y-98933348D01*
X-12429247Y-98953063D01*
X-12429354Y-98964069D01*
X-12429667Y-98974907D01*
X-12430172Y-98985487D01*
X-12430857Y-98995717D01*
X-12431707Y-99005508D01*
X-12433076Y-99017723D01*
X-12434684Y-99028781D01*
X-12436501Y-99038466D01*
X-12439017Y-99048318D01*
X-12922129Y-99048318D01*
X-12920353Y-99059799D01*
X-12918190Y-99070931D01*
X-12915647Y-99081713D01*
X-12912729Y-99092145D01*
X-12909443Y-99102224D01*
X-12905795Y-99111951D01*
X-12901793Y-99121324D01*
X-12897441Y-99130341D01*
X-12892747Y-99139003D01*
X-12882358Y-99155255D01*
X-12870676Y-99170070D01*
X-12857752Y-99183441D01*
X-12843638Y-99195359D01*
X-12828384Y-99205815D01*
X-12812042Y-99214803D01*
X-12794663Y-99222314D01*
X-12776299Y-99228338D01*
X-12766762Y-99230791D01*
X-12756999Y-99232869D01*
X-12747015Y-99234571D01*
X-12736816Y-99235898D01*
X-12726409Y-99236846D01*
X-12715801Y-99237416D01*
X-12704997Y-99237606D01*
X-12693005Y-99237384D01*
X-12681201Y-99236721D01*
X-12669572Y-99235626D01*
X-12658106Y-99234103D01*
X-12646790Y-99232159D01*
X-12635612Y-99229801D01*
X-12624560Y-99227035D01*
X-12613620Y-99223867D01*
X-12602780Y-99220305D01*
X-12592028Y-99216354D01*
X-12581350Y-99212021D01*
X-12570736Y-99207312D01*
X-12560172Y-99202234D01*
X-12549645Y-99196794D01*
X-12539143Y-99190996D01*
X-12528654Y-99184849D01*
X-12458556Y-99308925D01*
X-12473239Y-99318673D01*
X-12488411Y-99327938D01*
X-12504037Y-99336698D01*
X-12520078Y-99344935D01*
X-12536499Y-99352629D01*
X-12553263Y-99359758D01*
X-12570331Y-99366303D01*
X-12587669Y-99372245D01*
X-12605238Y-99377562D01*
X-12623002Y-99382236D01*
X-12640925Y-99386245D01*
X-12658969Y-99389571D01*
X-12677097Y-99392192D01*
X-12695273Y-99394089D01*
X-12713459Y-99395242D01*
X-12731619Y-99395631D01*
X-12752080Y-99395186D01*
X-12772230Y-99393858D01*
X-12792049Y-99391656D01*
X-12811513Y-99388590D01*
X-12830600Y-99384669D01*
X-12849288Y-99379903D01*
X-12867555Y-99374302D01*
X-12885378Y-99367875D01*
X-12902735Y-99360632D01*
X-12919605Y-99352583D01*
X-12935964Y-99343737D01*
X-12951790Y-99334103D01*
X-12967062Y-99323692D01*
X-12981756Y-99312513D01*
X-12995851Y-99300576D01*
X-13009324Y-99287889D01*
X-13022153Y-99274464D01*
X-13034315Y-99260309D01*
X-13045790Y-99245434D01*
X-13056553Y-99229849D01*
X-13066583Y-99213563D01*
X-13075858Y-99196586D01*
X-13084356Y-99178927D01*
X-13092053Y-99160597D01*
X-13098929Y-99141604D01*
X-13104959Y-99121959D01*
X-13110123Y-99101671D01*
X-13114399Y-99080749D01*
X-13117762Y-99059204D01*
X-13120193Y-99037044D01*
X-13121667Y-99014280D01*
X-13122164Y-98990921D01*
X-13121645Y-98967767D01*
X-13120108Y-98945161D01*
X-13117585Y-98923117D01*
X-13115631Y-98911053D01*
X-12924816Y-98911053D01*
X-12605590Y-98911053D01*
X-12606150Y-98892215D01*
X-12607834Y-98874289D01*
X-12610650Y-98857317D01*
X-12614608Y-98841341D01*
X-12619715Y-98826402D01*
X-12625979Y-98812543D01*
X-12633409Y-98799805D01*
X-12642013Y-98788230D01*
X-12651799Y-98777860D01*
X-12662775Y-98768736D01*
X-12674950Y-98760902D01*
X-12688331Y-98754398D01*
X-12702928Y-98749267D01*
X-12718748Y-98745550D01*
X-12735799Y-98743289D01*
X-12754090Y-98742526D01*
X-12761799Y-98742694D01*
X-12777011Y-98744042D01*
X-12791890Y-98746731D01*
X-12806365Y-98750754D01*
X-12820367Y-98756106D01*
X-12833826Y-98762780D01*
X-12846672Y-98770770D01*
X-12858836Y-98780069D01*
X-12870248Y-98790670D01*
X-12880837Y-98802568D01*
X-12890535Y-98815755D01*
X-12899272Y-98830226D01*
X-12906977Y-98845974D01*
X-12913581Y-98862992D01*
X-12919014Y-98881274D01*
X-12921269Y-98890887D01*
X-12923206Y-98900814D01*
X-12924816Y-98911053D01*
X-13115631Y-98911053D01*
X-13114107Y-98901647D01*
X-13109706Y-98880761D01*
X-13104414Y-98860474D01*
X-13098261Y-98840796D01*
X-13091279Y-98821740D01*
X-13083499Y-98803319D01*
X-13074954Y-98785545D01*
X-13065673Y-98768429D01*
X-13055690Y-98751984D01*
X-13045035Y-98736222D01*
X-13033740Y-98721156D01*
X-13021836Y-98706797D01*
X-13009354Y-98693158D01*
X-12996327Y-98680251D01*
X-12982785Y-98668088D01*
X-12968759Y-98656682D01*
X-12954283Y-98646044D01*
X-12939386Y-98636188D01*
X-12924100Y-98627124D01*
X-12908457Y-98618865D01*
X-12892488Y-98611425D01*
X-12876224Y-98604813D01*
X-12859698Y-98599044D01*
X-12842940Y-98594128D01*
X-12825982Y-98590079D01*
X-12808855Y-98586909D01*
X-12791591Y-98584629D01*
X-12774221Y-98583252D01*
X-12756776Y-98582791D01*
X-12736862Y-98583251D01*
G37*
G36*
X-12260475Y-99380000D02*
G01*
X-12054578Y-99380000D01*
X-12054578Y-98915694D01*
X-12050414Y-98905527D01*
X-12046077Y-98895768D01*
X-12041575Y-98886412D01*
X-12036917Y-98877452D01*
X-12032111Y-98868884D01*
X-12022085Y-98852898D01*
X-12011560Y-98838411D01*
X-12000601Y-98825376D01*
X-11989271Y-98813750D01*
X-11977633Y-98803488D01*
X-11965752Y-98794545D01*
X-11953691Y-98786875D01*
X-11941513Y-98780436D01*
X-11929283Y-98775181D01*
X-11917064Y-98771066D01*
X-11904920Y-98768046D01*
X-11892914Y-98766077D01*
X-11881110Y-98765114D01*
X-11875304Y-98764996D01*
X-11863652Y-98765191D01*
X-11852754Y-98765775D01*
X-11842421Y-98766748D01*
X-11832470Y-98768110D01*
X-11822713Y-98769862D01*
X-11812965Y-98772003D01*
X-11803039Y-98774533D01*
X-11792750Y-98777452D01*
X-11757823Y-98598422D01*
X-11769100Y-98594544D01*
X-11778536Y-98591682D01*
X-11788553Y-98589106D01*
X-11799349Y-98586881D01*
X-11811122Y-98585074D01*
X-11824070Y-98583749D01*
X-11834670Y-98583112D01*
X-11846124Y-98582811D01*
X-11850147Y-98582791D01*
X-11865419Y-98583447D01*
X-11880705Y-98585404D01*
X-11895964Y-98588648D01*
X-11911154Y-98593164D01*
X-11926233Y-98598936D01*
X-11941157Y-98605949D01*
X-11955885Y-98614189D01*
X-11970376Y-98623640D01*
X-11984585Y-98634288D01*
X-11998472Y-98646117D01*
X-12011994Y-98659113D01*
X-12025109Y-98673260D01*
X-12031500Y-98680760D01*
X-12037774Y-98688543D01*
X-12043925Y-98696606D01*
X-12049948Y-98704948D01*
X-12055838Y-98713566D01*
X-12061588Y-98722458D01*
X-12067195Y-98731624D01*
X-12072652Y-98741060D01*
X-12077049Y-98741060D01*
X-12092436Y-98598422D01*
X-12260475Y-98598422D01*
X-12260475Y-99380000D01*
G37*
G36*
X-11437377Y-99395631D02*
G01*
X-11418516Y-99395310D01*
X-11400222Y-99394358D01*
X-11382496Y-99392791D01*
X-11365340Y-99390623D01*
X-11348757Y-99387871D01*
X-11332748Y-99384551D01*
X-11317316Y-99380678D01*
X-11302463Y-99376267D01*
X-11288191Y-99371335D01*
X-11274502Y-99365897D01*
X-11261398Y-99359968D01*
X-11248882Y-99353565D01*
X-11236956Y-99346703D01*
X-11225621Y-99339397D01*
X-11214880Y-99331664D01*
X-11204735Y-99323518D01*
X-11195189Y-99314977D01*
X-11186243Y-99306054D01*
X-11177899Y-99296766D01*
X-11170160Y-99287129D01*
X-11163027Y-99277158D01*
X-11156504Y-99266869D01*
X-11150592Y-99256277D01*
X-11145293Y-99245399D01*
X-11140609Y-99234249D01*
X-11136543Y-99222844D01*
X-11133096Y-99211199D01*
X-11130272Y-99199329D01*
X-11128071Y-99187252D01*
X-11126497Y-99174981D01*
X-11125550Y-99162533D01*
X-11125234Y-99149923D01*
X-11125567Y-99136817D01*
X-11126549Y-99124235D01*
X-11128157Y-99112162D01*
X-11130369Y-99100583D01*
X-11133161Y-99089485D01*
X-11136511Y-99078851D01*
X-11140394Y-99068669D01*
X-11144789Y-99058923D01*
X-11149672Y-99049599D01*
X-11155019Y-99040682D01*
X-11160809Y-99032158D01*
X-11167017Y-99024012D01*
X-11173621Y-99016230D01*
X-11180597Y-99008797D01*
X-11187924Y-99001698D01*
X-11195576Y-98994920D01*
X-11203532Y-98988447D01*
X-11211769Y-98982265D01*
X-11220262Y-98976360D01*
X-11228990Y-98970717D01*
X-11237929Y-98965321D01*
X-11247055Y-98960158D01*
X-11256347Y-98955213D01*
X-11265781Y-98950472D01*
X-11275333Y-98945920D01*
X-11284981Y-98941543D01*
X-11294702Y-98937326D01*
X-11304472Y-98933255D01*
X-11314269Y-98929315D01*
X-11324069Y-98925492D01*
X-11333850Y-98921770D01*
X-11343587Y-98918136D01*
X-11358979Y-98912561D01*
X-11374045Y-98907148D01*
X-11388692Y-98901830D01*
X-11402828Y-98896540D01*
X-11416361Y-98891211D01*
X-11429201Y-98885777D01*
X-11441254Y-98880171D01*
X-11452428Y-98874325D01*
X-11462632Y-98868173D01*
X-11471774Y-98861648D01*
X-11479762Y-98854683D01*
X-11486504Y-98847210D01*
X-11494079Y-98834905D01*
X-11498332Y-98821083D01*
X-11499170Y-98810914D01*
X-11498278Y-98798986D01*
X-11495589Y-98787849D01*
X-11491085Y-98777588D01*
X-11484744Y-98768285D01*
X-11476550Y-98760024D01*
X-11466481Y-98752888D01*
X-11454518Y-98746960D01*
X-11440643Y-98742323D01*
X-11430321Y-98739991D01*
X-11419135Y-98738295D01*
X-11407078Y-98737259D01*
X-11394146Y-98736908D01*
X-11383414Y-98737211D01*
X-11372740Y-98738109D01*
X-11362117Y-98739582D01*
X-11351541Y-98741614D01*
X-11341004Y-98744184D01*
X-11330501Y-98747276D01*
X-11320027Y-98750872D01*
X-11309577Y-98754952D01*
X-11299143Y-98759498D01*
X-11288721Y-98764493D01*
X-11278304Y-98769918D01*
X-11267887Y-98775754D01*
X-11257465Y-98781984D01*
X-11247031Y-98788590D01*
X-11236580Y-98795552D01*
X-11226107Y-98802854D01*
X-11133783Y-98679511D01*
X-11146108Y-98670335D01*
X-11158996Y-98661260D01*
X-11172450Y-98652355D01*
X-11186471Y-98643687D01*
X-11201061Y-98635325D01*
X-11216223Y-98627334D01*
X-11231959Y-98619784D01*
X-11248272Y-98612741D01*
X-11265162Y-98606274D01*
X-11282633Y-98600449D01*
X-11300686Y-98595335D01*
X-11319323Y-98591000D01*
X-11338548Y-98587510D01*
X-11348381Y-98586103D01*
X-11358361Y-98584933D01*
X-11368489Y-98584009D01*
X-11378766Y-98583338D01*
X-11389190Y-98582929D01*
X-11399763Y-98582791D01*
X-11416354Y-98583081D01*
X-11432553Y-98583944D01*
X-11448350Y-98585368D01*
X-11463737Y-98587343D01*
X-11478706Y-98589857D01*
X-11493247Y-98592898D01*
X-11507351Y-98596457D01*
X-11521011Y-98600521D01*
X-11534216Y-98605080D01*
X-11546959Y-98610122D01*
X-11559229Y-98615636D01*
X-11571020Y-98621611D01*
X-11582321Y-98628036D01*
X-11593124Y-98634899D01*
X-11603420Y-98642190D01*
X-11613201Y-98649897D01*
X-11622457Y-98658008D01*
X-11631180Y-98666514D01*
X-11639360Y-98675402D01*
X-11646990Y-98684662D01*
X-11654060Y-98694282D01*
X-11660561Y-98704251D01*
X-11666485Y-98714558D01*
X-11671823Y-98725192D01*
X-11676566Y-98736141D01*
X-11680705Y-98747395D01*
X-11684231Y-98758942D01*
X-11687136Y-98770771D01*
X-11689411Y-98782871D01*
X-11691047Y-98795230D01*
X-11692035Y-98807838D01*
X-11692366Y-98820683D01*
X-11692046Y-98832570D01*
X-11691099Y-98844054D01*
X-11689549Y-98855145D01*
X-11687418Y-98865852D01*
X-11684727Y-98876184D01*
X-11681500Y-98886149D01*
X-11677759Y-98895757D01*
X-11673525Y-98905016D01*
X-11668822Y-98913935D01*
X-11663671Y-98922523D01*
X-11658095Y-98930789D01*
X-11652116Y-98938741D01*
X-11645757Y-98946389D01*
X-11639039Y-98953742D01*
X-11631986Y-98960808D01*
X-11624619Y-98967595D01*
X-11616961Y-98974114D01*
X-11609034Y-98980373D01*
X-11600861Y-98986380D01*
X-11592463Y-98992145D01*
X-11583863Y-98997676D01*
X-11575083Y-99002982D01*
X-11566147Y-99008073D01*
X-11557075Y-99012956D01*
X-11547890Y-99017641D01*
X-11538615Y-99022137D01*
X-11529272Y-99026452D01*
X-11519883Y-99030596D01*
X-11510471Y-99034577D01*
X-11501058Y-99038404D01*
X-11491666Y-99042085D01*
X-11482317Y-99045631D01*
X-11466872Y-99051485D01*
X-11451573Y-99057266D01*
X-11436538Y-99063030D01*
X-11421882Y-99068830D01*
X-11407725Y-99074720D01*
X-11394184Y-99080755D01*
X-11381375Y-99086987D01*
X-11369416Y-99093472D01*
X-11358425Y-99100263D01*
X-11348518Y-99107414D01*
X-11339814Y-99114980D01*
X-11332429Y-99123014D01*
X-11326480Y-99131570D01*
X-11322086Y-99140703D01*
X-11319364Y-99150466D01*
X-11318430Y-99160914D01*
X-11319364Y-99173970D01*
X-11322193Y-99186151D01*
X-11326956Y-99197368D01*
X-11333693Y-99207531D01*
X-11342445Y-99216551D01*
X-11353250Y-99224338D01*
X-11366149Y-99230804D01*
X-11375931Y-99234336D01*
X-11386674Y-99237214D01*
X-11398388Y-99239412D01*
X-11411086Y-99240904D01*
X-11424780Y-99241662D01*
X-11432003Y-99241758D01*
X-11445587Y-99241405D01*
X-11459050Y-99240352D01*
X-11472407Y-99238610D01*
X-11485668Y-99236190D01*
X-11498846Y-99233101D01*
X-11511954Y-99229355D01*
X-11525002Y-99224960D01*
X-11538005Y-99219929D01*
X-11550973Y-99214271D01*
X-11563918Y-99207996D01*
X-11576854Y-99201115D01*
X-11589792Y-99193638D01*
X-11602744Y-99185577D01*
X-11615723Y-99176940D01*
X-11628740Y-99167738D01*
X-11641808Y-99157983D01*
X-11735597Y-99285233D01*
X-11720482Y-99297059D01*
X-11704581Y-99308420D01*
X-11696357Y-99313913D01*
X-11687962Y-99319275D01*
X-11679405Y-99324499D01*
X-11670693Y-99329582D01*
X-11661836Y-99334518D01*
X-11652842Y-99339302D01*
X-11643719Y-99343929D01*
X-11634476Y-99348392D01*
X-11625121Y-99352689D01*
X-11615663Y-99356812D01*
X-11606110Y-99360758D01*
X-11596470Y-99364521D01*
X-11586753Y-99368095D01*
X-11576966Y-99371476D01*
X-11567117Y-99374659D01*
X-11557216Y-99377638D01*
X-11547271Y-99380408D01*
X-11537291Y-99382964D01*
X-11527282Y-99385301D01*
X-11517255Y-99387415D01*
X-11507218Y-99389298D01*
X-11497179Y-99390948D01*
X-11487146Y-99392357D01*
X-11477129Y-99393522D01*
X-11467134Y-99394437D01*
X-11457172Y-99395097D01*
X-11447250Y-99395497D01*
X-11437377Y-99395631D01*
G37*
G36*
X-10968919Y-99380000D02*
G01*
X-10763022Y-99380000D01*
X-10763022Y-98598422D01*
X-10968919Y-98598422D01*
X-10968919Y-99380000D01*
G37*
G36*
X-10865116Y-98473370D02*
G01*
X-10852268Y-98472851D01*
X-10839949Y-98471315D01*
X-10828199Y-98468793D01*
X-10817061Y-98465314D01*
X-10806575Y-98460909D01*
X-10796783Y-98455609D01*
X-10787727Y-98449443D01*
X-10779447Y-98442443D01*
X-10771987Y-98434638D01*
X-10765386Y-98426060D01*
X-10759687Y-98416738D01*
X-10754932Y-98406703D01*
X-10751160Y-98395986D01*
X-10748415Y-98384616D01*
X-10746738Y-98372624D01*
X-10746169Y-98360041D01*
X-10746738Y-98347716D01*
X-10748415Y-98335951D01*
X-10751160Y-98324776D01*
X-10754932Y-98314227D01*
X-10759687Y-98304334D01*
X-10765386Y-98295130D01*
X-10771987Y-98286649D01*
X-10779447Y-98278922D01*
X-10787727Y-98271982D01*
X-10796783Y-98265862D01*
X-10806575Y-98260595D01*
X-10817061Y-98256211D01*
X-10828199Y-98252746D01*
X-10839949Y-98250230D01*
X-10852268Y-98248697D01*
X-10865116Y-98248178D01*
X-10878261Y-98248697D01*
X-10890836Y-98250230D01*
X-10902802Y-98252746D01*
X-10914121Y-98256211D01*
X-10924754Y-98260595D01*
X-10934663Y-98265862D01*
X-10943811Y-98271982D01*
X-10952158Y-98278922D01*
X-10959666Y-98286649D01*
X-10966298Y-98295130D01*
X-10972014Y-98304334D01*
X-10976777Y-98314227D01*
X-10980548Y-98324776D01*
X-10983289Y-98335951D01*
X-10984961Y-98347716D01*
X-10985527Y-98360041D01*
X-10984961Y-98372624D01*
X-10983289Y-98384616D01*
X-10980548Y-98395986D01*
X-10976777Y-98406703D01*
X-10972014Y-98416738D01*
X-10966298Y-98426060D01*
X-10959666Y-98434638D01*
X-10952158Y-98442443D01*
X-10943811Y-98449443D01*
X-10934663Y-98455609D01*
X-10924754Y-98460909D01*
X-10914121Y-98465314D01*
X-10902802Y-98468793D01*
X-10890836Y-98471315D01*
X-10878261Y-98472851D01*
X-10865116Y-98473370D01*
G37*
G36*
X-10197848Y-98583233D02*
G01*
X-10179652Y-98584554D01*
X-10161606Y-98586744D01*
X-10143740Y-98589796D01*
X-10126083Y-98593700D01*
X-10108667Y-98598448D01*
X-10091522Y-98604031D01*
X-10074677Y-98610440D01*
X-10058164Y-98617666D01*
X-10042012Y-98625702D01*
X-10026253Y-98634537D01*
X-10010915Y-98644164D01*
X-9996031Y-98654573D01*
X-9981629Y-98665757D01*
X-9967740Y-98677705D01*
X-9954395Y-98690410D01*
X-9941624Y-98703863D01*
X-9929457Y-98718055D01*
X-9917924Y-98732977D01*
X-9907057Y-98748621D01*
X-9896884Y-98764977D01*
X-9887437Y-98782038D01*
X-9878746Y-98799794D01*
X-9870841Y-98818237D01*
X-9863753Y-98837358D01*
X-9857511Y-98857148D01*
X-9852146Y-98877599D01*
X-9847689Y-98898701D01*
X-9844169Y-98920447D01*
X-9841618Y-98942827D01*
X-9840064Y-98965833D01*
X-9839540Y-98989455D01*
X-9840064Y-99013055D01*
X-9841618Y-99036038D01*
X-9844169Y-99058395D01*
X-9847689Y-99080118D01*
X-9852146Y-99101198D01*
X-9857511Y-99121626D01*
X-9863753Y-99141395D01*
X-9870841Y-99160494D01*
X-9878746Y-99178915D01*
X-9887437Y-99196651D01*
X-9896884Y-99213691D01*
X-9907057Y-99230028D01*
X-9917924Y-99245652D01*
X-9929457Y-99260555D01*
X-9941624Y-99274729D01*
X-9954395Y-99288164D01*
X-9967740Y-99300852D01*
X-9981629Y-99312785D01*
X-9996031Y-99323953D01*
X-10010915Y-99334348D01*
X-10026253Y-99343961D01*
X-10042012Y-99352784D01*
X-10058164Y-99360808D01*
X-10074677Y-99368024D01*
X-10091522Y-99374424D01*
X-10108667Y-99379998D01*
X-10126083Y-99384739D01*
X-10143740Y-99388637D01*
X-10161606Y-99391684D01*
X-10179652Y-99393871D01*
X-10197848Y-99395190D01*
X-10216162Y-99395631D01*
X-10234498Y-99395190D01*
X-10252713Y-99393871D01*
X-10270775Y-99391684D01*
X-10288655Y-99388637D01*
X-10306323Y-99384739D01*
X-10323748Y-99379998D01*
X-10340901Y-99374424D01*
X-10357751Y-99368024D01*
X-10374267Y-99360808D01*
X-10390421Y-99352784D01*
X-10406181Y-99343961D01*
X-10421517Y-99334348D01*
X-10436399Y-99323953D01*
X-10450797Y-99312785D01*
X-10464682Y-99300852D01*
X-10478021Y-99288164D01*
X-10490786Y-99274729D01*
X-10502947Y-99260555D01*
X-10514472Y-99245652D01*
X-10525332Y-99230028D01*
X-10535497Y-99213691D01*
X-10544937Y-99196651D01*
X-10553620Y-99178915D01*
X-10561518Y-99160494D01*
X-10568600Y-99141395D01*
X-10574835Y-99121626D01*
X-10580194Y-99101198D01*
X-10584646Y-99080118D01*
X-10588162Y-99058395D01*
X-10590710Y-99036038D01*
X-10592261Y-99013055D01*
X-10592785Y-98989455D01*
X-10382736Y-98989455D01*
X-10382560Y-99002903D01*
X-10382035Y-99016041D01*
X-10381163Y-99028860D01*
X-10379946Y-99041352D01*
X-10378388Y-99053511D01*
X-10376489Y-99065328D01*
X-10374254Y-99076796D01*
X-10371684Y-99087908D01*
X-10368782Y-99098655D01*
X-10365551Y-99109031D01*
X-10361992Y-99119027D01*
X-10358109Y-99128636D01*
X-10353905Y-99137851D01*
X-10344539Y-99155066D01*
X-10333915Y-99170611D01*
X-10322053Y-99184425D01*
X-10308974Y-99196448D01*
X-10294697Y-99206619D01*
X-10279241Y-99214877D01*
X-10262628Y-99221161D01*
X-10244878Y-99225410D01*
X-10226009Y-99227564D01*
X-10216162Y-99227836D01*
X-10196783Y-99226753D01*
X-10178501Y-99223544D01*
X-10161337Y-99218270D01*
X-10145313Y-99210991D01*
X-10130449Y-99201769D01*
X-10116767Y-99190665D01*
X-10104289Y-99177738D01*
X-10093033Y-99163051D01*
X-10083024Y-99146663D01*
X-10078492Y-99137851D01*
X-10074280Y-99128636D01*
X-10070389Y-99119027D01*
X-10066823Y-99109031D01*
X-10063584Y-99098655D01*
X-10060675Y-99087908D01*
X-10058098Y-99076796D01*
X-10055857Y-99065328D01*
X-10053952Y-99053511D01*
X-10052389Y-99041352D01*
X-10051168Y-99028860D01*
X-10050292Y-99016041D01*
X-10049765Y-99002903D01*
X-10049589Y-98989455D01*
X-10049765Y-98976114D01*
X-10050292Y-98963068D01*
X-10051168Y-98950327D01*
X-10052389Y-98937898D01*
X-10053952Y-98925791D01*
X-10055857Y-98914013D01*
X-10058098Y-98902573D01*
X-10060675Y-98891479D01*
X-10063584Y-98880740D01*
X-10066823Y-98870364D01*
X-10070389Y-98860359D01*
X-10074280Y-98850733D01*
X-10078492Y-98841496D01*
X-10087872Y-98824219D01*
X-10098507Y-98808594D01*
X-10110376Y-98794688D01*
X-10123459Y-98782569D01*
X-10137735Y-98772302D01*
X-10153181Y-98763956D01*
X-10169778Y-98757597D01*
X-10187503Y-98753291D01*
X-10206337Y-98751106D01*
X-10216162Y-98750830D01*
X-10235582Y-98751929D01*
X-10253894Y-98755183D01*
X-10271078Y-98760524D01*
X-10287115Y-98767885D01*
X-10301984Y-98777200D01*
X-10315665Y-98788401D01*
X-10328138Y-98801422D01*
X-10339383Y-98816195D01*
X-10349380Y-98832655D01*
X-10353905Y-98841496D01*
X-10358109Y-98850733D01*
X-10361992Y-98860359D01*
X-10365551Y-98870364D01*
X-10368782Y-98880740D01*
X-10371684Y-98891479D01*
X-10374254Y-98902573D01*
X-10376489Y-98914013D01*
X-10378388Y-98925791D01*
X-10379946Y-98937898D01*
X-10381163Y-98950327D01*
X-10382035Y-98963068D01*
X-10382560Y-98976114D01*
X-10382736Y-98989455D01*
X-10592785Y-98989455D01*
X-10592261Y-98965833D01*
X-10590710Y-98942827D01*
X-10588162Y-98920447D01*
X-10584646Y-98898701D01*
X-10580194Y-98877599D01*
X-10574835Y-98857148D01*
X-10568600Y-98837358D01*
X-10561518Y-98818237D01*
X-10553620Y-98799794D01*
X-10544937Y-98782038D01*
X-10535497Y-98764977D01*
X-10525332Y-98748621D01*
X-10514472Y-98732977D01*
X-10502947Y-98718055D01*
X-10490786Y-98703863D01*
X-10478021Y-98690410D01*
X-10464682Y-98677705D01*
X-10450797Y-98665757D01*
X-10436399Y-98654573D01*
X-10421517Y-98644164D01*
X-10406181Y-98634537D01*
X-10390421Y-98625702D01*
X-10374267Y-98617666D01*
X-10357751Y-98610440D01*
X-10340901Y-98604031D01*
X-10323748Y-98598448D01*
X-10306323Y-98593700D01*
X-10288655Y-98589796D01*
X-10270775Y-98586744D01*
X-10252713Y-98584554D01*
X-10234498Y-98583233D01*
X-10216162Y-98582791D01*
X-10197848Y-98583233D01*
G37*
G36*
X-9667593Y-99380000D02*
G01*
X-9461696Y-99380000D01*
X-9461696Y-98846573D01*
X-9451122Y-98836216D01*
X-9440883Y-98826487D01*
X-9430919Y-98817394D01*
X-9421171Y-98808941D01*
X-9411579Y-98801133D01*
X-9402083Y-98793976D01*
X-9392624Y-98787475D01*
X-9383142Y-98781635D01*
X-9373576Y-98776462D01*
X-9363868Y-98771962D01*
X-9353957Y-98768140D01*
X-9343784Y-98765000D01*
X-9333289Y-98762549D01*
X-9322412Y-98760791D01*
X-9311094Y-98759732D01*
X-9299275Y-98759378D01*
X-9285353Y-98759874D01*
X-9272431Y-98761398D01*
X-9260495Y-98764004D01*
X-9249529Y-98767748D01*
X-9239521Y-98772683D01*
X-9230457Y-98778866D01*
X-9222322Y-98786350D01*
X-9215103Y-98795191D01*
X-9208785Y-98805442D01*
X-9203355Y-98817160D01*
X-9198798Y-98830397D01*
X-9195101Y-98845211D01*
X-9192250Y-98861654D01*
X-9190231Y-98879782D01*
X-9189030Y-98899650D01*
X-9188732Y-98910253D01*
X-9188633Y-98921311D01*
X-9188633Y-99380000D01*
X-8982736Y-99380000D01*
X-8982736Y-98896399D01*
X-8982951Y-98878265D01*
X-8983597Y-98860596D01*
X-8984681Y-98843400D01*
X-8986205Y-98826684D01*
X-8988173Y-98810454D01*
X-8990591Y-98794719D01*
X-8993462Y-98779485D01*
X-8996791Y-98764759D01*
X-9000582Y-98750550D01*
X-9004839Y-98736864D01*
X-9009567Y-98723708D01*
X-9014769Y-98711090D01*
X-9020449Y-98699017D01*
X-9026613Y-98687496D01*
X-9033265Y-98676534D01*
X-9040408Y-98666139D01*
X-9048047Y-98656317D01*
X-9056186Y-98647077D01*
X-9064829Y-98638426D01*
X-9073981Y-98630370D01*
X-9083646Y-98622916D01*
X-9093828Y-98616073D01*
X-9104532Y-98609847D01*
X-9115761Y-98604246D01*
X-9127519Y-98599277D01*
X-9139812Y-98594946D01*
X-9152644Y-98591262D01*
X-9166018Y-98588232D01*
X-9179939Y-98585862D01*
X-9194411Y-98584161D01*
X-9209438Y-98583135D01*
X-9225025Y-98582791D01*
X-9234931Y-98582954D01*
X-9254286Y-98584235D01*
X-9273050Y-98586733D01*
X-9291246Y-98590382D01*
X-9308895Y-98595116D01*
X-9326020Y-98600869D01*
X-9342644Y-98607575D01*
X-9358787Y-98615167D01*
X-9374473Y-98623579D01*
X-9389723Y-98632745D01*
X-9404561Y-98642599D01*
X-9419007Y-98653075D01*
X-9433084Y-98664106D01*
X-9446815Y-98675626D01*
X-9460221Y-98687570D01*
X-9473325Y-98699870D01*
X-9479770Y-98706133D01*
X-9484167Y-98706133D01*
X-9499554Y-98598422D01*
X-9667593Y-98598422D01*
X-9667593Y-99380000D01*
G37*
G36*
X-8130880Y-98348842D02*
G01*
X-8111612Y-98350414D01*
X-8092810Y-98353029D01*
X-8074483Y-98356684D01*
X-8056644Y-98361375D01*
X-8039304Y-98367100D01*
X-8022474Y-98373854D01*
X-8006165Y-98381634D01*
X-7990389Y-98390437D01*
X-7975158Y-98400258D01*
X-7960481Y-98411095D01*
X-7946371Y-98422944D01*
X-7932839Y-98435802D01*
X-7919897Y-98449665D01*
X-7907555Y-98464529D01*
X-7895825Y-98480392D01*
X-7884718Y-98497249D01*
X-7874246Y-98515098D01*
X-7864420Y-98533933D01*
X-7855250Y-98553754D01*
X-7846750Y-98574554D01*
X-7838929Y-98596332D01*
X-7831799Y-98619084D01*
X-7825372Y-98642806D01*
X-7819659Y-98667494D01*
X-7814670Y-98693146D01*
X-7810418Y-98719758D01*
X-7806914Y-98747326D01*
X-7804169Y-98775846D01*
X-7802194Y-98805316D01*
X-7801001Y-98835732D01*
X-7800601Y-98867090D01*
X-7801001Y-98898733D01*
X-7802194Y-98929456D01*
X-7804169Y-98959251D01*
X-7806914Y-98988115D01*
X-7810418Y-99016040D01*
X-7814670Y-99043023D01*
X-7819659Y-99069056D01*
X-7825372Y-99094136D01*
X-7831799Y-99118256D01*
X-7838929Y-99141411D01*
X-7846750Y-99163596D01*
X-7855250Y-99184805D01*
X-7864420Y-99205032D01*
X-7874246Y-99224272D01*
X-7884718Y-99242521D01*
X-7895825Y-99259771D01*
X-7907555Y-99276018D01*
X-7919897Y-99291257D01*
X-7932839Y-99305481D01*
X-7946371Y-99318686D01*
X-7960481Y-99330866D01*
X-7975158Y-99342015D01*
X-7990389Y-99352128D01*
X-8006165Y-99361200D01*
X-8022474Y-99369226D01*
X-8039304Y-99376198D01*
X-8056644Y-99382113D01*
X-8074483Y-99386965D01*
X-8092810Y-99390748D01*
X-8111612Y-99393457D01*
X-8130880Y-99395087D01*
X-8150601Y-99395631D01*
X-8170347Y-99395087D01*
X-8189646Y-99393457D01*
X-8208484Y-99390748D01*
X-8226851Y-99386965D01*
X-8244735Y-99382113D01*
X-8262123Y-99376198D01*
X-8279005Y-99369226D01*
X-8295368Y-99361200D01*
X-8311201Y-99352128D01*
X-8326492Y-99342015D01*
X-8341229Y-99330866D01*
X-8355401Y-99318686D01*
X-8368996Y-99305481D01*
X-8382002Y-99291257D01*
X-8394408Y-99276018D01*
X-8406201Y-99259771D01*
X-8417370Y-99242521D01*
X-8427904Y-99224272D01*
X-8437790Y-99205032D01*
X-8447017Y-99184805D01*
X-8455573Y-99163596D01*
X-8463447Y-99141411D01*
X-8470626Y-99118256D01*
X-8477100Y-99094136D01*
X-8482856Y-99069056D01*
X-8487882Y-99043023D01*
X-8492167Y-99016040D01*
X-8495700Y-98988115D01*
X-8498467Y-98959251D01*
X-8500459Y-98929456D01*
X-8501662Y-98898733D01*
X-8502066Y-98867090D01*
X-8307405Y-98867090D01*
X-8307209Y-98892878D01*
X-8306628Y-98917545D01*
X-8305670Y-98941112D01*
X-8304343Y-98963597D01*
X-8302656Y-98985021D01*
X-8300615Y-99005404D01*
X-8298230Y-99024765D01*
X-8295509Y-99043124D01*
X-8292460Y-99060501D01*
X-8289091Y-99076915D01*
X-8285410Y-99092387D01*
X-8281426Y-99106936D01*
X-8277146Y-99120583D01*
X-8272579Y-99133346D01*
X-8267733Y-99145247D01*
X-8262617Y-99156304D01*
X-8257237Y-99166537D01*
X-8251604Y-99175966D01*
X-8245724Y-99184612D01*
X-8239606Y-99192493D01*
X-8226688Y-99206042D01*
X-8212917Y-99216773D01*
X-8198357Y-99224843D01*
X-8183074Y-99230411D01*
X-8167133Y-99233635D01*
X-8150601Y-99234675D01*
X-8134125Y-99233635D01*
X-8118260Y-99230411D01*
X-8103070Y-99224843D01*
X-8088616Y-99216773D01*
X-8074961Y-99206042D01*
X-8062167Y-99192493D01*
X-8056112Y-99184612D01*
X-8050295Y-99175966D01*
X-8044725Y-99166537D01*
X-8039409Y-99156304D01*
X-8034355Y-99145247D01*
X-8029571Y-99133346D01*
X-8025064Y-99120583D01*
X-8020842Y-99106936D01*
X-8016913Y-99092387D01*
X-8013285Y-99076915D01*
X-8009966Y-99060501D01*
X-8006963Y-99043124D01*
X-8004284Y-99024765D01*
X-8001937Y-99005404D01*
X-7999930Y-98985021D01*
X-7998270Y-98963597D01*
X-7996966Y-98941112D01*
X-7996025Y-98917545D01*
X-7995454Y-98892878D01*
X-7995262Y-98867090D01*
X-7995454Y-98841480D01*
X-7996025Y-98817028D01*
X-7996966Y-98793710D01*
X-7998270Y-98771503D01*
X-7999930Y-98750385D01*
X-8001937Y-98730334D01*
X-8004284Y-98711327D01*
X-8006963Y-98693341D01*
X-8009966Y-98676355D01*
X-8013285Y-98660344D01*
X-8016913Y-98645288D01*
X-8020842Y-98631162D01*
X-8025064Y-98617946D01*
X-8029571Y-98605616D01*
X-8034355Y-98594149D01*
X-8039409Y-98583524D01*
X-8044725Y-98573717D01*
X-8050295Y-98564706D01*
X-8062167Y-98548982D01*
X-8074961Y-98536172D01*
X-8088616Y-98526096D01*
X-8103070Y-98518573D01*
X-8118260Y-98513422D01*
X-8134125Y-98510464D01*
X-8150601Y-98509518D01*
X-8158937Y-98509751D01*
X-8175182Y-98511680D01*
X-8190802Y-98515712D01*
X-8205731Y-98522026D01*
X-8219905Y-98530804D01*
X-8233258Y-98542224D01*
X-8245724Y-98556469D01*
X-8251604Y-98564706D01*
X-8257237Y-98573717D01*
X-8262617Y-98583524D01*
X-8267733Y-98594149D01*
X-8272579Y-98605616D01*
X-8277146Y-98617946D01*
X-8281426Y-98631162D01*
X-8285410Y-98645288D01*
X-8289091Y-98660344D01*
X-8292460Y-98676355D01*
X-8295509Y-98693341D01*
X-8298230Y-98711327D01*
X-8300615Y-98730334D01*
X-8302656Y-98750385D01*
X-8304343Y-98771503D01*
X-8305670Y-98793710D01*
X-8306628Y-98817028D01*
X-8307209Y-98841480D01*
X-8307405Y-98867090D01*
X-8502066Y-98867090D01*
X-8501662Y-98835603D01*
X-8500459Y-98805074D01*
X-8498467Y-98775508D01*
X-8495700Y-98746905D01*
X-8492167Y-98719269D01*
X-8487882Y-98692602D01*
X-8482856Y-98666907D01*
X-8477100Y-98642188D01*
X-8470626Y-98618445D01*
X-8463447Y-98595683D01*
X-8455573Y-98573904D01*
X-8447017Y-98553110D01*
X-8437790Y-98533304D01*
X-8427904Y-98514489D01*
X-8417370Y-98496668D01*
X-8406201Y-98479842D01*
X-8394408Y-98464016D01*
X-8382002Y-98449192D01*
X-8368996Y-98435371D01*
X-8355401Y-98422558D01*
X-8341229Y-98410754D01*
X-8326492Y-98399963D01*
X-8311201Y-98390187D01*
X-8295368Y-98381428D01*
X-8279005Y-98373690D01*
X-8262123Y-98366974D01*
X-8244735Y-98361285D01*
X-8226851Y-98356624D01*
X-8208484Y-98352994D01*
X-8189646Y-98350398D01*
X-8170347Y-98348838D01*
X-8150601Y-98348318D01*
X-8130880Y-98348842D01*
G37*
G36*
X-7512394Y-99395631D02*
G01*
X-7498710Y-99394954D01*
X-7485535Y-99392964D01*
X-7472921Y-99389722D01*
X-7460920Y-99385289D01*
X-7449583Y-99379725D01*
X-7438961Y-99373091D01*
X-7429106Y-99365448D01*
X-7420070Y-99356857D01*
X-7411904Y-99347379D01*
X-7404660Y-99337075D01*
X-7398389Y-99326005D01*
X-7393143Y-99314229D01*
X-7388972Y-99301810D01*
X-7385930Y-99288808D01*
X-7384066Y-99275284D01*
X-7383434Y-99261297D01*
X-7384066Y-99247110D01*
X-7385930Y-99233436D01*
X-7388972Y-99220331D01*
X-7393143Y-99207850D01*
X-7398389Y-99196049D01*
X-7404660Y-99184984D01*
X-7411904Y-99174708D01*
X-7420070Y-99165280D01*
X-7429106Y-99156752D01*
X-7438961Y-99149182D01*
X-7449583Y-99142624D01*
X-7460920Y-99137134D01*
X-7472921Y-99132768D01*
X-7485535Y-99129580D01*
X-7498710Y-99127627D01*
X-7512394Y-99126964D01*
X-7525818Y-99127627D01*
X-7538759Y-99129580D01*
X-7551165Y-99132768D01*
X-7562983Y-99137134D01*
X-7574160Y-99142624D01*
X-7584642Y-99149182D01*
X-7594378Y-99156752D01*
X-7603313Y-99165280D01*
X-7611396Y-99174708D01*
X-7618573Y-99184984D01*
X-7624791Y-99196049D01*
X-7629997Y-99207850D01*
X-7634138Y-99220331D01*
X-7637162Y-99233436D01*
X-7639015Y-99247110D01*
X-7639645Y-99261297D01*
X-7639015Y-99275284D01*
X-7637162Y-99288808D01*
X-7634138Y-99301810D01*
X-7629997Y-99314229D01*
X-7624791Y-99326005D01*
X-7618573Y-99337075D01*
X-7611396Y-99347379D01*
X-7603313Y-99356857D01*
X-7594378Y-99365448D01*
X-7584642Y-99373091D01*
X-7574160Y-99379725D01*
X-7562983Y-99385289D01*
X-7551165Y-99389722D01*
X-7538759Y-99392964D01*
X-7525818Y-99394954D01*
X-7512394Y-99395631D01*
G37*
G36*
X-6852024Y-98348842D02*
G01*
X-6832757Y-98350414D01*
X-6813954Y-98353029D01*
X-6795628Y-98356684D01*
X-6777789Y-98361375D01*
X-6760449Y-98367100D01*
X-6743618Y-98373854D01*
X-6727310Y-98381634D01*
X-6711534Y-98390437D01*
X-6696302Y-98400258D01*
X-6681625Y-98411095D01*
X-6667516Y-98422944D01*
X-6653984Y-98435802D01*
X-6641041Y-98449665D01*
X-6628699Y-98464529D01*
X-6616969Y-98480392D01*
X-6605863Y-98497249D01*
X-6595390Y-98515098D01*
X-6585564Y-98533933D01*
X-6576395Y-98553754D01*
X-6567894Y-98574554D01*
X-6560074Y-98596332D01*
X-6552944Y-98619084D01*
X-6546517Y-98642806D01*
X-6540803Y-98667494D01*
X-6535815Y-98693146D01*
X-6531563Y-98719758D01*
X-6528059Y-98747326D01*
X-6525313Y-98775846D01*
X-6523339Y-98805316D01*
X-6522145Y-98835732D01*
X-6521745Y-98867090D01*
X-6522145Y-98898733D01*
X-6523339Y-98929456D01*
X-6525313Y-98959251D01*
X-6528059Y-98988115D01*
X-6531563Y-99016040D01*
X-6535815Y-99043023D01*
X-6540803Y-99069056D01*
X-6546517Y-99094136D01*
X-6552944Y-99118256D01*
X-6560074Y-99141411D01*
X-6567894Y-99163596D01*
X-6576395Y-99184805D01*
X-6585564Y-99205032D01*
X-6595390Y-99224272D01*
X-6605863Y-99242521D01*
X-6616969Y-99259771D01*
X-6628699Y-99276018D01*
X-6641041Y-99291257D01*
X-6653984Y-99305481D01*
X-6667516Y-99318686D01*
X-6681625Y-99330866D01*
X-6696302Y-99342015D01*
X-6711534Y-99352128D01*
X-6727310Y-99361200D01*
X-6743618Y-99369226D01*
X-6760449Y-99376198D01*
X-6777789Y-99382113D01*
X-6795628Y-99386965D01*
X-6813954Y-99390748D01*
X-6832757Y-99393457D01*
X-6852024Y-99395087D01*
X-6871745Y-99395631D01*
X-6891492Y-99395087D01*
X-6910790Y-99393457D01*
X-6929629Y-99390748D01*
X-6947996Y-99386965D01*
X-6965879Y-99382113D01*
X-6983268Y-99376198D01*
X-7000149Y-99369226D01*
X-7016512Y-99361200D01*
X-7032345Y-99352128D01*
X-7047636Y-99342015D01*
X-7062374Y-99330866D01*
X-7076546Y-99318686D01*
X-7090140Y-99305481D01*
X-7103146Y-99291257D01*
X-7115552Y-99276018D01*
X-7127345Y-99259771D01*
X-7138515Y-99242521D01*
X-7149048Y-99224272D01*
X-7158934Y-99205032D01*
X-7168161Y-99184805D01*
X-7176718Y-99163596D01*
X-7184591Y-99141411D01*
X-7191771Y-99118256D01*
X-7198244Y-99094136D01*
X-7204000Y-99069056D01*
X-7209026Y-99043023D01*
X-7213312Y-99016040D01*
X-7216844Y-98988115D01*
X-7219612Y-98959251D01*
X-7221603Y-98929456D01*
X-7222807Y-98898733D01*
X-7223211Y-98867090D01*
X-7028549Y-98867090D01*
X-7028354Y-98892878D01*
X-7027773Y-98917545D01*
X-7026815Y-98941112D01*
X-7025488Y-98963597D01*
X-7023800Y-98985021D01*
X-7021760Y-99005404D01*
X-7019375Y-99024765D01*
X-7016654Y-99043124D01*
X-7013604Y-99060501D01*
X-7010235Y-99076915D01*
X-7006554Y-99092387D01*
X-7002570Y-99106936D01*
X-6998290Y-99120583D01*
X-6993723Y-99133346D01*
X-6988878Y-99145247D01*
X-6983761Y-99156304D01*
X-6978382Y-99166537D01*
X-6972748Y-99175966D01*
X-6966868Y-99184612D01*
X-6960750Y-99192493D01*
X-6947833Y-99206042D01*
X-6934061Y-99216773D01*
X-6919501Y-99224843D01*
X-6904218Y-99230411D01*
X-6888278Y-99233635D01*
X-6871745Y-99234675D01*
X-6855269Y-99233635D01*
X-6839405Y-99230411D01*
X-6824215Y-99224843D01*
X-6809761Y-99216773D01*
X-6796106Y-99206042D01*
X-6783311Y-99192493D01*
X-6777256Y-99184612D01*
X-6771440Y-99175966D01*
X-6765870Y-99166537D01*
X-6760554Y-99156304D01*
X-6755499Y-99145247D01*
X-6750715Y-99133346D01*
X-6746208Y-99120583D01*
X-6741986Y-99106936D01*
X-6738058Y-99092387D01*
X-6734430Y-99076915D01*
X-6731110Y-99060501D01*
X-6728107Y-99043124D01*
X-6725429Y-99024765D01*
X-6723082Y-99005404D01*
X-6721075Y-98985021D01*
X-6719415Y-98963597D01*
X-6718110Y-98941112D01*
X-6717169Y-98917545D01*
X-6716599Y-98892878D01*
X-6716407Y-98867090D01*
X-6716599Y-98841480D01*
X-6717169Y-98817028D01*
X-6718110Y-98793710D01*
X-6719415Y-98771503D01*
X-6721075Y-98750385D01*
X-6723082Y-98730334D01*
X-6725429Y-98711327D01*
X-6728107Y-98693341D01*
X-6731110Y-98676355D01*
X-6734430Y-98660344D01*
X-6738058Y-98645288D01*
X-6741986Y-98631162D01*
X-6746208Y-98617946D01*
X-6750715Y-98605616D01*
X-6755499Y-98594149D01*
X-6760554Y-98583524D01*
X-6765870Y-98573717D01*
X-6771440Y-98564706D01*
X-6783311Y-98548982D01*
X-6796106Y-98536172D01*
X-6809761Y-98526096D01*
X-6824215Y-98518573D01*
X-6839405Y-98513422D01*
X-6855269Y-98510464D01*
X-6871745Y-98509518D01*
X-6880081Y-98509751D01*
X-6896326Y-98511680D01*
X-6911946Y-98515712D01*
X-6926876Y-98522026D01*
X-6941050Y-98530804D01*
X-6954402Y-98542224D01*
X-6966868Y-98556469D01*
X-6972748Y-98564706D01*
X-6978382Y-98573717D01*
X-6983761Y-98583524D01*
X-6988878Y-98594149D01*
X-6993723Y-98605616D01*
X-6998290Y-98617946D01*
X-7002570Y-98631162D01*
X-7006554Y-98645288D01*
X-7010235Y-98660344D01*
X-7013604Y-98676355D01*
X-7016654Y-98693341D01*
X-7019375Y-98711327D01*
X-7021760Y-98730334D01*
X-7023800Y-98750385D01*
X-7025488Y-98771503D01*
X-7026815Y-98793710D01*
X-7027773Y-98817028D01*
X-7028354Y-98841480D01*
X-7028549Y-98867090D01*
X-7223211Y-98867090D01*
X-7222807Y-98835603D01*
X-7221603Y-98805074D01*
X-7219612Y-98775508D01*
X-7216844Y-98746905D01*
X-7213312Y-98719269D01*
X-7209026Y-98692602D01*
X-7204000Y-98666907D01*
X-7198244Y-98642188D01*
X-7191771Y-98618445D01*
X-7184591Y-98595683D01*
X-7176718Y-98573904D01*
X-7168161Y-98553110D01*
X-7158934Y-98533304D01*
X-7149048Y-98514489D01*
X-7138515Y-98496668D01*
X-7127345Y-98479842D01*
X-7115552Y-98464016D01*
X-7103146Y-98449192D01*
X-7090140Y-98435371D01*
X-7076546Y-98422558D01*
X-7062374Y-98410754D01*
X-7047636Y-98399963D01*
X-7032345Y-98390187D01*
X-7016512Y-98381428D01*
X-7000149Y-98373690D01*
X-6983268Y-98366974D01*
X-6965879Y-98361285D01*
X-6947996Y-98356624D01*
X-6929629Y-98352994D01*
X-6910790Y-98350398D01*
X-6891492Y-98348838D01*
X-6871745Y-98348318D01*
X-6852024Y-98348842D01*
G37*
G36*
X-6233539Y-99395631D02*
G01*
X-6219854Y-99394954D01*
X-6206679Y-99392964D01*
X-6194066Y-99389722D01*
X-6182064Y-99385289D01*
X-6170727Y-99379725D01*
X-6160105Y-99373091D01*
X-6150251Y-99365448D01*
X-6141215Y-99356857D01*
X-6133049Y-99347379D01*
X-6125805Y-99337075D01*
X-6119533Y-99326005D01*
X-6114287Y-99314229D01*
X-6110117Y-99301810D01*
X-6107074Y-99288808D01*
X-6105211Y-99275284D01*
X-6104578Y-99261297D01*
X-6105211Y-99247110D01*
X-6107074Y-99233436D01*
X-6110117Y-99220331D01*
X-6114287Y-99207850D01*
X-6119533Y-99196049D01*
X-6125805Y-99184984D01*
X-6133049Y-99174708D01*
X-6141215Y-99165280D01*
X-6150251Y-99156752D01*
X-6160105Y-99149182D01*
X-6170727Y-99142624D01*
X-6182064Y-99137134D01*
X-6194066Y-99132768D01*
X-6206679Y-99129580D01*
X-6219854Y-99127627D01*
X-6233539Y-99126964D01*
X-6246962Y-99127627D01*
X-6259903Y-99129580D01*
X-6272309Y-99132768D01*
X-6284127Y-99137134D01*
X-6295304Y-99142624D01*
X-6305787Y-99149182D01*
X-6315522Y-99156752D01*
X-6324458Y-99165280D01*
X-6332541Y-99174708D01*
X-6339717Y-99184984D01*
X-6345935Y-99196049D01*
X-6351141Y-99207850D01*
X-6355283Y-99220331D01*
X-6358307Y-99233436D01*
X-6360160Y-99247110D01*
X-6360789Y-99261297D01*
X-6360160Y-99275284D01*
X-6358307Y-99288808D01*
X-6355283Y-99301810D01*
X-6351141Y-99314229D01*
X-6345935Y-99326005D01*
X-6339717Y-99337075D01*
X-6332541Y-99347379D01*
X-6324458Y-99356857D01*
X-6315522Y-99365448D01*
X-6305787Y-99373091D01*
X-6295304Y-99379725D01*
X-6284127Y-99385289D01*
X-6272309Y-99389722D01*
X-6259903Y-99392964D01*
X-6246962Y-99394954D01*
X-6233539Y-99395631D01*
G37*
G36*
X-5891110Y-99380000D02*
G01*
X-5268291Y-99380000D01*
X-5268291Y-99213426D01*
X-5462708Y-99213426D01*
X-5462708Y-98363949D01*
X-5615360Y-98363949D01*
X-5627794Y-98371433D01*
X-5640394Y-98378595D01*
X-5653198Y-98385445D01*
X-5666246Y-98391995D01*
X-5679578Y-98398254D01*
X-5693232Y-98404234D01*
X-5707249Y-98409943D01*
X-5721667Y-98415393D01*
X-5736525Y-98420594D01*
X-5751864Y-98425556D01*
X-5767722Y-98430290D01*
X-5784139Y-98434806D01*
X-5801155Y-98439115D01*
X-5818807Y-98443227D01*
X-5837137Y-98447151D01*
X-5856183Y-98450900D01*
X-5856183Y-98578394D01*
X-5668605Y-98578394D01*
X-5668605Y-99213426D01*
X-5891110Y-99213426D01*
X-5891110Y-99380000D01*
G37*
G36*
X-54431075Y-96386252D02*
G01*
X-54431414Y-96421121D01*
X-54432429Y-96455478D01*
X-54434121Y-96489322D01*
X-54436490Y-96522654D01*
X-54439537Y-96555474D01*
X-54443260Y-96587781D01*
X-54447660Y-96619576D01*
X-54452736Y-96650859D01*
X-54458490Y-96681629D01*
X-54464921Y-96711887D01*
X-54472029Y-96741633D01*
X-54479813Y-96770866D01*
X-54488275Y-96799587D01*
X-54497413Y-96827795D01*
X-54507228Y-96855492D01*
X-54528889Y-96909347D01*
X-54553258Y-96961154D01*
X-54580335Y-97010910D01*
X-54610119Y-97058618D01*
X-54642611Y-97104276D01*
X-54677811Y-97147885D01*
X-54715718Y-97189444D01*
X-54756333Y-97228954D01*
X-54777656Y-97247941D01*
X-54822169Y-97284142D01*
X-54869247Y-97318008D01*
X-54918889Y-97349538D01*
X-54944672Y-97364428D01*
X-54971096Y-97378733D01*
X-54998161Y-97392454D01*
X-55025868Y-97405592D01*
X-55054215Y-97418146D01*
X-55083204Y-97430116D01*
X-55112833Y-97441501D01*
X-55143104Y-97452303D01*
X-55174016Y-97462522D01*
X-55205569Y-97472156D01*
X-55237763Y-97481206D01*
X-55270599Y-97489673D01*
X-55304075Y-97497555D01*
X-55338193Y-97504854D01*
X-55372952Y-97511569D01*
X-55408352Y-97517699D01*
X-55444393Y-97523246D01*
X-55481075Y-97528210D01*
X-55518399Y-97532589D01*
X-55556363Y-97536384D01*
X-55594969Y-97539595D01*
X-55634215Y-97542223D01*
X-55674103Y-97544267D01*
X-55714632Y-97545726D01*
X-55755803Y-97546602D01*
X-55797614Y-97546894D01*
X-55839425Y-97546602D01*
X-55880593Y-97545726D01*
X-55921118Y-97544267D01*
X-55961001Y-97542223D01*
X-56000241Y-97539595D01*
X-56038839Y-97536384D01*
X-56076794Y-97532589D01*
X-56114107Y-97528210D01*
X-56150777Y-97523246D01*
X-56186804Y-97517699D01*
X-56222189Y-97511569D01*
X-56256932Y-97504854D01*
X-56291031Y-97497555D01*
X-56324489Y-97489673D01*
X-56357303Y-97481206D01*
X-56389475Y-97472156D01*
X-56421005Y-97462522D01*
X-56451892Y-97452303D01*
X-56482136Y-97441501D01*
X-56511738Y-97430116D01*
X-56540697Y-97418146D01*
X-56569014Y-97405592D01*
X-56596688Y-97392454D01*
X-56623720Y-97378733D01*
X-56650108Y-97364428D01*
X-56675855Y-97349538D01*
X-56700959Y-97334065D01*
X-56749239Y-97301367D01*
X-56794948Y-97266334D01*
X-56816839Y-97247941D01*
X-56858631Y-97209464D01*
X-56897726Y-97168955D01*
X-56934125Y-97126414D01*
X-56967827Y-97081840D01*
X-56998834Y-97035235D01*
X-57027144Y-96986597D01*
X-57052758Y-96935927D01*
X-57075676Y-96883225D01*
X-57095897Y-96828491D01*
X-57104997Y-96800362D01*
X-57113423Y-96771725D01*
X-57121174Y-96742579D01*
X-57128252Y-96712926D01*
X-57134655Y-96682765D01*
X-57140385Y-96652095D01*
X-57145440Y-96620918D01*
X-57149821Y-96589232D01*
X-57153529Y-96557039D01*
X-57156562Y-96524337D01*
X-57158921Y-96491127D01*
X-57160606Y-96457410D01*
X-57161617Y-96423184D01*
X-57161954Y-96388450D01*
X-57161954Y-94451849D01*
X-56366211Y-94451849D01*
X-56366211Y-96355478D01*
X-56365687Y-96394507D01*
X-56364116Y-96432277D01*
X-56361497Y-96468787D01*
X-56357831Y-96504038D01*
X-56353117Y-96538030D01*
X-56347355Y-96570762D01*
X-56340546Y-96602235D01*
X-56332689Y-96632449D01*
X-56323785Y-96661403D01*
X-56313833Y-96689098D01*
X-56296940Y-96728279D01*
X-56277691Y-96764626D01*
X-56256085Y-96798140D01*
X-56232122Y-96828820D01*
X-56205518Y-96856581D01*
X-56175991Y-96881611D01*
X-56143540Y-96903911D01*
X-56108165Y-96923480D01*
X-56069866Y-96940318D01*
X-56028644Y-96954426D01*
X-55999538Y-96962314D01*
X-55969132Y-96968989D01*
X-55937428Y-96974450D01*
X-55904423Y-96978697D01*
X-55870120Y-96981731D01*
X-55834517Y-96983552D01*
X-55797614Y-96984159D01*
X-55761143Y-96983575D01*
X-55725921Y-96981823D01*
X-55691946Y-96978904D01*
X-55659220Y-96974816D01*
X-55627741Y-96969561D01*
X-55597510Y-96963138D01*
X-55568527Y-96955548D01*
X-55527393Y-96941972D01*
X-55489066Y-96925769D01*
X-55453548Y-96906939D01*
X-55420837Y-96885481D01*
X-55390934Y-96861395D01*
X-55363839Y-96834682D01*
X-55339352Y-96805071D01*
X-55317273Y-96772291D01*
X-55297603Y-96736343D01*
X-55280342Y-96697227D01*
X-55270172Y-96669389D01*
X-55261073Y-96640143D01*
X-55253045Y-96609488D01*
X-55246087Y-96577426D01*
X-55240199Y-96543955D01*
X-55235382Y-96509076D01*
X-55231635Y-96472789D01*
X-55228959Y-96435093D01*
X-55227354Y-96395989D01*
X-55226818Y-96355478D01*
X-55226818Y-94451849D01*
X-54431075Y-94451849D01*
X-54431075Y-96386252D01*
G37*
G36*
X-53008849Y-97500000D02*
G01*
X-53751103Y-97500000D01*
X-53751103Y-95202163D01*
X-53008849Y-95202163D01*
X-53008849Y-97500000D01*
G37*
G36*
X-52988333Y-94827006D02*
G01*
X-53771619Y-94827006D01*
X-53771619Y-94264270D01*
X-52988333Y-94264270D01*
X-52988333Y-94827006D01*
G37*
G36*
X-49992938Y-97500000D02*
G01*
X-50738856Y-97500000D01*
X-50738856Y-96349616D01*
X-50739085Y-96314639D01*
X-50739772Y-96279686D01*
X-50740917Y-96244755D01*
X-50742520Y-96209848D01*
X-50744580Y-96174963D01*
X-50747099Y-96140101D01*
X-50750076Y-96105262D01*
X-50753511Y-96070446D01*
X-50757323Y-96036615D01*
X-50761800Y-96005096D01*
X-50766940Y-95975890D01*
X-50774300Y-95942634D01*
X-50782697Y-95912992D01*
X-50794143Y-95882192D01*
X-50802603Y-95864549D01*
X-50819356Y-95837416D01*
X-50838839Y-95813167D01*
X-50861053Y-95791803D01*
X-50885997Y-95773325D01*
X-50913672Y-95757731D01*
X-50923504Y-95753175D01*
X-50955395Y-95741222D01*
X-50985355Y-95733151D01*
X-51018392Y-95726796D01*
X-51054506Y-95722160D01*
X-51085613Y-95719687D01*
X-51118688Y-95718313D01*
X-51144788Y-95718004D01*
X-51176458Y-95718809D01*
X-51208272Y-95721224D01*
X-51240228Y-95725249D01*
X-51272328Y-95730884D01*
X-51304571Y-95738129D01*
X-51336957Y-95746984D01*
X-51349952Y-95750976D01*
X-51382896Y-95762246D01*
X-51416699Y-95775448D01*
X-51444359Y-95787401D01*
X-51472569Y-95800590D01*
X-51501329Y-95815016D01*
X-51530638Y-95830678D01*
X-51560497Y-95847576D01*
X-51575632Y-95856489D01*
X-51575632Y-97500000D01*
X-52317886Y-97500000D01*
X-52317886Y-95202163D01*
X-51575632Y-95202163D01*
X-51575632Y-95429309D01*
X-51550963Y-95410175D01*
X-51526413Y-95391607D01*
X-51501984Y-95373607D01*
X-51477675Y-95356173D01*
X-51453487Y-95339306D01*
X-51417429Y-95315068D01*
X-51381642Y-95292105D01*
X-51346126Y-95270417D01*
X-51310879Y-95250005D01*
X-51275904Y-95230867D01*
X-51241199Y-95213005D01*
X-51206764Y-95196418D01*
X-51195346Y-95191172D01*
X-51160782Y-95176375D01*
X-51125511Y-95163033D01*
X-51089530Y-95151147D01*
X-51052842Y-95140717D01*
X-51015445Y-95131741D01*
X-50977339Y-95124222D01*
X-50938525Y-95118157D01*
X-50899003Y-95113548D01*
X-50858772Y-95110395D01*
X-50817833Y-95108697D01*
X-50790147Y-95108374D01*
X-50743982Y-95109232D01*
X-50699094Y-95111808D01*
X-50655482Y-95116102D01*
X-50613147Y-95122112D01*
X-50572089Y-95129840D01*
X-50532307Y-95139286D01*
X-50493801Y-95150448D01*
X-50456572Y-95163328D01*
X-50420620Y-95177926D01*
X-50385944Y-95194240D01*
X-50352545Y-95212272D01*
X-50320422Y-95232021D01*
X-50289576Y-95253488D01*
X-50260006Y-95276672D01*
X-50231713Y-95301573D01*
X-50204697Y-95328192D01*
X-50179054Y-95356517D01*
X-50155066Y-95386536D01*
X-50132732Y-95418249D01*
X-50112053Y-95451657D01*
X-50093027Y-95486759D01*
X-50075657Y-95523556D01*
X-50059940Y-95562047D01*
X-50045878Y-95602233D01*
X-50033470Y-95644113D01*
X-50022717Y-95687687D01*
X-50013618Y-95732956D01*
X-50006173Y-95779919D01*
X-50000383Y-95828577D01*
X-49996247Y-95878929D01*
X-49993766Y-95930976D01*
X-49992938Y-95984717D01*
X-49992938Y-97500000D01*
G37*
G36*
X-47628423Y-97500000D02*
G01*
X-49425074Y-97500000D01*
X-49425074Y-96937264D01*
X-48922422Y-96937264D01*
X-48922422Y-95014584D01*
X-49425074Y-95014584D01*
X-49425074Y-94451849D01*
X-47628423Y-94451849D01*
X-47628423Y-95014584D01*
X-48131075Y-95014584D01*
X-48131075Y-96937264D01*
X-47628423Y-96937264D01*
X-47628423Y-97500000D01*
G37*
G36*
X-45547829Y-94405367D02*
G01*
X-45502638Y-94406606D01*
X-45458064Y-94408670D01*
X-45414106Y-94411560D01*
X-45370766Y-94415276D01*
X-45328042Y-94419818D01*
X-45285935Y-94425185D01*
X-45244445Y-94431378D01*
X-45203572Y-94438397D01*
X-45163316Y-94446242D01*
X-45123676Y-94454912D01*
X-45084653Y-94464408D01*
X-45046247Y-94474730D01*
X-45008458Y-94485878D01*
X-44971286Y-94497851D01*
X-44934730Y-94510650D01*
X-44898791Y-94524275D01*
X-44863469Y-94538726D01*
X-44828764Y-94554002D01*
X-44794676Y-94570104D01*
X-44761204Y-94587032D01*
X-44728350Y-94604786D01*
X-44696112Y-94623365D01*
X-44664491Y-94642770D01*
X-44633486Y-94663001D01*
X-44603099Y-94684058D01*
X-44573328Y-94705940D01*
X-44544174Y-94728648D01*
X-44515637Y-94752182D01*
X-44487717Y-94776542D01*
X-44460414Y-94801727D01*
X-44433727Y-94827739D01*
X-44407716Y-94854414D01*
X-44382530Y-94881686D01*
X-44358171Y-94909552D01*
X-44334637Y-94938014D01*
X-44311929Y-94967071D01*
X-44290046Y-94996724D01*
X-44268990Y-95026972D01*
X-44248759Y-95057815D01*
X-44229354Y-95089254D01*
X-44210774Y-95121288D01*
X-44193021Y-95153917D01*
X-44176093Y-95187142D01*
X-44159991Y-95220962D01*
X-44144714Y-95255377D01*
X-44130264Y-95290388D01*
X-44116639Y-95325994D01*
X-44103840Y-95362195D01*
X-44091866Y-95398992D01*
X-44080719Y-95436384D01*
X-44070397Y-95474371D01*
X-44060900Y-95512954D01*
X-44052230Y-95552132D01*
X-44044385Y-95591906D01*
X-44037367Y-95632274D01*
X-44031173Y-95673239D01*
X-44025806Y-95714798D01*
X-44021264Y-95756953D01*
X-44017549Y-95799703D01*
X-44014658Y-95843048D01*
X-44012594Y-95886989D01*
X-44011355Y-95931525D01*
X-44010943Y-95976657D01*
X-44011353Y-96021475D01*
X-44012585Y-96065712D01*
X-44014639Y-96109368D01*
X-44017514Y-96152443D01*
X-44021211Y-96194937D01*
X-44025729Y-96236850D01*
X-44031068Y-96278182D01*
X-44037229Y-96318933D01*
X-44044212Y-96359103D01*
X-44052015Y-96398691D01*
X-44060641Y-96437699D01*
X-44070088Y-96476126D01*
X-44080356Y-96513972D01*
X-44091445Y-96551236D01*
X-44103357Y-96587920D01*
X-44116089Y-96624023D01*
X-44129643Y-96659544D01*
X-44144019Y-96694485D01*
X-44159216Y-96728844D01*
X-44175234Y-96762623D01*
X-44192074Y-96795820D01*
X-44209735Y-96828437D01*
X-44228218Y-96860472D01*
X-44247522Y-96891926D01*
X-44267648Y-96922800D01*
X-44288595Y-96953092D01*
X-44310364Y-96982803D01*
X-44332954Y-97011934D01*
X-44356365Y-97040483D01*
X-44380598Y-97068451D01*
X-44405653Y-97095838D01*
X-44431529Y-97122644D01*
X-44458084Y-97148746D01*
X-44485270Y-97174018D01*
X-44513085Y-97198462D01*
X-44541530Y-97222078D01*
X-44570604Y-97244865D01*
X-44600308Y-97266823D01*
X-44630642Y-97287953D01*
X-44661606Y-97308254D01*
X-44693199Y-97327726D01*
X-44725422Y-97346370D01*
X-44758274Y-97364185D01*
X-44791756Y-97381172D01*
X-44825868Y-97397329D01*
X-44860610Y-97412659D01*
X-44895981Y-97427160D01*
X-44931982Y-97440832D01*
X-44968613Y-97453675D01*
X-45005873Y-97465690D01*
X-45043764Y-97476876D01*
X-45082283Y-97487234D01*
X-45121433Y-97496763D01*
X-45161212Y-97505463D01*
X-45201621Y-97513335D01*
X-45242659Y-97520379D01*
X-45284327Y-97526593D01*
X-45326625Y-97531979D01*
X-45369553Y-97536536D01*
X-45413110Y-97540265D01*
X-45457297Y-97543165D01*
X-45502114Y-97545237D01*
X-45547560Y-97546480D01*
X-45593636Y-97546894D01*
X-45639578Y-97546480D01*
X-45684895Y-97545237D01*
X-45729589Y-97543165D01*
X-45773658Y-97540265D01*
X-45817104Y-97536536D01*
X-45859926Y-97531979D01*
X-45902124Y-97526593D01*
X-45943697Y-97520379D01*
X-45984647Y-97513335D01*
X-46024973Y-97505463D01*
X-46064675Y-97496763D01*
X-46103753Y-97487234D01*
X-46142207Y-97476876D01*
X-46180037Y-97465690D01*
X-46217243Y-97453675D01*
X-46253825Y-97440832D01*
X-46289783Y-97427160D01*
X-46325117Y-97412659D01*
X-46359827Y-97397329D01*
X-46393913Y-97381172D01*
X-46427375Y-97364185D01*
X-46460214Y-97346370D01*
X-46492428Y-97327726D01*
X-46524018Y-97308254D01*
X-46554985Y-97287953D01*
X-46585327Y-97266823D01*
X-46615046Y-97244865D01*
X-46644140Y-97222078D01*
X-46672610Y-97198462D01*
X-46700457Y-97174018D01*
X-46727680Y-97148746D01*
X-46754278Y-97122644D01*
X-46780109Y-97095838D01*
X-46805120Y-97068451D01*
X-46829311Y-97040483D01*
X-46852681Y-97011934D01*
X-46875232Y-96982803D01*
X-46896963Y-96953092D01*
X-46917873Y-96922800D01*
X-46937964Y-96891926D01*
X-46957235Y-96860472D01*
X-46975685Y-96828437D01*
X-46993316Y-96795820D01*
X-47010126Y-96762623D01*
X-47026117Y-96728844D01*
X-47041287Y-96694485D01*
X-47055638Y-96659544D01*
X-47069168Y-96624023D01*
X-47081879Y-96587920D01*
X-47093769Y-96551236D01*
X-47104839Y-96513972D01*
X-47115090Y-96476126D01*
X-47124520Y-96437699D01*
X-47133130Y-96398691D01*
X-47140921Y-96359103D01*
X-47147891Y-96318933D01*
X-47154041Y-96278182D01*
X-47159371Y-96236850D01*
X-47163881Y-96194937D01*
X-47167571Y-96152443D01*
X-47170442Y-96109368D01*
X-47172492Y-96065712D01*
X-47173722Y-96021475D01*
X-47174132Y-95976657D01*
X-46352010Y-95976657D01*
X-46351764Y-96010234D01*
X-46351026Y-96043186D01*
X-46349795Y-96075515D01*
X-46348072Y-96107220D01*
X-46345856Y-96138301D01*
X-46343149Y-96168758D01*
X-46339949Y-96198591D01*
X-46336257Y-96227800D01*
X-46329795Y-96270443D01*
X-46322226Y-96311683D01*
X-46313549Y-96351518D01*
X-46303765Y-96389950D01*
X-46292872Y-96426978D01*
X-46288996Y-96439009D01*
X-46276833Y-96474111D01*
X-46263974Y-96507977D01*
X-46250420Y-96540606D01*
X-46236170Y-96571999D01*
X-46221225Y-96602155D01*
X-46205585Y-96631075D01*
X-46189249Y-96658758D01*
X-46172217Y-96685205D01*
X-46154490Y-96710416D01*
X-46136067Y-96734390D01*
X-46123399Y-96749685D01*
X-46103725Y-96771663D01*
X-46076551Y-96799243D01*
X-46048301Y-96824855D01*
X-46018974Y-96848496D01*
X-45988572Y-96870169D01*
X-45957093Y-96889873D01*
X-45924538Y-96907607D01*
X-45890907Y-96923372D01*
X-45882331Y-96927006D01*
X-45847492Y-96940401D01*
X-45812218Y-96952010D01*
X-45776509Y-96961833D01*
X-45740365Y-96969870D01*
X-45703786Y-96976121D01*
X-45666772Y-96980587D01*
X-45629322Y-96983266D01*
X-45591438Y-96984159D01*
X-45553565Y-96983254D01*
X-45516150Y-96980541D01*
X-45479193Y-96976018D01*
X-45442694Y-96969687D01*
X-45406653Y-96961547D01*
X-45371070Y-96951598D01*
X-45335945Y-96939840D01*
X-45301278Y-96926273D01*
X-45267206Y-96910622D01*
X-45234233Y-96892980D01*
X-45202359Y-96873345D01*
X-45171585Y-96851718D01*
X-45141909Y-96828099D01*
X-45113333Y-96802488D01*
X-45085855Y-96774884D01*
X-45065969Y-96752875D01*
X-45059477Y-96745289D01*
X-45038429Y-96718885D01*
X-45018424Y-96691605D01*
X-44999463Y-96663450D01*
X-44981545Y-96634418D01*
X-44964670Y-96604511D01*
X-44948838Y-96573728D01*
X-44934050Y-96542069D01*
X-44920304Y-96509534D01*
X-44907603Y-96476123D01*
X-44895944Y-96441836D01*
X-44888751Y-96418492D01*
X-44878799Y-96382473D01*
X-44869826Y-96345308D01*
X-44861832Y-96306997D01*
X-44854817Y-96267539D01*
X-44848780Y-96226934D01*
X-44843723Y-96185184D01*
X-44839644Y-96142287D01*
X-44837469Y-96113052D01*
X-44835729Y-96083308D01*
X-44834424Y-96053055D01*
X-44833553Y-96022291D01*
X-44833118Y-95991019D01*
X-44833064Y-95975191D01*
X-44833313Y-95941349D01*
X-44834060Y-95908147D01*
X-44835305Y-95875586D01*
X-44837048Y-95843667D01*
X-44839289Y-95812388D01*
X-44842028Y-95781751D01*
X-44845266Y-95751755D01*
X-44849001Y-95722400D01*
X-44855537Y-95679570D01*
X-44863195Y-95638182D01*
X-44871972Y-95598237D01*
X-44881871Y-95559734D01*
X-44892889Y-95522674D01*
X-44896811Y-95510642D01*
X-44909112Y-95475290D01*
X-44922108Y-95441227D01*
X-44935799Y-95408452D01*
X-44950186Y-95376964D01*
X-44965269Y-95346765D01*
X-44981047Y-95317854D01*
X-44997520Y-95290230D01*
X-45014689Y-95263895D01*
X-45032554Y-95238848D01*
X-45051114Y-95215089D01*
X-45063873Y-95199965D01*
X-45083810Y-95177614D01*
X-45104325Y-95156447D01*
X-45132581Y-95130069D01*
X-45161867Y-95105798D01*
X-45192184Y-95083633D01*
X-45223531Y-95063574D01*
X-45255908Y-95045622D01*
X-45289316Y-95029777D01*
X-45306407Y-95022644D01*
X-45340833Y-95009764D01*
X-45375604Y-94998602D01*
X-45410717Y-94989156D01*
X-45446175Y-94981428D01*
X-45481975Y-94975418D01*
X-45518119Y-94971124D01*
X-45554607Y-94968548D01*
X-45591438Y-94967690D01*
X-45628727Y-94968525D01*
X-45665489Y-94971033D01*
X-45701725Y-94975212D01*
X-45737434Y-94981062D01*
X-45772617Y-94988584D01*
X-45807272Y-94997777D01*
X-45841402Y-95008642D01*
X-45875004Y-95021179D01*
X-45907828Y-95035456D01*
X-45939988Y-95051908D01*
X-45971484Y-95070535D01*
X-46002316Y-95091338D01*
X-46032483Y-95114316D01*
X-46061987Y-95139469D01*
X-46083679Y-95159761D01*
X-46104998Y-95181277D01*
X-46119003Y-95196301D01*
X-46144236Y-95226068D01*
X-46162380Y-95250197D01*
X-46179853Y-95275871D01*
X-46196658Y-95303090D01*
X-46212792Y-95331856D01*
X-46228256Y-95362167D01*
X-46243051Y-95394023D01*
X-46257176Y-95427425D01*
X-46270632Y-95462373D01*
X-46283417Y-95498866D01*
X-46287530Y-95511374D01*
X-46299053Y-95549578D01*
X-46309443Y-95588903D01*
X-46318700Y-95629349D01*
X-46326823Y-95670914D01*
X-46333812Y-95713601D01*
X-46337842Y-95742681D01*
X-46341369Y-95772259D01*
X-46344391Y-95802335D01*
X-46346910Y-95832910D01*
X-46348925Y-95863982D01*
X-46350436Y-95895552D01*
X-46351444Y-95927621D01*
X-46351947Y-95960187D01*
X-46352010Y-95976657D01*
X-47174132Y-95976657D01*
X-47173722Y-95931525D01*
X-47172492Y-95886989D01*
X-47170442Y-95843048D01*
X-47167571Y-95799703D01*
X-47163881Y-95756953D01*
X-47159371Y-95714798D01*
X-47154041Y-95673239D01*
X-47147891Y-95632274D01*
X-47140921Y-95591906D01*
X-47133130Y-95552132D01*
X-47124520Y-95512954D01*
X-47115090Y-95474371D01*
X-47104839Y-95436384D01*
X-47093769Y-95398992D01*
X-47081879Y-95362195D01*
X-47069168Y-95325994D01*
X-47055638Y-95290388D01*
X-47041287Y-95255377D01*
X-47026117Y-95220962D01*
X-47010126Y-95187142D01*
X-46993316Y-95153917D01*
X-46975685Y-95121288D01*
X-46957235Y-95089254D01*
X-46937964Y-95057815D01*
X-46917873Y-95026972D01*
X-46896963Y-94996724D01*
X-46875232Y-94967071D01*
X-46852681Y-94938014D01*
X-46829311Y-94909552D01*
X-46805120Y-94881686D01*
X-46780109Y-94854414D01*
X-46754278Y-94827739D01*
X-46727680Y-94801727D01*
X-46700457Y-94776542D01*
X-46672610Y-94752182D01*
X-46644140Y-94728648D01*
X-46615046Y-94705940D01*
X-46585327Y-94684058D01*
X-46554985Y-94663001D01*
X-46524018Y-94642770D01*
X-46492428Y-94623365D01*
X-46460214Y-94604786D01*
X-46427375Y-94587032D01*
X-46393913Y-94570104D01*
X-46359827Y-94554002D01*
X-46325117Y-94538726D01*
X-46289783Y-94524275D01*
X-46253825Y-94510650D01*
X-46217243Y-94497851D01*
X-46180037Y-94485878D01*
X-46142207Y-94474730D01*
X-46103753Y-94464408D01*
X-46064675Y-94454912D01*
X-46024973Y-94446242D01*
X-45984647Y-94438397D01*
X-45943697Y-94431378D01*
X-45902124Y-94425185D01*
X-45859926Y-94419818D01*
X-45817104Y-94415276D01*
X-45773658Y-94411560D01*
X-45729589Y-94408670D01*
X-45684895Y-94406606D01*
X-45639578Y-94405367D01*
X-45593636Y-94404954D01*
X-45547829Y-94405367D01*
G37*
G36*
X-42668584Y-97500000D02*
G01*
X-43439414Y-97500000D01*
X-43439414Y-96702791D01*
X-42668584Y-96702791D01*
X-42668584Y-97500000D01*
G37*
G36*
X-40745171Y-97593789D02*
G01*
X-40782884Y-97593500D01*
X-40820185Y-97592632D01*
X-40857073Y-97591187D01*
X-40893549Y-97589163D01*
X-40929613Y-97586562D01*
X-40965265Y-97583382D01*
X-41000504Y-97579624D01*
X-41035332Y-97575287D01*
X-41069747Y-97570373D01*
X-41103750Y-97564880D01*
X-41137342Y-97558810D01*
X-41170520Y-97552161D01*
X-41203287Y-97544934D01*
X-41235642Y-97537128D01*
X-41267584Y-97528745D01*
X-41299114Y-97519783D01*
X-41330095Y-97510312D01*
X-41360572Y-97500217D01*
X-41390545Y-97489498D01*
X-41420014Y-97478155D01*
X-41448980Y-97466188D01*
X-41477442Y-97453597D01*
X-41505400Y-97440382D01*
X-41532855Y-97426543D01*
X-41559805Y-97412081D01*
X-41586252Y-97396994D01*
X-41612195Y-97381283D01*
X-41637635Y-97364948D01*
X-41662571Y-97347990D01*
X-41687002Y-97330407D01*
X-41710931Y-97312201D01*
X-41734355Y-97293370D01*
X-41756932Y-97273916D01*
X-41778868Y-97253837D01*
X-41800163Y-97233135D01*
X-41820817Y-97211808D01*
X-41840830Y-97189858D01*
X-41860201Y-97167283D01*
X-41878932Y-97144085D01*
X-41897021Y-97120263D01*
X-41914469Y-97095817D01*
X-41931276Y-97070747D01*
X-41947442Y-97045052D01*
X-41962966Y-97018734D01*
X-41977850Y-96991792D01*
X-41992092Y-96964226D01*
X-42005694Y-96936036D01*
X-42018654Y-96907222D01*
X-42030898Y-96877784D01*
X-42042353Y-96847722D01*
X-42053017Y-96817036D01*
X-42062892Y-96785727D01*
X-42071977Y-96753793D01*
X-42080272Y-96721235D01*
X-42087776Y-96688053D01*
X-42094491Y-96654248D01*
X-42100416Y-96619818D01*
X-42105551Y-96584764D01*
X-42109896Y-96549087D01*
X-42113450Y-96512785D01*
X-42116215Y-96475860D01*
X-42118190Y-96438310D01*
X-42119375Y-96400137D01*
X-42119770Y-96361339D01*
X-42119349Y-96320564D01*
X-42118087Y-96280487D01*
X-42115983Y-96241109D01*
X-42113038Y-96202429D01*
X-42109252Y-96164447D01*
X-42104623Y-96127164D01*
X-42099154Y-96090579D01*
X-42092842Y-96054692D01*
X-42085690Y-96019504D01*
X-42077696Y-95985015D01*
X-42068860Y-95951223D01*
X-42059183Y-95918130D01*
X-42048664Y-95885736D01*
X-42037304Y-95854039D01*
X-42025102Y-95823041D01*
X-42012059Y-95792742D01*
X-41998169Y-95763112D01*
X-41983609Y-95734124D01*
X-41968379Y-95705776D01*
X-41952479Y-95678070D01*
X-41935910Y-95651005D01*
X-41918671Y-95624581D01*
X-41900762Y-95598798D01*
X-41882183Y-95573656D01*
X-41862935Y-95549156D01*
X-41843016Y-95525296D01*
X-41822428Y-95502078D01*
X-41801171Y-95479501D01*
X-41779243Y-95457564D01*
X-41756646Y-95436270D01*
X-41733379Y-95415616D01*
X-41709442Y-95395603D01*
X-41685772Y-95377322D01*
X-41661655Y-95359665D01*
X-41637091Y-95342632D01*
X-41612081Y-95326223D01*
X-41586624Y-95310438D01*
X-41560721Y-95295277D01*
X-41534372Y-95280739D01*
X-41507576Y-95266826D01*
X-41480333Y-95253537D01*
X-41452644Y-95240871D01*
X-41424508Y-95228830D01*
X-41395926Y-95217413D01*
X-41366897Y-95206619D01*
X-41337422Y-95196450D01*
X-41307501Y-95186904D01*
X-41277132Y-95177983D01*
X-41246378Y-95169554D01*
X-41215480Y-95161668D01*
X-41184439Y-95154326D01*
X-41153255Y-95147529D01*
X-41121928Y-95141275D01*
X-41090458Y-95135565D01*
X-41058845Y-95130398D01*
X-41027089Y-95125776D01*
X-40995189Y-95121697D01*
X-40963147Y-95118162D01*
X-40930961Y-95115171D01*
X-40898632Y-95112724D01*
X-40866160Y-95110821D01*
X-40833545Y-95109461D01*
X-40800787Y-95108645D01*
X-40767886Y-95108374D01*
X-40738445Y-95108571D01*
X-40694821Y-95109608D01*
X-40651840Y-95111533D01*
X-40609504Y-95114348D01*
X-40567811Y-95118051D01*
X-40526763Y-95122642D01*
X-40486358Y-95128123D01*
X-40446597Y-95134492D01*
X-40407481Y-95141750D01*
X-40369008Y-95149896D01*
X-40331180Y-95158932D01*
X-40293912Y-95168545D01*
X-40257120Y-95178698D01*
X-40220805Y-95189393D01*
X-40184966Y-95200629D01*
X-40149604Y-95212405D01*
X-40114719Y-95224723D01*
X-40080310Y-95237581D01*
X-40046377Y-95250981D01*
X-40012922Y-95264921D01*
X-39979942Y-95279403D01*
X-39958221Y-95289357D01*
X-39958221Y-95905582D01*
X-40063001Y-95905582D01*
X-40088710Y-95887872D01*
X-40113897Y-95870768D01*
X-40141283Y-95852381D01*
X-40167049Y-95835240D01*
X-40194988Y-95817714D01*
X-40221057Y-95802859D01*
X-40249084Y-95788159D01*
X-40279069Y-95773613D01*
X-40311011Y-95759222D01*
X-40316525Y-95756838D01*
X-40348966Y-95743289D01*
X-40376865Y-95732705D01*
X-40405552Y-95722766D01*
X-40435026Y-95713471D01*
X-40465286Y-95704820D01*
X-40496334Y-95696813D01*
X-40502638Y-95695289D01*
X-40534831Y-95688323D01*
X-40568670Y-95682538D01*
X-40604154Y-95677933D01*
X-40633727Y-95675100D01*
X-40664352Y-95673022D01*
X-40696031Y-95671699D01*
X-40728764Y-95671133D01*
X-40737111Y-95671109D01*
X-40773671Y-95671836D01*
X-40809159Y-95674017D01*
X-40843577Y-95677652D01*
X-40876925Y-95682741D01*
X-40909202Y-95689284D01*
X-40940409Y-95697281D01*
X-40970546Y-95706732D01*
X-40999611Y-95717637D01*
X-41027607Y-95729996D01*
X-41054532Y-95743809D01*
X-41080386Y-95759077D01*
X-41105170Y-95775798D01*
X-41128884Y-95793973D01*
X-41151527Y-95813602D01*
X-41173099Y-95834685D01*
X-41193601Y-95857222D01*
X-41212944Y-95880916D01*
X-41231039Y-95905651D01*
X-41247886Y-95931428D01*
X-41263485Y-95958247D01*
X-41277836Y-95986108D01*
X-41290940Y-96015011D01*
X-41302795Y-96044955D01*
X-41313402Y-96075942D01*
X-41322762Y-96107970D01*
X-41330873Y-96141040D01*
X-41337737Y-96175152D01*
X-41343353Y-96210306D01*
X-41347720Y-96246501D01*
X-41350840Y-96283739D01*
X-41352712Y-96322018D01*
X-41353336Y-96361339D01*
X-41352698Y-96401845D01*
X-41350783Y-96441115D01*
X-41347592Y-96479148D01*
X-41343124Y-96515945D01*
X-41337379Y-96551505D01*
X-41330358Y-96585829D01*
X-41322061Y-96618916D01*
X-41312487Y-96650767D01*
X-41301636Y-96681381D01*
X-41289509Y-96710759D01*
X-41276105Y-96738901D01*
X-41261425Y-96765806D01*
X-41245468Y-96791474D01*
X-41228234Y-96815906D01*
X-41209724Y-96839101D01*
X-41189938Y-96861060D01*
X-41168886Y-96881645D01*
X-41146764Y-96900902D01*
X-41123571Y-96918831D01*
X-41099308Y-96935432D01*
X-41073975Y-96950705D01*
X-41047571Y-96964650D01*
X-41020096Y-96977266D01*
X-40991551Y-96988555D01*
X-40961936Y-96998516D01*
X-40931250Y-97007148D01*
X-40899494Y-97014452D01*
X-40866667Y-97020429D01*
X-40832770Y-97025077D01*
X-40797802Y-97028397D01*
X-40761764Y-97030389D01*
X-40724655Y-97031053D01*
X-40690102Y-97030641D01*
X-40656420Y-97029405D01*
X-40623607Y-97027344D01*
X-40591665Y-97024459D01*
X-40560593Y-97020749D01*
X-40530390Y-97016215D01*
X-40501058Y-97010857D01*
X-40472596Y-97004675D01*
X-40438282Y-96996199D01*
X-40405864Y-96987258D01*
X-40375342Y-96977852D01*
X-40346716Y-96967981D01*
X-40314868Y-96955522D01*
X-40285751Y-96942393D01*
X-40256068Y-96927186D01*
X-40227928Y-96911699D01*
X-40201331Y-96895931D01*
X-40176276Y-96879882D01*
X-40162652Y-96870586D01*
X-40136091Y-96851672D01*
X-40110629Y-96833033D01*
X-40086265Y-96814669D01*
X-40063001Y-96796580D01*
X-39958221Y-96796580D01*
X-39958221Y-97417934D01*
X-39991192Y-97432757D01*
X-40024433Y-97447000D01*
X-40057944Y-97460663D01*
X-40091726Y-97473747D01*
X-40125779Y-97486252D01*
X-40160102Y-97498176D01*
X-40194696Y-97509521D01*
X-40229560Y-97520287D01*
X-40264694Y-97530473D01*
X-40300099Y-97540079D01*
X-40323853Y-97546161D01*
X-40359927Y-97554673D01*
X-40396710Y-97562347D01*
X-40434202Y-97569184D01*
X-40472402Y-97575184D01*
X-40511310Y-97580347D01*
X-40550927Y-97584673D01*
X-40591252Y-97588161D01*
X-40632285Y-97590812D01*
X-40674027Y-97592626D01*
X-40716478Y-97593603D01*
X-40745171Y-97593789D01*
G37*
G36*
X-38344518Y-95108699D02*
G01*
X-38307452Y-95109676D01*
X-38270925Y-95111304D01*
X-38234935Y-95113583D01*
X-38199484Y-95116513D01*
X-38164570Y-95120094D01*
X-38130195Y-95124327D01*
X-38096358Y-95129211D01*
X-38063059Y-95134745D01*
X-38030298Y-95140931D01*
X-37998075Y-95147768D01*
X-37966390Y-95155257D01*
X-37935243Y-95163396D01*
X-37904635Y-95172187D01*
X-37874564Y-95181629D01*
X-37845032Y-95191721D01*
X-37816038Y-95202465D01*
X-37787581Y-95213861D01*
X-37759663Y-95225907D01*
X-37732283Y-95238605D01*
X-37705441Y-95251953D01*
X-37679138Y-95265953D01*
X-37653372Y-95280604D01*
X-37628144Y-95295906D01*
X-37603455Y-95311860D01*
X-37555690Y-95345720D01*
X-37510078Y-95382184D01*
X-37466618Y-95421254D01*
X-37445695Y-95441765D01*
X-37425319Y-95462840D01*
X-37386507Y-95506414D01*
X-37350283Y-95551889D01*
X-37316646Y-95599264D01*
X-37285597Y-95648540D01*
X-37257135Y-95699717D01*
X-37243874Y-95726018D01*
X-37231260Y-95752794D01*
X-37219293Y-95780045D01*
X-37207973Y-95807772D01*
X-37197300Y-95835973D01*
X-37187274Y-95864650D01*
X-37177894Y-95893801D01*
X-37169161Y-95923428D01*
X-37161076Y-95953530D01*
X-37153637Y-95984107D01*
X-37146845Y-96015159D01*
X-37140699Y-96046687D01*
X-37135201Y-96078689D01*
X-37130350Y-96111167D01*
X-37126145Y-96144120D01*
X-37122587Y-96177548D01*
X-37119676Y-96211451D01*
X-37117412Y-96245829D01*
X-37115795Y-96280682D01*
X-37114825Y-96316010D01*
X-37114502Y-96351814D01*
X-37114826Y-96387662D01*
X-37115801Y-96423032D01*
X-37117425Y-96457924D01*
X-37119699Y-96492337D01*
X-37122623Y-96526273D01*
X-37126197Y-96559731D01*
X-37130420Y-96592711D01*
X-37135293Y-96625213D01*
X-37140815Y-96657237D01*
X-37146988Y-96688783D01*
X-37153810Y-96719851D01*
X-37161282Y-96750441D01*
X-37169403Y-96780553D01*
X-37178175Y-96810187D01*
X-37187596Y-96839343D01*
X-37197666Y-96868021D01*
X-37208387Y-96896221D01*
X-37219757Y-96923943D01*
X-37231777Y-96951187D01*
X-37244446Y-96977953D01*
X-37257766Y-97004241D01*
X-37271735Y-97030051D01*
X-37301622Y-97080238D01*
X-37334108Y-97128512D01*
X-37369193Y-97174874D01*
X-37406877Y-97219324D01*
X-37447160Y-97261863D01*
X-37468215Y-97282284D01*
X-37511904Y-97321182D01*
X-37557699Y-97357486D01*
X-37605601Y-97391197D01*
X-37630342Y-97407080D01*
X-37655610Y-97422315D01*
X-37681404Y-97436902D01*
X-37707725Y-97450840D01*
X-37734573Y-97464130D01*
X-37761947Y-97476772D01*
X-37789848Y-97488765D01*
X-37818276Y-97500110D01*
X-37847230Y-97510807D01*
X-37876711Y-97520856D01*
X-37906718Y-97530256D01*
X-37937253Y-97539008D01*
X-37968313Y-97547112D01*
X-37999901Y-97554567D01*
X-38032015Y-97561374D01*
X-38064656Y-97567533D01*
X-38097823Y-97573043D01*
X-38131517Y-97577906D01*
X-38165738Y-97582119D01*
X-38200485Y-97585685D01*
X-38235759Y-97588602D01*
X-38271560Y-97590871D01*
X-38307887Y-97592492D01*
X-38344741Y-97593465D01*
X-38382122Y-97593789D01*
X-38419457Y-97593465D01*
X-38456268Y-97592492D01*
X-38492553Y-97590871D01*
X-38528313Y-97588602D01*
X-38563547Y-97585685D01*
X-38598257Y-97582119D01*
X-38632441Y-97577906D01*
X-38666100Y-97573043D01*
X-38699234Y-97567533D01*
X-38731842Y-97561374D01*
X-38763926Y-97554567D01*
X-38795484Y-97547112D01*
X-38826517Y-97539008D01*
X-38857024Y-97530256D01*
X-38887007Y-97520856D01*
X-38916464Y-97510807D01*
X-38945396Y-97500110D01*
X-38973803Y-97488765D01*
X-39001685Y-97476772D01*
X-39029041Y-97464130D01*
X-39055872Y-97450840D01*
X-39082178Y-97436902D01*
X-39107959Y-97422315D01*
X-39133214Y-97407080D01*
X-39157945Y-97391197D01*
X-39182150Y-97374666D01*
X-39228984Y-97339658D01*
X-39273718Y-97302057D01*
X-39316351Y-97261863D01*
X-39336817Y-97240833D01*
X-39375801Y-97197338D01*
X-39412185Y-97151932D01*
X-39445971Y-97104614D01*
X-39477158Y-97055384D01*
X-39505745Y-97004241D01*
X-39519065Y-96977953D01*
X-39531734Y-96951187D01*
X-39543754Y-96923943D01*
X-39555124Y-96896221D01*
X-39565845Y-96868021D01*
X-39575916Y-96839343D01*
X-39585337Y-96810187D01*
X-39594108Y-96780553D01*
X-39602229Y-96750441D01*
X-39609701Y-96719851D01*
X-39616523Y-96688783D01*
X-39622696Y-96657237D01*
X-39628218Y-96625213D01*
X-39633091Y-96592711D01*
X-39637315Y-96559731D01*
X-39640888Y-96526273D01*
X-39643812Y-96492337D01*
X-39646086Y-96457924D01*
X-39647710Y-96423032D01*
X-39648685Y-96387662D01*
X-39648970Y-96356210D01*
X-38880377Y-96356210D01*
X-38880068Y-96392030D01*
X-38879141Y-96426947D01*
X-38877595Y-96460963D01*
X-38875431Y-96494078D01*
X-38872649Y-96526291D01*
X-38869249Y-96557602D01*
X-38865230Y-96588011D01*
X-38860594Y-96617520D01*
X-38853450Y-96655461D01*
X-38845206Y-96691800D01*
X-38835910Y-96726467D01*
X-38825606Y-96759394D01*
X-38814294Y-96790581D01*
X-38801975Y-96820027D01*
X-38788649Y-96847734D01*
X-38774315Y-96873700D01*
X-38754981Y-96903710D01*
X-38742624Y-96920411D01*
X-38721390Y-96944983D01*
X-38698904Y-96967409D01*
X-38675165Y-96987688D01*
X-38650175Y-97005820D01*
X-38623932Y-97021805D01*
X-38596436Y-97035644D01*
X-38585088Y-97040579D01*
X-38555628Y-97051344D01*
X-38524952Y-97060285D01*
X-38493060Y-97067401D01*
X-38459951Y-97072693D01*
X-38425626Y-97076160D01*
X-38390085Y-97077802D01*
X-38375527Y-97077948D01*
X-38344161Y-97077107D01*
X-38313260Y-97074585D01*
X-38282824Y-97070381D01*
X-38252853Y-97064495D01*
X-38223347Y-97056928D01*
X-38194306Y-97047680D01*
X-38182820Y-97043510D01*
X-38154877Y-97031374D01*
X-38128294Y-97016948D01*
X-38103071Y-97000233D01*
X-38079207Y-96981228D01*
X-38056703Y-96959933D01*
X-38035558Y-96936348D01*
X-38027481Y-96926273D01*
X-38005707Y-96897196D01*
X-37989575Y-96872621D01*
X-37974589Y-96846879D01*
X-37960747Y-96819968D01*
X-37948050Y-96791890D01*
X-37936498Y-96762643D01*
X-37926091Y-96732230D01*
X-37919037Y-96708653D01*
X-37910623Y-96675256D01*
X-37903330Y-96638814D01*
X-37898596Y-96609485D01*
X-37894494Y-96578442D01*
X-37891023Y-96545686D01*
X-37888183Y-96511217D01*
X-37885974Y-96475035D01*
X-37884396Y-96437140D01*
X-37883449Y-96397531D01*
X-37883134Y-96356210D01*
X-37883462Y-96317785D01*
X-37884448Y-96280545D01*
X-37886090Y-96244489D01*
X-37888389Y-96209619D01*
X-37891345Y-96175933D01*
X-37894958Y-96143433D01*
X-37899227Y-96112117D01*
X-37904154Y-96081987D01*
X-37909737Y-96053041D01*
X-37918204Y-96016290D01*
X-37920503Y-96007431D01*
X-37930120Y-95972970D01*
X-37940653Y-95940295D01*
X-37952102Y-95909406D01*
X-37964467Y-95880303D01*
X-37977747Y-95852986D01*
X-37995636Y-95821351D01*
X-38014956Y-95792507D01*
X-38023085Y-95781751D01*
X-38044355Y-95756177D01*
X-38066948Y-95733036D01*
X-38090866Y-95712328D01*
X-38116107Y-95694053D01*
X-38142672Y-95678210D01*
X-38170561Y-95664801D01*
X-38182087Y-95660118D01*
X-38211314Y-95649775D01*
X-38241292Y-95641185D01*
X-38272022Y-95634347D01*
X-38303502Y-95629263D01*
X-38335735Y-95625932D01*
X-38368718Y-95624355D01*
X-38382122Y-95624214D01*
X-38414980Y-95624930D01*
X-38446694Y-95627077D01*
X-38477262Y-95630654D01*
X-38506686Y-95635663D01*
X-38540483Y-95643563D01*
X-38572631Y-95653524D01*
X-38603475Y-95666601D01*
X-38633906Y-95683852D01*
X-38658950Y-95701415D01*
X-38683708Y-95721876D01*
X-38708180Y-95745236D01*
X-38732366Y-95771493D01*
X-38752770Y-95798623D01*
X-38771851Y-95828723D01*
X-38786162Y-95854941D01*
X-38799625Y-95883059D01*
X-38812242Y-95913078D01*
X-38824012Y-95944998D01*
X-38834934Y-95978818D01*
X-38840077Y-95996441D01*
X-38849523Y-96033317D01*
X-38855780Y-96062493D01*
X-38861329Y-96092969D01*
X-38866170Y-96124746D01*
X-38870302Y-96157824D01*
X-38873726Y-96192203D01*
X-38876442Y-96227883D01*
X-38878449Y-96264863D01*
X-38879748Y-96303145D01*
X-38880338Y-96342727D01*
X-38880377Y-96356210D01*
X-39648970Y-96356210D01*
X-39649010Y-96351814D01*
X-39648683Y-96315742D01*
X-39647702Y-96280158D01*
X-39646066Y-96245062D01*
X-39643777Y-96210455D01*
X-39640834Y-96176335D01*
X-39637237Y-96142703D01*
X-39632986Y-96109559D01*
X-39628081Y-96076903D01*
X-39622522Y-96044736D01*
X-39616309Y-96013056D01*
X-39609442Y-95981864D01*
X-39601920Y-95951160D01*
X-39593745Y-95920944D01*
X-39584916Y-95891217D01*
X-39575433Y-95861977D01*
X-39565295Y-95833225D01*
X-39554504Y-95804962D01*
X-39543059Y-95777186D01*
X-39530959Y-95749898D01*
X-39518206Y-95723098D01*
X-39504799Y-95696787D01*
X-39490737Y-95670963D01*
X-39460653Y-95620780D01*
X-39427952Y-95572548D01*
X-39392635Y-95526269D01*
X-39354702Y-95481942D01*
X-39314153Y-95439567D01*
X-39292968Y-95419191D01*
X-39271271Y-95399461D01*
X-39226340Y-95361943D01*
X-39179359Y-95327013D01*
X-39155100Y-95310518D01*
X-39130329Y-95294670D01*
X-39105046Y-95279469D01*
X-39079250Y-95264914D01*
X-39052942Y-95251007D01*
X-39026122Y-95237746D01*
X-38998789Y-95225132D01*
X-38970944Y-95213165D01*
X-38942586Y-95201845D01*
X-38913716Y-95191172D01*
X-38884334Y-95181146D01*
X-38854440Y-95171766D01*
X-38824033Y-95163033D01*
X-38793114Y-95154948D01*
X-38761682Y-95147509D01*
X-38729739Y-95140717D01*
X-38697282Y-95134571D01*
X-38664314Y-95129073D01*
X-38630833Y-95124222D01*
X-38596840Y-95120017D01*
X-38562335Y-95116459D01*
X-38527317Y-95113548D01*
X-38491786Y-95111284D01*
X-38455744Y-95109667D01*
X-38419189Y-95108697D01*
X-38382122Y-95108374D01*
X-38344518Y-95108699D01*
G37*
G36*
X-34336728Y-95856489D02*
G01*
X-34336728Y-97500000D01*
X-35082645Y-97500000D01*
X-35082645Y-96341556D01*
X-35082716Y-96310264D01*
X-35082929Y-96279861D01*
X-35083283Y-96250346D01*
X-35083976Y-96212376D01*
X-35084920Y-96175986D01*
X-35086116Y-96141175D01*
X-35087565Y-96107945D01*
X-35089265Y-96076294D01*
X-35090705Y-96053593D01*
X-35093940Y-96017572D01*
X-35098605Y-95983698D01*
X-35104702Y-95951970D01*
X-35112229Y-95922389D01*
X-35123151Y-95889725D01*
X-35136134Y-95860153D01*
X-35151487Y-95833818D01*
X-35169519Y-95810316D01*
X-35193943Y-95786479D01*
X-35217779Y-95769117D01*
X-35244295Y-95754588D01*
X-35248975Y-95752442D01*
X-35279140Y-95740738D01*
X-35307544Y-95732835D01*
X-35338917Y-95726613D01*
X-35373260Y-95722073D01*
X-35402873Y-95719652D01*
X-35434386Y-95718306D01*
X-35459268Y-95718004D01*
X-35493242Y-95719095D01*
X-35526931Y-95722369D01*
X-35560333Y-95727825D01*
X-35593449Y-95735463D01*
X-35626278Y-95745284D01*
X-35658822Y-95757288D01*
X-35671759Y-95762700D01*
X-35703526Y-95776582D01*
X-35734256Y-95790750D01*
X-35763948Y-95805204D01*
X-35792602Y-95819945D01*
X-35820219Y-95834971D01*
X-35846798Y-95850284D01*
X-35857139Y-95856489D01*
X-35857139Y-97500000D01*
X-36599393Y-97500000D01*
X-36599393Y-95202163D01*
X-35857139Y-95202163D01*
X-35857139Y-95429309D01*
X-35833297Y-95410698D01*
X-35809581Y-95392604D01*
X-35785990Y-95375024D01*
X-35750841Y-95349620D01*
X-35715975Y-95325376D01*
X-35681392Y-95302290D01*
X-35647092Y-95280364D01*
X-35613076Y-95259598D01*
X-35579344Y-95239990D01*
X-35545894Y-95221541D01*
X-35512728Y-95204252D01*
X-35490775Y-95193370D01*
X-35457611Y-95178180D01*
X-35423791Y-95164485D01*
X-35389313Y-95152283D01*
X-35354178Y-95141575D01*
X-35318387Y-95132362D01*
X-35281939Y-95124642D01*
X-35244834Y-95118417D01*
X-35207072Y-95113686D01*
X-35168653Y-95110449D01*
X-35129577Y-95108706D01*
X-35103162Y-95108374D01*
X-35060767Y-95109275D01*
X-35019313Y-95111980D01*
X-34978799Y-95116488D01*
X-34939225Y-95122799D01*
X-34900592Y-95130914D01*
X-34862898Y-95140831D01*
X-34826145Y-95152552D01*
X-34790332Y-95166076D01*
X-34755460Y-95181403D01*
X-34721527Y-95198533D01*
X-34699428Y-95210956D01*
X-34667263Y-95231040D01*
X-34636437Y-95252824D01*
X-34606950Y-95276309D01*
X-34578803Y-95301493D01*
X-34551995Y-95328378D01*
X-34526527Y-95356963D01*
X-34502399Y-95387248D01*
X-34479610Y-95419234D01*
X-34458160Y-95452919D01*
X-34438050Y-95488305D01*
X-34425388Y-95512840D01*
X-34397593Y-95489527D01*
X-34369895Y-95466850D01*
X-34342295Y-95444808D01*
X-34314792Y-95423401D01*
X-34287386Y-95402630D01*
X-34260077Y-95382494D01*
X-34232866Y-95362994D01*
X-34205752Y-95344129D01*
X-34178736Y-95325899D01*
X-34151817Y-95308305D01*
X-34124995Y-95291347D01*
X-34098270Y-95275023D01*
X-34071643Y-95259336D01*
X-34045113Y-95244283D01*
X-34018681Y-95229866D01*
X-33992345Y-95216085D01*
X-33966093Y-95203041D01*
X-33926843Y-95185055D01*
X-33887748Y-95168961D01*
X-33848808Y-95154761D01*
X-33810022Y-95142454D01*
X-33771390Y-95132041D01*
X-33732914Y-95123520D01*
X-33694591Y-95116894D01*
X-33656424Y-95112160D01*
X-33618410Y-95109320D01*
X-33580552Y-95108374D01*
X-33534361Y-95109258D01*
X-33489579Y-95111911D01*
X-33446205Y-95116333D01*
X-33404239Y-95122524D01*
X-33363681Y-95130484D01*
X-33324532Y-95140213D01*
X-33286791Y-95151710D01*
X-33250458Y-95164977D01*
X-33215533Y-95180012D01*
X-33182016Y-95196816D01*
X-33149908Y-95215389D01*
X-33119208Y-95235731D01*
X-33089916Y-95257842D01*
X-33062032Y-95281721D01*
X-33035556Y-95307369D01*
X-33010489Y-95334787D01*
X-32986887Y-95363772D01*
X-32964808Y-95394309D01*
X-32944251Y-95426398D01*
X-32925218Y-95460037D01*
X-32907707Y-95495228D01*
X-32891718Y-95531971D01*
X-32877253Y-95570264D01*
X-32864310Y-95610109D01*
X-32852889Y-95651506D01*
X-32842992Y-95694453D01*
X-32834617Y-95738952D01*
X-32827765Y-95785003D01*
X-32822435Y-95832604D01*
X-32818629Y-95881757D01*
X-32816345Y-95932461D01*
X-32815583Y-95984717D01*
X-32815583Y-97500000D01*
X-33561501Y-97500000D01*
X-33561501Y-96341556D01*
X-33561565Y-96309884D01*
X-33561758Y-96279165D01*
X-33562080Y-96249399D01*
X-33562710Y-96211194D01*
X-33563569Y-96174684D01*
X-33564656Y-96139868D01*
X-33565973Y-96106746D01*
X-33567519Y-96075319D01*
X-33568828Y-96052861D01*
X-33571833Y-96017051D01*
X-33576270Y-95983352D01*
X-33582137Y-95951763D01*
X-33589436Y-95922286D01*
X-33600084Y-95889700D01*
X-33612792Y-95860153D01*
X-33627424Y-95833818D01*
X-33644940Y-95810316D01*
X-33669023Y-95786479D01*
X-33692791Y-95769117D01*
X-33719444Y-95754588D01*
X-33724167Y-95752442D01*
X-33754933Y-95740738D01*
X-33783916Y-95732835D01*
X-33815941Y-95726613D01*
X-33851007Y-95722073D01*
X-33881249Y-95719652D01*
X-33913437Y-95718306D01*
X-33938856Y-95718004D01*
X-33973598Y-95719137D01*
X-34008030Y-95722537D01*
X-34042154Y-95728205D01*
X-34075968Y-95736139D01*
X-34109473Y-95746340D01*
X-34120573Y-95750244D01*
X-34149227Y-95761145D01*
X-34179778Y-95774158D01*
X-34212225Y-95789281D01*
X-34239547Y-95802899D01*
X-34268084Y-95817869D01*
X-34297834Y-95834189D01*
X-34328797Y-95851860D01*
X-34336728Y-95856489D01*
G37*
%LPC*%
D11*
X-71664466Y-35945534D03*
X-25944466Y-71505534D03*
X-18324466Y-91825534D03*
X-89444466Y-13085534D03*
X-71664466Y-18165534D03*
X-31024466Y-8005534D03*
X-36104466Y-30865534D03*
X-84364466Y-56265534D03*
X-58964466Y-25785534D03*
X-544466Y-63885534D03*
X-51344466Y-15625534D03*
X-71664466Y-56265534D03*
X-544466Y-76585534D03*
X-91984466Y-20705534D03*
X-3084466Y-35945534D03*
X-15784466Y-10545534D03*
X-81824466Y-41025534D03*
X-15784466Y-30865534D03*
X-31024466Y-15625534D03*
X-76744466Y-35945534D03*
X-25944466Y-35945534D03*
X-74204466Y-91825534D03*
X-13244466Y-74045534D03*
X-84364466Y-91825534D03*
X1995534Y-76585534D03*
X-86904466Y-13085534D03*
X-33564466Y-5465534D03*
X-81824466Y-43565534D03*
X-79284466Y-94365534D03*
X-10704466Y-91825534D03*
X-31024466Y-28325534D03*
X-25944466Y-53725534D03*
X-53884466Y-2925534D03*
X-74204466Y-84205534D03*
X-5624466Y-25785534D03*
X-53884466Y-10545534D03*
X-79284466Y-58805534D03*
X-13244466Y-56265534D03*
X-76744466Y-13085534D03*
X-36104466Y-51185534D03*
X-13244466Y-46105534D03*
X-38644466Y-15625534D03*
X-15784466Y-48645534D03*
X-31024466Y-20705534D03*
X-28484466Y-33405534D03*
X-56424466Y-10545534D03*
X-13244466Y-48645534D03*
X-89444466Y-23245534D03*
X-56424466Y-56265534D03*
X-33564466Y-53725534D03*
X-79284466Y-48645534D03*
X-53884466Y-61345534D03*
X-76744466Y-74045534D03*
X-51344466Y-91825534D03*
X-28484466Y-25785534D03*
X-43724466Y-2925534D03*
X-61504466Y-8005534D03*
X-28484466Y-23245534D03*
X-64044466Y-76585534D03*
X-544466Y-48645534D03*
X-38644466Y-2925534D03*
X1995534Y-79125534D03*
X-13244466Y-71505534D03*
X-36104466Y-53725534D03*
X-86904466Y-66425534D03*
X-3084466Y-51185534D03*
D12*
X-544466Y-94365534D03*
D11*
X-10704466Y-71505534D03*
X-91984466Y-33405534D03*
X-46264466Y-23245534D03*
X-89444466Y-68965534D03*
X-48804466Y-51185534D03*
X-56424466Y-66425534D03*
X-18324466Y-25785534D03*
X-53884466Y-23245534D03*
X-58964466Y-68965534D03*
X-64044466Y-20705534D03*
X-43724466Y-25785534D03*
X-71664466Y-25785534D03*
X-91984466Y-89285534D03*
X-48804466Y-41025534D03*
X-81824466Y-13085534D03*
X-46264466Y-28325534D03*
X1995534Y-66425534D03*
X-51344466Y-58805534D03*
X-5624466Y-2925534D03*
X-15784466Y-46105534D03*
X-13244466Y-68965534D03*
X-86904466Y-43565534D03*
X-81824466Y-5465534D03*
X-89444466Y-89285534D03*
X-86904466Y-68965534D03*
X-61504466Y-25785534D03*
X-76744466Y-10545534D03*
X-43724466Y-71505534D03*
X-38644466Y-68965534D03*
X-41184466Y-84205534D03*
X-23404466Y-5465534D03*
X-58964466Y-48645534D03*
X-41184466Y-23245534D03*
X-56424466Y-71505534D03*
X-71664466Y-53725534D03*
X-48804466Y-71505534D03*
X-43724466Y-66425534D03*
X-46264466Y-86745534D03*
X-79284466Y-8005534D03*
X-64044466Y-68965534D03*
X-71664466Y-58805534D03*
X-86904466Y-58805534D03*
X-61504466Y-71505534D03*
X-25944466Y-79125534D03*
X-74204466Y-96905534D03*
X-18324466Y-61345534D03*
X-76744466Y-91825534D03*
X-71664466Y-41025534D03*
X-38644466Y-76585534D03*
X-43724466Y-74045534D03*
X-66584466Y-61345534D03*
X-64044466Y-71505534D03*
X-13244466Y-89285534D03*
X-5624466Y-89285534D03*
X-58964466Y-53725534D03*
X-38644466Y-79125534D03*
X-31024466Y-48645534D03*
X-36104466Y-10545534D03*
X-18324466Y-10545534D03*
X-46264466Y-35945534D03*
X-5624466Y-8005534D03*
X-61504466Y-48645534D03*
X-41184466Y-38485534D03*
X-544466Y-20705534D03*
X-66584466Y-84205534D03*
X-5624466Y-5465534D03*
X-36104466Y-61345534D03*
X-53884466Y-89285534D03*
X-18324466Y-8005534D03*
X-61504466Y-91825534D03*
X-61504466Y-66425534D03*
X-46264466Y-18165534D03*
X-64044466Y-33405534D03*
X-15784466Y-91825534D03*
X-48804466Y-81665534D03*
X-25944466Y-28325534D03*
X-33564466Y-23245534D03*
X-10704466Y-38485534D03*
X-74204466Y-18165534D03*
X-38644466Y-18165534D03*
X-58964466Y-8005534D03*
X-3084466Y-41025534D03*
X-13244466Y-43565534D03*
X-36104466Y-13085534D03*
X-31024466Y-61345534D03*
X-18324466Y-46105534D03*
X-33564466Y-28325534D03*
X-36104466Y-2925534D03*
X-28484466Y-41025534D03*
X-64044466Y-61345534D03*
X-10704466Y-8005534D03*
X-33564466Y-48645534D03*
X-79284466Y-18165534D03*
X-84364466Y-68965534D03*
X-76744466Y-76585534D03*
X-15784466Y-8005534D03*
X-79284466Y-84205534D03*
X-89444466Y-28325534D03*
X-51344466Y-18165534D03*
X-46264466Y-5465534D03*
X-64044466Y-53725534D03*
X-48804466Y-13085534D03*
X-79284466Y-89285534D03*
X-8164466Y-58805534D03*
X-18324466Y-94365534D03*
X-66584466Y-25785534D03*
X-66584466Y-91825534D03*
X-84364466Y-15625534D03*
X-79284466Y-53725534D03*
X-18324466Y-63885534D03*
X-48804466Y-28325534D03*
X-89444466Y-63885534D03*
X-544466Y-18165534D03*
X-5624466Y-51185534D03*
X-66584466Y-20705534D03*
X-51344466Y-66425534D03*
X-53884466Y-84205534D03*
X-43724466Y-76585534D03*
X-89444466Y-84205534D03*
X-41184466Y-33405534D03*
X-18324466Y-79125534D03*
X-31024466Y-25785534D03*
X-20864466Y-76585534D03*
X-46264466Y-53725534D03*
X-8164466Y-96905534D03*
X-56424466Y-86745534D03*
X-89444466Y-38485534D03*
X-41184466Y-30865534D03*
X1995534Y-71505534D03*
X-13244466Y-58805534D03*
X-48804466Y-79125534D03*
X-46264466Y-76585534D03*
X-31024466Y-94365534D03*
X-28484466Y-46105534D03*
X-31024466Y-79125534D03*
X-81824466Y-23245534D03*
X-51344466Y-13085534D03*
X-56424466Y-76585534D03*
X-43724466Y-43565534D03*
X-48804466Y-38485534D03*
X-56424466Y-58805534D03*
X-31024466Y-33405534D03*
X-69124466Y-35945534D03*
X-41184466Y-71505534D03*
X-18324466Y-84205534D03*
X-84364466Y-71505534D03*
X-46264466Y-38485534D03*
X-544466Y-10545534D03*
X-3084466Y-23245534D03*
X-91984466Y-43565534D03*
X-81824466Y-79125534D03*
X-71664466Y-61345534D03*
X-43724466Y-46105534D03*
X-51344466Y-81665534D03*
X-66584466Y-15625534D03*
X-48804466Y-63885534D03*
X-56424466Y-43565534D03*
X1995534Y-84205534D03*
X-69124466Y-30865534D03*
X-10704466Y-35945534D03*
X-66584466Y-35945534D03*
X-86904466Y-86745534D03*
X-23404466Y-94365534D03*
X-10704466Y-51185534D03*
X-81824466Y-94365534D03*
X-69124466Y-23245534D03*
X-51344466Y-79125534D03*
X-33564466Y-71505534D03*
X-64044466Y-28325534D03*
X-3084466Y-86745534D03*
X-58964466Y-81665534D03*
X1995534Y-86745534D03*
X-41184466Y-13085534D03*
X-48804466Y-15625534D03*
X-43724466Y-35945534D03*
X-43724466Y-61345534D03*
X-76744466Y-89285534D03*
X-74204466Y-35945534D03*
X-48804466Y-18165534D03*
X-46264466Y-91825534D03*
X-544466Y-86745534D03*
X-38644466Y-35945534D03*
X-33564466Y-58805534D03*
X-74204466Y-94365534D03*
X-3084466Y-84205534D03*
X-91984466Y-28325534D03*
X-43724466Y-53725534D03*
X-46264466Y-8005534D03*
X-61504466Y-5465534D03*
X-61504466Y-63885534D03*
X-20864466Y-58805534D03*
X-69124466Y-56265534D03*
X-10704466Y-10545534D03*
X-48804466Y-20705534D03*
X-3084466Y-66425534D03*
X-8164466Y-43565534D03*
X-3084466Y-33405534D03*
X-81824466Y-35945534D03*
X-18324466Y-66425534D03*
X-81824466Y-68965534D03*
X-46264466Y-30865534D03*
X-81824466Y-61345534D03*
X-89444466Y-81665534D03*
X-79284466Y-91825534D03*
X-64044466Y-35945534D03*
X-18324466Y-15625534D03*
X-58964466Y-96905534D03*
X-64044466Y-96905534D03*
X-10704466Y-43565534D03*
X-10704466Y-5465534D03*
X-15784466Y-35945534D03*
X-28484466Y-28325534D03*
X-33564466Y-35945534D03*
X-20864466Y-79125534D03*
X-86904466Y-30865534D03*
X-76744466Y-71505534D03*
X-56424466Y-41025534D03*
X-53884466Y-33405534D03*
X-15784466Y-86745534D03*
X-71664466Y-91825534D03*
X-48804466Y-53725534D03*
X-15784466Y-94365534D03*
X-46264466Y-20705534D03*
X-5624466Y-81665534D03*
X-91984466Y-41025534D03*
X-20864466Y-28325534D03*
X-33564466Y-79125534D03*
X-3084466Y-28325534D03*
X-28484466Y-10545534D03*
X-5624466Y-91825534D03*
X-13244466Y-5465534D03*
X-76744466Y-8005534D03*
X-25944466Y-18165534D03*
X-38644466Y-23245534D03*
X-56424466Y-51185534D03*
X-28484466Y-96905534D03*
X-91984466Y-10545534D03*
X-79284466Y-28325534D03*
X-79284466Y-71505534D03*
X-81824466Y-46105534D03*
X-64044466Y-51185534D03*
X-71664466Y-94365534D03*
X-79284466Y-63885534D03*
X-15784466Y-61345534D03*
X-79284466Y-2925534D03*
X-28484466Y-81665534D03*
X-51344466Y-74045534D03*
X1995534Y-23245534D03*
X-544466Y-53725534D03*
X-56424466Y-84205534D03*
X-61504466Y-18165534D03*
X-51344466Y-8005534D03*
X-79284466Y-86745534D03*
X-74204466Y-15625534D03*
X-15784466Y-2925534D03*
X-23404466Y-79125534D03*
X-544466Y-71505534D03*
X1995534Y-35945534D03*
X-81824466Y-18165534D03*
X-20864466Y-30865534D03*
X-64044466Y-81665534D03*
X-15784466Y-23245534D03*
X-23404466Y-91825534D03*
X-23404466Y-86745534D03*
X-53884466Y-8005534D03*
X-10704466Y-61345534D03*
X-41184466Y-10545534D03*
X-61504466Y-51185534D03*
X-91984466Y-48645534D03*
X-48804466Y-35945534D03*
X-46264466Y-43565534D03*
X-89444466Y-15625534D03*
X-28484466Y-13085534D03*
X-43724466Y-13085534D03*
X-86904466Y-61345534D03*
X-79284466Y-20705534D03*
X-20864466Y-23245534D03*
X-71664466Y-96905534D03*
X-58964466Y-30865534D03*
X-33564466Y-91825534D03*
X-3084466Y-13085534D03*
X-79284466Y-51185534D03*
X-64044466Y-25785534D03*
X-31024466Y-63885534D03*
X-13244466Y-84205534D03*
X-10704466Y-89285534D03*
X-46264466Y-89285534D03*
X-46264466Y-66425534D03*
X-74204466Y-74045534D03*
X1995534Y-20705534D03*
X-13244466Y-79125534D03*
X-76744466Y-15625534D03*
X-18324466Y-53725534D03*
X-58964466Y-79125534D03*
X-53884466Y-68965534D03*
X-18324466Y-89285534D03*
X-58964466Y-38485534D03*
X-43724466Y-58805534D03*
X-76744466Y-66425534D03*
X-64044466Y-48645534D03*
X-5624466Y-30865534D03*
X-58964466Y-51185534D03*
X-10704466Y-23245534D03*
X-61504466Y-23245534D03*
X-58964466Y-66425534D03*
X-69124466Y-41025534D03*
X-51344466Y-89285534D03*
X-91984466Y-23245534D03*
X-61504466Y-53725534D03*
X-28484466Y-61345534D03*
X1995534Y-18165534D03*
X-51344466Y-33405534D03*
X-64044466Y-8005534D03*
X-23404466Y-8005534D03*
X-74204466Y-8005534D03*
X-51344466Y-23245534D03*
X-25944466Y-58805534D03*
X-43724466Y-84205534D03*
X-15784466Y-51185534D03*
X-61504466Y-76585534D03*
X-31024466Y-89285534D03*
X-25944466Y-81665534D03*
X-51344466Y-51185534D03*
X-23404466Y-23245534D03*
X-544466Y-35945534D03*
X-76744466Y-46105534D03*
X-28484466Y-51185534D03*
X-53884466Y-15625534D03*
X-3084466Y-74045534D03*
X-28484466Y-38485534D03*
X1995534Y-13085534D03*
X-20864466Y-61345534D03*
X-79284466Y-68965534D03*
X-3084466Y-10545534D03*
X-51344466Y-61345534D03*
X-25944466Y-10545534D03*
X-46264466Y-84205534D03*
X-8164466Y-56265534D03*
X-41184466Y-76585534D03*
X-36104466Y-23245534D03*
X-84364466Y-86745534D03*
X-5624466Y-13085534D03*
X-10704466Y-2925534D03*
X-66584466Y-94365534D03*
X-69124466Y-15625534D03*
X-3084466Y-18165534D03*
X-23404466Y-38485534D03*
X-61504466Y-81665534D03*
X-66584466Y-86745534D03*
X-81824466Y-48645534D03*
X-69124466Y-58805534D03*
X-13244466Y-8005534D03*
X-3084466Y-81665534D03*
X-66584466Y-68965534D03*
X-69124466Y-5465534D03*
X-46264466Y-51185534D03*
X-66584466Y-56265534D03*
X-58964466Y-61345534D03*
X-18324466Y-18165534D03*
X-3084466Y-58805534D03*
X-61504466Y-46105534D03*
X-31024466Y-58805534D03*
D12*
X-89444466Y-94365534D03*
D11*
X-13244466Y-41025534D03*
X-48804466Y-10545534D03*
X-66584466Y-8005534D03*
X-53884466Y-38485534D03*
X-76744466Y-38485534D03*
X-20864466Y-18165534D03*
X-43724466Y-51185534D03*
X-25944466Y-86745534D03*
X-18324466Y-51185534D03*
X-64044466Y-30865534D03*
X-8164466Y-68965534D03*
X-74204466Y-20705534D03*
X-71664466Y-84205534D03*
X-51344466Y-43565534D03*
X-79284466Y-41025534D03*
X-41184466Y-20705534D03*
X-18324466Y-13085534D03*
X1995534Y-48645534D03*
X-61504466Y-43565534D03*
X1995534Y-43565534D03*
X-33564466Y-13085534D03*
X-76744466Y-86745534D03*
X-28484466Y-2925534D03*
X-41184466Y-35945534D03*
X-3084466Y-43565534D03*
X-33564466Y-38485534D03*
X-15784466Y-96905534D03*
X-64044466Y-74045534D03*
X-69124466Y-46105534D03*
X-61504466Y-79125534D03*
X-74204466Y-51185534D03*
X-48804466Y-46105534D03*
X-71664466Y-28325534D03*
X-20864466Y-74045534D03*
X-5624466Y-84205534D03*
X-544466Y-23245534D03*
X-23404466Y-35945534D03*
X-74204466Y-56265534D03*
X-13244466Y-13085534D03*
X-69124466Y-94365534D03*
X1995534Y-33405534D03*
X-48804466Y-8005534D03*
X-91984466Y-71505534D03*
X-53884466Y-58805534D03*
X-53884466Y-28325534D03*
X-5624466Y-33405534D03*
X-544466Y-30865534D03*
X-58964466Y-23245534D03*
X-31024466Y-74045534D03*
X-15784466Y-71505534D03*
X-69124466Y-20705534D03*
X-10704466Y-79125534D03*
X-33564466Y-76585534D03*
X-51344466Y-5465534D03*
X-71664466Y-51185534D03*
X-74204466Y-25785534D03*
X-8164466Y-46105534D03*
X-69124466Y-91825534D03*
X-76744466Y-2925534D03*
X-69124466Y-84205534D03*
X-69124466Y-43565534D03*
X-84364466Y-66425534D03*
X-10704466Y-41025534D03*
X-79284466Y-23245534D03*
X-43724466Y-33405534D03*
X-56424466Y-74045534D03*
X-18324466Y-76585534D03*
X-544466Y-51185534D03*
X-69124466Y-53725534D03*
X-81824466Y-86745534D03*
X-8164466Y-71505534D03*
X-15784466Y-58805534D03*
X-31024466Y-56265534D03*
X-66584466Y-71505534D03*
X-13244466Y-66425534D03*
X1995534Y-28325534D03*
X-31024466Y-5465534D03*
X-38644466Y-86745534D03*
X-53884466Y-20705534D03*
X-20864466Y-96905534D03*
X-91984466Y-81665534D03*
X-86904466Y-89285534D03*
X-38644466Y-28325534D03*
X-5624466Y-96905534D03*
X-38644466Y-43565534D03*
X-5624466Y-46105534D03*
X-13244466Y-18165534D03*
X-36104466Y-66425534D03*
X-25944466Y-61345534D03*
X-23404466Y-25785534D03*
X-38644466Y-91825534D03*
X-10704466Y-28325534D03*
X-5624466Y-68965534D03*
X-69124466Y-2925534D03*
X-84364466Y-28325534D03*
X-66584466Y-23245534D03*
X-25944466Y-23245534D03*
X-84364466Y-58805534D03*
X-41184466Y-41025534D03*
X-71664466Y-5465534D03*
X-43724466Y-89285534D03*
X-33564466Y-8005534D03*
X-20864466Y-15625534D03*
X-20864466Y-41025534D03*
X-8164466Y-30865534D03*
X-8164466Y-10545534D03*
X-41184466Y-58805534D03*
X-28484466Y-84205534D03*
X-58964466Y-58805534D03*
X-33564466Y-46105534D03*
X-81824466Y-84205534D03*
X-3084466Y-25785534D03*
X-38644466Y-5465534D03*
X1995534Y-46105534D03*
X-48804466Y-84205534D03*
X-43724466Y-56265534D03*
X-74204466Y-38485534D03*
X-15784466Y-20705534D03*
X-58964466Y-74045534D03*
X-10704466Y-63885534D03*
X-41184466Y-56265534D03*
X-41184466Y-2925534D03*
X-56424466Y-5465534D03*
X-20864466Y-66425534D03*
X-74204466Y-30865534D03*
X-20864466Y-8005534D03*
X-36104466Y-68965534D03*
X-544466Y-58805534D03*
X-544466Y-74045534D03*
X-36104466Y-18165534D03*
X-61504466Y-15625534D03*
X-8164466Y-91825534D03*
X-86904466Y-81665534D03*
X-25944466Y-20705534D03*
X-25944466Y-48645534D03*
X-74204466Y-41025534D03*
X-20864466Y-2925534D03*
X-56424466Y-38485534D03*
X-31024466Y-91825534D03*
X-544466Y-61345534D03*
X-15784466Y-76585534D03*
X-31024466Y-71505534D03*
X-8164466Y-48645534D03*
X-56424466Y-61345534D03*
X-48804466Y-74045534D03*
X-74204466Y-53725534D03*
X-36104466Y-63885534D03*
X-86904466Y-71505534D03*
X-69124466Y-18165534D03*
X-18324466Y-86745534D03*
X-8164466Y-89285534D03*
X-20864466Y-89285534D03*
X-10704466Y-46105534D03*
X-86904466Y-41025534D03*
X-36104466Y-48645534D03*
X-86904466Y-76585534D03*
X-41184466Y-28325534D03*
X-38644466Y-38485534D03*
X-33564466Y-66425534D03*
X1995534Y-10545534D03*
X-28484466Y-30865534D03*
X-51344466Y-25785534D03*
X-25944466Y-74045534D03*
X-5624466Y-86745534D03*
X-91984466Y-74045534D03*
X-25944466Y-89285534D03*
X-5624466Y-74045534D03*
X-69124466Y-28325534D03*
X-46264466Y-2925534D03*
X-20864466Y-48645534D03*
X-58964466Y-91825534D03*
X1995534Y-61345534D03*
X-89444466Y-51185534D03*
X-23404466Y-53725534D03*
X-5624466Y-15625534D03*
X-84364466Y-79125534D03*
X-31024466Y-10545534D03*
X-76744466Y-53725534D03*
X-61504466Y-58805534D03*
X-13244466Y-20705534D03*
X-28484466Y-71505534D03*
X-8164466Y-38485534D03*
X-15784466Y-74045534D03*
X-23404466Y-58805534D03*
X-51344466Y-76585534D03*
X-31024466Y-18165534D03*
D12*
X-89444466Y-5465534D03*
D11*
X-5624466Y-28325534D03*
X-10704466Y-58805534D03*
X-66584466Y-30865534D03*
X-69124466Y-66425534D03*
X-84364466Y-5465534D03*
X1995534Y-81665534D03*
X-81824466Y-10545534D03*
X-20864466Y-68965534D03*
X-41184466Y-18165534D03*
X-544466Y-79125534D03*
X-13244466Y-86745534D03*
X-23404466Y-28325534D03*
X-76744466Y-51185534D03*
X-13244466Y-76585534D03*
X-43724466Y-63885534D03*
X-41184466Y-43565534D03*
X-86904466Y-84205534D03*
X-8164466Y-79125534D03*
X-74204466Y-28325534D03*
X-36104466Y-89285534D03*
X-79284466Y-38485534D03*
X-86904466Y-63885534D03*
X-76744466Y-68965534D03*
X-41184466Y-25785534D03*
X1995534Y-30865534D03*
X-8164466Y-66425534D03*
X-71664466Y-10545534D03*
X-544466Y-33405534D03*
X-79284466Y-56265534D03*
X-48804466Y-25785534D03*
X-41184466Y-66425534D03*
X-89444466Y-41025534D03*
X-58964466Y-46105534D03*
X-86904466Y-48645534D03*
X-13244466Y-38485534D03*
X-10704466Y-86745534D03*
X-86904466Y-51185534D03*
X-64044466Y-91825534D03*
X-71664466Y-48645534D03*
X-56424466Y-53725534D03*
X-20864466Y-56265534D03*
X-46264466Y-56265534D03*
X-51344466Y-48645534D03*
X-20864466Y-38485534D03*
X-15784466Y-41025534D03*
X-81824466Y-8005534D03*
X-89444466Y-74045534D03*
X-51344466Y-56265534D03*
X-66584466Y-58805534D03*
X-84364466Y-48645534D03*
X-81824466Y-15625534D03*
X-89444466Y-18165534D03*
X-56424466Y-8005534D03*
X-64044466Y-86745534D03*
X-58964466Y-71505534D03*
X-51344466Y-38485534D03*
X-28484466Y-89285534D03*
X-61504466Y-94365534D03*
X-13244466Y-94365534D03*
X-66584466Y-2925534D03*
X-13244466Y-30865534D03*
X-43724466Y-68965534D03*
X-38644466Y-48645534D03*
X-56424466Y-28325534D03*
X-31024466Y-30865534D03*
X-53884466Y-56265534D03*
X-20864466Y-63885534D03*
X-76744466Y-43565534D03*
X-5624466Y-53725534D03*
X-91984466Y-15625534D03*
X-20864466Y-81665534D03*
X-5624466Y-38485534D03*
X-71664466Y-74045534D03*
X-84364466Y-23245534D03*
X-10704466Y-76585534D03*
X-544466Y-28325534D03*
X-25944466Y-2925534D03*
X-71664466Y-66425534D03*
X-91984466Y-25785534D03*
X-23404466Y-13085534D03*
X-8164466Y-84205534D03*
X-64044466Y-5465534D03*
X-48804466Y-48645534D03*
X-84364466Y-41025534D03*
X-74204466Y-10545534D03*
X-18324466Y-5465534D03*
X-76744466Y-5465534D03*
X-64044466Y-41025534D03*
X-33564466Y-20705534D03*
X-69124466Y-74045534D03*
X-3084466Y-56265534D03*
X-18324466Y-68965534D03*
X-66584466Y-96905534D03*
X-25944466Y-94365534D03*
X-10704466Y-66425534D03*
X-69124466Y-10545534D03*
X-38644466Y-33405534D03*
X-76744466Y-28325534D03*
X-86904466Y-35945534D03*
X-15784466Y-84205534D03*
X-69124466Y-76585534D03*
X-38644466Y-63885534D03*
X-33564466Y-63885534D03*
X-46264466Y-48645534D03*
X-53884466Y-79125534D03*
X-86904466Y-56265534D03*
X-89444466Y-48645534D03*
X-53884466Y-35945534D03*
X-18324466Y-35945534D03*
X-76744466Y-23245534D03*
X-43724466Y-79125534D03*
X-28484466Y-94365534D03*
X-71664466Y-43565534D03*
X-76744466Y-79125534D03*
X-41184466Y-89285534D03*
X-89444466Y-66425534D03*
X-31024466Y-86745534D03*
X-53884466Y-30865534D03*
X-61504466Y-56265534D03*
X-3084466Y-76585534D03*
X-36104466Y-38485534D03*
X-58964466Y-63885534D03*
X-48804466Y-61345534D03*
X-61504466Y-41025534D03*
X-5624466Y-56265534D03*
X-33564466Y-18165534D03*
X-38644466Y-8005534D03*
X-86904466Y-79125534D03*
X-43724466Y-5465534D03*
X-58964466Y-28325534D03*
X-23404466Y-15625534D03*
X-38644466Y-25785534D03*
X-38644466Y-61345534D03*
X1995534Y-53725534D03*
X-38644466Y-71505534D03*
X-56424466Y-48645534D03*
X-10704466Y-15625534D03*
X-36104466Y-81665534D03*
X-36104466Y-56265534D03*
X-41184466Y-5465534D03*
X-18324466Y-96905534D03*
X-8164466Y-61345534D03*
X-48804466Y-89285534D03*
X-28484466Y-58805534D03*
X-76744466Y-30865534D03*
X-81824466Y-66425534D03*
X-61504466Y-84205534D03*
X-79284466Y-46105534D03*
X-84364466Y-10545534D03*
X-89444466Y-43565534D03*
X-48804466Y-91825534D03*
X-23404466Y-46105534D03*
X-69124466Y-71505534D03*
X-66584466Y-48645534D03*
X-10704466Y-84205534D03*
X-46264466Y-74045534D03*
X-79284466Y-33405534D03*
X-91984466Y-13085534D03*
X-23404466Y-43565534D03*
X-25944466Y-51185534D03*
X-74204466Y-66425534D03*
X-79284466Y-30865534D03*
X-13244466Y-23245534D03*
X-69124466Y-86745534D03*
X-38644466Y-20705534D03*
X-41184466Y-15625534D03*
X-61504466Y-28325534D03*
X-15784466Y-5465534D03*
X-38644466Y-13085534D03*
X-84364466Y-20705534D03*
X-18324466Y-20705534D03*
X-13244466Y-2925534D03*
X-84364466Y-33405534D03*
X-84364466Y-8005534D03*
X-46264466Y-68965534D03*
X-86904466Y-15625534D03*
X-25944466Y-41025534D03*
X-33564466Y-68965534D03*
X-89444466Y-35945534D03*
X-74204466Y-89285534D03*
X-86904466Y-46105534D03*
X-8164466Y-5465534D03*
X-544466Y-41025534D03*
X-13244466Y-33405534D03*
X-84364466Y-74045534D03*
X-74204466Y-58805534D03*
X-61504466Y-96905534D03*
X-23404466Y-89285534D03*
X-89444466Y-79125534D03*
X-23404466Y-81665534D03*
X-38644466Y-51185534D03*
X-10704466Y-74045534D03*
X-71664466Y-8005534D03*
X-69124466Y-89285534D03*
X-8164466Y-63885534D03*
X-5624466Y-18165534D03*
X-13244466Y-81665534D03*
X-69124466Y-81665534D03*
X-36104466Y-41025534D03*
X-84364466Y-89285534D03*
X-25944466Y-33405534D03*
X-38644466Y-10545534D03*
X-74204466Y-5465534D03*
X-15784466Y-89285534D03*
X-36104466Y-5465534D03*
X-71664466Y-63885534D03*
X-31024466Y-84205534D03*
X-3084466Y-48645534D03*
X-3084466Y-79125534D03*
X-71664466Y-68965534D03*
X-91984466Y-58805534D03*
X-79284466Y-81665534D03*
X-58964466Y-86745534D03*
X-79284466Y-61345534D03*
X-48804466Y-43565534D03*
X-23404466Y-10545534D03*
X-36104466Y-28325534D03*
X-56424466Y-20705534D03*
X-53884466Y-91825534D03*
X-31024466Y-41025534D03*
X-20864466Y-86745534D03*
X-84364466Y-63885534D03*
X-46264466Y-13085534D03*
X1995534Y-51185534D03*
X-25944466Y-96905534D03*
X-89444466Y-30865534D03*
X-51344466Y-20705534D03*
X-31024466Y-96905534D03*
X-89444466Y-53725534D03*
X-10704466Y-20705534D03*
X-69124466Y-68965534D03*
X-25944466Y-46105534D03*
X1995534Y-58805534D03*
X-53884466Y-18165534D03*
X-8164466Y-15625534D03*
X-41184466Y-74045534D03*
X-20864466Y-35945534D03*
X-53884466Y-71505534D03*
X-58964466Y-10545534D03*
X-25944466Y-8005534D03*
X-41184466Y-79125534D03*
X-48804466Y-58805534D03*
X-79284466Y-76585534D03*
X-18324466Y-28325534D03*
X-76744466Y-81665534D03*
X-36104466Y-84205534D03*
X-46264466Y-63885534D03*
X-79284466Y-10545534D03*
X-36104466Y-86745534D03*
X-89444466Y-46105534D03*
X-89444466Y-58805534D03*
X-58964466Y-94365534D03*
X-91984466Y-79125534D03*
X-71664466Y-79125534D03*
X-66584466Y-41025534D03*
X-15784466Y-25785534D03*
X-13244466Y-35945534D03*
X-76744466Y-20705534D03*
X-31024466Y-81665534D03*
X-74204466Y-23245534D03*
X-31024466Y-13085534D03*
X-13244466Y-15625534D03*
X-18324466Y-23245534D03*
X-89444466Y-20705534D03*
X-41184466Y-68965534D03*
X-25944466Y-30865534D03*
X1995534Y-41025534D03*
X-3084466Y-68965534D03*
X-91984466Y-53725534D03*
X-23404466Y-18165534D03*
X-41184466Y-51185534D03*
X-28484466Y-76585534D03*
X-36104466Y-43565534D03*
X-43724466Y-20705534D03*
X-51344466Y-84205534D03*
X-56424466Y-89285534D03*
X-66584466Y-79125534D03*
X-10704466Y-56265534D03*
X-74204466Y-68965534D03*
X-71664466Y-13085534D03*
X-18324466Y-48645534D03*
X-84364466Y-94365534D03*
X-66584466Y-89285534D03*
X-15784466Y-18165534D03*
X-544466Y-13085534D03*
X-53884466Y-43565534D03*
X-56424466Y-33405534D03*
X-64044466Y-23245534D03*
X-48804466Y-5465534D03*
X-91984466Y-46105534D03*
X-46264466Y-81665534D03*
X-544466Y-81665534D03*
X-5624466Y-66425534D03*
X-5624466Y-48645534D03*
X-5624466Y-63885534D03*
X-76744466Y-56265534D03*
X-79284466Y-35945534D03*
X-53884466Y-48645534D03*
X-10704466Y-68965534D03*
X-89444466Y-25785534D03*
X-33564466Y-43565534D03*
X-48804466Y-56265534D03*
X-56424466Y-23245534D03*
X-20864466Y-43565534D03*
X-66584466Y-18165534D03*
D12*
X-544466Y-5465534D03*
D11*
X-33564466Y-74045534D03*
X-81824466Y-20705534D03*
X-51344466Y-71505534D03*
X-544466Y-46105534D03*
X-43724466Y-15625534D03*
X-56424466Y-68965534D03*
X-15784466Y-15625534D03*
X-48804466Y-76585534D03*
X-23404466Y-41025534D03*
X-13244466Y-25785534D03*
X-74204466Y-46105534D03*
X-64044466Y-94365534D03*
X-41184466Y-53725534D03*
X-81824466Y-76585534D03*
X-81824466Y-30865534D03*
X-91984466Y-84205534D03*
X-71664466Y-81665534D03*
X-66584466Y-28325534D03*
X-81824466Y-74045534D03*
X-25944466Y-68965534D03*
X-43724466Y-91825534D03*
X-64044466Y-46105534D03*
X-38644466Y-56265534D03*
X-5624466Y-35945534D03*
X-91984466Y-18165534D03*
X-15784466Y-38485534D03*
X-91984466Y-86745534D03*
X-544466Y-68965534D03*
X-23404466Y-61345534D03*
X-56424466Y-15625534D03*
X-33564466Y-30865534D03*
X-33564466Y-41025534D03*
X-84364466Y-96905534D03*
X-18324466Y-38485534D03*
X-28484466Y-56265534D03*
X-20864466Y-33405534D03*
X-25944466Y-84205534D03*
X-51344466Y-10545534D03*
X-64044466Y-13085534D03*
X-33564466Y-89285534D03*
X-61504466Y-10545534D03*
X-36104466Y-91825534D03*
X-25944466Y-66425534D03*
X-58964466Y-84205534D03*
X-61504466Y-68965534D03*
X-69124466Y-33405534D03*
X-64044466Y-89285534D03*
X-36104466Y-33405534D03*
X-74204466Y-61345534D03*
X-81824466Y-63885534D03*
X-18324466Y-43565534D03*
X-10704466Y-25785534D03*
X-544466Y-25785534D03*
X-66584466Y-5465534D03*
X-46264466Y-41025534D03*
X-71664466Y-89285534D03*
X-3084466Y-38485534D03*
X-79284466Y-25785534D03*
X-18324466Y-56265534D03*
X-71664466Y-20705534D03*
X-28484466Y-68965534D03*
X-3084466Y-63885534D03*
X-51344466Y-41025534D03*
X-5624466Y-94365534D03*
X-33564466Y-25785534D03*
X-74204466Y-2925534D03*
X-8164466Y-18165534D03*
X-28484466Y-5465534D03*
X-84364466Y-38485534D03*
X-544466Y-15625534D03*
X-10704466Y-96905534D03*
X-64044466Y-58805534D03*
X-544466Y-84205534D03*
X-79284466Y-15625534D03*
X-48804466Y-68965534D03*
X-61504466Y-33405534D03*
X-76744466Y-48645534D03*
X-81824466Y-28325534D03*
X-66584466Y-33405534D03*
X-58964466Y-13085534D03*
X-91984466Y-61345534D03*
X-23404466Y-20705534D03*
X-74204466Y-33405534D03*
X-13244466Y-10545534D03*
X-5624466Y-41025534D03*
X-46264466Y-15625534D03*
X-51344466Y-68965534D03*
X-74204466Y-86745534D03*
X-43724466Y-81665534D03*
X-33564466Y-15625534D03*
X-25944466Y-43565534D03*
X-66584466Y-76585534D03*
X-84364466Y-35945534D03*
X-31024466Y-46105534D03*
X-69124466Y-8005534D03*
X-91984466Y-51185534D03*
X-64044466Y-38485534D03*
X-25944466Y-15625534D03*
X-28484466Y-66425534D03*
X-71664466Y-15625534D03*
X-15784466Y-56265534D03*
X-53884466Y-53725534D03*
X-8164466Y-23245534D03*
X-81824466Y-25785534D03*
X-86904466Y-28325534D03*
X-74204466Y-81665534D03*
X-56424466Y-63885534D03*
X-79284466Y-79125534D03*
X-64044466Y-84205534D03*
X-48804466Y-33405534D03*
X-76744466Y-33405534D03*
X-28484466Y-79125534D03*
X-79284466Y-96905534D03*
X-10704466Y-30865534D03*
X-23404466Y-2925534D03*
X-43724466Y-30865534D03*
X-66584466Y-43565534D03*
X-38644466Y-89285534D03*
X-23404466Y-71505534D03*
X-53884466Y-76585534D03*
X-48804466Y-86745534D03*
X-20864466Y-53725534D03*
X-56424466Y-91825534D03*
X-38644466Y-58805534D03*
X-41184466Y-61345534D03*
X-66584466Y-53725534D03*
X-8164466Y-94365534D03*
X-61504466Y-13085534D03*
X-31024466Y-53725534D03*
X-53884466Y-86745534D03*
X-544466Y-38485534D03*
X-8164466Y-41025534D03*
X-38644466Y-46105534D03*
X-33564466Y-81665534D03*
X-13244466Y-61345534D03*
X-544466Y-89285534D03*
X-84364466Y-18165534D03*
X-38644466Y-81665534D03*
X-51344466Y-53725534D03*
X-36104466Y-46105534D03*
X-56424466Y-13085534D03*
X-76744466Y-96905534D03*
X1995534Y-74045534D03*
X-89444466Y-61345534D03*
X-18324466Y-71505534D03*
X-8164466Y-20705534D03*
X-43724466Y-38485534D03*
X-25944466Y-38485534D03*
X-3084466Y-71505534D03*
X-23404466Y-48645534D03*
X-58964466Y-5465534D03*
X-31024466Y-66425534D03*
X-20864466Y-10545534D03*
X-89444466Y-33405534D03*
X-38644466Y-84205534D03*
X-64044466Y-43565534D03*
X1995534Y-25785534D03*
X-31024466Y-35945534D03*
X-25944466Y-76585534D03*
X-61504466Y-74045534D03*
X-15784466Y-28325534D03*
X-56424466Y-81665534D03*
X-79284466Y-43565534D03*
X-51344466Y-86745534D03*
X-74204466Y-13085534D03*
X-66584466Y-63885534D03*
X-18324466Y-33405534D03*
X-20864466Y-94365534D03*
X-38644466Y-66425534D03*
X-544466Y-43565534D03*
X-86904466Y-38485534D03*
X-51344466Y-35945534D03*
X-84364466Y-81665534D03*
X-69124466Y-38485534D03*
X-20864466Y-91825534D03*
X-69124466Y-25785534D03*
X-81824466Y-89285534D03*
X-58964466Y-35945534D03*
X-89444466Y-86745534D03*
X-41184466Y-81665534D03*
X-56424466Y-79125534D03*
X-15784466Y-79125534D03*
X-76744466Y-18165534D03*
X-41184466Y-8005534D03*
X-69124466Y-63885534D03*
X-86904466Y-18165534D03*
X-18324466Y-81665534D03*
X-91984466Y-56265534D03*
X-61504466Y-2925534D03*
X-8164466Y-74045534D03*
X-15784466Y-81665534D03*
X-56424466Y-25785534D03*
X-3084466Y-15625534D03*
X-71664466Y-86745534D03*
X-56424466Y-30865534D03*
X-91984466Y-68965534D03*
X-544466Y-56265534D03*
X-25944466Y-13085534D03*
X-10704466Y-48645534D03*
X-36104466Y-35945534D03*
X-86904466Y-10545534D03*
X-5624466Y-61345534D03*
X-43724466Y-18165534D03*
X-69124466Y-96905534D03*
X-23404466Y-66425534D03*
X-28484466Y-15625534D03*
X-10704466Y-13085534D03*
X-5624466Y-23245534D03*
X-3084466Y-20705534D03*
X-20864466Y-13085534D03*
X-38644466Y-30865534D03*
X-61504466Y-89285534D03*
X-56424466Y-2925534D03*
X-20864466Y-46105534D03*
X-81824466Y-2925534D03*
X-5624466Y-79125534D03*
X-41184466Y-91825534D03*
X-18324466Y-30865534D03*
X-13244466Y-53725534D03*
X-84364466Y-51185534D03*
X-8164466Y-2925534D03*
X-64044466Y-66425534D03*
X-33564466Y-61345534D03*
X-66584466Y-46105534D03*
X-10704466Y-18165534D03*
X-41184466Y-46105534D03*
X-18324466Y-2925534D03*
X-64044466Y-2925534D03*
X-81824466Y-58805534D03*
X-36104466Y-15625534D03*
X-8164466Y-8005534D03*
X-51344466Y-46105534D03*
X-84364466Y-84205534D03*
X-48804466Y-23245534D03*
X-64044466Y-10545534D03*
X-53884466Y-81665534D03*
X-3084466Y-30865534D03*
X-10704466Y-53725534D03*
X-58964466Y-56265534D03*
X-31024466Y-68965534D03*
X-58964466Y-43565534D03*
X-28484466Y-18165534D03*
X-8164466Y-76585534D03*
X-79284466Y-66425534D03*
X-43724466Y-23245534D03*
X-69124466Y-79125534D03*
X1995534Y-56265534D03*
X-23404466Y-33405534D03*
X-58964466Y-41025534D03*
X-74204466Y-71505534D03*
X1995534Y-38485534D03*
X-43724466Y-41025534D03*
X-46264466Y-33405534D03*
X-61504466Y-86745534D03*
X-86904466Y-25785534D03*
X-86904466Y-33405534D03*
X-79284466Y-74045534D03*
X-23404466Y-74045534D03*
X-61504466Y-61345534D03*
X-53884466Y-13085534D03*
X-53884466Y-41025534D03*
X-46264466Y-46105534D03*
X-33564466Y-51185534D03*
X-74204466Y-48645534D03*
X-71664466Y-30865534D03*
X-71664466Y-38485534D03*
X-10704466Y-81665534D03*
X-86904466Y-53725534D03*
X-69124466Y-61345534D03*
X-86904466Y-20705534D03*
X-64044466Y-63885534D03*
X-84364466Y-53725534D03*
X-5624466Y-43565534D03*
X-10704466Y-33405534D03*
X-79284466Y-5465534D03*
X-28484466Y-74045534D03*
X-5624466Y-10545534D03*
X-43724466Y-28325534D03*
X-28484466Y-20705534D03*
X-36104466Y-58805534D03*
X-91984466Y-30865534D03*
X-81824466Y-91825534D03*
X-43724466Y-48645534D03*
X-91984466Y-76585534D03*
X-20864466Y-5465534D03*
X-61504466Y-20705534D03*
X-23404466Y-84205534D03*
X-76744466Y-63885534D03*
X-18324466Y-41025534D03*
X-33564466Y-10545534D03*
X-36104466Y-76585534D03*
X-58964466Y-33405534D03*
X-84364466Y-30865534D03*
X-66584466Y-74045534D03*
X-71664466Y-2925534D03*
X-91984466Y-38485534D03*
X-46264466Y-61345534D03*
X-41184466Y-86745534D03*
X-61504466Y-30865534D03*
X-8164466Y-28325534D03*
X1995534Y-15625534D03*
X-91984466Y-66425534D03*
X-79284466Y-13085534D03*
X-46264466Y-71505534D03*
X-15784466Y-43565534D03*
X-15784466Y-33405534D03*
X-8164466Y-51185534D03*
X-8164466Y-86745534D03*
X-23404466Y-68965534D03*
X-84364466Y-76585534D03*
X-56424466Y-46105534D03*
X-46264466Y-10545534D03*
X-8164466Y-53725534D03*
X-43724466Y-86745534D03*
X-10704466Y-94365534D03*
X-53884466Y-66425534D03*
X-51344466Y-63885534D03*
X-31024466Y-76585534D03*
X-8164466Y-33405534D03*
X-71664466Y-76585534D03*
X-25944466Y-91825534D03*
X-81824466Y-53725534D03*
X-64044466Y-56265534D03*
X-53884466Y-25785534D03*
X-36104466Y-74045534D03*
X-25944466Y-56265534D03*
X-5624466Y-58805534D03*
X-69124466Y-51185534D03*
X-36104466Y-71505534D03*
X-84364466Y-13085534D03*
X-86904466Y-23245534D03*
X-89444466Y-56265534D03*
X-28484466Y-8005534D03*
X-20864466Y-20705534D03*
X-58964466Y-76585534D03*
X-43724466Y-8005534D03*
X-38644466Y-41025534D03*
X-3084466Y-53725534D03*
X-15784466Y-13085534D03*
X-66584466Y-10545534D03*
X-64044466Y-15625534D03*
X-3084466Y-61345534D03*
X-31024466Y-2925534D03*
X-66584466Y-13085534D03*
X-28484466Y-48645534D03*
X-8164466Y-81665534D03*
X-84364466Y-61345534D03*
X-18324466Y-58805534D03*
X-13244466Y-63885534D03*
X-544466Y-66425534D03*
X-84364466Y-25785534D03*
X-66584466Y-66425534D03*
X-64044466Y-79125534D03*
X-51344466Y-28325534D03*
X-81824466Y-33405534D03*
X-76744466Y-84205534D03*
X-48804466Y-2925534D03*
X-51344466Y-2925534D03*
X-33564466Y-33405534D03*
X-71664466Y-71505534D03*
X-84364466Y-46105534D03*
X-28484466Y-86745534D03*
X-28484466Y-91825534D03*
X-76744466Y-61345534D03*
X-53884466Y-51185534D03*
X-13244466Y-91825534D03*
X-58964466Y-20705534D03*
X-8164466Y-13085534D03*
X-74204466Y-79125534D03*
X-13244466Y-28325534D03*
X-66584466Y-81665534D03*
X-58964466Y-89285534D03*
X-89444466Y-71505534D03*
X-8164466Y-25785534D03*
X-23404466Y-96905534D03*
X-13244466Y-96905534D03*
X-91984466Y-35945534D03*
X-81824466Y-56265534D03*
X-25944466Y-63885534D03*
X-36104466Y-25785534D03*
X-23404466Y-56265534D03*
X-18324466Y-74045534D03*
X-71664466Y-23245534D03*
X-20864466Y-84205534D03*
X-64044466Y-18165534D03*
X-25944466Y-25785534D03*
X-20864466Y-51185534D03*
X1995534Y-68965534D03*
X-31024466Y-51185534D03*
X-31024466Y-38485534D03*
X-23404466Y-63885534D03*
X-89444466Y-76585534D03*
X-3084466Y-46105534D03*
X-28484466Y-43565534D03*
X-81824466Y-51185534D03*
X-33564466Y-84205534D03*
X-5624466Y-76585534D03*
X-61504466Y-35945534D03*
X-33564466Y-56265534D03*
X-56424466Y-18165534D03*
X-46264466Y-79125534D03*
X-91984466Y-63885534D03*
X-89444466Y-10545534D03*
X-41184466Y-48645534D03*
X-76744466Y-58805534D03*
X-86904466Y-74045534D03*
X-66584466Y-38485534D03*
X-15784466Y-66425534D03*
X-33564466Y-86745534D03*
X-5624466Y-71505534D03*
X-84364466Y-43565534D03*
X-61504466Y-38485534D03*
X-36104466Y-20705534D03*
X-15784466Y-63885534D03*
X-48804466Y-66425534D03*
X-66584466Y-51185534D03*
X-31024466Y-23245534D03*
X-28484466Y-63885534D03*
X-38644466Y-74045534D03*
X-76744466Y-94365534D03*
X-74204466Y-76585534D03*
X-74204466Y-63885534D03*
X-20864466Y-71505534D03*
X-51344466Y-30865534D03*
X-58964466Y-15625534D03*
X-20864466Y-25785534D03*
X-8164466Y-35945534D03*
X-58964466Y-2925534D03*
X-15784466Y-53725534D03*
X-15784466Y-68965534D03*
X-36104466Y-79125534D03*
X-76744466Y-25785534D03*
X-3084466Y-89285534D03*
X-81824466Y-38485534D03*
X1995534Y-63885534D03*
X-81824466Y-81665534D03*
X-38644466Y-53725534D03*
X-56424466Y-35945534D03*
X-53884466Y-5465534D03*
X-23404466Y-76585534D03*
X-23404466Y-51185534D03*
X-46264466Y-58805534D03*
X-71664466Y-33405534D03*
X-33564466Y-2925534D03*
X-23404466Y-30865534D03*
X-84364466Y-2925534D03*
X-53884466Y-46105534D03*
X-28484466Y-53725534D03*
X-25944466Y-5465534D03*
X1995534Y-89285534D03*
X-81824466Y-96905534D03*
X-71664466Y-46105534D03*
X-28484466Y-35945534D03*
X-5624466Y-20705534D03*
X-43724466Y-10545534D03*
X-36104466Y-8005534D03*
X-69124466Y-48645534D03*
X-53884466Y-74045534D03*
X-48804466Y-30865534D03*
X-31024466Y-43565534D03*
X-13244466Y-51185534D03*
X-76744466Y-41025534D03*
X-81824466Y-71505534D03*
X-41184466Y-63885534D03*
X-46264466Y-25785534D03*
X-53884466Y-63885534D03*
X-74204466Y-43565534D03*
X-69124466Y-13085534D03*
X-58964466Y-18165534D03*
%LPD*%
M02*
