M48
; DRILL file {KiCad 7.0.9} date Fri Jan 12 02:26:27 2024
; FORMAT={-:-/ absolute / metric / decimal}
; #@! TF.CreationDate,2024-01-12T02:26:27+08:00
; #@! TF.GenerationSoftware,Kicad,Pcbnew,7.0.9
; #@! TF.FileFunction,MixedPlating,1,2
FMAT,2
METRIC
; #@! TA.AperFunction,Plated,PTH,ViaDrill
T1C1.000
; #@! TA.AperFunction,Plated,PTH,ViaDrill
T2C3.000
%
G90
G05
T1
X-1.984Y-10.546
X-1.984Y-13.086
X-1.984Y-15.626
X-1.984Y-18.166
X-1.984Y-20.706
X-1.984Y-23.246
X-1.984Y-25.786
X-1.984Y-28.326
X-1.984Y-30.866
X-1.984Y-33.406
X-1.984Y-35.946
X-1.984Y-38.486
X-1.984Y-41.026
X-1.984Y-43.566
X-1.984Y-46.106
X-1.984Y-48.646
X-1.984Y-51.186
X-1.984Y-53.726
X-1.984Y-56.266
X-1.984Y-58.806
X-1.984Y-61.346
X-1.984Y-63.886
X-1.984Y-66.426
X-1.984Y-68.966
X-1.984Y-71.506
X-1.984Y-74.046
X-1.984Y-76.586
X-1.984Y-79.126
X-1.984Y-81.666
X-1.984Y-84.206
X-1.984Y-86.746
X-1.984Y-89.286
X0.556Y-10.546
X0.556Y-13.086
X0.556Y-15.626
X0.556Y-18.166
X0.556Y-20.706
X0.556Y-23.246
X0.556Y-25.786
X0.556Y-28.326
X0.556Y-30.866
X0.556Y-33.406
X0.556Y-35.946
X0.556Y-38.486
X0.556Y-41.026
X0.556Y-43.566
X0.556Y-46.106
X0.556Y-48.646
X0.556Y-51.186
X0.556Y-53.726
X0.556Y-56.266
X0.556Y-58.806
X0.556Y-61.346
X0.556Y-63.886
X0.556Y-66.426
X0.556Y-68.966
X0.556Y-71.506
X0.556Y-74.046
X0.556Y-76.586
X0.556Y-79.126
X0.556Y-81.666
X0.556Y-84.206
X0.556Y-86.746
X0.556Y-89.286
X3.096Y-10.546
X3.096Y-13.086
X3.096Y-15.626
X3.096Y-18.166
X3.096Y-20.706
X3.096Y-23.246
X3.096Y-25.786
X3.096Y-28.326
X3.096Y-30.866
X3.096Y-33.406
X3.096Y-35.946
X3.096Y-38.486
X3.096Y-41.026
X3.096Y-43.566
X3.096Y-46.106
X3.096Y-48.646
X3.096Y-51.186
X3.096Y-53.726
X3.096Y-56.266
X3.096Y-58.806
X3.096Y-61.346
X3.096Y-63.886
X3.096Y-66.426
X3.096Y-68.966
X3.096Y-71.506
X3.096Y-74.046
X3.096Y-76.586
X3.096Y-79.126
X3.096Y-81.666
X3.096Y-84.206
X3.096Y-86.746
X3.096Y-89.286
X5.636Y-2.926
X5.636Y-5.466
X5.636Y-8.006
X5.636Y-10.546
X5.636Y-13.086
X5.636Y-15.626
X5.636Y-18.166
X5.636Y-20.706
X5.636Y-23.246
X5.636Y-25.786
X5.636Y-28.326
X5.636Y-30.866
X5.636Y-33.406
X5.636Y-35.946
X5.636Y-38.486
X5.636Y-41.026
X5.636Y-43.566
X5.636Y-46.106
X5.636Y-48.646
X5.636Y-51.186
X5.636Y-53.726
X5.636Y-56.266
X5.636Y-58.806
X5.636Y-61.346
X5.636Y-63.886
X5.636Y-66.426
X5.636Y-68.966
X5.636Y-71.506
X5.636Y-74.046
X5.636Y-76.586
X5.636Y-79.126
X5.636Y-81.666
X5.636Y-84.206
X5.636Y-86.746
X5.636Y-89.286
X5.636Y-91.826
X5.636Y-94.366
X5.636Y-96.906
X8.176Y-2.926
X8.176Y-5.466
X8.176Y-8.006
X8.176Y-10.546
X8.176Y-13.086
X8.176Y-15.626
X8.176Y-18.166
X8.176Y-20.706
X8.176Y-23.246
X8.176Y-25.786
X8.176Y-28.326
X8.176Y-30.866
X8.176Y-33.406
X8.176Y-35.946
X8.176Y-38.486
X8.176Y-41.026
X8.176Y-43.566
X8.176Y-46.106
X8.176Y-48.646
X8.176Y-51.186
X8.176Y-53.726
X8.176Y-56.266
X8.176Y-58.806
X8.176Y-61.346
X8.176Y-63.886
X8.176Y-66.426
X8.176Y-68.966
X8.176Y-71.506
X8.176Y-74.046
X8.176Y-76.586
X8.176Y-79.126
X8.176Y-81.666
X8.176Y-84.206
X8.176Y-86.746
X8.176Y-89.286
X8.176Y-91.826
X8.176Y-94.366
X8.176Y-96.906
X10.716Y-2.926
X10.716Y-5.466
X10.716Y-8.006
X10.716Y-10.546
X10.716Y-13.086
X10.716Y-15.626
X10.716Y-18.166
X10.716Y-20.706
X10.716Y-23.246
X10.716Y-25.786
X10.716Y-28.326
X10.716Y-30.866
X10.716Y-33.406
X10.716Y-35.946
X10.716Y-38.486
X10.716Y-41.026
X10.716Y-43.566
X10.716Y-46.106
X10.716Y-48.646
X10.716Y-51.186
X10.716Y-53.726
X10.716Y-56.266
X10.716Y-58.806
X10.716Y-61.346
X10.716Y-63.886
X10.716Y-66.426
X10.716Y-68.966
X10.716Y-71.506
X10.716Y-74.046
X10.716Y-76.586
X10.716Y-79.126
X10.716Y-81.666
X10.716Y-84.206
X10.716Y-86.746
X10.716Y-89.286
X10.716Y-91.826
X10.716Y-94.366
X10.716Y-96.906
X13.256Y-2.926
X13.256Y-5.466
X13.256Y-8.006
X13.256Y-10.546
X13.256Y-13.086
X13.256Y-15.626
X13.256Y-18.166
X13.256Y-20.706
X13.256Y-23.246
X13.256Y-25.786
X13.256Y-28.326
X13.256Y-30.866
X13.256Y-33.406
X13.256Y-35.946
X13.256Y-38.486
X13.256Y-41.026
X13.256Y-43.566
X13.256Y-46.106
X13.256Y-48.646
X13.256Y-51.186
X13.256Y-53.726
X13.256Y-56.266
X13.256Y-58.806
X13.256Y-61.346
X13.256Y-63.886
X13.256Y-66.426
X13.256Y-68.966
X13.256Y-71.506
X13.256Y-74.046
X13.256Y-76.586
X13.256Y-79.126
X13.256Y-81.666
X13.256Y-84.206
X13.256Y-86.746
X13.256Y-89.286
X13.256Y-91.826
X13.256Y-94.366
X13.256Y-96.906
X15.796Y-2.926
X15.796Y-5.466
X15.796Y-8.006
X15.796Y-10.546
X15.796Y-13.086
X15.796Y-15.626
X15.796Y-18.166
X15.796Y-20.706
X15.796Y-23.246
X15.796Y-25.786
X15.796Y-28.326
X15.796Y-30.866
X15.796Y-33.406
X15.796Y-35.946
X15.796Y-38.486
X15.796Y-41.026
X15.796Y-43.566
X15.796Y-46.106
X15.796Y-48.646
X15.796Y-51.186
X15.796Y-53.726
X15.796Y-56.266
X15.796Y-58.806
X15.796Y-61.346
X15.796Y-63.886
X15.796Y-66.426
X15.796Y-68.966
X15.796Y-71.506
X15.796Y-74.046
X15.796Y-76.586
X15.796Y-79.126
X15.796Y-81.666
X15.796Y-84.206
X15.796Y-86.746
X15.796Y-89.286
X15.796Y-91.826
X15.796Y-94.366
X15.796Y-96.906
X18.336Y-2.926
X18.336Y-5.466
X18.336Y-8.006
X18.336Y-10.546
X18.336Y-13.086
X18.336Y-15.626
X18.336Y-18.166
X18.336Y-20.706
X18.336Y-23.246
X18.336Y-25.786
X18.336Y-28.326
X18.336Y-30.866
X18.336Y-33.406
X18.336Y-35.946
X18.336Y-38.486
X18.336Y-41.026
X18.336Y-43.566
X18.336Y-46.106
X18.336Y-48.646
X18.336Y-51.186
X18.336Y-53.726
X18.336Y-56.266
X18.336Y-58.806
X18.336Y-61.346
X18.336Y-63.886
X18.336Y-66.426
X18.336Y-68.966
X18.336Y-71.506
X18.336Y-74.046
X18.336Y-76.586
X18.336Y-79.126
X18.336Y-81.666
X18.336Y-84.206
X18.336Y-86.746
X18.336Y-89.286
X18.336Y-91.826
X18.336Y-94.366
X18.336Y-96.906
X20.876Y-2.926
X20.876Y-5.466
X20.876Y-8.006
X20.876Y-10.546
X20.876Y-13.086
X20.876Y-15.626
X20.876Y-18.166
X20.876Y-20.706
X20.876Y-23.246
X20.876Y-25.786
X20.876Y-28.326
X20.876Y-30.866
X20.876Y-33.406
X20.876Y-35.946
X20.876Y-38.486
X20.876Y-41.026
X20.876Y-43.566
X20.876Y-46.106
X20.876Y-48.646
X20.876Y-51.186
X20.876Y-53.726
X20.876Y-56.266
X20.876Y-58.806
X20.876Y-61.346
X20.876Y-63.886
X20.876Y-66.426
X20.876Y-68.966
X20.876Y-71.506
X20.876Y-74.046
X20.876Y-76.586
X20.876Y-79.126
X20.876Y-81.666
X20.876Y-84.206
X20.876Y-86.746
X20.876Y-89.286
X20.876Y-91.826
X20.876Y-94.366
X20.876Y-96.906
X23.416Y-2.926
X23.416Y-5.466
X23.416Y-8.006
X23.416Y-10.546
X23.416Y-13.086
X23.416Y-15.626
X23.416Y-18.166
X23.416Y-20.706
X23.416Y-23.246
X23.416Y-25.786
X23.416Y-28.326
X23.416Y-30.866
X23.416Y-33.406
X23.416Y-35.946
X23.416Y-38.486
X23.416Y-41.026
X23.416Y-43.566
X23.416Y-46.106
X23.416Y-48.646
X23.416Y-51.186
X23.416Y-53.726
X23.416Y-56.266
X23.416Y-58.806
X23.416Y-61.346
X23.416Y-63.886
X23.416Y-66.426
X23.416Y-68.966
X23.416Y-71.506
X23.416Y-74.046
X23.416Y-76.586
X23.416Y-79.126
X23.416Y-81.666
X23.416Y-84.206
X23.416Y-86.746
X23.416Y-89.286
X23.416Y-91.826
X23.416Y-94.366
X23.416Y-96.906
X25.956Y-2.926
X25.956Y-5.466
X25.956Y-8.006
X25.956Y-10.546
X25.956Y-13.086
X25.956Y-15.626
X25.956Y-18.166
X25.956Y-20.706
X25.956Y-23.246
X25.956Y-25.786
X25.956Y-28.326
X25.956Y-30.866
X25.956Y-33.406
X25.956Y-35.946
X25.956Y-38.486
X25.956Y-41.026
X25.956Y-43.566
X25.956Y-46.106
X25.956Y-48.646
X25.956Y-51.186
X25.956Y-53.726
X25.956Y-56.266
X25.956Y-58.806
X25.956Y-61.346
X25.956Y-63.886
X25.956Y-66.426
X25.956Y-68.966
X25.956Y-71.506
X25.956Y-74.046
X25.956Y-76.586
X25.956Y-79.126
X25.956Y-81.666
X25.956Y-84.206
X25.956Y-86.746
X25.956Y-89.286
X25.956Y-91.826
X25.956Y-94.366
X25.956Y-96.906
X28.496Y-2.926
X28.496Y-5.466
X28.496Y-8.006
X28.496Y-10.546
X28.496Y-13.086
X28.496Y-15.626
X28.496Y-18.166
X28.496Y-20.706
X28.496Y-23.246
X28.496Y-25.786
X28.496Y-28.326
X28.496Y-30.866
X28.496Y-33.406
X28.496Y-35.946
X28.496Y-38.486
X28.496Y-41.026
X28.496Y-43.566
X28.496Y-46.106
X28.496Y-48.646
X28.496Y-51.186
X28.496Y-53.726
X28.496Y-56.266
X28.496Y-58.806
X28.496Y-61.346
X28.496Y-63.886
X28.496Y-66.426
X28.496Y-68.966
X28.496Y-71.506
X28.496Y-74.046
X28.496Y-76.586
X28.496Y-79.126
X28.496Y-81.666
X28.496Y-84.206
X28.496Y-86.746
X28.496Y-89.286
X28.496Y-91.826
X28.496Y-94.366
X28.496Y-96.906
X31.036Y-2.926
X31.036Y-5.466
X31.036Y-8.006
X31.036Y-10.546
X31.036Y-13.086
X31.036Y-15.626
X31.036Y-18.166
X31.036Y-20.706
X31.036Y-23.246
X31.036Y-25.786
X31.036Y-28.326
X31.036Y-30.866
X31.036Y-33.406
X31.036Y-35.946
X31.036Y-38.486
X31.036Y-41.026
X31.036Y-43.566
X31.036Y-46.106
X31.036Y-48.646
X31.036Y-51.186
X31.036Y-53.726
X31.036Y-56.266
X31.036Y-58.806
X31.036Y-61.346
X31.036Y-63.886
X31.036Y-66.426
X31.036Y-68.966
X31.036Y-71.506
X31.036Y-74.046
X31.036Y-76.586
X31.036Y-79.126
X31.036Y-81.666
X31.036Y-84.206
X31.036Y-86.746
X31.036Y-89.286
X31.036Y-91.826
X31.036Y-94.366
X31.036Y-96.906
X33.576Y-2.926
X33.576Y-5.466
X33.576Y-8.006
X33.576Y-10.546
X33.576Y-13.086
X33.576Y-15.626
X33.576Y-18.166
X33.576Y-20.706
X33.576Y-23.246
X33.576Y-25.786
X33.576Y-28.326
X33.576Y-30.866
X33.576Y-33.406
X33.576Y-35.946
X33.576Y-38.486
X33.576Y-41.026
X33.576Y-43.566
X33.576Y-46.106
X33.576Y-48.646
X33.576Y-51.186
X33.576Y-53.726
X33.576Y-56.266
X33.576Y-58.806
X33.576Y-61.346
X33.576Y-63.886
X33.576Y-66.426
X33.576Y-68.966
X33.576Y-71.506
X33.576Y-74.046
X33.576Y-76.586
X33.576Y-79.126
X33.576Y-81.666
X33.576Y-84.206
X33.576Y-86.746
X33.576Y-89.286
X33.576Y-91.826
X36.116Y-2.926
X36.116Y-5.466
X36.116Y-8.006
X36.116Y-10.546
X36.116Y-13.086
X36.116Y-15.626
X36.116Y-18.166
X36.116Y-20.706
X36.116Y-23.246
X36.116Y-25.786
X36.116Y-28.326
X36.116Y-30.866
X36.116Y-33.406
X36.116Y-35.946
X36.116Y-38.486
X36.116Y-41.026
X36.116Y-43.566
X36.116Y-46.106
X36.116Y-48.646
X36.116Y-51.186
X36.116Y-53.726
X36.116Y-56.266
X36.116Y-58.806
X36.116Y-61.346
X36.116Y-63.886
X36.116Y-66.426
X36.116Y-68.966
X36.116Y-71.506
X36.116Y-74.046
X36.116Y-76.586
X36.116Y-79.126
X36.116Y-81.666
X36.116Y-84.206
X36.116Y-86.746
X36.116Y-89.286
X36.116Y-91.826
X38.656Y-2.926
X38.656Y-5.466
X38.656Y-8.006
X38.656Y-10.546
X38.656Y-13.086
X38.656Y-15.626
X38.656Y-18.166
X38.656Y-20.706
X38.656Y-23.246
X38.656Y-25.786
X38.656Y-28.326
X38.656Y-30.866
X38.656Y-33.406
X38.656Y-35.946
X38.656Y-38.486
X38.656Y-41.026
X38.656Y-43.566
X38.656Y-46.106
X38.656Y-48.646
X38.656Y-51.186
X38.656Y-53.726
X38.656Y-56.266
X38.656Y-58.806
X38.656Y-61.346
X38.656Y-63.886
X38.656Y-66.426
X38.656Y-68.966
X38.656Y-71.506
X38.656Y-74.046
X38.656Y-76.586
X38.656Y-79.126
X38.656Y-81.666
X38.656Y-84.206
X38.656Y-86.746
X38.656Y-89.286
X38.656Y-91.826
X41.196Y-2.926
X41.196Y-5.466
X41.196Y-8.006
X41.196Y-10.546
X41.196Y-13.086
X41.196Y-15.626
X41.196Y-18.166
X41.196Y-20.706
X41.196Y-23.246
X41.196Y-25.786
X41.196Y-28.326
X41.196Y-30.866
X41.196Y-33.406
X41.196Y-35.946
X41.196Y-38.486
X41.196Y-41.026
X41.196Y-43.566
X41.196Y-46.106
X41.196Y-48.646
X41.196Y-51.186
X41.196Y-53.726
X41.196Y-56.266
X41.196Y-58.806
X41.196Y-61.346
X41.196Y-63.886
X41.196Y-66.426
X41.196Y-68.966
X41.196Y-71.506
X41.196Y-74.046
X41.196Y-76.586
X41.196Y-79.126
X41.196Y-81.666
X41.196Y-84.206
X41.196Y-86.746
X41.196Y-89.286
X41.196Y-91.826
X43.736Y-2.926
X43.736Y-5.466
X43.736Y-8.006
X43.736Y-10.546
X43.736Y-13.086
X43.736Y-15.626
X43.736Y-18.166
X43.736Y-20.706
X43.736Y-23.246
X43.736Y-25.786
X43.736Y-28.326
X43.736Y-30.866
X43.736Y-33.406
X43.736Y-35.946
X43.736Y-38.486
X43.736Y-41.026
X43.736Y-43.566
X43.736Y-46.106
X43.736Y-48.646
X43.736Y-51.186
X43.736Y-53.726
X43.736Y-56.266
X43.736Y-58.806
X43.736Y-61.346
X43.736Y-63.886
X43.736Y-66.426
X43.736Y-68.966
X43.736Y-71.506
X43.736Y-74.046
X43.736Y-76.586
X43.736Y-79.126
X43.736Y-81.666
X43.736Y-84.206
X43.736Y-86.746
X43.736Y-89.286
X43.736Y-91.826
X46.276Y-2.926
X46.276Y-5.466
X46.276Y-8.006
X46.276Y-10.546
X46.276Y-13.086
X46.276Y-15.626
X46.276Y-18.166
X46.276Y-20.706
X46.276Y-23.246
X46.276Y-25.786
X46.276Y-28.326
X46.276Y-30.866
X46.276Y-33.406
X46.276Y-35.946
X46.276Y-38.486
X46.276Y-41.026
X46.276Y-43.566
X46.276Y-46.106
X46.276Y-48.646
X46.276Y-51.186
X46.276Y-53.726
X46.276Y-56.266
X46.276Y-58.806
X46.276Y-61.346
X46.276Y-63.886
X46.276Y-66.426
X46.276Y-68.966
X46.276Y-71.506
X46.276Y-74.046
X46.276Y-76.586
X46.276Y-79.126
X46.276Y-81.666
X46.276Y-84.206
X46.276Y-86.746
X46.276Y-89.286
X46.276Y-91.826
X48.816Y-2.926
X48.816Y-5.466
X48.816Y-8.006
X48.816Y-10.546
X48.816Y-13.086
X48.816Y-15.626
X48.816Y-18.166
X48.816Y-20.706
X48.816Y-23.246
X48.816Y-25.786
X48.816Y-28.326
X48.816Y-30.866
X48.816Y-33.406
X48.816Y-35.946
X48.816Y-38.486
X48.816Y-41.026
X48.816Y-43.566
X48.816Y-46.106
X48.816Y-48.646
X48.816Y-51.186
X48.816Y-53.726
X48.816Y-56.266
X48.816Y-58.806
X48.816Y-61.346
X48.816Y-63.886
X48.816Y-66.426
X48.816Y-68.966
X48.816Y-71.506
X48.816Y-74.046
X48.816Y-76.586
X48.816Y-79.126
X48.816Y-81.666
X48.816Y-84.206
X48.816Y-86.746
X48.816Y-89.286
X48.816Y-91.826
X51.356Y-2.926
X51.356Y-5.466
X51.356Y-8.006
X51.356Y-10.546
X51.356Y-13.086
X51.356Y-15.626
X51.356Y-18.166
X51.356Y-20.706
X51.356Y-23.246
X51.356Y-25.786
X51.356Y-28.326
X51.356Y-30.866
X51.356Y-33.406
X51.356Y-35.946
X51.356Y-38.486
X51.356Y-41.026
X51.356Y-43.566
X51.356Y-46.106
X51.356Y-48.646
X51.356Y-51.186
X51.356Y-53.726
X51.356Y-56.266
X51.356Y-58.806
X51.356Y-61.346
X51.356Y-63.886
X51.356Y-66.426
X51.356Y-68.966
X51.356Y-71.506
X51.356Y-74.046
X51.356Y-76.586
X51.356Y-79.126
X51.356Y-81.666
X51.356Y-84.206
X51.356Y-86.746
X51.356Y-89.286
X51.356Y-91.826
X53.896Y-2.926
X53.896Y-5.466
X53.896Y-8.006
X53.896Y-10.546
X53.896Y-13.086
X53.896Y-15.626
X53.896Y-18.166
X53.896Y-20.706
X53.896Y-23.246
X53.896Y-25.786
X53.896Y-28.326
X53.896Y-30.866
X53.896Y-33.406
X53.896Y-35.946
X53.896Y-38.486
X53.896Y-41.026
X53.896Y-43.566
X53.896Y-46.106
X53.896Y-48.646
X53.896Y-51.186
X53.896Y-53.726
X53.896Y-56.266
X53.896Y-58.806
X53.896Y-61.346
X53.896Y-63.886
X53.896Y-66.426
X53.896Y-68.966
X53.896Y-71.506
X53.896Y-74.046
X53.896Y-76.586
X53.896Y-79.126
X53.896Y-81.666
X53.896Y-84.206
X53.896Y-86.746
X53.896Y-89.286
X53.896Y-91.826
X56.436Y-2.926
X56.436Y-5.466
X56.436Y-8.006
X56.436Y-10.546
X56.436Y-13.086
X56.436Y-15.626
X56.436Y-18.166
X56.436Y-20.706
X56.436Y-23.246
X56.436Y-25.786
X56.436Y-28.326
X56.436Y-30.866
X56.436Y-33.406
X56.436Y-35.946
X56.436Y-38.486
X56.436Y-41.026
X56.436Y-43.566
X56.436Y-46.106
X56.436Y-48.646
X56.436Y-51.186
X56.436Y-53.726
X56.436Y-56.266
X56.436Y-58.806
X56.436Y-61.346
X56.436Y-63.886
X56.436Y-66.426
X56.436Y-68.966
X56.436Y-71.506
X56.436Y-74.046
X56.436Y-76.586
X56.436Y-79.126
X56.436Y-81.666
X56.436Y-84.206
X56.436Y-86.746
X56.436Y-89.286
X56.436Y-91.826
X58.976Y-2.926
X58.976Y-5.466
X58.976Y-8.006
X58.976Y-10.546
X58.976Y-13.086
X58.976Y-15.626
X58.976Y-18.166
X58.976Y-20.706
X58.976Y-23.246
X58.976Y-25.786
X58.976Y-28.326
X58.976Y-30.866
X58.976Y-33.406
X58.976Y-35.946
X58.976Y-38.486
X58.976Y-41.026
X58.976Y-43.566
X58.976Y-46.106
X58.976Y-48.646
X58.976Y-51.186
X58.976Y-53.726
X58.976Y-56.266
X58.976Y-58.806
X58.976Y-61.346
X58.976Y-63.886
X58.976Y-66.426
X58.976Y-68.966
X58.976Y-71.506
X58.976Y-74.046
X58.976Y-76.586
X58.976Y-79.126
X58.976Y-81.666
X58.976Y-84.206
X58.976Y-86.746
X58.976Y-89.286
X58.976Y-91.826
X58.976Y-94.366
X58.976Y-96.906
X61.516Y-2.926
X61.516Y-5.466
X61.516Y-8.006
X61.516Y-10.546
X61.516Y-13.086
X61.516Y-15.626
X61.516Y-18.166
X61.516Y-20.706
X61.516Y-23.246
X61.516Y-25.786
X61.516Y-28.326
X61.516Y-30.866
X61.516Y-33.406
X61.516Y-35.946
X61.516Y-38.486
X61.516Y-41.026
X61.516Y-43.566
X61.516Y-46.106
X61.516Y-48.646
X61.516Y-51.186
X61.516Y-53.726
X61.516Y-56.266
X61.516Y-58.806
X61.516Y-61.346
X61.516Y-63.886
X61.516Y-66.426
X61.516Y-68.966
X61.516Y-71.506
X61.516Y-74.046
X61.516Y-76.586
X61.516Y-79.126
X61.516Y-81.666
X61.516Y-84.206
X61.516Y-86.746
X61.516Y-89.286
X61.516Y-91.826
X61.516Y-94.366
X61.516Y-96.906
X64.056Y-2.926
X64.056Y-5.466
X64.056Y-8.006
X64.056Y-10.546
X64.056Y-13.086
X64.056Y-15.626
X64.056Y-18.166
X64.056Y-20.706
X64.056Y-23.246
X64.056Y-25.786
X64.056Y-28.326
X64.056Y-30.866
X64.056Y-33.406
X64.056Y-35.946
X64.056Y-38.486
X64.056Y-41.026
X64.056Y-43.566
X64.056Y-46.106
X64.056Y-48.646
X64.056Y-51.186
X64.056Y-53.726
X64.056Y-56.266
X64.056Y-58.806
X64.056Y-61.346
X64.056Y-63.886
X64.056Y-66.426
X64.056Y-68.966
X64.056Y-71.506
X64.056Y-74.046
X64.056Y-76.586
X64.056Y-79.126
X64.056Y-81.666
X64.056Y-84.206
X64.056Y-86.746
X64.056Y-89.286
X64.056Y-91.826
X64.056Y-94.366
X64.056Y-96.906
X66.596Y-2.926
X66.596Y-5.466
X66.596Y-8.006
X66.596Y-10.546
X66.596Y-13.086
X66.596Y-15.626
X66.596Y-18.166
X66.596Y-20.706
X66.596Y-23.246
X66.596Y-25.786
X66.596Y-28.326
X66.596Y-30.866
X66.596Y-33.406
X66.596Y-35.946
X66.596Y-38.486
X66.596Y-41.026
X66.596Y-43.566
X66.596Y-46.106
X66.596Y-48.646
X66.596Y-51.186
X66.596Y-53.726
X66.596Y-56.266
X66.596Y-58.806
X66.596Y-61.346
X66.596Y-63.886
X66.596Y-66.426
X66.596Y-68.966
X66.596Y-71.506
X66.596Y-74.046
X66.596Y-76.586
X66.596Y-79.126
X66.596Y-81.666
X66.596Y-84.206
X66.596Y-86.746
X66.596Y-89.286
X66.596Y-91.826
X66.596Y-94.366
X66.596Y-96.906
X69.136Y-2.926
X69.136Y-5.466
X69.136Y-8.006
X69.136Y-10.546
X69.136Y-13.086
X69.136Y-15.626
X69.136Y-18.166
X69.136Y-20.706
X69.136Y-23.246
X69.136Y-25.786
X69.136Y-28.326
X69.136Y-30.866
X69.136Y-33.406
X69.136Y-35.946
X69.136Y-38.486
X69.136Y-41.026
X69.136Y-43.566
X69.136Y-46.106
X69.136Y-48.646
X69.136Y-51.186
X69.136Y-53.726
X69.136Y-56.266
X69.136Y-58.806
X69.136Y-61.346
X69.136Y-63.886
X69.136Y-66.426
X69.136Y-68.966
X69.136Y-71.506
X69.136Y-74.046
X69.136Y-76.586
X69.136Y-79.126
X69.136Y-81.666
X69.136Y-84.206
X69.136Y-86.746
X69.136Y-89.286
X69.136Y-91.826
X69.136Y-94.366
X69.136Y-96.906
X71.676Y-2.926
X71.676Y-5.466
X71.676Y-8.006
X71.676Y-10.546
X71.676Y-13.086
X71.676Y-15.626
X71.676Y-18.166
X71.676Y-20.706
X71.676Y-23.246
X71.676Y-25.786
X71.676Y-28.326
X71.676Y-30.866
X71.676Y-33.406
X71.676Y-35.946
X71.676Y-38.486
X71.676Y-41.026
X71.676Y-43.566
X71.676Y-46.106
X71.676Y-48.646
X71.676Y-51.186
X71.676Y-53.726
X71.676Y-56.266
X71.676Y-58.806
X71.676Y-61.346
X71.676Y-63.886
X71.676Y-66.426
X71.676Y-68.966
X71.676Y-71.506
X71.676Y-74.046
X71.676Y-76.586
X71.676Y-79.126
X71.676Y-81.666
X71.676Y-84.206
X71.676Y-86.746
X71.676Y-89.286
X71.676Y-91.826
X71.676Y-94.366
X71.676Y-96.906
X74.216Y-2.926
X74.216Y-5.466
X74.216Y-8.006
X74.216Y-10.546
X74.216Y-13.086
X74.216Y-15.626
X74.216Y-18.166
X74.216Y-20.706
X74.216Y-23.246
X74.216Y-25.786
X74.216Y-28.326
X74.216Y-30.866
X74.216Y-33.406
X74.216Y-35.946
X74.216Y-38.486
X74.216Y-41.026
X74.216Y-43.566
X74.216Y-46.106
X74.216Y-48.646
X74.216Y-51.186
X74.216Y-53.726
X74.216Y-56.266
X74.216Y-58.806
X74.216Y-61.346
X74.216Y-63.886
X74.216Y-66.426
X74.216Y-68.966
X74.216Y-71.506
X74.216Y-74.046
X74.216Y-76.586
X74.216Y-79.126
X74.216Y-81.666
X74.216Y-84.206
X74.216Y-86.746
X74.216Y-89.286
X74.216Y-91.826
X74.216Y-94.366
X74.216Y-96.906
X76.756Y-2.926
X76.756Y-5.466
X76.756Y-8.006
X76.756Y-10.546
X76.756Y-13.086
X76.756Y-15.626
X76.756Y-18.166
X76.756Y-20.706
X76.756Y-23.246
X76.756Y-25.786
X76.756Y-28.326
X76.756Y-30.866
X76.756Y-33.406
X76.756Y-35.946
X76.756Y-38.486
X76.756Y-41.026
X76.756Y-43.566
X76.756Y-46.106
X76.756Y-48.646
X76.756Y-51.186
X76.756Y-53.726
X76.756Y-56.266
X76.756Y-58.806
X76.756Y-61.346
X76.756Y-63.886
X76.756Y-66.426
X76.756Y-68.966
X76.756Y-71.506
X76.756Y-74.046
X76.756Y-76.586
X76.756Y-79.126
X76.756Y-81.666
X76.756Y-84.206
X76.756Y-86.746
X76.756Y-89.286
X76.756Y-91.826
X76.756Y-94.366
X76.756Y-96.906
X79.296Y-2.926
X79.296Y-5.466
X79.296Y-8.006
X79.296Y-10.546
X79.296Y-13.086
X79.296Y-15.626
X79.296Y-18.166
X79.296Y-20.706
X79.296Y-23.246
X79.296Y-25.786
X79.296Y-28.326
X79.296Y-30.866
X79.296Y-33.406
X79.296Y-35.946
X79.296Y-38.486
X79.296Y-41.026
X79.296Y-43.566
X79.296Y-46.106
X79.296Y-48.646
X79.296Y-51.186
X79.296Y-53.726
X79.296Y-56.266
X79.296Y-58.806
X79.296Y-61.346
X79.296Y-63.886
X79.296Y-66.426
X79.296Y-68.966
X79.296Y-71.506
X79.296Y-74.046
X79.296Y-76.586
X79.296Y-79.126
X79.296Y-81.666
X79.296Y-84.206
X79.296Y-86.746
X79.296Y-89.286
X79.296Y-91.826
X79.296Y-94.366
X79.296Y-96.906
X81.836Y-2.926
X81.836Y-5.466
X81.836Y-8.006
X81.836Y-10.546
X81.836Y-13.086
X81.836Y-15.626
X81.836Y-18.166
X81.836Y-20.706
X81.836Y-23.246
X81.836Y-25.786
X81.836Y-28.326
X81.836Y-30.866
X81.836Y-33.406
X81.836Y-35.946
X81.836Y-38.486
X81.836Y-41.026
X81.836Y-43.566
X81.836Y-46.106
X81.836Y-48.646
X81.836Y-51.186
X81.836Y-53.726
X81.836Y-56.266
X81.836Y-58.806
X81.836Y-61.346
X81.836Y-63.886
X81.836Y-66.426
X81.836Y-68.966
X81.836Y-71.506
X81.836Y-74.046
X81.836Y-76.586
X81.836Y-79.126
X81.836Y-81.666
X81.836Y-84.206
X81.836Y-86.746
X81.836Y-89.286
X81.836Y-91.826
X81.836Y-94.366
X81.836Y-96.906
X84.376Y-2.926
X84.376Y-5.466
X84.376Y-8.006
X84.376Y-10.546
X84.376Y-13.086
X84.376Y-15.626
X84.376Y-18.166
X84.376Y-20.706
X84.376Y-23.246
X84.376Y-25.786
X84.376Y-28.326
X84.376Y-30.866
X84.376Y-33.406
X84.376Y-35.946
X84.376Y-38.486
X84.376Y-41.026
X84.376Y-43.566
X84.376Y-46.106
X84.376Y-48.646
X84.376Y-51.186
X84.376Y-53.726
X84.376Y-56.266
X84.376Y-58.806
X84.376Y-61.346
X84.376Y-63.886
X84.376Y-66.426
X84.376Y-68.966
X84.376Y-71.506
X84.376Y-74.046
X84.376Y-76.586
X84.376Y-79.126
X84.376Y-81.666
X84.376Y-84.206
X84.376Y-86.746
X84.376Y-89.286
X84.376Y-91.826
X84.376Y-94.366
X84.376Y-96.906
X86.916Y-10.546
X86.916Y-13.086
X86.916Y-15.626
X86.916Y-18.166
X86.916Y-20.706
X86.916Y-23.246
X86.916Y-25.786
X86.916Y-28.326
X86.916Y-30.866
X86.916Y-33.406
X86.916Y-35.946
X86.916Y-38.486
X86.916Y-41.026
X86.916Y-43.566
X86.916Y-46.106
X86.916Y-48.646
X86.916Y-51.186
X86.916Y-53.726
X86.916Y-56.266
X86.916Y-58.806
X86.916Y-61.346
X86.916Y-63.886
X86.916Y-66.426
X86.916Y-68.966
X86.916Y-71.506
X86.916Y-74.046
X86.916Y-76.586
X86.916Y-79.126
X86.916Y-81.666
X86.916Y-84.206
X86.916Y-86.746
X86.916Y-89.286
X89.456Y-10.546
X89.456Y-13.086
X89.456Y-15.626
X89.456Y-18.166
X89.456Y-20.706
X89.456Y-23.246
X89.456Y-25.786
X89.456Y-28.326
X89.456Y-30.866
X89.456Y-33.406
X89.456Y-35.946
X89.456Y-38.486
X89.456Y-41.026
X89.456Y-43.566
X89.456Y-46.106
X89.456Y-48.646
X89.456Y-51.186
X89.456Y-53.726
X89.456Y-56.266
X89.456Y-58.806
X89.456Y-61.346
X89.456Y-63.886
X89.456Y-66.426
X89.456Y-68.966
X89.456Y-71.506
X89.456Y-74.046
X89.456Y-76.586
X89.456Y-79.126
X89.456Y-81.666
X89.456Y-84.206
X89.456Y-86.746
X89.456Y-89.286
X91.996Y-10.546
X91.996Y-13.086
X91.996Y-15.626
X91.996Y-18.166
X91.996Y-20.706
X91.996Y-23.246
X91.996Y-25.786
X91.996Y-28.326
X91.996Y-30.866
X91.996Y-33.406
X91.996Y-35.946
X91.996Y-38.486
X91.996Y-41.026
X91.996Y-43.566
X91.996Y-46.106
X91.996Y-48.646
X91.996Y-51.186
X91.996Y-53.726
X91.996Y-56.266
X91.996Y-58.806
X91.996Y-61.346
X91.996Y-63.886
X91.996Y-66.426
X91.996Y-68.966
X91.996Y-71.506
X91.996Y-74.046
X91.996Y-76.586
X91.996Y-79.126
X91.996Y-81.666
X91.996Y-84.206
X91.996Y-86.746
X91.996Y-89.286
T2
X0.556Y-5.466
X0.556Y-94.366
X89.456Y-5.466
X89.456Y-94.366
T0
M30
